%TF.GenerationSoftware,KiCad,Pcbnew,9.0.6*%
%TF.CreationDate,2026-01-29T18:16:48-08:00*%
%TF.ProjectId,Lab3,4c616233-2e6b-4696-9361-645f70636258,rev?*%
%TF.SameCoordinates,Original*%
%TF.FileFunction,Legend,Top*%
%TF.FilePolarity,Positive*%
%FSLAX46Y46*%
G04 Gerber Fmt 4.6, Leading zero omitted, Abs format (unit mm)*
G04 Created by KiCad (PCBNEW 9.0.6) date 2026-01-29 18:16:48*
%MOMM*%
%LPD*%
G01*
G04 APERTURE LIST*
%ADD10C,0.150000*%
%ADD11C,0.120000*%
%ADD12C,0.127000*%
%ADD13C,0.200000*%
G04 APERTURE END LIST*
D10*
X170420833Y-60484819D02*
X170087500Y-60008628D01*
X169849405Y-60484819D02*
X169849405Y-59484819D01*
X169849405Y-59484819D02*
X170230357Y-59484819D01*
X170230357Y-59484819D02*
X170325595Y-59532438D01*
X170325595Y-59532438D02*
X170373214Y-59580057D01*
X170373214Y-59580057D02*
X170420833Y-59675295D01*
X170420833Y-59675295D02*
X170420833Y-59818152D01*
X170420833Y-59818152D02*
X170373214Y-59913390D01*
X170373214Y-59913390D02*
X170325595Y-59961009D01*
X170325595Y-59961009D02*
X170230357Y-60008628D01*
X170230357Y-60008628D02*
X169849405Y-60008628D01*
X170754167Y-59484819D02*
X171373214Y-59484819D01*
X171373214Y-59484819D02*
X171039881Y-59865771D01*
X171039881Y-59865771D02*
X171182738Y-59865771D01*
X171182738Y-59865771D02*
X171277976Y-59913390D01*
X171277976Y-59913390D02*
X171325595Y-59961009D01*
X171325595Y-59961009D02*
X171373214Y-60056247D01*
X171373214Y-60056247D02*
X171373214Y-60294342D01*
X171373214Y-60294342D02*
X171325595Y-60389580D01*
X171325595Y-60389580D02*
X171277976Y-60437200D01*
X171277976Y-60437200D02*
X171182738Y-60484819D01*
X171182738Y-60484819D02*
X170897024Y-60484819D01*
X170897024Y-60484819D02*
X170801786Y-60437200D01*
X170801786Y-60437200D02*
X170754167Y-60389580D01*
X177884819Y-67714166D02*
X177408628Y-68047499D01*
X177884819Y-68285594D02*
X176884819Y-68285594D01*
X176884819Y-68285594D02*
X176884819Y-67904642D01*
X176884819Y-67904642D02*
X176932438Y-67809404D01*
X176932438Y-67809404D02*
X176980057Y-67761785D01*
X176980057Y-67761785D02*
X177075295Y-67714166D01*
X177075295Y-67714166D02*
X177218152Y-67714166D01*
X177218152Y-67714166D02*
X177313390Y-67761785D01*
X177313390Y-67761785D02*
X177361009Y-67809404D01*
X177361009Y-67809404D02*
X177408628Y-67904642D01*
X177408628Y-67904642D02*
X177408628Y-68285594D01*
X176884819Y-66809404D02*
X176884819Y-67285594D01*
X176884819Y-67285594D02*
X177361009Y-67333213D01*
X177361009Y-67333213D02*
X177313390Y-67285594D01*
X177313390Y-67285594D02*
X177265771Y-67190356D01*
X177265771Y-67190356D02*
X177265771Y-66952261D01*
X177265771Y-66952261D02*
X177313390Y-66857023D01*
X177313390Y-66857023D02*
X177361009Y-66809404D01*
X177361009Y-66809404D02*
X177456247Y-66761785D01*
X177456247Y-66761785D02*
X177694342Y-66761785D01*
X177694342Y-66761785D02*
X177789580Y-66809404D01*
X177789580Y-66809404D02*
X177837200Y-66857023D01*
X177837200Y-66857023D02*
X177884819Y-66952261D01*
X177884819Y-66952261D02*
X177884819Y-67190356D01*
X177884819Y-67190356D02*
X177837200Y-67285594D01*
X177837200Y-67285594D02*
X177789580Y-67333213D01*
X175024819Y-73626666D02*
X174548628Y-73959999D01*
X175024819Y-74198094D02*
X174024819Y-74198094D01*
X174024819Y-74198094D02*
X174024819Y-73817142D01*
X174024819Y-73817142D02*
X174072438Y-73721904D01*
X174072438Y-73721904D02*
X174120057Y-73674285D01*
X174120057Y-73674285D02*
X174215295Y-73626666D01*
X174215295Y-73626666D02*
X174358152Y-73626666D01*
X174358152Y-73626666D02*
X174453390Y-73674285D01*
X174453390Y-73674285D02*
X174501009Y-73721904D01*
X174501009Y-73721904D02*
X174548628Y-73817142D01*
X174548628Y-73817142D02*
X174548628Y-74198094D01*
X175024819Y-72674285D02*
X175024819Y-73245713D01*
X175024819Y-72959999D02*
X174024819Y-72959999D01*
X174024819Y-72959999D02*
X174167676Y-73055237D01*
X174167676Y-73055237D02*
X174262914Y-73150475D01*
X174262914Y-73150475D02*
X174310533Y-73245713D01*
X173745833Y-77984819D02*
X173412500Y-77508628D01*
X173174405Y-77984819D02*
X173174405Y-76984819D01*
X173174405Y-76984819D02*
X173555357Y-76984819D01*
X173555357Y-76984819D02*
X173650595Y-77032438D01*
X173650595Y-77032438D02*
X173698214Y-77080057D01*
X173698214Y-77080057D02*
X173745833Y-77175295D01*
X173745833Y-77175295D02*
X173745833Y-77318152D01*
X173745833Y-77318152D02*
X173698214Y-77413390D01*
X173698214Y-77413390D02*
X173650595Y-77461009D01*
X173650595Y-77461009D02*
X173555357Y-77508628D01*
X173555357Y-77508628D02*
X173174405Y-77508628D01*
X174602976Y-76984819D02*
X174412500Y-76984819D01*
X174412500Y-76984819D02*
X174317262Y-77032438D01*
X174317262Y-77032438D02*
X174269643Y-77080057D01*
X174269643Y-77080057D02*
X174174405Y-77222914D01*
X174174405Y-77222914D02*
X174126786Y-77413390D01*
X174126786Y-77413390D02*
X174126786Y-77794342D01*
X174126786Y-77794342D02*
X174174405Y-77889580D01*
X174174405Y-77889580D02*
X174222024Y-77937200D01*
X174222024Y-77937200D02*
X174317262Y-77984819D01*
X174317262Y-77984819D02*
X174507738Y-77984819D01*
X174507738Y-77984819D02*
X174602976Y-77937200D01*
X174602976Y-77937200D02*
X174650595Y-77889580D01*
X174650595Y-77889580D02*
X174698214Y-77794342D01*
X174698214Y-77794342D02*
X174698214Y-77556247D01*
X174698214Y-77556247D02*
X174650595Y-77461009D01*
X174650595Y-77461009D02*
X174602976Y-77413390D01*
X174602976Y-77413390D02*
X174507738Y-77365771D01*
X174507738Y-77365771D02*
X174317262Y-77365771D01*
X174317262Y-77365771D02*
X174222024Y-77413390D01*
X174222024Y-77413390D02*
X174174405Y-77461009D01*
X174174405Y-77461009D02*
X174126786Y-77556247D01*
X164429580Y-66989166D02*
X164477200Y-67036785D01*
X164477200Y-67036785D02*
X164524819Y-67179642D01*
X164524819Y-67179642D02*
X164524819Y-67274880D01*
X164524819Y-67274880D02*
X164477200Y-67417737D01*
X164477200Y-67417737D02*
X164381961Y-67512975D01*
X164381961Y-67512975D02*
X164286723Y-67560594D01*
X164286723Y-67560594D02*
X164096247Y-67608213D01*
X164096247Y-67608213D02*
X163953390Y-67608213D01*
X163953390Y-67608213D02*
X163762914Y-67560594D01*
X163762914Y-67560594D02*
X163667676Y-67512975D01*
X163667676Y-67512975D02*
X163572438Y-67417737D01*
X163572438Y-67417737D02*
X163524819Y-67274880D01*
X163524819Y-67274880D02*
X163524819Y-67179642D01*
X163524819Y-67179642D02*
X163572438Y-67036785D01*
X163572438Y-67036785D02*
X163620057Y-66989166D01*
X163620057Y-66608213D02*
X163572438Y-66560594D01*
X163572438Y-66560594D02*
X163524819Y-66465356D01*
X163524819Y-66465356D02*
X163524819Y-66227261D01*
X163524819Y-66227261D02*
X163572438Y-66132023D01*
X163572438Y-66132023D02*
X163620057Y-66084404D01*
X163620057Y-66084404D02*
X163715295Y-66036785D01*
X163715295Y-66036785D02*
X163810533Y-66036785D01*
X163810533Y-66036785D02*
X163953390Y-66084404D01*
X163953390Y-66084404D02*
X164524819Y-66655832D01*
X164524819Y-66655832D02*
X164524819Y-66036785D01*
X179666666Y-71764819D02*
X179666666Y-72479104D01*
X179666666Y-72479104D02*
X179619047Y-72621961D01*
X179619047Y-72621961D02*
X179523809Y-72717200D01*
X179523809Y-72717200D02*
X179380952Y-72764819D01*
X179380952Y-72764819D02*
X179285714Y-72764819D01*
X180666666Y-72764819D02*
X180095238Y-72764819D01*
X180380952Y-72764819D02*
X180380952Y-71764819D01*
X180380952Y-71764819D02*
X180285714Y-71907676D01*
X180285714Y-71907676D02*
X180190476Y-72002914D01*
X180190476Y-72002914D02*
X180095238Y-72050533D01*
X175420833Y-60484819D02*
X175087500Y-60008628D01*
X174849405Y-60484819D02*
X174849405Y-59484819D01*
X174849405Y-59484819D02*
X175230357Y-59484819D01*
X175230357Y-59484819D02*
X175325595Y-59532438D01*
X175325595Y-59532438D02*
X175373214Y-59580057D01*
X175373214Y-59580057D02*
X175420833Y-59675295D01*
X175420833Y-59675295D02*
X175420833Y-59818152D01*
X175420833Y-59818152D02*
X175373214Y-59913390D01*
X175373214Y-59913390D02*
X175325595Y-59961009D01*
X175325595Y-59961009D02*
X175230357Y-60008628D01*
X175230357Y-60008628D02*
X174849405Y-60008628D01*
X176277976Y-59818152D02*
X176277976Y-60484819D01*
X176039881Y-59437200D02*
X175801786Y-60151485D01*
X175801786Y-60151485D02*
X176420833Y-60151485D01*
X181884819Y-78823094D02*
X180884819Y-78823094D01*
X180884819Y-78823094D02*
X180884819Y-78584999D01*
X180884819Y-78584999D02*
X180932438Y-78442142D01*
X180932438Y-78442142D02*
X181027676Y-78346904D01*
X181027676Y-78346904D02*
X181122914Y-78299285D01*
X181122914Y-78299285D02*
X181313390Y-78251666D01*
X181313390Y-78251666D02*
X181456247Y-78251666D01*
X181456247Y-78251666D02*
X181646723Y-78299285D01*
X181646723Y-78299285D02*
X181741961Y-78346904D01*
X181741961Y-78346904D02*
X181837200Y-78442142D01*
X181837200Y-78442142D02*
X181884819Y-78584999D01*
X181884819Y-78584999D02*
X181884819Y-78823094D01*
X181884819Y-77299285D02*
X181884819Y-77870713D01*
X181884819Y-77584999D02*
X180884819Y-77584999D01*
X180884819Y-77584999D02*
X181027676Y-77680237D01*
X181027676Y-77680237D02*
X181122914Y-77775475D01*
X181122914Y-77775475D02*
X181170533Y-77870713D01*
X166920833Y-80844819D02*
X166587500Y-80368628D01*
X166349405Y-80844819D02*
X166349405Y-79844819D01*
X166349405Y-79844819D02*
X166730357Y-79844819D01*
X166730357Y-79844819D02*
X166825595Y-79892438D01*
X166825595Y-79892438D02*
X166873214Y-79940057D01*
X166873214Y-79940057D02*
X166920833Y-80035295D01*
X166920833Y-80035295D02*
X166920833Y-80178152D01*
X166920833Y-80178152D02*
X166873214Y-80273390D01*
X166873214Y-80273390D02*
X166825595Y-80321009D01*
X166825595Y-80321009D02*
X166730357Y-80368628D01*
X166730357Y-80368628D02*
X166349405Y-80368628D01*
X167301786Y-79940057D02*
X167349405Y-79892438D01*
X167349405Y-79892438D02*
X167444643Y-79844819D01*
X167444643Y-79844819D02*
X167682738Y-79844819D01*
X167682738Y-79844819D02*
X167777976Y-79892438D01*
X167777976Y-79892438D02*
X167825595Y-79940057D01*
X167825595Y-79940057D02*
X167873214Y-80035295D01*
X167873214Y-80035295D02*
X167873214Y-80130533D01*
X167873214Y-80130533D02*
X167825595Y-80273390D01*
X167825595Y-80273390D02*
X167254167Y-80844819D01*
X167254167Y-80844819D02*
X167873214Y-80844819D01*
X167289580Y-61989166D02*
X167337200Y-62036785D01*
X167337200Y-62036785D02*
X167384819Y-62179642D01*
X167384819Y-62179642D02*
X167384819Y-62274880D01*
X167384819Y-62274880D02*
X167337200Y-62417737D01*
X167337200Y-62417737D02*
X167241961Y-62512975D01*
X167241961Y-62512975D02*
X167146723Y-62560594D01*
X167146723Y-62560594D02*
X166956247Y-62608213D01*
X166956247Y-62608213D02*
X166813390Y-62608213D01*
X166813390Y-62608213D02*
X166622914Y-62560594D01*
X166622914Y-62560594D02*
X166527676Y-62512975D01*
X166527676Y-62512975D02*
X166432438Y-62417737D01*
X166432438Y-62417737D02*
X166384819Y-62274880D01*
X166384819Y-62274880D02*
X166384819Y-62179642D01*
X166384819Y-62179642D02*
X166432438Y-62036785D01*
X166432438Y-62036785D02*
X166480057Y-61989166D01*
X166384819Y-61655832D02*
X166384819Y-61036785D01*
X166384819Y-61036785D02*
X166765771Y-61370118D01*
X166765771Y-61370118D02*
X166765771Y-61227261D01*
X166765771Y-61227261D02*
X166813390Y-61132023D01*
X166813390Y-61132023D02*
X166861009Y-61084404D01*
X166861009Y-61084404D02*
X166956247Y-61036785D01*
X166956247Y-61036785D02*
X167194342Y-61036785D01*
X167194342Y-61036785D02*
X167289580Y-61084404D01*
X167289580Y-61084404D02*
X167337200Y-61132023D01*
X167337200Y-61132023D02*
X167384819Y-61227261D01*
X167384819Y-61227261D02*
X167384819Y-61512975D01*
X167384819Y-61512975D02*
X167337200Y-61608213D01*
X167337200Y-61608213D02*
X167289580Y-61655832D01*
X169888095Y-64014819D02*
X169888095Y-64824342D01*
X169888095Y-64824342D02*
X169935714Y-64919580D01*
X169935714Y-64919580D02*
X169983333Y-64967200D01*
X169983333Y-64967200D02*
X170078571Y-65014819D01*
X170078571Y-65014819D02*
X170269047Y-65014819D01*
X170269047Y-65014819D02*
X170364285Y-64967200D01*
X170364285Y-64967200D02*
X170411904Y-64919580D01*
X170411904Y-64919580D02*
X170459523Y-64824342D01*
X170459523Y-64824342D02*
X170459523Y-64014819D01*
X170888095Y-64110057D02*
X170935714Y-64062438D01*
X170935714Y-64062438D02*
X171030952Y-64014819D01*
X171030952Y-64014819D02*
X171269047Y-64014819D01*
X171269047Y-64014819D02*
X171364285Y-64062438D01*
X171364285Y-64062438D02*
X171411904Y-64110057D01*
X171411904Y-64110057D02*
X171459523Y-64205295D01*
X171459523Y-64205295D02*
X171459523Y-64300533D01*
X171459523Y-64300533D02*
X171411904Y-64443390D01*
X171411904Y-64443390D02*
X170840476Y-65014819D01*
X170840476Y-65014819D02*
X171459523Y-65014819D01*
X167789580Y-73989166D02*
X167837200Y-74036785D01*
X167837200Y-74036785D02*
X167884819Y-74179642D01*
X167884819Y-74179642D02*
X167884819Y-74274880D01*
X167884819Y-74274880D02*
X167837200Y-74417737D01*
X167837200Y-74417737D02*
X167741961Y-74512975D01*
X167741961Y-74512975D02*
X167646723Y-74560594D01*
X167646723Y-74560594D02*
X167456247Y-74608213D01*
X167456247Y-74608213D02*
X167313390Y-74608213D01*
X167313390Y-74608213D02*
X167122914Y-74560594D01*
X167122914Y-74560594D02*
X167027676Y-74512975D01*
X167027676Y-74512975D02*
X166932438Y-74417737D01*
X166932438Y-74417737D02*
X166884819Y-74274880D01*
X166884819Y-74274880D02*
X166884819Y-74179642D01*
X166884819Y-74179642D02*
X166932438Y-74036785D01*
X166932438Y-74036785D02*
X166980057Y-73989166D01*
X167884819Y-73036785D02*
X167884819Y-73608213D01*
X167884819Y-73322499D02*
X166884819Y-73322499D01*
X166884819Y-73322499D02*
X167027676Y-73417737D01*
X167027676Y-73417737D02*
X167122914Y-73512975D01*
X167122914Y-73512975D02*
X167170533Y-73608213D01*
X170919380Y-71476876D02*
X170919380Y-71994971D01*
X170919380Y-71994971D02*
X170949857Y-72055923D01*
X170949857Y-72055923D02*
X170980333Y-72086400D01*
X170980333Y-72086400D02*
X171041285Y-72116876D01*
X171041285Y-72116876D02*
X171163190Y-72116876D01*
X171163190Y-72116876D02*
X171224142Y-72086400D01*
X171224142Y-72086400D02*
X171254619Y-72055923D01*
X171254619Y-72055923D02*
X171285095Y-71994971D01*
X171285095Y-71994971D02*
X171285095Y-71476876D01*
X171925095Y-72116876D02*
X171559380Y-72116876D01*
X171742237Y-72116876D02*
X171742237Y-71476876D01*
X171742237Y-71476876D02*
X171681285Y-71568304D01*
X171681285Y-71568304D02*
X171620333Y-71629257D01*
X171620333Y-71629257D02*
X171559380Y-71659733D01*
D11*
%TO.C,R3*%
X170332776Y-60937500D02*
X170842224Y-60937500D01*
X170332776Y-61982500D02*
X170842224Y-61982500D01*
%TO.C,R5*%
X175477500Y-67292776D02*
X175477500Y-67802224D01*
X176522500Y-67292776D02*
X176522500Y-67802224D01*
%TO.C,R1*%
X175477500Y-73714724D02*
X175477500Y-73205276D01*
X176522500Y-73714724D02*
X176522500Y-73205276D01*
%TO.C,R6*%
X173657776Y-78437500D02*
X174167224Y-78437500D01*
X173657776Y-79482500D02*
X174167224Y-79482500D01*
%TO.C,C2*%
X164990000Y-66968767D02*
X164990000Y-66676233D01*
X166010000Y-66968767D02*
X166010000Y-66676233D01*
%TO.C,J1*%
X178670000Y-68270000D02*
X178670000Y-60590000D01*
X178670000Y-70870000D02*
X178670000Y-69540000D01*
X180000000Y-70870000D02*
X178670000Y-70870000D01*
X181330000Y-60590000D02*
X178670000Y-60590000D01*
X181330000Y-68270000D02*
X178670000Y-68270000D01*
X181330000Y-68270000D02*
X181330000Y-60590000D01*
%TO.C,R4*%
X175332776Y-60937500D02*
X175842224Y-60937500D01*
X175332776Y-61982500D02*
X175842224Y-61982500D01*
%TO.C,D1*%
X179265000Y-76425000D02*
X179265000Y-78885000D01*
X180735000Y-76425000D02*
X179265000Y-76425000D01*
X180735000Y-78885000D02*
X180735000Y-76425000D01*
%TO.C,R2*%
X167342224Y-78437500D02*
X166832776Y-78437500D01*
X167342224Y-79482500D02*
X166832776Y-79482500D01*
%TO.C,C3*%
X164990000Y-61676233D02*
X164990000Y-61968767D01*
X166010000Y-61676233D02*
X166010000Y-61968767D01*
%TO.C,U2*%
X169750000Y-69070000D02*
X171550000Y-69070000D01*
X170750000Y-65850000D02*
X169950000Y-65850000D01*
X170750000Y-65850000D02*
X171550000Y-65850000D01*
X169450000Y-65900000D02*
X169210000Y-65570000D01*
X169690000Y-65570000D01*
X169450000Y-65900000D01*
G36*
X169450000Y-65900000D02*
G01*
X169210000Y-65570000D01*
X169690000Y-65570000D01*
X169450000Y-65900000D01*
G37*
%TO.C,C1*%
X165490000Y-73676233D02*
X165490000Y-73968767D01*
X166510000Y-73676233D02*
X166510000Y-73968767D01*
D12*
%TO.C,U1*%
X170165000Y-73025000D02*
X170165000Y-73342500D01*
X170165000Y-73025000D02*
X170482500Y-73025000D01*
X170165000Y-74295000D02*
X170165000Y-73977500D01*
X170165000Y-74295000D02*
X170482500Y-74295000D01*
X171435000Y-73025000D02*
X171117500Y-73025000D01*
X171435000Y-73025000D02*
X171435000Y-73342500D01*
X171435000Y-74295000D02*
X171117500Y-74295000D01*
X171435000Y-74295000D02*
X171435000Y-73977500D01*
D13*
X169975000Y-73460000D02*
G75*
G02*
X169775000Y-73460000I-100000J0D01*
G01*
X169775000Y-73460000D02*
G75*
G02*
X169975000Y-73460000I100000J0D01*
G01*
%TD*%
M02*
