%TF.GenerationSoftware,KiCad,Pcbnew,9.0.6*%
%TF.CreationDate,2026-01-29T18:16:48-08:00*%
%TF.ProjectId,Lab3,4c616233-2e6b-4696-9361-645f70636258,rev?*%
%TF.SameCoordinates,Original*%
%TF.FileFunction,Copper,L1,Top*%
%TF.FilePolarity,Positive*%
%FSLAX46Y46*%
G04 Gerber Fmt 4.6, Leading zero omitted, Abs format (unit mm)*
G04 Created by KiCad (PCBNEW 9.0.6) date 2026-01-29 18:16:48*
%MOMM*%
%LPD*%
G01*
G04 APERTURE LIST*
G04 Aperture macros list*
%AMRoundRect*
0 Rectangle with rounded corners*
0 $1 Rounding radius*
0 $2 $3 $4 $5 $6 $7 $8 $9 X,Y pos of 4 corners*
0 Add a 4 corners polygon primitive as box body*
4,1,4,$2,$3,$4,$5,$6,$7,$8,$9,$2,$3,0*
0 Add four circle primitives for the rounded corners*
1,1,$1+$1,$2,$3*
1,1,$1+$1,$4,$5*
1,1,$1+$1,$6,$7*
1,1,$1+$1,$8,$9*
0 Add four rect primitives between the rounded corners*
20,1,$1+$1,$2,$3,$4,$5,0*
20,1,$1+$1,$4,$5,$6,$7,0*
20,1,$1+$1,$6,$7,$8,$9,0*
20,1,$1+$1,$8,$9,$2,$3,0*%
G04 Aperture macros list end*
%TA.AperFunction,SMDPad,CuDef*%
%ADD10RoundRect,0.237500X-0.250000X-0.237500X0.250000X-0.237500X0.250000X0.237500X-0.250000X0.237500X0*%
%TD*%
%TA.AperFunction,SMDPad,CuDef*%
%ADD11RoundRect,0.237500X-0.237500X0.250000X-0.237500X-0.250000X0.237500X-0.250000X0.237500X0.250000X0*%
%TD*%
%TA.AperFunction,SMDPad,CuDef*%
%ADD12RoundRect,0.237500X0.237500X-0.250000X0.237500X0.250000X-0.237500X0.250000X-0.237500X-0.250000X0*%
%TD*%
%TA.AperFunction,SMDPad,CuDef*%
%ADD13RoundRect,0.237500X0.237500X-0.300000X0.237500X0.300000X-0.237500X0.300000X-0.237500X-0.300000X0*%
%TD*%
%TA.AperFunction,ComponentPad*%
%ADD14R,1.700000X1.700000*%
%TD*%
%TA.AperFunction,ComponentPad*%
%ADD15C,1.700000*%
%TD*%
%TA.AperFunction,SMDPad,CuDef*%
%ADD16RoundRect,0.237500X-0.237500X0.287500X-0.237500X-0.287500X0.237500X-0.287500X0.237500X0.287500X0*%
%TD*%
%TA.AperFunction,SMDPad,CuDef*%
%ADD17RoundRect,0.237500X0.250000X0.237500X-0.250000X0.237500X-0.250000X-0.237500X0.250000X-0.237500X0*%
%TD*%
%TA.AperFunction,SMDPad,CuDef*%
%ADD18RoundRect,0.237500X-0.237500X0.300000X-0.237500X-0.300000X0.237500X-0.300000X0.237500X0.300000X0*%
%TD*%
%TA.AperFunction,SMDPad,CuDef*%
%ADD19RoundRect,0.162500X-0.617500X-0.162500X0.617500X-0.162500X0.617500X0.162500X-0.617500X0.162500X0*%
%TD*%
%TA.AperFunction,SMDPad,CuDef*%
%ADD20C,0.230000*%
%TD*%
%TA.AperFunction,ViaPad*%
%ADD21C,0.600000*%
%TD*%
%TA.AperFunction,Conductor*%
%ADD22C,0.200000*%
%TD*%
G04 APERTURE END LIST*
D10*
%TO.P,R3,1*%
%TO.N,Net-(U2-ERR)*%
X169675000Y-61460000D03*
%TO.P,R3,2*%
%TO.N,+3V3*%
X171500000Y-61460000D03*
%TD*%
D11*
%TO.P,R5,1*%
%TO.N,Net-(U2-FB)*%
X176000000Y-66635000D03*
%TO.P,R5,2*%
%TO.N,GND*%
X176000000Y-68460000D03*
%TD*%
D12*
%TO.P,R1,1*%
%TO.N,+3V3*%
X176000000Y-74372500D03*
%TO.P,R1,2*%
%TO.N,Net-(U1-SCL)*%
X176000000Y-72547500D03*
%TD*%
D10*
%TO.P,R6,1*%
%TO.N,+3V3*%
X173000000Y-78960000D03*
%TO.P,R6,2*%
%TO.N,Net-(D1-A)*%
X174825000Y-78960000D03*
%TD*%
D13*
%TO.P,C2,1*%
%TO.N,VCC*%
X165500000Y-67685000D03*
%TO.P,C2,2*%
%TO.N,GND*%
X165500000Y-65960000D03*
%TD*%
D14*
%TO.P,J1,1,Pin_1*%
%TO.N,GND*%
X180000000Y-69540000D03*
D15*
%TO.P,J1,2,Pin_2*%
%TO.N,unconnected-(J1-Pin_2-Pad2)*%
X180000000Y-67000000D03*
%TO.P,J1,3,Pin_3*%
%TO.N,unconnected-(J1-Pin_3-Pad3)*%
X180000000Y-64460000D03*
%TO.P,J1,4,Pin_4*%
%TO.N,VCC*%
X180000000Y-61920000D03*
%TD*%
D10*
%TO.P,R4,1*%
%TO.N,+3V3*%
X174675000Y-61460000D03*
%TO.P,R4,2*%
%TO.N,Net-(U2-FB)*%
X176500000Y-61460000D03*
%TD*%
D16*
%TO.P,D1,1,K*%
%TO.N,GND*%
X180000000Y-77210000D03*
%TO.P,D1,2,A*%
%TO.N,Net-(D1-A)*%
X180000000Y-78960000D03*
%TD*%
D17*
%TO.P,R2,1*%
%TO.N,Net-(U1-SDA)*%
X168000000Y-78960000D03*
%TO.P,R2,2*%
%TO.N,+3V3*%
X166175000Y-78960000D03*
%TD*%
D18*
%TO.P,C3,1*%
%TO.N,+3V3*%
X165500000Y-60960000D03*
%TO.P,C3,2*%
%TO.N,GND*%
X165500000Y-62685000D03*
%TD*%
D19*
%TO.P,U2,1,OUT*%
%TO.N,+3V3*%
X169300000Y-66510000D03*
%TO.P,U2,2,IN*%
%TO.N,VCC*%
X169300000Y-67460000D03*
%TO.P,U2,3,ERR*%
%TO.N,Net-(U2-ERR)*%
X169300000Y-68410000D03*
%TO.P,U2,4,GND*%
%TO.N,GND*%
X172000000Y-68410000D03*
%TO.P,U2,5,FB*%
%TO.N,Net-(U2-FB)*%
X172000000Y-67460000D03*
%TO.P,U2,6,SD*%
%TO.N,VCC*%
X172000000Y-66510000D03*
%TD*%
D18*
%TO.P,C1,1*%
%TO.N,GND*%
X166000000Y-72960000D03*
%TO.P,C1,2*%
%TO.N,+3V3*%
X166000000Y-74685000D03*
%TD*%
D20*
%TO.P,U1,A1,VSA*%
%TO.N,GND*%
X170600000Y-73460000D03*
%TO.P,U1,A2,SCL*%
%TO.N,Net-(U1-SCL)*%
X171000000Y-73460000D03*
%TO.P,U1,B1,VDD*%
%TO.N,+3V3*%
X170600000Y-73860000D03*
%TO.P,U1,B2,SDA*%
%TO.N,Net-(U1-SDA)*%
X171000000Y-73860000D03*
%TD*%
D21*
%TO.N,+3V3*%
X173000000Y-63460000D03*
X168500000Y-71960000D03*
X173000000Y-73960000D03*
%TO.N,VCC*%
X174000000Y-64460000D03*
X177500000Y-63460000D03*
%TO.N,Net-(U2-ERR)*%
X167500000Y-68960000D03*
X167500000Y-65960000D03*
%TD*%
D22*
%TO.N,+3V3*%
X171500000Y-64310000D02*
X169300000Y-66510000D01*
X165275000Y-74685000D02*
X164500000Y-75460000D01*
X170500000Y-78960000D02*
X173000000Y-78960000D01*
X165000000Y-80460000D02*
X169000000Y-80460000D01*
X168500000Y-71960000D02*
X168500000Y-74685000D01*
X164500000Y-75460000D02*
X164500000Y-79960000D01*
X166000000Y-74685000D02*
X165275000Y-74685000D01*
X173912500Y-74372500D02*
X176000000Y-74372500D01*
X171500000Y-63460000D02*
X171500000Y-64310000D01*
X171500000Y-63460000D02*
X173000000Y-63460000D01*
X168500000Y-74685000D02*
X169775000Y-74685000D01*
X170000000Y-59960000D02*
X166500000Y-59960000D01*
X171500000Y-61460000D02*
X171500000Y-63460000D01*
X164500000Y-79960000D02*
X165000000Y-80460000D01*
X173000000Y-73960000D02*
X173500000Y-73960000D01*
X166000000Y-75460000D02*
X166175000Y-75635000D01*
X166175000Y-75635000D02*
X166175000Y-78960000D01*
X166000000Y-74685000D02*
X168500000Y-74685000D01*
X174675000Y-61460000D02*
X171500000Y-61460000D01*
X173500000Y-73960000D02*
X173912500Y-74372500D01*
X169775000Y-74685000D02*
X170584000Y-73876000D01*
X166000000Y-74685000D02*
X166000000Y-75460000D01*
X169000000Y-80460000D02*
X170500000Y-78960000D01*
X171500000Y-61460000D02*
X170000000Y-59960000D01*
X166500000Y-59960000D02*
X165500000Y-60960000D01*
%TO.N,GND*%
X170584000Y-69826000D02*
X170584000Y-73444000D01*
X172000000Y-68410000D02*
X170584000Y-69826000D01*
X165500000Y-62685000D02*
X165500000Y-65960000D01*
%TO.N,VCC*%
X178460000Y-63460000D02*
X177500000Y-63460000D01*
X173500000Y-64960000D02*
X173500000Y-65010000D01*
X173500000Y-65010000D02*
X172000000Y-66510000D01*
X169075000Y-67685000D02*
X169300000Y-67460000D01*
X174000000Y-64460000D02*
X173500000Y-64960000D01*
X170739990Y-66510000D02*
X169789990Y-67460000D01*
X169789990Y-67460000D02*
X169300000Y-67460000D01*
X180000000Y-61920000D02*
X178460000Y-63460000D01*
X172000000Y-66510000D02*
X170739990Y-66510000D01*
X165500000Y-67685000D02*
X169075000Y-67685000D01*
%TO.N,Net-(D1-A)*%
X174825000Y-78960000D02*
X180000000Y-78960000D01*
%TO.N,Net-(U1-SCL)*%
X171912500Y-72547500D02*
X171016000Y-73444000D01*
X176000000Y-72547500D02*
X171912500Y-72547500D01*
%TO.N,Net-(U1-SDA)*%
X171016000Y-75944000D02*
X171016000Y-73876000D01*
X168000000Y-78960000D02*
X171016000Y-75944000D01*
%TO.N,Net-(U2-ERR)*%
X167500000Y-68960000D02*
X168050000Y-68410000D01*
X169675000Y-61460000D02*
X169675000Y-63785000D01*
X168050000Y-68410000D02*
X169300000Y-68410000D01*
X169675000Y-63785000D02*
X167500000Y-65960000D01*
%TO.N,Net-(U2-FB)*%
X172000000Y-67460000D02*
X175175000Y-67460000D01*
X175175000Y-67460000D02*
X176000000Y-66635000D01*
X176000000Y-66635000D02*
X176000000Y-61960000D01*
X176000000Y-61960000D02*
X176500000Y-61460000D01*
%TD*%
%TA.AperFunction,Conductor*%
%TO.N,GND*%
G36*
X180852702Y-57500617D02*
G01*
X181236771Y-57517386D01*
X181247506Y-57518326D01*
X181625971Y-57568152D01*
X181636597Y-57570025D01*
X182009284Y-57652648D01*
X182019710Y-57655442D01*
X182383765Y-57770227D01*
X182393911Y-57773920D01*
X182746578Y-57920000D01*
X182756369Y-57924566D01*
X183094942Y-58100816D01*
X183104310Y-58106224D01*
X183426244Y-58311318D01*
X183435105Y-58317523D01*
X183737930Y-58549889D01*
X183746217Y-58556843D01*
X184027635Y-58814715D01*
X184035284Y-58822364D01*
X184293156Y-59103782D01*
X184300110Y-59112069D01*
X184532476Y-59414894D01*
X184538681Y-59423755D01*
X184743775Y-59745689D01*
X184749183Y-59755057D01*
X184925430Y-60093623D01*
X184930002Y-60103427D01*
X185076075Y-60456078D01*
X185079775Y-60466244D01*
X185194554Y-60830278D01*
X185197354Y-60840727D01*
X185279971Y-61213389D01*
X185281849Y-61224042D01*
X185331671Y-61602473D01*
X185332614Y-61613249D01*
X185349382Y-61997297D01*
X185349500Y-62002706D01*
X185349500Y-77497293D01*
X185349382Y-77502702D01*
X185332614Y-77886750D01*
X185331671Y-77897526D01*
X185281849Y-78275957D01*
X185279971Y-78286610D01*
X185197354Y-78659272D01*
X185194554Y-78669721D01*
X185079775Y-79033755D01*
X185076075Y-79043921D01*
X184930002Y-79396572D01*
X184925430Y-79406376D01*
X184749183Y-79744942D01*
X184743775Y-79754310D01*
X184538681Y-80076244D01*
X184532476Y-80085105D01*
X184300110Y-80387930D01*
X184293156Y-80396217D01*
X184035284Y-80677635D01*
X184027635Y-80685284D01*
X183746217Y-80943156D01*
X183737930Y-80950110D01*
X183435105Y-81182476D01*
X183426244Y-81188681D01*
X183104310Y-81393775D01*
X183094942Y-81399183D01*
X182756376Y-81575430D01*
X182746572Y-81580002D01*
X182393921Y-81726075D01*
X182383755Y-81729775D01*
X182019721Y-81844554D01*
X182009272Y-81847354D01*
X181636610Y-81929971D01*
X181625957Y-81931849D01*
X181247526Y-81981671D01*
X181236750Y-81982614D01*
X180852703Y-81999382D01*
X180847294Y-81999500D01*
X166352706Y-81999500D01*
X166347297Y-81999382D01*
X165963249Y-81982614D01*
X165952473Y-81981671D01*
X165574042Y-81931849D01*
X165563389Y-81929971D01*
X165190727Y-81847354D01*
X165180278Y-81844554D01*
X164816244Y-81729775D01*
X164806078Y-81726075D01*
X164453427Y-81580002D01*
X164443623Y-81575430D01*
X164105057Y-81399183D01*
X164095689Y-81393775D01*
X163773755Y-81188681D01*
X163764894Y-81182476D01*
X163462069Y-80950110D01*
X163453782Y-80943156D01*
X163172364Y-80685284D01*
X163164715Y-80677635D01*
X162906843Y-80396217D01*
X162899889Y-80387930D01*
X162667523Y-80085105D01*
X162661318Y-80076244D01*
X162637625Y-80039054D01*
X163899498Y-80039054D01*
X163940424Y-80191789D01*
X163940425Y-80191790D01*
X163961455Y-80228214D01*
X163961456Y-80228216D01*
X164019475Y-80328709D01*
X164019479Y-80328714D01*
X164019480Y-80328716D01*
X164131284Y-80440520D01*
X164131285Y-80440521D01*
X164631284Y-80940520D01*
X164631286Y-80940521D01*
X164631290Y-80940524D01*
X164768209Y-81019573D01*
X164768216Y-81019577D01*
X164920943Y-81060501D01*
X164920945Y-81060501D01*
X165086654Y-81060501D01*
X165086670Y-81060500D01*
X168913331Y-81060500D01*
X168913347Y-81060501D01*
X168920943Y-81060501D01*
X169079054Y-81060501D01*
X169079057Y-81060501D01*
X169231785Y-81019577D01*
X169281904Y-80990639D01*
X169368716Y-80940520D01*
X169480520Y-80828716D01*
X169480520Y-80828714D01*
X169490728Y-80818507D01*
X169490729Y-80818504D01*
X170712416Y-79596819D01*
X170773739Y-79563334D01*
X170800097Y-79560500D01*
X172037599Y-79560500D01*
X172104638Y-79580185D01*
X172143138Y-79619404D01*
X172167160Y-79658350D01*
X172289150Y-79780340D01*
X172435984Y-79870908D01*
X172599747Y-79925174D01*
X172700823Y-79935500D01*
X173299176Y-79935499D01*
X173299184Y-79935498D01*
X173299187Y-79935498D01*
X173354530Y-79929844D01*
X173400253Y-79925174D01*
X173564016Y-79870908D01*
X173710850Y-79780340D01*
X173824819Y-79666371D01*
X173886142Y-79632886D01*
X173955834Y-79637870D01*
X174000181Y-79666371D01*
X174114150Y-79780340D01*
X174260984Y-79870908D01*
X174424747Y-79925174D01*
X174525823Y-79935500D01*
X175124176Y-79935499D01*
X175124184Y-79935498D01*
X175124187Y-79935498D01*
X175179530Y-79929844D01*
X175225253Y-79925174D01*
X175389016Y-79870908D01*
X175535850Y-79780340D01*
X175657840Y-79658350D01*
X175681862Y-79619404D01*
X175733810Y-79572679D01*
X175787401Y-79560500D01*
X179019259Y-79560500D01*
X179086298Y-79580185D01*
X179124797Y-79619402D01*
X179179660Y-79708350D01*
X179301650Y-79830340D01*
X179448484Y-79920908D01*
X179612247Y-79975174D01*
X179713323Y-79985500D01*
X180286676Y-79985499D01*
X180286684Y-79985498D01*
X180286687Y-79985498D01*
X180342030Y-79979844D01*
X180387753Y-79975174D01*
X180551516Y-79920908D01*
X180698350Y-79830340D01*
X180820340Y-79708350D01*
X180910908Y-79561516D01*
X180965174Y-79397753D01*
X180975500Y-79296677D01*
X180975499Y-78623324D01*
X180970281Y-78572247D01*
X180965174Y-78522247D01*
X180910908Y-78358484D01*
X180820340Y-78211650D01*
X180781017Y-78172327D01*
X180747532Y-78111004D01*
X180752516Y-78041312D01*
X180781018Y-77996964D01*
X180819945Y-77958037D01*
X180819947Y-77958034D01*
X180910448Y-77811311D01*
X180910453Y-77811300D01*
X180964680Y-77647652D01*
X180974999Y-77546654D01*
X180975000Y-77546641D01*
X180975000Y-77460000D01*
X179025001Y-77460000D01*
X179025001Y-77546654D01*
X179035319Y-77647652D01*
X179089546Y-77811300D01*
X179089551Y-77811311D01*
X179180052Y-77958034D01*
X179180055Y-77958038D01*
X179218982Y-77996965D01*
X179252467Y-78058288D01*
X179247483Y-78127980D01*
X179230848Y-78158581D01*
X179225417Y-78165892D01*
X179179660Y-78211650D01*
X179121989Y-78305148D01*
X179118806Y-78309435D01*
X179095010Y-78327388D01*
X179072850Y-78347321D01*
X179066757Y-78348705D01*
X179063031Y-78351517D01*
X179050100Y-78352490D01*
X179019259Y-78359500D01*
X175787401Y-78359500D01*
X175720362Y-78339815D01*
X175681862Y-78300596D01*
X175657840Y-78261650D01*
X175535851Y-78139661D01*
X175535850Y-78139660D01*
X175389016Y-78049092D01*
X175225253Y-77994826D01*
X175225251Y-77994825D01*
X175124178Y-77984500D01*
X174525830Y-77984500D01*
X174525812Y-77984501D01*
X174424747Y-77994825D01*
X174260984Y-78049092D01*
X174260981Y-78049093D01*
X174114148Y-78139661D01*
X174000181Y-78253629D01*
X173938858Y-78287114D01*
X173869166Y-78282130D01*
X173824819Y-78253629D01*
X173710851Y-78139661D01*
X173710850Y-78139660D01*
X173564016Y-78049092D01*
X173400253Y-77994826D01*
X173400251Y-77994825D01*
X173299178Y-77984500D01*
X172700830Y-77984500D01*
X172700812Y-77984501D01*
X172599747Y-77994825D01*
X172435984Y-78049092D01*
X172435981Y-78049093D01*
X172289148Y-78139661D01*
X172167159Y-78261650D01*
X172143138Y-78300596D01*
X172091190Y-78347321D01*
X172037599Y-78359500D01*
X170420940Y-78359500D01*
X170380019Y-78370464D01*
X170380019Y-78370465D01*
X170342751Y-78380451D01*
X170268214Y-78400423D01*
X170268209Y-78400426D01*
X170131290Y-78479475D01*
X170131282Y-78479481D01*
X170019478Y-78591286D01*
X169191669Y-79419094D01*
X169130346Y-79452579D01*
X169060654Y-79447595D01*
X169004721Y-79405723D01*
X168980304Y-79340259D01*
X168980629Y-79318819D01*
X168988000Y-79246677D01*
X168987999Y-78872595D01*
X169007683Y-78805557D01*
X169024313Y-78784920D01*
X170935889Y-76873345D01*
X179025000Y-76873345D01*
X179025000Y-76960000D01*
X179750000Y-76960000D01*
X180250000Y-76960000D01*
X180974999Y-76960000D01*
X180974999Y-76873360D01*
X180974998Y-76873345D01*
X180964680Y-76772347D01*
X180910453Y-76608699D01*
X180910448Y-76608688D01*
X180819947Y-76461965D01*
X180819944Y-76461961D01*
X180698038Y-76340055D01*
X180698034Y-76340052D01*
X180551311Y-76249551D01*
X180551300Y-76249546D01*
X180387652Y-76195319D01*
X180286654Y-76185000D01*
X180250000Y-76185000D01*
X180250000Y-76960000D01*
X179750000Y-76960000D01*
X179750000Y-76185000D01*
X179713361Y-76185000D01*
X179713343Y-76185001D01*
X179612347Y-76195319D01*
X179448699Y-76249546D01*
X179448688Y-76249551D01*
X179301965Y-76340052D01*
X179301961Y-76340055D01*
X179180055Y-76461961D01*
X179180052Y-76461965D01*
X179089551Y-76608688D01*
X179089546Y-76608699D01*
X179035319Y-76772347D01*
X179025000Y-76873345D01*
X170935889Y-76873345D01*
X171374506Y-76434728D01*
X171374511Y-76434724D01*
X171384714Y-76424520D01*
X171384716Y-76424520D01*
X171496520Y-76312716D01*
X171564728Y-76194576D01*
X171575577Y-76175785D01*
X171616500Y-76023057D01*
X171616500Y-75864943D01*
X171616500Y-73796943D01*
X171613007Y-73783907D01*
X171614667Y-73714062D01*
X171645098Y-73664135D01*
X172124916Y-73184319D01*
X172151843Y-73169615D01*
X172177662Y-73153023D01*
X172183862Y-73152131D01*
X172186239Y-73150834D01*
X172212597Y-73148000D01*
X172380559Y-73148000D01*
X172447598Y-73167685D01*
X172493353Y-73220489D01*
X172503297Y-73289647D01*
X172474272Y-73353203D01*
X172468240Y-73359681D01*
X172378213Y-73449707D01*
X172378210Y-73449711D01*
X172290609Y-73580814D01*
X172290602Y-73580827D01*
X172230264Y-73726498D01*
X172230261Y-73726510D01*
X172199500Y-73881153D01*
X172199500Y-74038846D01*
X172230261Y-74193489D01*
X172230264Y-74193501D01*
X172290602Y-74339172D01*
X172290609Y-74339185D01*
X172378210Y-74470288D01*
X172378213Y-74470292D01*
X172489707Y-74581786D01*
X172489711Y-74581789D01*
X172620814Y-74669390D01*
X172620827Y-74669397D01*
X172724647Y-74712400D01*
X172766503Y-74729737D01*
X172921153Y-74760499D01*
X172921156Y-74760500D01*
X172921158Y-74760500D01*
X173078844Y-74760500D01*
X173078845Y-74760499D01*
X173233497Y-74729737D01*
X173289182Y-74706670D01*
X173309059Y-74704533D01*
X173327789Y-74697548D01*
X173343085Y-74700875D01*
X173358651Y-74699202D01*
X173376527Y-74708150D01*
X173396062Y-74712400D01*
X173418352Y-74729086D01*
X173421130Y-74730477D01*
X173424316Y-74733551D01*
X173427639Y-74736874D01*
X173427649Y-74736885D01*
X173431979Y-74741215D01*
X173431980Y-74741216D01*
X173543784Y-74853020D01*
X173625889Y-74900423D01*
X173680715Y-74932077D01*
X173833443Y-74973000D01*
X173991557Y-74973000D01*
X175042389Y-74973000D01*
X175109428Y-74992685D01*
X175147928Y-75031904D01*
X175178680Y-75081762D01*
X175179660Y-75083350D01*
X175301650Y-75205340D01*
X175448484Y-75295908D01*
X175612247Y-75350174D01*
X175713323Y-75360500D01*
X176286676Y-75360499D01*
X176286684Y-75360498D01*
X176286687Y-75360498D01*
X176342030Y-75354844D01*
X176387753Y-75350174D01*
X176551516Y-75295908D01*
X176698350Y-75205340D01*
X176820340Y-75083350D01*
X176910908Y-74936516D01*
X176965174Y-74772753D01*
X176975500Y-74671677D01*
X176975499Y-74073324D01*
X176974004Y-74058693D01*
X176965174Y-73972247D01*
X176949236Y-73924150D01*
X176910908Y-73808484D01*
X176820340Y-73661650D01*
X176706371Y-73547681D01*
X176672886Y-73486358D01*
X176677870Y-73416666D01*
X176706371Y-73372319D01*
X176763116Y-73315574D01*
X176820340Y-73258350D01*
X176910908Y-73111516D01*
X176965174Y-72947753D01*
X176975500Y-72846677D01*
X176975499Y-72248324D01*
X176969898Y-72193497D01*
X176965174Y-72147247D01*
X176929253Y-72038846D01*
X176910908Y-71983484D01*
X176820340Y-71836650D01*
X176698350Y-71714660D01*
X176551516Y-71624092D01*
X176387753Y-71569826D01*
X176387751Y-71569825D01*
X176286678Y-71559500D01*
X175713330Y-71559500D01*
X175713312Y-71559501D01*
X175612247Y-71569825D01*
X175448484Y-71624092D01*
X175448481Y-71624093D01*
X175301648Y-71714661D01*
X175179659Y-71836650D01*
X175147928Y-71888096D01*
X175095980Y-71934821D01*
X175042389Y-71947000D01*
X171833440Y-71947000D01*
X171792519Y-71957964D01*
X171792519Y-71957965D01*
X171755251Y-71967951D01*
X171680714Y-71987923D01*
X171680709Y-71987926D01*
X171543790Y-72066975D01*
X171543782Y-72066981D01*
X171431978Y-72178786D01*
X170795177Y-72815585D01*
X170733854Y-72849070D01*
X170683306Y-72849522D01*
X170660571Y-72845000D01*
X170539423Y-72845000D01*
X170420618Y-72868632D01*
X170420606Y-72868635D01*
X170308689Y-72914992D01*
X170308685Y-72914994D01*
X170207964Y-72982294D01*
X170207956Y-72982300D01*
X170122300Y-73067956D01*
X170122294Y-73067964D01*
X170054994Y-73168685D01*
X170054992Y-73168689D01*
X170008635Y-73280606D01*
X170008632Y-73280618D01*
X169985000Y-73399423D01*
X169985000Y-73520570D01*
X169989522Y-73543306D01*
X169983293Y-73612898D01*
X169955586Y-73655177D01*
X169884266Y-73726498D01*
X169562582Y-74048182D01*
X169501262Y-74081666D01*
X169474903Y-74084500D01*
X169224500Y-74084500D01*
X169157461Y-74064815D01*
X169111706Y-74012011D01*
X169100500Y-73960500D01*
X169100500Y-72539765D01*
X169120185Y-72472726D01*
X169121398Y-72470874D01*
X169209390Y-72339185D01*
X169209390Y-72339184D01*
X169209394Y-72339179D01*
X169269737Y-72193497D01*
X169300500Y-72038842D01*
X169300500Y-71881158D01*
X169300500Y-71881155D01*
X169300499Y-71881153D01*
X169269738Y-71726510D01*
X169269737Y-71726503D01*
X169227318Y-71624093D01*
X169209397Y-71580827D01*
X169209390Y-71580814D01*
X169121789Y-71449711D01*
X169121786Y-71449707D01*
X169010292Y-71338213D01*
X169010288Y-71338210D01*
X168879185Y-71250609D01*
X168879172Y-71250602D01*
X168733501Y-71190264D01*
X168733489Y-71190261D01*
X168578845Y-71159500D01*
X168578842Y-71159500D01*
X168421158Y-71159500D01*
X168421155Y-71159500D01*
X168266510Y-71190261D01*
X168266498Y-71190264D01*
X168120827Y-71250602D01*
X168120814Y-71250609D01*
X167989711Y-71338210D01*
X167989707Y-71338213D01*
X167878213Y-71449707D01*
X167878210Y-71449711D01*
X167790609Y-71580814D01*
X167790602Y-71580827D01*
X167730264Y-71726498D01*
X167730261Y-71726510D01*
X167699500Y-71881153D01*
X167699500Y-72038846D01*
X167730261Y-72193489D01*
X167730264Y-72193501D01*
X167790602Y-72339172D01*
X167790609Y-72339185D01*
X167878602Y-72470874D01*
X167899480Y-72537551D01*
X167899500Y-72539765D01*
X167899500Y-73960500D01*
X167879815Y-74027539D01*
X167827011Y-74073294D01*
X167775500Y-74084500D01*
X166988452Y-74084500D01*
X166981522Y-74082465D01*
X166974408Y-74083702D01*
X166948445Y-74072752D01*
X166921413Y-74064815D01*
X166915109Y-74058693D01*
X166910029Y-74056551D01*
X166893656Y-74037860D01*
X166886145Y-74030566D01*
X166884464Y-74028111D01*
X166820340Y-73924150D01*
X166797886Y-73901696D01*
X166791391Y-73892212D01*
X166783987Y-73869482D01*
X166772532Y-73848504D01*
X166773364Y-73836869D01*
X166769751Y-73825778D01*
X166775810Y-73802653D01*
X166777516Y-73778812D01*
X166785186Y-73766876D01*
X166787463Y-73758191D01*
X166795541Y-73750765D01*
X166806021Y-73734460D01*
X166819947Y-73720535D01*
X166910448Y-73573811D01*
X166910453Y-73573800D01*
X166964680Y-73410152D01*
X166974999Y-73309154D01*
X166975000Y-73309141D01*
X166975000Y-73210000D01*
X165025001Y-73210000D01*
X165025001Y-73309154D01*
X165035319Y-73410152D01*
X165089546Y-73573800D01*
X165089551Y-73573811D01*
X165180052Y-73720534D01*
X165180055Y-73720538D01*
X165193982Y-73734465D01*
X165227467Y-73795788D01*
X165222483Y-73865480D01*
X165209936Y-73890233D01*
X165202962Y-73900847D01*
X165179660Y-73924150D01*
X165089092Y-74070984D01*
X165086962Y-74077408D01*
X165079031Y-74089482D01*
X165058979Y-74106505D01*
X165041598Y-74126244D01*
X165037396Y-74128782D01*
X164906287Y-74204477D01*
X164906282Y-74204481D01*
X164019479Y-75091284D01*
X164003601Y-75118788D01*
X163994095Y-75135253D01*
X163940423Y-75228215D01*
X163899499Y-75380943D01*
X163899499Y-75539057D01*
X163899499Y-75539059D01*
X163899500Y-75549053D01*
X163899500Y-79873330D01*
X163899499Y-79873348D01*
X163899499Y-80039054D01*
X163899498Y-80039054D01*
X162637625Y-80039054D01*
X162596929Y-79975174D01*
X162456223Y-79754309D01*
X162450816Y-79744942D01*
X162431767Y-79708349D01*
X162274566Y-79406369D01*
X162269997Y-79396572D01*
X162123920Y-79043911D01*
X162120224Y-79033755D01*
X162048274Y-78805557D01*
X162005442Y-78669710D01*
X162002648Y-78659284D01*
X161920025Y-78286597D01*
X161918152Y-78275971D01*
X161868326Y-77897506D01*
X161867386Y-77886771D01*
X161850618Y-77502702D01*
X161850500Y-77497293D01*
X161850500Y-72610845D01*
X165025000Y-72610845D01*
X165025000Y-72710000D01*
X165750000Y-72710000D01*
X166250000Y-72710000D01*
X166974999Y-72710000D01*
X166974999Y-72610860D01*
X166974998Y-72610845D01*
X166964680Y-72509847D01*
X166910453Y-72346199D01*
X166910448Y-72346188D01*
X166819947Y-72199465D01*
X166819944Y-72199461D01*
X166698038Y-72077555D01*
X166698034Y-72077552D01*
X166551311Y-71987051D01*
X166551300Y-71987046D01*
X166387652Y-71932819D01*
X166286654Y-71922500D01*
X166250000Y-71922500D01*
X166250000Y-72710000D01*
X165750000Y-72710000D01*
X165750000Y-71922500D01*
X165713361Y-71922500D01*
X165713343Y-71922501D01*
X165612347Y-71932819D01*
X165448699Y-71987046D01*
X165448688Y-71987051D01*
X165301965Y-72077552D01*
X165301961Y-72077555D01*
X165180055Y-72199461D01*
X165180052Y-72199465D01*
X165089551Y-72346188D01*
X165089546Y-72346199D01*
X165035319Y-72509847D01*
X165025000Y-72610845D01*
X161850500Y-72610845D01*
X161850500Y-65610845D01*
X164525000Y-65610845D01*
X164525000Y-65710000D01*
X165250000Y-65710000D01*
X165250000Y-64922500D01*
X165213361Y-64922500D01*
X165213343Y-64922501D01*
X165112347Y-64932819D01*
X164948699Y-64987046D01*
X164948688Y-64987051D01*
X164801965Y-65077552D01*
X164801961Y-65077555D01*
X164680055Y-65199461D01*
X164680052Y-65199465D01*
X164589551Y-65346188D01*
X164589546Y-65346199D01*
X164535319Y-65509847D01*
X164525000Y-65610845D01*
X161850500Y-65610845D01*
X161850500Y-63034154D01*
X164525001Y-63034154D01*
X164535319Y-63135152D01*
X164589546Y-63298800D01*
X164589551Y-63298811D01*
X164680052Y-63445534D01*
X164680055Y-63445538D01*
X164801961Y-63567444D01*
X164801965Y-63567447D01*
X164948688Y-63657948D01*
X164948699Y-63657953D01*
X165112347Y-63712180D01*
X165213352Y-63722499D01*
X165250000Y-63722499D01*
X165750000Y-63722499D01*
X165786640Y-63722499D01*
X165786654Y-63722498D01*
X165887652Y-63712180D01*
X166051300Y-63657953D01*
X166051311Y-63657948D01*
X166198034Y-63567447D01*
X166198038Y-63567444D01*
X166319944Y-63445538D01*
X166319947Y-63445534D01*
X166410448Y-63298811D01*
X166410453Y-63298800D01*
X166464680Y-63135152D01*
X166474999Y-63034154D01*
X166475000Y-63034141D01*
X166475000Y-62935000D01*
X165750000Y-62935000D01*
X165750000Y-63722499D01*
X165250000Y-63722499D01*
X165250000Y-62935000D01*
X164525001Y-62935000D01*
X164525001Y-63034154D01*
X161850500Y-63034154D01*
X161850500Y-62002706D01*
X161850618Y-61997297D01*
X161856342Y-61866187D01*
X161867386Y-61613226D01*
X161868326Y-61602495D01*
X161918152Y-61224025D01*
X161920025Y-61213405D01*
X162002649Y-60840709D01*
X162005440Y-60830295D01*
X162074642Y-60610815D01*
X164524500Y-60610815D01*
X164524500Y-61309169D01*
X164524501Y-61309187D01*
X164534825Y-61410252D01*
X164571109Y-61519749D01*
X164589092Y-61574016D01*
X164679659Y-61720849D01*
X164679661Y-61720851D01*
X164693982Y-61735172D01*
X164727467Y-61796495D01*
X164722483Y-61866187D01*
X164693985Y-61910532D01*
X164680052Y-61924465D01*
X164589551Y-62071188D01*
X164589546Y-62071199D01*
X164535319Y-62234847D01*
X164525000Y-62335845D01*
X164525000Y-62435000D01*
X166474999Y-62435000D01*
X166474999Y-62335860D01*
X166474998Y-62335845D01*
X166464680Y-62234847D01*
X166410453Y-62071199D01*
X166410448Y-62071188D01*
X166319947Y-61924465D01*
X166319944Y-61924461D01*
X166306017Y-61910534D01*
X166272532Y-61849211D01*
X166277516Y-61779519D01*
X166306017Y-61735172D01*
X166320340Y-61720850D01*
X166410908Y-61574016D01*
X166465174Y-61410253D01*
X166475500Y-61309177D01*
X166475499Y-60885097D01*
X166495183Y-60818059D01*
X166511818Y-60797417D01*
X166712417Y-60596819D01*
X166773740Y-60563334D01*
X166800098Y-60560500D01*
X168745083Y-60560500D01*
X168812122Y-60580185D01*
X168857877Y-60632989D01*
X168867821Y-60702147D01*
X168845111Y-60754984D01*
X168845952Y-60755503D01*
X168842443Y-60761191D01*
X168842349Y-60761411D01*
X168842162Y-60761647D01*
X168751593Y-60908481D01*
X168751592Y-60908484D01*
X168697326Y-61072247D01*
X168697326Y-61072248D01*
X168697325Y-61072248D01*
X168687000Y-61173315D01*
X168687000Y-61746669D01*
X168687001Y-61746687D01*
X168697325Y-61847752D01*
X168722746Y-61924465D01*
X168746880Y-61997297D01*
X168751592Y-62011515D01*
X168751593Y-62011518D01*
X168781806Y-62060500D01*
X168842160Y-62158350D01*
X168964150Y-62280340D01*
X169015597Y-62312072D01*
X169062321Y-62364017D01*
X169074500Y-62417610D01*
X169074500Y-63484903D01*
X169054815Y-63551942D01*
X169038181Y-63572584D01*
X167485339Y-65125425D01*
X167424016Y-65158910D01*
X167421850Y-65159361D01*
X167266508Y-65190261D01*
X167266498Y-65190264D01*
X167120827Y-65250602D01*
X167120814Y-65250609D01*
X166989711Y-65338210D01*
X166989707Y-65338213D01*
X166878213Y-65449707D01*
X166878210Y-65449711D01*
X166790609Y-65580814D01*
X166790602Y-65580827D01*
X166730264Y-65726498D01*
X166730261Y-65726508D01*
X166720616Y-65774998D01*
X166688231Y-65836909D01*
X166627515Y-65871483D01*
X166557745Y-65867742D01*
X166501073Y-65826876D01*
X166475492Y-65761857D01*
X166474999Y-65750806D01*
X166474999Y-65610860D01*
X166474998Y-65610844D01*
X166464680Y-65509847D01*
X166410453Y-65346199D01*
X166410448Y-65346188D01*
X166319947Y-65199465D01*
X166319944Y-65199461D01*
X166198038Y-65077555D01*
X166198034Y-65077552D01*
X166051311Y-64987051D01*
X166051300Y-64987046D01*
X165887652Y-64932819D01*
X165786654Y-64922500D01*
X165750000Y-64922500D01*
X165750000Y-65836000D01*
X165730315Y-65903039D01*
X165677511Y-65948794D01*
X165626000Y-65960000D01*
X165500000Y-65960000D01*
X165500000Y-66086000D01*
X165480315Y-66153039D01*
X165427511Y-66198794D01*
X165376000Y-66210000D01*
X164525001Y-66210000D01*
X164525001Y-66309154D01*
X164535319Y-66410152D01*
X164589546Y-66573800D01*
X164589551Y-66573811D01*
X164680052Y-66720534D01*
X164680055Y-66720538D01*
X164693982Y-66734465D01*
X164727467Y-66795788D01*
X164722483Y-66865480D01*
X164693984Y-66909825D01*
X164679661Y-66924148D01*
X164589093Y-67070981D01*
X164589091Y-67070986D01*
X164561719Y-67153588D01*
X164534826Y-67234747D01*
X164534826Y-67234748D01*
X164534825Y-67234748D01*
X164524500Y-67335815D01*
X164524500Y-68034169D01*
X164524501Y-68034187D01*
X164534825Y-68135252D01*
X164566730Y-68231532D01*
X164588326Y-68296705D01*
X164589092Y-68299015D01*
X164589093Y-68299018D01*
X164613268Y-68338211D01*
X164679660Y-68445850D01*
X164801650Y-68567840D01*
X164948484Y-68658408D01*
X165112247Y-68712674D01*
X165213323Y-68723000D01*
X165786676Y-68722999D01*
X165786684Y-68722998D01*
X165786687Y-68722998D01*
X165842030Y-68717344D01*
X165887753Y-68712674D01*
X166051516Y-68658408D01*
X166198350Y-68567840D01*
X166320340Y-68445850D01*
X166341037Y-68412294D01*
X166382914Y-68344403D01*
X166434862Y-68297678D01*
X166488452Y-68285500D01*
X166755945Y-68285500D01*
X166822984Y-68305185D01*
X166868739Y-68357989D01*
X166878683Y-68427147D01*
X166859047Y-68478391D01*
X166790609Y-68580814D01*
X166790602Y-68580827D01*
X166730264Y-68726498D01*
X166730261Y-68726510D01*
X166699500Y-68881153D01*
X166699500Y-69038846D01*
X166730261Y-69193489D01*
X166730264Y-69193501D01*
X166790602Y-69339172D01*
X166790609Y-69339185D01*
X166878210Y-69470288D01*
X166878213Y-69470292D01*
X166989707Y-69581786D01*
X166989711Y-69581789D01*
X167120814Y-69669390D01*
X167120827Y-69669397D01*
X167266498Y-69729735D01*
X167266503Y-69729737D01*
X167421153Y-69760499D01*
X167421156Y-69760500D01*
X167421158Y-69760500D01*
X167578844Y-69760500D01*
X167578845Y-69760499D01*
X167733497Y-69729737D01*
X167879179Y-69669394D01*
X167879185Y-69669390D01*
X167929852Y-69635536D01*
X167974315Y-69605826D01*
X168010289Y-69581789D01*
X168121789Y-69470289D01*
X168209394Y-69339179D01*
X168246795Y-69248882D01*
X168290634Y-69194483D01*
X168356928Y-69172417D01*
X168400706Y-69181002D01*
X168401237Y-69179299D01*
X168408396Y-69181529D01*
X168408398Y-69181531D01*
X168562113Y-69229430D01*
X168628909Y-69235500D01*
X169971090Y-69235499D01*
X169971097Y-69235499D01*
X170037882Y-69229431D01*
X170037885Y-69229430D01*
X170037887Y-69229430D01*
X170191602Y-69181531D01*
X170329388Y-69098236D01*
X170443236Y-68984388D01*
X170526531Y-68846602D01*
X170531876Y-68829447D01*
X170570613Y-68771299D01*
X170634637Y-68743324D01*
X170703623Y-68754405D01*
X170755667Y-68801022D01*
X170768648Y-68829447D01*
X170773929Y-68846395D01*
X170857163Y-68984080D01*
X170970919Y-69097836D01*
X171108603Y-69181070D01*
X171262207Y-69228934D01*
X171328957Y-69235000D01*
X171750000Y-69235000D01*
X172250000Y-69235000D01*
X172671043Y-69235000D01*
X172737792Y-69228934D01*
X172891396Y-69181070D01*
X173029080Y-69097836D01*
X173142836Y-68984080D01*
X173226072Y-68846392D01*
X173253256Y-68759154D01*
X175025001Y-68759154D01*
X175035319Y-68860152D01*
X175089546Y-69023800D01*
X175089551Y-69023811D01*
X175180052Y-69170534D01*
X175180055Y-69170538D01*
X175301961Y-69292444D01*
X175301965Y-69292447D01*
X175448688Y-69382948D01*
X175448699Y-69382953D01*
X175612347Y-69437180D01*
X175713352Y-69447499D01*
X175750000Y-69447499D01*
X176250000Y-69447499D01*
X176286640Y-69447499D01*
X176286654Y-69447498D01*
X176387652Y-69437180D01*
X176551300Y-69382953D01*
X176551311Y-69382948D01*
X176698034Y-69292447D01*
X176698038Y-69292444D01*
X176819944Y-69170538D01*
X176819947Y-69170534D01*
X176910448Y-69023811D01*
X176910453Y-69023800D01*
X176964680Y-68860152D01*
X176974999Y-68759154D01*
X176975000Y-68759141D01*
X176975000Y-68710000D01*
X176250000Y-68710000D01*
X176250000Y-69447499D01*
X175750000Y-69447499D01*
X175750000Y-68710000D01*
X175025001Y-68710000D01*
X175025001Y-68759154D01*
X173253256Y-68759154D01*
X173273932Y-68692802D01*
X173273935Y-68692792D01*
X173276914Y-68660000D01*
X172250000Y-68660000D01*
X172250000Y-69235000D01*
X171750000Y-69235000D01*
X171750000Y-68534000D01*
X171769685Y-68466961D01*
X171822489Y-68421206D01*
X171874000Y-68410000D01*
X172000000Y-68410000D01*
X172000000Y-68409499D01*
X172019685Y-68342460D01*
X172072489Y-68296705D01*
X172123998Y-68285499D01*
X172671090Y-68285499D01*
X172671097Y-68285499D01*
X172737882Y-68279431D01*
X172737885Y-68279430D01*
X172737887Y-68279430D01*
X172891602Y-68231531D01*
X172980346Y-68177882D01*
X173044496Y-68160000D01*
X173276915Y-68160000D01*
X173290055Y-68145610D01*
X173293696Y-68127176D01*
X173342143Y-68076830D01*
X173403651Y-68060500D01*
X174901000Y-68060500D01*
X174968039Y-68080185D01*
X175013794Y-68132989D01*
X175025000Y-68184500D01*
X175025000Y-68210000D01*
X176974999Y-68210000D01*
X176974999Y-68160860D01*
X176974998Y-68160845D01*
X176964680Y-68059847D01*
X176910453Y-67896199D01*
X176910448Y-67896188D01*
X176819947Y-67749465D01*
X176819944Y-67749461D01*
X176706017Y-67635534D01*
X176672532Y-67574211D01*
X176677516Y-67504519D01*
X176706013Y-67460176D01*
X176820340Y-67345850D01*
X176910908Y-67199016D01*
X176965174Y-67035253D01*
X176975500Y-66934177D01*
X176975499Y-66335824D01*
X176971217Y-66293910D01*
X176965174Y-66234747D01*
X176962644Y-66227112D01*
X176910908Y-66070984D01*
X176820340Y-65924150D01*
X176698350Y-65802160D01*
X176698349Y-65802159D01*
X176659402Y-65778136D01*
X176612678Y-65726187D01*
X176600500Y-65672598D01*
X176600500Y-63963439D01*
X176620185Y-63896400D01*
X176672989Y-63850645D01*
X176742147Y-63840701D01*
X176805703Y-63869726D01*
X176827602Y-63894548D01*
X176878210Y-63970288D01*
X176878213Y-63970292D01*
X176989707Y-64081786D01*
X176989711Y-64081789D01*
X177120814Y-64169390D01*
X177120827Y-64169397D01*
X177198822Y-64201703D01*
X177266503Y-64229737D01*
X177421153Y-64260499D01*
X177421156Y-64260500D01*
X177421158Y-64260500D01*
X177578844Y-64260500D01*
X177578845Y-64260499D01*
X177733497Y-64229737D01*
X177879179Y-64169394D01*
X177917543Y-64143760D01*
X178010875Y-64081398D01*
X178077553Y-64060520D01*
X178079766Y-64060500D01*
X178380939Y-64060500D01*
X178380943Y-64060501D01*
X178539057Y-64060501D01*
X178540753Y-64060046D01*
X178550496Y-64060020D01*
X178576692Y-64067635D01*
X178603651Y-64071832D01*
X178609755Y-64077246D01*
X178617588Y-64079524D01*
X178635507Y-64100091D01*
X178655919Y-64118198D01*
X178658126Y-64126052D01*
X178663486Y-64132204D01*
X178667441Y-64159196D01*
X178674823Y-64185462D01*
X178673529Y-64200747D01*
X178673616Y-64201335D01*
X178673448Y-64201703D01*
X178673304Y-64203417D01*
X178649500Y-64353712D01*
X178649500Y-64566286D01*
X178672196Y-64709587D01*
X178682754Y-64776243D01*
X178745803Y-64970288D01*
X178748444Y-64978414D01*
X178844951Y-65167820D01*
X178969890Y-65339786D01*
X179120213Y-65490109D01*
X179292182Y-65615050D01*
X179300946Y-65619516D01*
X179351742Y-65667491D01*
X179368536Y-65735312D01*
X179345998Y-65801447D01*
X179300946Y-65840484D01*
X179292182Y-65844949D01*
X179120213Y-65969890D01*
X178969890Y-66120213D01*
X178844951Y-66292179D01*
X178748444Y-66481585D01*
X178682753Y-66683760D01*
X178660671Y-66823180D01*
X178649500Y-66893713D01*
X178649500Y-67106287D01*
X178682754Y-67316243D01*
X178729519Y-67460171D01*
X178748444Y-67518414D01*
X178844951Y-67707820D01*
X178969890Y-67879786D01*
X179083818Y-67993714D01*
X179117303Y-68055037D01*
X179112319Y-68124729D01*
X179070447Y-68180662D01*
X179039471Y-68197577D01*
X178907912Y-68246646D01*
X178907906Y-68246649D01*
X178792812Y-68332809D01*
X178792809Y-68332812D01*
X178706649Y-68447906D01*
X178706645Y-68447913D01*
X178656403Y-68582620D01*
X178656401Y-68582627D01*
X178650000Y-68642155D01*
X178650000Y-69290000D01*
X179566988Y-69290000D01*
X179534075Y-69347007D01*
X179500000Y-69474174D01*
X179500000Y-69605826D01*
X179534075Y-69732993D01*
X179566988Y-69790000D01*
X178650000Y-69790000D01*
X178650000Y-70437844D01*
X178656401Y-70497372D01*
X178656403Y-70497379D01*
X178706645Y-70632086D01*
X178706649Y-70632093D01*
X178792809Y-70747187D01*
X178792812Y-70747190D01*
X178907906Y-70833350D01*
X178907913Y-70833354D01*
X179042620Y-70883596D01*
X179042627Y-70883598D01*
X179102155Y-70889999D01*
X179102172Y-70890000D01*
X179750000Y-70890000D01*
X179750000Y-69973012D01*
X179807007Y-70005925D01*
X179934174Y-70040000D01*
X180065826Y-70040000D01*
X180192993Y-70005925D01*
X180250000Y-69973012D01*
X180250000Y-70890000D01*
X180897828Y-70890000D01*
X180897844Y-70889999D01*
X180957372Y-70883598D01*
X180957379Y-70883596D01*
X181092086Y-70833354D01*
X181092093Y-70833350D01*
X181207187Y-70747190D01*
X181207190Y-70747187D01*
X181293350Y-70632093D01*
X181293354Y-70632086D01*
X181343596Y-70497379D01*
X181343598Y-70497372D01*
X181349999Y-70437844D01*
X181350000Y-70437827D01*
X181350000Y-69790000D01*
X180433012Y-69790000D01*
X180465925Y-69732993D01*
X180500000Y-69605826D01*
X180500000Y-69474174D01*
X180465925Y-69347007D01*
X180433012Y-69290000D01*
X181350000Y-69290000D01*
X181350000Y-68642172D01*
X181349999Y-68642155D01*
X181343598Y-68582627D01*
X181343596Y-68582620D01*
X181293354Y-68447913D01*
X181293350Y-68447906D01*
X181207190Y-68332812D01*
X181207187Y-68332809D01*
X181092093Y-68246649D01*
X181092088Y-68246646D01*
X180960528Y-68197577D01*
X180904595Y-68155705D01*
X180880178Y-68090241D01*
X180895030Y-68021968D01*
X180916175Y-67993720D01*
X181030104Y-67879792D01*
X181155051Y-67707816D01*
X181251557Y-67518412D01*
X181317246Y-67316243D01*
X181350500Y-67106287D01*
X181350500Y-66893713D01*
X181317246Y-66683757D01*
X181251557Y-66481588D01*
X181155051Y-66292184D01*
X181155049Y-66292181D01*
X181155048Y-66292179D01*
X181030109Y-66120213D01*
X180879786Y-65969890D01*
X180707820Y-65844951D01*
X180707115Y-65844591D01*
X180699054Y-65840485D01*
X180648259Y-65792512D01*
X180631463Y-65724692D01*
X180653999Y-65658556D01*
X180699054Y-65619515D01*
X180707816Y-65615051D01*
X180807189Y-65542853D01*
X180879786Y-65490109D01*
X180879788Y-65490106D01*
X180879792Y-65490104D01*
X181030104Y-65339792D01*
X181030106Y-65339788D01*
X181030109Y-65339786D01*
X181153902Y-65169397D01*
X181155051Y-65167816D01*
X181251557Y-64978412D01*
X181317246Y-64776243D01*
X181350500Y-64566287D01*
X181350500Y-64353713D01*
X181317246Y-64143757D01*
X181251557Y-63941588D01*
X181155051Y-63752184D01*
X181155049Y-63752181D01*
X181155048Y-63752179D01*
X181030109Y-63580213D01*
X180879786Y-63429890D01*
X180707820Y-63304951D01*
X180707115Y-63304591D01*
X180699054Y-63300485D01*
X180648259Y-63252512D01*
X180631463Y-63184692D01*
X180653999Y-63118556D01*
X180699054Y-63079515D01*
X180707816Y-63075051D01*
X180776085Y-63025451D01*
X180879786Y-62950109D01*
X180879788Y-62950106D01*
X180879792Y-62950104D01*
X181030104Y-62799792D01*
X181030106Y-62799788D01*
X181030109Y-62799786D01*
X181155048Y-62627820D01*
X181155047Y-62627820D01*
X181155051Y-62627816D01*
X181251557Y-62438412D01*
X181317246Y-62236243D01*
X181350500Y-62026287D01*
X181350500Y-61813713D01*
X181317246Y-61603757D01*
X181251557Y-61401588D01*
X181155051Y-61212184D01*
X181155049Y-61212181D01*
X181155048Y-61212179D01*
X181030109Y-61040213D01*
X180879786Y-60889890D01*
X180707820Y-60764951D01*
X180518414Y-60668444D01*
X180518413Y-60668443D01*
X180518412Y-60668443D01*
X180316243Y-60602754D01*
X180316241Y-60602753D01*
X180316240Y-60602753D01*
X180154957Y-60577208D01*
X180106287Y-60569500D01*
X179893713Y-60569500D01*
X179845042Y-60577208D01*
X179683760Y-60602753D01*
X179481585Y-60668444D01*
X179292179Y-60764951D01*
X179120213Y-60889890D01*
X178969890Y-61040213D01*
X178844951Y-61212179D01*
X178748444Y-61401585D01*
X178682753Y-61603760D01*
X178660116Y-61746684D01*
X178649500Y-61813713D01*
X178649500Y-62026287D01*
X178656848Y-62072679D01*
X178682754Y-62236244D01*
X178682754Y-62236247D01*
X178696491Y-62278523D01*
X178698486Y-62348364D01*
X178666241Y-62404522D01*
X178247584Y-62823181D01*
X178220656Y-62837884D01*
X178194838Y-62854477D01*
X178188637Y-62855368D01*
X178186261Y-62856666D01*
X178159903Y-62859500D01*
X178079766Y-62859500D01*
X178012727Y-62839815D01*
X178010875Y-62838602D01*
X177879185Y-62750609D01*
X177879172Y-62750602D01*
X177733501Y-62690264D01*
X177733489Y-62690261D01*
X177578845Y-62659500D01*
X177578842Y-62659500D01*
X177421158Y-62659500D01*
X177421155Y-62659500D01*
X177266510Y-62690261D01*
X177266498Y-62690264D01*
X177120827Y-62750602D01*
X177120814Y-62750609D01*
X176989711Y-62838210D01*
X176989707Y-62838213D01*
X176878213Y-62949707D01*
X176878210Y-62949711D01*
X176827602Y-63025451D01*
X176773989Y-63070256D01*
X176704664Y-63078963D01*
X176641637Y-63048808D01*
X176604918Y-62989365D01*
X176600500Y-62956560D01*
X176600500Y-62559499D01*
X176620185Y-62492460D01*
X176672989Y-62446705D01*
X176724500Y-62435499D01*
X176799170Y-62435499D01*
X176799176Y-62435499D01*
X176900253Y-62425174D01*
X177064016Y-62370908D01*
X177210850Y-62280340D01*
X177332840Y-62158350D01*
X177423408Y-62011516D01*
X177477674Y-61847753D01*
X177488000Y-61746677D01*
X177487999Y-61173324D01*
X177477674Y-61072247D01*
X177423408Y-60908484D01*
X177332840Y-60761650D01*
X177210850Y-60639660D01*
X177087106Y-60563334D01*
X177064018Y-60549093D01*
X177064013Y-60549091D01*
X177062569Y-60548612D01*
X176900253Y-60494826D01*
X176900251Y-60494825D01*
X176799178Y-60484500D01*
X176200830Y-60484500D01*
X176200812Y-60484501D01*
X176099747Y-60494825D01*
X175935984Y-60549092D01*
X175935981Y-60549093D01*
X175789148Y-60639661D01*
X175675181Y-60753629D01*
X175613858Y-60787114D01*
X175544166Y-60782130D01*
X175499819Y-60753629D01*
X175385851Y-60639661D01*
X175385850Y-60639660D01*
X175262106Y-60563334D01*
X175239018Y-60549093D01*
X175239013Y-60549091D01*
X175237569Y-60548612D01*
X175075253Y-60494826D01*
X175075251Y-60494825D01*
X174974178Y-60484500D01*
X174375830Y-60484500D01*
X174375812Y-60484501D01*
X174274747Y-60494825D01*
X174110984Y-60549092D01*
X174110981Y-60549093D01*
X173964148Y-60639661D01*
X173842159Y-60761650D01*
X173818138Y-60800596D01*
X173766190Y-60847321D01*
X173712599Y-60859500D01*
X172462401Y-60859500D01*
X172395362Y-60839815D01*
X172356862Y-60800596D01*
X172332840Y-60761650D01*
X172210851Y-60639661D01*
X172210850Y-60639660D01*
X172087106Y-60563334D01*
X172064018Y-60549093D01*
X172064013Y-60549091D01*
X172062569Y-60548612D01*
X171900253Y-60494826D01*
X171900251Y-60494825D01*
X171799184Y-60484500D01*
X171799177Y-60484500D01*
X171425097Y-60484500D01*
X171358058Y-60464815D01*
X171337416Y-60448181D01*
X170487590Y-59598355D01*
X170487588Y-59598352D01*
X170368717Y-59479481D01*
X170368716Y-59479480D01*
X170264295Y-59419193D01*
X170264294Y-59419192D01*
X170231783Y-59400422D01*
X170175881Y-59385443D01*
X170079057Y-59359499D01*
X169920943Y-59359499D01*
X169913347Y-59359499D01*
X169913331Y-59359500D01*
X166586670Y-59359500D01*
X166586654Y-59359499D01*
X166579058Y-59359499D01*
X166420943Y-59359499D01*
X166344579Y-59379961D01*
X166268214Y-59400423D01*
X166268209Y-59400426D01*
X166131290Y-59479475D01*
X166131282Y-59479481D01*
X165725082Y-59885681D01*
X165663759Y-59919166D01*
X165637401Y-59922000D01*
X165213330Y-59922000D01*
X165213312Y-59922001D01*
X165112247Y-59932325D01*
X164948484Y-59986592D01*
X164948481Y-59986593D01*
X164801648Y-60077161D01*
X164679661Y-60199148D01*
X164589093Y-60345981D01*
X164589092Y-60345984D01*
X164534826Y-60509747D01*
X164534826Y-60509748D01*
X164534825Y-60509748D01*
X164524500Y-60610815D01*
X162074642Y-60610815D01*
X162120232Y-60466220D01*
X162123917Y-60456095D01*
X162270003Y-60103412D01*
X162274561Y-60093638D01*
X162450822Y-59755045D01*
X162456217Y-59745700D01*
X162661325Y-59423744D01*
X162667515Y-59414905D01*
X162899896Y-59112060D01*
X162906834Y-59103791D01*
X163164726Y-58822352D01*
X163172352Y-58814726D01*
X163453791Y-58556834D01*
X163462060Y-58549896D01*
X163764905Y-58317515D01*
X163773744Y-58311325D01*
X164095700Y-58106217D01*
X164105045Y-58100822D01*
X164443638Y-57924561D01*
X164453412Y-57920003D01*
X164806095Y-57773917D01*
X164816227Y-57770230D01*
X165180295Y-57655440D01*
X165190709Y-57652649D01*
X165563405Y-57570025D01*
X165574025Y-57568152D01*
X165952495Y-57518326D01*
X165963226Y-57517386D01*
X166347297Y-57500617D01*
X166352706Y-57500500D01*
X166415892Y-57500500D01*
X180784108Y-57500500D01*
X180847294Y-57500500D01*
X180852702Y-57500617D01*
G37*
%TD.AperFunction*%
%TD*%
M02*
