%TF.GenerationSoftware,KiCad,Pcbnew,9.0.6*%
%TF.CreationDate,2026-01-29T18:16:49-08:00*%
%TF.ProjectId,Lab3,4c616233-2e6b-4696-9361-645f70636258,rev?*%
%TF.SameCoordinates,Original*%
%TF.FileFunction,Soldermask,Top*%
%TF.FilePolarity,Negative*%
%FSLAX46Y46*%
G04 Gerber Fmt 4.6, Leading zero omitted, Abs format (unit mm)*
G04 Created by KiCad (PCBNEW 9.0.6) date 2026-01-29 18:16:49*
%MOMM*%
%LPD*%
G01*
G04 APERTURE LIST*
G04 Aperture macros list*
%AMRoundRect*
0 Rectangle with rounded corners*
0 $1 Rounding radius*
0 $2 $3 $4 $5 $6 $7 $8 $9 X,Y pos of 4 corners*
0 Add a 4 corners polygon primitive as box body*
4,1,4,$2,$3,$4,$5,$6,$7,$8,$9,$2,$3,0*
0 Add four circle primitives for the rounded corners*
1,1,$1+$1,$2,$3*
1,1,$1+$1,$4,$5*
1,1,$1+$1,$6,$7*
1,1,$1+$1,$8,$9*
0 Add four rect primitives between the rounded corners*
20,1,$1+$1,$2,$3,$4,$5,0*
20,1,$1+$1,$4,$5,$6,$7,0*
20,1,$1+$1,$6,$7,$8,$9,0*
20,1,$1+$1,$8,$9,$2,$3,0*%
G04 Aperture macros list end*
%ADD10C,0.165000*%
%ADD11RoundRect,0.237500X-0.250000X-0.237500X0.250000X-0.237500X0.250000X0.237500X-0.250000X0.237500X0*%
%ADD12RoundRect,0.237500X-0.237500X0.250000X-0.237500X-0.250000X0.237500X-0.250000X0.237500X0.250000X0*%
%ADD13RoundRect,0.237500X0.237500X-0.250000X0.237500X0.250000X-0.237500X0.250000X-0.237500X-0.250000X0*%
%ADD14RoundRect,0.237500X0.237500X-0.300000X0.237500X0.300000X-0.237500X0.300000X-0.237500X-0.300000X0*%
%ADD15R,1.700000X1.700000*%
%ADD16C,1.700000*%
%ADD17RoundRect,0.237500X-0.237500X0.287500X-0.237500X-0.287500X0.237500X-0.287500X0.237500X0.287500X0*%
%ADD18RoundRect,0.237500X0.250000X0.237500X-0.250000X0.237500X-0.250000X-0.237500X0.250000X-0.237500X0*%
%ADD19RoundRect,0.237500X-0.237500X0.300000X-0.237500X-0.300000X0.237500X-0.300000X0.237500X0.300000X0*%
%ADD20RoundRect,0.162500X-0.617500X-0.162500X0.617500X-0.162500X0.617500X0.162500X-0.617500X0.162500X0*%
G04 APERTURE END LIST*
D10*
%TO.C,U1*%
X170682500Y-73460000D02*
G75*
G02*
X170517500Y-73460000I-82500J0D01*
G01*
X170517500Y-73460000D02*
G75*
G02*
X170682500Y-73460000I82500J0D01*
G01*
X170682500Y-73860000D02*
G75*
G02*
X170517500Y-73860000I-82500J0D01*
G01*
X170517500Y-73860000D02*
G75*
G02*
X170682500Y-73860000I82500J0D01*
G01*
X171082500Y-73460000D02*
G75*
G02*
X170917500Y-73460000I-82500J0D01*
G01*
X170917500Y-73460000D02*
G75*
G02*
X171082500Y-73460000I82500J0D01*
G01*
X171082500Y-73860000D02*
G75*
G02*
X170917500Y-73860000I-82500J0D01*
G01*
X170917500Y-73860000D02*
G75*
G02*
X171082500Y-73860000I82500J0D01*
G01*
%TD*%
D11*
%TO.C,R3*%
X169675000Y-61460000D03*
X171500000Y-61460000D03*
%TD*%
D12*
%TO.C,R5*%
X176000000Y-66635000D03*
X176000000Y-68460000D03*
%TD*%
D13*
%TO.C,R1*%
X176000000Y-74372500D03*
X176000000Y-72547500D03*
%TD*%
D11*
%TO.C,R6*%
X173000000Y-78960000D03*
X174825000Y-78960000D03*
%TD*%
D14*
%TO.C,C2*%
X165500000Y-67685000D03*
X165500000Y-65960000D03*
%TD*%
D15*
%TO.C,J1*%
X180000000Y-69540000D03*
D16*
X180000000Y-67000000D03*
X180000000Y-64460000D03*
X180000000Y-61920000D03*
%TD*%
D11*
%TO.C,R4*%
X174675000Y-61460000D03*
X176500000Y-61460000D03*
%TD*%
D17*
%TO.C,D1*%
X180000000Y-77210000D03*
X180000000Y-78960000D03*
%TD*%
D18*
%TO.C,R2*%
X168000000Y-78960000D03*
X166175000Y-78960000D03*
%TD*%
D19*
%TO.C,C3*%
X165500000Y-60960000D03*
X165500000Y-62685000D03*
%TD*%
D20*
%TO.C,U2*%
X169300000Y-66510000D03*
X169300000Y-67460000D03*
X169300000Y-68410000D03*
X172000000Y-68410000D03*
X172000000Y-67460000D03*
X172000000Y-66510000D03*
%TD*%
D19*
%TO.C,C1*%
X166000000Y-72960000D03*
X166000000Y-74685000D03*
%TD*%
M02*
