%TF.GenerationSoftware,KiCad,Pcbnew,9.0.6*%
%TF.CreationDate,2026-02-16T17:47:16-08:00*%
%TF.ProjectId,514-Schematic,3531342d-5363-4686-956d-617469632e6b,rev?*%
%TF.SameCoordinates,Original*%
%TF.FileFunction,Soldermask,Top*%
%TF.FilePolarity,Negative*%
%FSLAX46Y46*%
G04 Gerber Fmt 4.6, Leading zero omitted, Abs format (unit mm)*
G04 Created by KiCad (PCBNEW 9.0.6) date 2026-02-16 17:47:16*
%MOMM*%
%LPD*%
G01*
G04 APERTURE LIST*
G04 Aperture macros list*
%AMRoundRect*
0 Rectangle with rounded corners*
0 $1 Rounding radius*
0 $2 $3 $4 $5 $6 $7 $8 $9 X,Y pos of 4 corners*
0 Add a 4 corners polygon primitive as box body*
4,1,4,$2,$3,$4,$5,$6,$7,$8,$9,$2,$3,0*
0 Add four circle primitives for the rounded corners*
1,1,$1+$1,$2,$3*
1,1,$1+$1,$4,$5*
1,1,$1+$1,$6,$7*
1,1,$1+$1,$8,$9*
0 Add four rect primitives between the rounded corners*
20,1,$1+$1,$2,$3,$4,$5,0*
20,1,$1+$1,$4,$5,$6,$7,0*
20,1,$1+$1,$6,$7,$8,$9,0*
20,1,$1+$1,$8,$9,$2,$3,0*%
G04 Aperture macros list end*
%ADD10C,2.100000*%
%ADD11R,0.300000X0.600000*%
%ADD12R,0.600000X0.300000*%
%ADD13RoundRect,0.250000X-0.350000X-0.625000X0.350000X-0.625000X0.350000X0.625000X-0.350000X0.625000X0*%
%ADD14O,1.200000X1.750000*%
%ADD15C,1.300000*%
%ADD16RoundRect,0.250000X-0.900000X-0.400000X0.900000X-0.400000X0.900000X0.400000X-0.900000X0.400000X0*%
%ADD17RoundRect,0.250000X-1.500000X-1.500000X1.500000X-1.500000X1.500000X1.500000X-1.500000X1.500000X0*%
%ADD18RoundRect,0.500000X-1.000000X-0.500000X1.000000X-0.500000X1.000000X0.500000X-1.000000X0.500000X0*%
%ADD19RoundRect,0.237500X0.250000X0.237500X-0.250000X0.237500X-0.250000X-0.237500X0.250000X-0.237500X0*%
%ADD20RoundRect,0.237500X0.300000X0.237500X-0.300000X0.237500X-0.300000X-0.237500X0.300000X-0.237500X0*%
%ADD21RoundRect,0.237500X-0.300000X-0.237500X0.300000X-0.237500X0.300000X0.237500X-0.300000X0.237500X0*%
%ADD22RoundRect,0.250000X-0.550000X-0.550000X0.550000X-0.550000X0.550000X0.550000X-0.550000X0.550000X0*%
%ADD23C,1.600000*%
%ADD24RoundRect,0.250000X-0.725000X0.600000X-0.725000X-0.600000X0.725000X-0.600000X0.725000X0.600000X0*%
%ADD25O,1.950000X1.700000*%
%ADD26RoundRect,0.237500X0.237500X-0.250000X0.237500X0.250000X-0.237500X0.250000X-0.237500X-0.250000X0*%
%ADD27RoundRect,0.237500X-0.237500X0.287500X-0.237500X-0.287500X0.237500X-0.287500X0.237500X0.287500X0*%
G04 APERTURE END LIST*
D10*
%TO.C,REF\u002A\u002A*%
X164560000Y-103810000D03*
%TD*%
%TO.C,REF\u002A\u002A*%
X217560000Y-103810000D03*
%TD*%
%TO.C,REF\u002A\u002A*%
X217560000Y-86810000D03*
%TD*%
%TO.C,REF\u002A\u002A*%
X164560000Y-86810000D03*
%TD*%
%TO.C,REF\u002A\u002A*%
X171500000Y-53750000D03*
%TD*%
%TO.C,REF\u002A\u002A*%
X171500000Y-73000000D03*
%TD*%
%TO.C,REF\u002A\u002A*%
X211000000Y-73000000D03*
%TD*%
%TO.C,REF\u002A\u002A*%
X211000000Y-53750000D03*
%TD*%
D11*
%TO.C,IC1*%
X178055000Y-53800000D03*
X177555000Y-53800000D03*
X177055000Y-53800000D03*
D12*
X176405000Y-53650000D03*
X176405000Y-53150000D03*
X176405000Y-52650000D03*
X176405000Y-52150000D03*
D11*
X177055000Y-52000000D03*
X177555000Y-52000000D03*
X178055000Y-52000000D03*
D12*
X178705000Y-52150000D03*
X178705000Y-52650000D03*
X178705000Y-53150000D03*
X178705000Y-53650000D03*
%TD*%
D13*
%TO.C,J1*%
X208000000Y-62500000D03*
D14*
X210000000Y-62500000D03*
%TD*%
D15*
%TO.C,U5*%
X194270000Y-54055000D03*
X194270000Y-56635000D03*
X194270000Y-59175000D03*
X191730000Y-59175000D03*
X191730000Y-56635000D03*
X191730000Y-54055000D03*
D16*
X188500000Y-60375000D03*
X188500000Y-62275000D03*
D17*
X195100000Y-63275000D03*
D18*
X201500000Y-55055000D03*
X201500000Y-57595000D03*
X201500000Y-60135000D03*
X201500000Y-62675000D03*
X201500000Y-65215000D03*
X201500000Y-67755000D03*
X201500000Y-70295000D03*
X184500000Y-70295000D03*
X184500000Y-67755000D03*
X184500000Y-65215000D03*
X184500000Y-62675000D03*
X184500000Y-60135000D03*
X184500000Y-57595000D03*
X184500000Y-55055000D03*
%TD*%
D19*
%TO.C,R3*%
X176805000Y-74500000D03*
X178630000Y-74500000D03*
%TD*%
D20*
%TO.C,C5*%
X176830000Y-66000000D03*
X178555000Y-66000000D03*
%TD*%
D21*
%TO.C,C3*%
X178555000Y-57500000D03*
X176830000Y-57500000D03*
%TD*%
%TO.C,C4*%
X178555000Y-61750000D03*
X176830000Y-61750000D03*
%TD*%
D19*
%TO.C,R2*%
X176730000Y-70250000D03*
X178555000Y-70250000D03*
%TD*%
D18*
%TO.C,U4*%
X173500000Y-87840000D03*
X173500000Y-90380000D03*
X173500000Y-92920000D03*
X173500000Y-95460000D03*
X173500000Y-98000000D03*
X173500000Y-100540000D03*
X173500000Y-103080000D03*
X190500000Y-103080000D03*
X190500000Y-100540000D03*
X190500000Y-98000000D03*
X190500000Y-95460000D03*
X190500000Y-92920000D03*
X190500000Y-90380000D03*
X190500000Y-87840000D03*
D17*
X184100000Y-96060000D03*
D16*
X177500000Y-95060000D03*
X177500000Y-93160000D03*
D15*
X180730000Y-86840000D03*
X180730000Y-89420000D03*
X180730000Y-91960000D03*
X183270000Y-91960000D03*
X183270000Y-89420000D03*
X183270000Y-86840000D03*
%TD*%
D22*
%TO.C,U3*%
X195577500Y-85610000D03*
D23*
X195577500Y-88150000D03*
X195577500Y-90690000D03*
X195577500Y-93230000D03*
X195577500Y-95770000D03*
X195577500Y-98310000D03*
X195577500Y-100850000D03*
X195577500Y-103390000D03*
X203197500Y-103390000D03*
X203197500Y-100850000D03*
X203197500Y-98310000D03*
X203197500Y-95770000D03*
X203197500Y-93230000D03*
X203197500Y-90690000D03*
X203197500Y-88150000D03*
X203197500Y-85610000D03*
%TD*%
D24*
%TO.C,U1*%
X210697500Y-89310000D03*
D25*
X210697500Y-91810000D03*
X210697500Y-94310000D03*
X210697500Y-96810000D03*
X210697500Y-99310000D03*
%TD*%
D26*
%TO.C,R1*%
X168560000Y-99135000D03*
X168560000Y-97310000D03*
%TD*%
D27*
%TO.C,D1*%
X164060000Y-93560000D03*
X164060000Y-95310000D03*
%TD*%
D21*
%TO.C,C2*%
X206247500Y-104810000D03*
X207972500Y-104810000D03*
%TD*%
%TO.C,C1*%
X210835000Y-104810000D03*
X212560000Y-104810000D03*
%TD*%
M02*
