%TF.GenerationSoftware,KiCad,Pcbnew,9.0.6*%
%TF.CreationDate,2026-02-16T17:47:16-08:00*%
%TF.ProjectId,514-Schematic,3531342d-5363-4686-956d-617469632e6b,rev?*%
%TF.SameCoordinates,Original*%
%TF.FileFunction,Copper,L2,Bot*%
%TF.FilePolarity,Positive*%
%FSLAX46Y46*%
G04 Gerber Fmt 4.6, Leading zero omitted, Abs format (unit mm)*
G04 Created by KiCad (PCBNEW 9.0.6) date 2026-02-16 17:47:16*
%MOMM*%
%LPD*%
G01*
G04 APERTURE LIST*
G04 Aperture macros list*
%AMRoundRect*
0 Rectangle with rounded corners*
0 $1 Rounding radius*
0 $2 $3 $4 $5 $6 $7 $8 $9 X,Y pos of 4 corners*
0 Add a 4 corners polygon primitive as box body*
4,1,4,$2,$3,$4,$5,$6,$7,$8,$9,$2,$3,0*
0 Add four circle primitives for the rounded corners*
1,1,$1+$1,$2,$3*
1,1,$1+$1,$4,$5*
1,1,$1+$1,$6,$7*
1,1,$1+$1,$8,$9*
0 Add four rect primitives between the rounded corners*
20,1,$1+$1,$2,$3,$4,$5,0*
20,1,$1+$1,$4,$5,$6,$7,0*
20,1,$1+$1,$6,$7,$8,$9,0*
20,1,$1+$1,$8,$9,$2,$3,0*%
G04 Aperture macros list end*
%TA.AperFunction,ComponentPad*%
%ADD10RoundRect,0.250000X-0.350000X-0.625000X0.350000X-0.625000X0.350000X0.625000X-0.350000X0.625000X0*%
%TD*%
%TA.AperFunction,ComponentPad*%
%ADD11O,1.200000X1.750000*%
%TD*%
%TA.AperFunction,ComponentPad*%
%ADD12RoundRect,0.250000X-0.550000X-0.550000X0.550000X-0.550000X0.550000X0.550000X-0.550000X0.550000X0*%
%TD*%
%TA.AperFunction,ComponentPad*%
%ADD13C,1.600000*%
%TD*%
%TA.AperFunction,ComponentPad*%
%ADD14RoundRect,0.250000X-0.725000X0.600000X-0.725000X-0.600000X0.725000X-0.600000X0.725000X0.600000X0*%
%TD*%
%TA.AperFunction,ComponentPad*%
%ADD15O,1.950000X1.700000*%
%TD*%
%TA.AperFunction,ViaPad*%
%ADD16C,0.600000*%
%TD*%
%TA.AperFunction,Conductor*%
%ADD17C,0.200000*%
%TD*%
G04 APERTURE END LIST*
D10*
%TO.P,J1,1,Pin_1*%
%TO.N,Net-(J1-Pin_1)*%
X208000000Y-62500000D03*
D11*
%TO.P,J1,2,Pin_2*%
%TO.N,GND*%
X210000000Y-62500000D03*
%TD*%
D12*
%TO.P,U3,1,I1*%
%TO.N,Net-(U3-I1)*%
X195577500Y-85610000D03*
D13*
%TO.P,U3,2,I2*%
%TO.N,Net-(U3-I2)*%
X195577500Y-88150000D03*
%TO.P,U3,3,I3*%
%TO.N,Net-(U3-I3)*%
X195577500Y-90690000D03*
%TO.P,U3,4,I4*%
%TO.N,Net-(U3-I4)*%
X195577500Y-93230000D03*
%TO.P,U3,5,I5*%
%TO.N,unconnected-(U3-I5-Pad5)*%
X195577500Y-95770000D03*
%TO.P,U3,6,I6*%
%TO.N,unconnected-(U3-I6-Pad6)*%
X195577500Y-98310000D03*
%TO.P,U3,7,I7*%
%TO.N,unconnected-(U3-I7-Pad7)*%
X195577500Y-100850000D03*
%TO.P,U3,8,GND*%
%TO.N,GND_D*%
X195577500Y-103390000D03*
%TO.P,U3,9,COM*%
%TO.N,Net-(U1-VCC)*%
X203197500Y-103390000D03*
%TO.P,U3,10,O7*%
%TO.N,unconnected-(U3-O7-Pad10)*%
X203197500Y-100850000D03*
%TO.P,U3,11,O6*%
%TO.N,unconnected-(U3-O6-Pad11)*%
X203197500Y-98310000D03*
%TO.P,U3,12,O5*%
%TO.N,unconnected-(U3-O5-Pad12)*%
X203197500Y-95770000D03*
%TO.P,U3,13,O4*%
%TO.N,Net-(U1-Input_4)*%
X203197500Y-93230000D03*
%TO.P,U3,14,O3*%
%TO.N,Net-(U1-Input_3)*%
X203197500Y-90690000D03*
%TO.P,U3,15,O2*%
%TO.N,Net-(U1-Input_2)*%
X203197500Y-88150000D03*
%TO.P,U3,16,O1*%
%TO.N,Net-(U1-Input_1)*%
X203197500Y-85610000D03*
%TD*%
D14*
%TO.P,U1,1,Input_1*%
%TO.N,Net-(U1-Input_1)*%
X210697500Y-89310000D03*
D15*
%TO.P,U1,2,Input_2*%
%TO.N,Net-(U1-Input_2)*%
X210697500Y-91810000D03*
%TO.P,U1,3,Input_3*%
%TO.N,Net-(U1-Input_3)*%
X210697500Y-94310000D03*
%TO.P,U1,4,Input_4*%
%TO.N,Net-(U1-Input_4)*%
X210697500Y-96810000D03*
%TO.P,U1,5,VCC*%
%TO.N,Net-(U1-VCC)*%
X210697500Y-99310000D03*
%TD*%
D16*
%TO.N,Net-(IC1-AP_SCL_{slash}_AP_SCLK)*%
X182305000Y-68000000D03*
%TO.N,Net-(IC1-AP_CS)*%
X178055000Y-60000000D03*
X198055000Y-60000000D03*
%TO.N,Net-(IC1-AP_SCL_{slash}_AP_SCLK)*%
X181305000Y-66250000D03*
%TO.N,Net-(J1-Pin_1)*%
X191805000Y-62250000D03*
%TD*%
D17*
%TO.N,Net-(J1-Pin_1)*%
X202055000Y-61000000D02*
X206500000Y-61000000D01*
X191805000Y-62250000D02*
X200805000Y-62250000D01*
X206500000Y-61000000D02*
X208000000Y-62500000D01*
X200805000Y-62250000D02*
X202055000Y-61000000D01*
%TO.N,Net-(IC1-AP_SCL_{slash}_AP_SCLK)*%
X181305000Y-67000000D02*
X181305000Y-66250000D01*
X182305000Y-68000000D02*
X181305000Y-67000000D01*
%TO.N,Net-(IC1-AP_CS)*%
X178055000Y-60000000D02*
X198055000Y-60000000D01*
%TD*%
%TA.AperFunction,Conductor*%
%TO.N,GND*%
G36*
X211003032Y-50250648D02*
G01*
X211336929Y-50267052D01*
X211349037Y-50268245D01*
X211452146Y-50283539D01*
X211676699Y-50316849D01*
X211688617Y-50319219D01*
X212009951Y-50399709D01*
X212021588Y-50403240D01*
X212092806Y-50428722D01*
X212333467Y-50514832D01*
X212344688Y-50519479D01*
X212644163Y-50661120D01*
X212654871Y-50666844D01*
X212938988Y-50837137D01*
X212949106Y-50843897D01*
X213215170Y-51041224D01*
X213224576Y-51048944D01*
X213470013Y-51271395D01*
X213478604Y-51279986D01*
X213665755Y-51486475D01*
X213701055Y-51525423D01*
X213708775Y-51534829D01*
X213906102Y-51800893D01*
X213912862Y-51811011D01*
X214041776Y-52026092D01*
X214083148Y-52095116D01*
X214088885Y-52105848D01*
X214230514Y-52405297D01*
X214235170Y-52416540D01*
X214346759Y-52728411D01*
X214350292Y-52740055D01*
X214430777Y-53061369D01*
X214433151Y-53073305D01*
X214481754Y-53400962D01*
X214482947Y-53413071D01*
X214499351Y-53746966D01*
X214499500Y-53753051D01*
X214499500Y-72996948D01*
X214499351Y-73003033D01*
X214482947Y-73336928D01*
X214481754Y-73349037D01*
X214433151Y-73676694D01*
X214430777Y-73688630D01*
X214350292Y-74009944D01*
X214346759Y-74021588D01*
X214235170Y-74333459D01*
X214230514Y-74344702D01*
X214088885Y-74644151D01*
X214083148Y-74654883D01*
X213912862Y-74938988D01*
X213906102Y-74949106D01*
X213708775Y-75215170D01*
X213701055Y-75224576D01*
X213478611Y-75470006D01*
X213470006Y-75478611D01*
X213224576Y-75701055D01*
X213215170Y-75708775D01*
X212949106Y-75906102D01*
X212938988Y-75912862D01*
X212654883Y-76083148D01*
X212644151Y-76088885D01*
X212344702Y-76230514D01*
X212333459Y-76235170D01*
X212021588Y-76346759D01*
X212009944Y-76350292D01*
X211688630Y-76430777D01*
X211676694Y-76433151D01*
X211349037Y-76481754D01*
X211336928Y-76482947D01*
X211021989Y-76498419D01*
X211003031Y-76499351D01*
X210996949Y-76499500D01*
X171503051Y-76499500D01*
X171496968Y-76499351D01*
X171476900Y-76498365D01*
X171163071Y-76482947D01*
X171150962Y-76481754D01*
X170823305Y-76433151D01*
X170811369Y-76430777D01*
X170490055Y-76350292D01*
X170478411Y-76346759D01*
X170166540Y-76235170D01*
X170155301Y-76230515D01*
X169855844Y-76088883D01*
X169845121Y-76083150D01*
X169561011Y-75912862D01*
X169550893Y-75906102D01*
X169284829Y-75708775D01*
X169275423Y-75701055D01*
X169236475Y-75665755D01*
X169029986Y-75478604D01*
X169021395Y-75470013D01*
X168798944Y-75224576D01*
X168791224Y-75215170D01*
X168593897Y-74949106D01*
X168587137Y-74938988D01*
X168416844Y-74654871D01*
X168411120Y-74644163D01*
X168269479Y-74344688D01*
X168264829Y-74333459D01*
X168218944Y-74205220D01*
X168153240Y-74021588D01*
X168149707Y-74009944D01*
X168140958Y-73975015D01*
X168069219Y-73688617D01*
X168066848Y-73676694D01*
X168018245Y-73349037D01*
X168017052Y-73336927D01*
X168000649Y-73003032D01*
X168000500Y-72996948D01*
X168000500Y-72897648D01*
X170199500Y-72897648D01*
X170199500Y-73102351D01*
X170231522Y-73304534D01*
X170294781Y-73499223D01*
X170358691Y-73624653D01*
X170385208Y-73676694D01*
X170387715Y-73681613D01*
X170508028Y-73847213D01*
X170652786Y-73991971D01*
X170807749Y-74104556D01*
X170818390Y-74112287D01*
X170934607Y-74171503D01*
X171000776Y-74205218D01*
X171000778Y-74205218D01*
X171000781Y-74205220D01*
X171105137Y-74239127D01*
X171195465Y-74268477D01*
X171296557Y-74284488D01*
X171397648Y-74300500D01*
X171397649Y-74300500D01*
X171602351Y-74300500D01*
X171602352Y-74300500D01*
X171804534Y-74268477D01*
X171999219Y-74205220D01*
X172181610Y-74112287D01*
X172274590Y-74044732D01*
X172347213Y-73991971D01*
X172347215Y-73991968D01*
X172347219Y-73991966D01*
X172491966Y-73847219D01*
X172491968Y-73847215D01*
X172491971Y-73847213D01*
X172544732Y-73774590D01*
X172612287Y-73681610D01*
X172705220Y-73499219D01*
X172768477Y-73304534D01*
X172800500Y-73102352D01*
X172800500Y-72897648D01*
X209699500Y-72897648D01*
X209699500Y-73102351D01*
X209731522Y-73304534D01*
X209794781Y-73499223D01*
X209858691Y-73624653D01*
X209885208Y-73676694D01*
X209887715Y-73681613D01*
X210008028Y-73847213D01*
X210152786Y-73991971D01*
X210307749Y-74104556D01*
X210318390Y-74112287D01*
X210434607Y-74171503D01*
X210500776Y-74205218D01*
X210500778Y-74205218D01*
X210500781Y-74205220D01*
X210605137Y-74239127D01*
X210695465Y-74268477D01*
X210796557Y-74284488D01*
X210897648Y-74300500D01*
X210897649Y-74300500D01*
X211102351Y-74300500D01*
X211102352Y-74300500D01*
X211304534Y-74268477D01*
X211499219Y-74205220D01*
X211681610Y-74112287D01*
X211774590Y-74044732D01*
X211847213Y-73991971D01*
X211847215Y-73991968D01*
X211847219Y-73991966D01*
X211991966Y-73847219D01*
X211991968Y-73847215D01*
X211991971Y-73847213D01*
X212044732Y-73774590D01*
X212112287Y-73681610D01*
X212205220Y-73499219D01*
X212268477Y-73304534D01*
X212300500Y-73102352D01*
X212300500Y-72897648D01*
X212268477Y-72695466D01*
X212205220Y-72500781D01*
X212205218Y-72500778D01*
X212205218Y-72500776D01*
X212171503Y-72434607D01*
X212112287Y-72318390D01*
X212104556Y-72307749D01*
X211991971Y-72152786D01*
X211847213Y-72008028D01*
X211681613Y-71887715D01*
X211681612Y-71887714D01*
X211681610Y-71887713D01*
X211624653Y-71858691D01*
X211499223Y-71794781D01*
X211304534Y-71731522D01*
X211129995Y-71703878D01*
X211102352Y-71699500D01*
X210897648Y-71699500D01*
X210873329Y-71703351D01*
X210695465Y-71731522D01*
X210500776Y-71794781D01*
X210318386Y-71887715D01*
X210152786Y-72008028D01*
X210008028Y-72152786D01*
X209887715Y-72318386D01*
X209794781Y-72500776D01*
X209731522Y-72695465D01*
X209699500Y-72897648D01*
X172800500Y-72897648D01*
X172768477Y-72695466D01*
X172705220Y-72500781D01*
X172705218Y-72500778D01*
X172705218Y-72500776D01*
X172671503Y-72434607D01*
X172612287Y-72318390D01*
X172604556Y-72307749D01*
X172491971Y-72152786D01*
X172347213Y-72008028D01*
X172181613Y-71887715D01*
X172181612Y-71887714D01*
X172181610Y-71887713D01*
X172124653Y-71858691D01*
X171999223Y-71794781D01*
X171804534Y-71731522D01*
X171629995Y-71703878D01*
X171602352Y-71699500D01*
X171397648Y-71699500D01*
X171373329Y-71703351D01*
X171195465Y-71731522D01*
X171000776Y-71794781D01*
X170818386Y-71887715D01*
X170652786Y-72008028D01*
X170508028Y-72152786D01*
X170387715Y-72318386D01*
X170294781Y-72500776D01*
X170231522Y-72695465D01*
X170199500Y-72897648D01*
X168000500Y-72897648D01*
X168000500Y-66171153D01*
X180504500Y-66171153D01*
X180504500Y-66328846D01*
X180535261Y-66483489D01*
X180535264Y-66483501D01*
X180595602Y-66629172D01*
X180595609Y-66629185D01*
X180683602Y-66760874D01*
X180689252Y-66778920D01*
X180699477Y-66794830D01*
X180703928Y-66825789D01*
X180704480Y-66827551D01*
X180704500Y-66829765D01*
X180704500Y-66913330D01*
X180704499Y-66913348D01*
X180704499Y-67079054D01*
X180704498Y-67079054D01*
X180745423Y-67231785D01*
X180774358Y-67281900D01*
X180774359Y-67281904D01*
X180774360Y-67281904D01*
X180824479Y-67368714D01*
X180824481Y-67368717D01*
X180943349Y-67487585D01*
X180943355Y-67487590D01*
X181470425Y-68014660D01*
X181503910Y-68075983D01*
X181504361Y-68078149D01*
X181535261Y-68233491D01*
X181535264Y-68233501D01*
X181595602Y-68379172D01*
X181595609Y-68379185D01*
X181683210Y-68510288D01*
X181683213Y-68510292D01*
X181794707Y-68621786D01*
X181794711Y-68621789D01*
X181925814Y-68709390D01*
X181925827Y-68709397D01*
X182071498Y-68769735D01*
X182071503Y-68769737D01*
X182226153Y-68800499D01*
X182226156Y-68800500D01*
X182226158Y-68800500D01*
X182383844Y-68800500D01*
X182383845Y-68800499D01*
X182538497Y-68769737D01*
X182684179Y-68709394D01*
X182815289Y-68621789D01*
X182926789Y-68510289D01*
X183014394Y-68379179D01*
X183074737Y-68233497D01*
X183105500Y-68078842D01*
X183105500Y-67921158D01*
X183105500Y-67921155D01*
X183105499Y-67921153D01*
X183074738Y-67766510D01*
X183074737Y-67766503D01*
X183074735Y-67766498D01*
X183014397Y-67620827D01*
X183014390Y-67620814D01*
X182926789Y-67489711D01*
X182926786Y-67489707D01*
X182815292Y-67378213D01*
X182815288Y-67378210D01*
X182684185Y-67290609D01*
X182684172Y-67290602D01*
X182538501Y-67230264D01*
X182538489Y-67230261D01*
X182383151Y-67199362D01*
X182321240Y-67166977D01*
X182319712Y-67165477D01*
X181993833Y-66839598D01*
X181960349Y-66778276D01*
X181965333Y-66708584D01*
X181978410Y-66683032D01*
X182014394Y-66629179D01*
X182074737Y-66483497D01*
X182105500Y-66328842D01*
X182105500Y-66171158D01*
X182105500Y-66171155D01*
X182105499Y-66171153D01*
X182074738Y-66016510D01*
X182074737Y-66016503D01*
X182074735Y-66016498D01*
X182014397Y-65870827D01*
X182014390Y-65870814D01*
X181926789Y-65739711D01*
X181926786Y-65739707D01*
X181815292Y-65628213D01*
X181815288Y-65628210D01*
X181684185Y-65540609D01*
X181684172Y-65540602D01*
X181538501Y-65480264D01*
X181538489Y-65480261D01*
X181383845Y-65449500D01*
X181383842Y-65449500D01*
X181226158Y-65449500D01*
X181226155Y-65449500D01*
X181071510Y-65480261D01*
X181071498Y-65480264D01*
X180925827Y-65540602D01*
X180925814Y-65540609D01*
X180794711Y-65628210D01*
X180794707Y-65628213D01*
X180683213Y-65739707D01*
X180683210Y-65739711D01*
X180595609Y-65870814D01*
X180595602Y-65870827D01*
X180535264Y-66016498D01*
X180535261Y-66016510D01*
X180504500Y-66171153D01*
X168000500Y-66171153D01*
X168000500Y-62171153D01*
X191004500Y-62171153D01*
X191004500Y-62328846D01*
X191035261Y-62483489D01*
X191035264Y-62483501D01*
X191095602Y-62629172D01*
X191095609Y-62629185D01*
X191183210Y-62760288D01*
X191183213Y-62760292D01*
X191294707Y-62871786D01*
X191294711Y-62871789D01*
X191425814Y-62959390D01*
X191425827Y-62959397D01*
X191571498Y-63019735D01*
X191571503Y-63019737D01*
X191726153Y-63050499D01*
X191726156Y-63050500D01*
X191726158Y-63050500D01*
X191883844Y-63050500D01*
X191883845Y-63050499D01*
X192038497Y-63019737D01*
X192184179Y-62959394D01*
X192184185Y-62959390D01*
X192315875Y-62871398D01*
X192382553Y-62850520D01*
X192384766Y-62850500D01*
X200718331Y-62850500D01*
X200718347Y-62850501D01*
X200725943Y-62850501D01*
X200884054Y-62850501D01*
X200884057Y-62850501D01*
X201036785Y-62809577D01*
X201086904Y-62780639D01*
X201173716Y-62730520D01*
X201285520Y-62618716D01*
X201285520Y-62618714D01*
X201295728Y-62608507D01*
X201295729Y-62608504D01*
X202267416Y-61636819D01*
X202328739Y-61603334D01*
X202355097Y-61600500D01*
X206199903Y-61600500D01*
X206266942Y-61620185D01*
X206287584Y-61636819D01*
X206863181Y-62212416D01*
X206896666Y-62273739D01*
X206899500Y-62300097D01*
X206899500Y-63175001D01*
X206899501Y-63175019D01*
X206910000Y-63277796D01*
X206910001Y-63277799D01*
X206965185Y-63444331D01*
X206965186Y-63444334D01*
X207057288Y-63593656D01*
X207181344Y-63717712D01*
X207330666Y-63809814D01*
X207497203Y-63864999D01*
X207599991Y-63875500D01*
X208400008Y-63875499D01*
X208400016Y-63875498D01*
X208400019Y-63875498D01*
X208456302Y-63869748D01*
X208502797Y-63864999D01*
X208669334Y-63809814D01*
X208818656Y-63717712D01*
X208942712Y-63593656D01*
X208982581Y-63529016D01*
X209034525Y-63482294D01*
X209103488Y-63471071D01*
X209167570Y-63498914D01*
X209175799Y-63506434D01*
X209283397Y-63614032D01*
X209423475Y-63715804D01*
X209577744Y-63794408D01*
X209742415Y-63847914D01*
X209742414Y-63847914D01*
X209749999Y-63849115D01*
X209750000Y-63849114D01*
X209750000Y-62780330D01*
X209769745Y-62800075D01*
X209855255Y-62849444D01*
X209950630Y-62875000D01*
X210049370Y-62875000D01*
X210144745Y-62849444D01*
X210230255Y-62800075D01*
X210250000Y-62780330D01*
X210250000Y-63849115D01*
X210257584Y-63847914D01*
X210422255Y-63794408D01*
X210576524Y-63715804D01*
X210716602Y-63614032D01*
X210839032Y-63491602D01*
X210940804Y-63351524D01*
X211019408Y-63197257D01*
X211072914Y-63032584D01*
X211100000Y-62861571D01*
X211100000Y-62750000D01*
X210280330Y-62750000D01*
X210300075Y-62730255D01*
X210349444Y-62644745D01*
X210375000Y-62549370D01*
X210375000Y-62450630D01*
X210349444Y-62355255D01*
X210300075Y-62269745D01*
X210280330Y-62250000D01*
X211100000Y-62250000D01*
X211100000Y-62138428D01*
X211072914Y-61967415D01*
X211019408Y-61802742D01*
X210940804Y-61648475D01*
X210839032Y-61508397D01*
X210716602Y-61385967D01*
X210576524Y-61284195D01*
X210422257Y-61205591D01*
X210257589Y-61152087D01*
X210257581Y-61152085D01*
X210250000Y-61150884D01*
X210250000Y-62219670D01*
X210230255Y-62199925D01*
X210144745Y-62150556D01*
X210049370Y-62125000D01*
X209950630Y-62125000D01*
X209855255Y-62150556D01*
X209769745Y-62199925D01*
X209750000Y-62219670D01*
X209750000Y-61150884D01*
X209749999Y-61150884D01*
X209742418Y-61152085D01*
X209742410Y-61152087D01*
X209577742Y-61205591D01*
X209423475Y-61284195D01*
X209283401Y-61385964D01*
X209175799Y-61493566D01*
X209114476Y-61527050D01*
X209044784Y-61522066D01*
X208988851Y-61480194D01*
X208982585Y-61470988D01*
X208942712Y-61406344D01*
X208818656Y-61282288D01*
X208669334Y-61190186D01*
X208502797Y-61135001D01*
X208502795Y-61135000D01*
X208400010Y-61124500D01*
X207599998Y-61124500D01*
X207599975Y-61124502D01*
X207544052Y-61130214D01*
X207475360Y-61117443D01*
X207443772Y-61094537D01*
X206987590Y-60638355D01*
X206987588Y-60638352D01*
X206868717Y-60519481D01*
X206868716Y-60519480D01*
X206781904Y-60469360D01*
X206781904Y-60469359D01*
X206781900Y-60469358D01*
X206731785Y-60440423D01*
X206579057Y-60399499D01*
X206420943Y-60399499D01*
X206413347Y-60399499D01*
X206413331Y-60399500D01*
X202141669Y-60399500D01*
X202141653Y-60399499D01*
X202134057Y-60399499D01*
X201975943Y-60399499D01*
X201868587Y-60428265D01*
X201823210Y-60440424D01*
X201823209Y-60440425D01*
X201773096Y-60469359D01*
X201773095Y-60469360D01*
X201729689Y-60494420D01*
X201686285Y-60519479D01*
X201686282Y-60519481D01*
X201605264Y-60600500D01*
X201574480Y-60631284D01*
X201574478Y-60631286D01*
X201067537Y-61138228D01*
X200592584Y-61613181D01*
X200531261Y-61646666D01*
X200504903Y-61649500D01*
X192384766Y-61649500D01*
X192317727Y-61629815D01*
X192315875Y-61628602D01*
X192184185Y-61540609D01*
X192184172Y-61540602D01*
X192038501Y-61480264D01*
X192038489Y-61480261D01*
X191883845Y-61449500D01*
X191883842Y-61449500D01*
X191726158Y-61449500D01*
X191726155Y-61449500D01*
X191571510Y-61480261D01*
X191571498Y-61480264D01*
X191425827Y-61540602D01*
X191425814Y-61540609D01*
X191294711Y-61628210D01*
X191294707Y-61628213D01*
X191183213Y-61739707D01*
X191183210Y-61739711D01*
X191095609Y-61870814D01*
X191095602Y-61870827D01*
X191035264Y-62016498D01*
X191035261Y-62016510D01*
X191004500Y-62171153D01*
X168000500Y-62171153D01*
X168000500Y-59921153D01*
X177254500Y-59921153D01*
X177254500Y-60078846D01*
X177285261Y-60233489D01*
X177285264Y-60233501D01*
X177345602Y-60379172D01*
X177345609Y-60379185D01*
X177433210Y-60510288D01*
X177433213Y-60510292D01*
X177544707Y-60621786D01*
X177544711Y-60621789D01*
X177675814Y-60709390D01*
X177675827Y-60709397D01*
X177821498Y-60769735D01*
X177821503Y-60769737D01*
X177976153Y-60800499D01*
X177976156Y-60800500D01*
X177976158Y-60800500D01*
X178133844Y-60800500D01*
X178133845Y-60800499D01*
X178288497Y-60769737D01*
X178434179Y-60709394D01*
X178434185Y-60709390D01*
X178565875Y-60621398D01*
X178632553Y-60600520D01*
X178634766Y-60600500D01*
X197475234Y-60600500D01*
X197542273Y-60620185D01*
X197544125Y-60621398D01*
X197675814Y-60709390D01*
X197675827Y-60709397D01*
X197821498Y-60769735D01*
X197821503Y-60769737D01*
X197976153Y-60800499D01*
X197976156Y-60800500D01*
X197976158Y-60800500D01*
X198133844Y-60800500D01*
X198133845Y-60800499D01*
X198288497Y-60769737D01*
X198434179Y-60709394D01*
X198565289Y-60621789D01*
X198676789Y-60510289D01*
X198764394Y-60379179D01*
X198824737Y-60233497D01*
X198855500Y-60078842D01*
X198855500Y-59921158D01*
X198855500Y-59921155D01*
X198855499Y-59921153D01*
X198824738Y-59766510D01*
X198824737Y-59766503D01*
X198824735Y-59766498D01*
X198764397Y-59620827D01*
X198764390Y-59620814D01*
X198676789Y-59489711D01*
X198676786Y-59489707D01*
X198565292Y-59378213D01*
X198565288Y-59378210D01*
X198434185Y-59290609D01*
X198434172Y-59290602D01*
X198288501Y-59230264D01*
X198288489Y-59230261D01*
X198133845Y-59199500D01*
X198133842Y-59199500D01*
X197976158Y-59199500D01*
X197976155Y-59199500D01*
X197821510Y-59230261D01*
X197821498Y-59230264D01*
X197675827Y-59290602D01*
X197675814Y-59290609D01*
X197544125Y-59378602D01*
X197477447Y-59399480D01*
X197475234Y-59399500D01*
X178634766Y-59399500D01*
X178567727Y-59379815D01*
X178565875Y-59378602D01*
X178434185Y-59290609D01*
X178434172Y-59290602D01*
X178288501Y-59230264D01*
X178288489Y-59230261D01*
X178133845Y-59199500D01*
X178133842Y-59199500D01*
X177976158Y-59199500D01*
X177976155Y-59199500D01*
X177821510Y-59230261D01*
X177821498Y-59230264D01*
X177675827Y-59290602D01*
X177675814Y-59290609D01*
X177544711Y-59378210D01*
X177544707Y-59378213D01*
X177433213Y-59489707D01*
X177433210Y-59489711D01*
X177345609Y-59620814D01*
X177345602Y-59620827D01*
X177285264Y-59766498D01*
X177285261Y-59766510D01*
X177254500Y-59921153D01*
X168000500Y-59921153D01*
X168000500Y-53753051D01*
X168000649Y-53746967D01*
X168005528Y-53647648D01*
X170199500Y-53647648D01*
X170199500Y-53852351D01*
X170231522Y-54054534D01*
X170294781Y-54249223D01*
X170387715Y-54431613D01*
X170508028Y-54597213D01*
X170652786Y-54741971D01*
X170807749Y-54854556D01*
X170818390Y-54862287D01*
X170934607Y-54921503D01*
X171000776Y-54955218D01*
X171000778Y-54955218D01*
X171000781Y-54955220D01*
X171105137Y-54989127D01*
X171195465Y-55018477D01*
X171296557Y-55034488D01*
X171397648Y-55050500D01*
X171397649Y-55050500D01*
X171602351Y-55050500D01*
X171602352Y-55050500D01*
X171804534Y-55018477D01*
X171999219Y-54955220D01*
X172181610Y-54862287D01*
X172274590Y-54794732D01*
X172347213Y-54741971D01*
X172347215Y-54741968D01*
X172347219Y-54741966D01*
X172491966Y-54597219D01*
X172491968Y-54597215D01*
X172491971Y-54597213D01*
X172544732Y-54524590D01*
X172612287Y-54431610D01*
X172705220Y-54249219D01*
X172768477Y-54054534D01*
X172800500Y-53852352D01*
X172800500Y-53647648D01*
X209699500Y-53647648D01*
X209699500Y-53852351D01*
X209731522Y-54054534D01*
X209794781Y-54249223D01*
X209887715Y-54431613D01*
X210008028Y-54597213D01*
X210152786Y-54741971D01*
X210307749Y-54854556D01*
X210318390Y-54862287D01*
X210434607Y-54921503D01*
X210500776Y-54955218D01*
X210500778Y-54955218D01*
X210500781Y-54955220D01*
X210605137Y-54989127D01*
X210695465Y-55018477D01*
X210796557Y-55034488D01*
X210897648Y-55050500D01*
X210897649Y-55050500D01*
X211102351Y-55050500D01*
X211102352Y-55050500D01*
X211304534Y-55018477D01*
X211499219Y-54955220D01*
X211681610Y-54862287D01*
X211774590Y-54794732D01*
X211847213Y-54741971D01*
X211847215Y-54741968D01*
X211847219Y-54741966D01*
X211991966Y-54597219D01*
X211991968Y-54597215D01*
X211991971Y-54597213D01*
X212044732Y-54524590D01*
X212112287Y-54431610D01*
X212205220Y-54249219D01*
X212268477Y-54054534D01*
X212300500Y-53852352D01*
X212300500Y-53647648D01*
X212268477Y-53445466D01*
X212205220Y-53250781D01*
X212205218Y-53250778D01*
X212205218Y-53250776D01*
X212159987Y-53162007D01*
X212112287Y-53068390D01*
X212104556Y-53057749D01*
X211991971Y-52902786D01*
X211847213Y-52758028D01*
X211681613Y-52637715D01*
X211681612Y-52637714D01*
X211681610Y-52637713D01*
X211624653Y-52608691D01*
X211499223Y-52544781D01*
X211304534Y-52481522D01*
X211129995Y-52453878D01*
X211102352Y-52449500D01*
X210897648Y-52449500D01*
X210873329Y-52453351D01*
X210695465Y-52481522D01*
X210500776Y-52544781D01*
X210318386Y-52637715D01*
X210152786Y-52758028D01*
X210008028Y-52902786D01*
X209887715Y-53068386D01*
X209794781Y-53250776D01*
X209731522Y-53445465D01*
X209699500Y-53647648D01*
X172800500Y-53647648D01*
X172768477Y-53445466D01*
X172705220Y-53250781D01*
X172705218Y-53250778D01*
X172705218Y-53250776D01*
X172659987Y-53162007D01*
X172612287Y-53068390D01*
X172604556Y-53057749D01*
X172491971Y-52902786D01*
X172347213Y-52758028D01*
X172181613Y-52637715D01*
X172181612Y-52637714D01*
X172181610Y-52637713D01*
X172124653Y-52608691D01*
X171999223Y-52544781D01*
X171804534Y-52481522D01*
X171629995Y-52453878D01*
X171602352Y-52449500D01*
X171397648Y-52449500D01*
X171373329Y-52453351D01*
X171195465Y-52481522D01*
X171000776Y-52544781D01*
X170818386Y-52637715D01*
X170652786Y-52758028D01*
X170508028Y-52902786D01*
X170387715Y-53068386D01*
X170294781Y-53250776D01*
X170231522Y-53445465D01*
X170199500Y-53647648D01*
X168005528Y-53647648D01*
X168006066Y-53636692D01*
X168006066Y-53636691D01*
X168015461Y-53445466D01*
X168017052Y-53413066D01*
X168018245Y-53400962D01*
X168040523Y-53250776D01*
X168066849Y-53073296D01*
X168069218Y-53061385D01*
X168149710Y-52740043D01*
X168153240Y-52728411D01*
X168264835Y-52416525D01*
X168269476Y-52405318D01*
X168411124Y-52105828D01*
X168416840Y-52095136D01*
X168587145Y-51810998D01*
X168593888Y-51800905D01*
X168791232Y-51534818D01*
X168798935Y-51525433D01*
X169021405Y-51279975D01*
X169029975Y-51271405D01*
X169275433Y-51048935D01*
X169284818Y-51041232D01*
X169550905Y-50843888D01*
X169560998Y-50837145D01*
X169845136Y-50666840D01*
X169855828Y-50661124D01*
X170155318Y-50519476D01*
X170166525Y-50514835D01*
X170478412Y-50403239D01*
X170490043Y-50399710D01*
X170811385Y-50319218D01*
X170823296Y-50316849D01*
X171150962Y-50268244D01*
X171163068Y-50267052D01*
X171496967Y-50250648D01*
X171503051Y-50250500D01*
X171565892Y-50250500D01*
X210934108Y-50250500D01*
X210996949Y-50250500D01*
X211003032Y-50250648D01*
G37*
%TD.AperFunction*%
%TD*%
%TA.AperFunction,Conductor*%
%TO.N,GND_D*%
G36*
X217563032Y-83310648D02*
G01*
X217896929Y-83327052D01*
X217909037Y-83328245D01*
X218012146Y-83343539D01*
X218236699Y-83376849D01*
X218248617Y-83379219D01*
X218569951Y-83459709D01*
X218581588Y-83463240D01*
X218652806Y-83488722D01*
X218893467Y-83574832D01*
X218904688Y-83579479D01*
X219204163Y-83721120D01*
X219214871Y-83726844D01*
X219498988Y-83897137D01*
X219509106Y-83903897D01*
X219775170Y-84101224D01*
X219784576Y-84108944D01*
X220030013Y-84331395D01*
X220038604Y-84339986D01*
X220181561Y-84497715D01*
X220261055Y-84585423D01*
X220268775Y-84594829D01*
X220466102Y-84860893D01*
X220472862Y-84871011D01*
X220521703Y-84952498D01*
X220616574Y-85110781D01*
X220643148Y-85155116D01*
X220648885Y-85165848D01*
X220790514Y-85465297D01*
X220795170Y-85476540D01*
X220906759Y-85788411D01*
X220910292Y-85800055D01*
X220990777Y-86121369D01*
X220993151Y-86133305D01*
X221041754Y-86460962D01*
X221042947Y-86473071D01*
X221059351Y-86806966D01*
X221059500Y-86813051D01*
X221059500Y-103806948D01*
X221059351Y-103813033D01*
X221042947Y-104146928D01*
X221041754Y-104159037D01*
X220993151Y-104486694D01*
X220990777Y-104498630D01*
X220910292Y-104819944D01*
X220906759Y-104831588D01*
X220795170Y-105143459D01*
X220790514Y-105154702D01*
X220648885Y-105454151D01*
X220643148Y-105464883D01*
X220472862Y-105748988D01*
X220466102Y-105759106D01*
X220268775Y-106025170D01*
X220261055Y-106034576D01*
X220038611Y-106280006D01*
X220030006Y-106288611D01*
X219784576Y-106511055D01*
X219775170Y-106518775D01*
X219509106Y-106716102D01*
X219498988Y-106722862D01*
X219214883Y-106893148D01*
X219204151Y-106898885D01*
X218904702Y-107040514D01*
X218893459Y-107045170D01*
X218581588Y-107156759D01*
X218569944Y-107160292D01*
X218248630Y-107240777D01*
X218236694Y-107243151D01*
X217909037Y-107291754D01*
X217896928Y-107292947D01*
X217581989Y-107308419D01*
X217563031Y-107309351D01*
X217556949Y-107309500D01*
X164563051Y-107309500D01*
X164556968Y-107309351D01*
X164536900Y-107308365D01*
X164223071Y-107292947D01*
X164210962Y-107291754D01*
X163883305Y-107243151D01*
X163871369Y-107240777D01*
X163550055Y-107160292D01*
X163538411Y-107156759D01*
X163226540Y-107045170D01*
X163215301Y-107040515D01*
X162915844Y-106898883D01*
X162905121Y-106893150D01*
X162621011Y-106722862D01*
X162610893Y-106716102D01*
X162344829Y-106518775D01*
X162335423Y-106511055D01*
X162296475Y-106475755D01*
X162089986Y-106288604D01*
X162081395Y-106280013D01*
X161858944Y-106034576D01*
X161851224Y-106025170D01*
X161653897Y-105759106D01*
X161647137Y-105748988D01*
X161476844Y-105464871D01*
X161471120Y-105454163D01*
X161329479Y-105154688D01*
X161324829Y-105143459D01*
X161278944Y-105015220D01*
X161213240Y-104831588D01*
X161209707Y-104819944D01*
X161169140Y-104657990D01*
X161129219Y-104498617D01*
X161126848Y-104486694D01*
X161078245Y-104159037D01*
X161077052Y-104146927D01*
X161060649Y-103813032D01*
X161060500Y-103806948D01*
X161060500Y-103707648D01*
X163259500Y-103707648D01*
X163259500Y-103912351D01*
X163291522Y-104114534D01*
X163354781Y-104309223D01*
X163418691Y-104434653D01*
X163445208Y-104486694D01*
X163447715Y-104491613D01*
X163568028Y-104657213D01*
X163712786Y-104801971D01*
X163867749Y-104914556D01*
X163878390Y-104922287D01*
X163994607Y-104981503D01*
X164060776Y-105015218D01*
X164060778Y-105015218D01*
X164060781Y-105015220D01*
X164165137Y-105049127D01*
X164255465Y-105078477D01*
X164356557Y-105094488D01*
X164457648Y-105110500D01*
X164457649Y-105110500D01*
X164662351Y-105110500D01*
X164662352Y-105110500D01*
X164864534Y-105078477D01*
X165059219Y-105015220D01*
X165241610Y-104922287D01*
X165334590Y-104854732D01*
X165407213Y-104801971D01*
X165407215Y-104801968D01*
X165407219Y-104801966D01*
X165551966Y-104657219D01*
X165551968Y-104657215D01*
X165551971Y-104657213D01*
X165672284Y-104491614D01*
X165672285Y-104491613D01*
X165672287Y-104491610D01*
X165765220Y-104309219D01*
X165828477Y-104114534D01*
X165860500Y-103912352D01*
X165860500Y-103707648D01*
X165828477Y-103505466D01*
X165828476Y-103505462D01*
X165828476Y-103505461D01*
X165768584Y-103321134D01*
X165768583Y-103321133D01*
X165765220Y-103310781D01*
X165672287Y-103128390D01*
X165664556Y-103117749D01*
X165551971Y-102962786D01*
X165407213Y-102818028D01*
X165241613Y-102697715D01*
X165241612Y-102697714D01*
X165241610Y-102697713D01*
X165175594Y-102664076D01*
X165059223Y-102604781D01*
X164864534Y-102541522D01*
X164689995Y-102513878D01*
X164662352Y-102509500D01*
X164457648Y-102509500D01*
X164433329Y-102513351D01*
X164255465Y-102541522D01*
X164060776Y-102604781D01*
X163878386Y-102697715D01*
X163712786Y-102818028D01*
X163568028Y-102962786D01*
X163447715Y-103128386D01*
X163354781Y-103310776D01*
X163291522Y-103505465D01*
X163259500Y-103707648D01*
X161060500Y-103707648D01*
X161060500Y-86813051D01*
X161060649Y-86806967D01*
X161065528Y-86707648D01*
X163259500Y-86707648D01*
X163259500Y-86912351D01*
X163291522Y-87114534D01*
X163354781Y-87309223D01*
X163447715Y-87491613D01*
X163568028Y-87657213D01*
X163712786Y-87801971D01*
X163867749Y-87914556D01*
X163878390Y-87922287D01*
X163972032Y-87970000D01*
X164060776Y-88015218D01*
X164060778Y-88015218D01*
X164060781Y-88015220D01*
X164160584Y-88047648D01*
X164255465Y-88078477D01*
X164356557Y-88094488D01*
X164457648Y-88110500D01*
X164457649Y-88110500D01*
X164662351Y-88110500D01*
X164662352Y-88110500D01*
X164864534Y-88078477D01*
X165059219Y-88015220D01*
X165241610Y-87922287D01*
X165347347Y-87845465D01*
X165407213Y-87801971D01*
X165407215Y-87801968D01*
X165407219Y-87801966D01*
X165551966Y-87657219D01*
X165551968Y-87657215D01*
X165551971Y-87657213D01*
X165604732Y-87584590D01*
X165672287Y-87491610D01*
X165765220Y-87309219D01*
X165828477Y-87114534D01*
X165860500Y-86912352D01*
X165860500Y-86707648D01*
X165828477Y-86505466D01*
X165765220Y-86310781D01*
X165765218Y-86310778D01*
X165765218Y-86310776D01*
X165719987Y-86222007D01*
X165672287Y-86128390D01*
X165664556Y-86117749D01*
X165551971Y-85962786D01*
X165407213Y-85818028D01*
X165241613Y-85697715D01*
X165241612Y-85697714D01*
X165241610Y-85697713D01*
X165184653Y-85668691D01*
X165059223Y-85604781D01*
X164864534Y-85541522D01*
X164689995Y-85513878D01*
X164662352Y-85509500D01*
X164457648Y-85509500D01*
X164433329Y-85513351D01*
X164255465Y-85541522D01*
X164060776Y-85604781D01*
X163878386Y-85697715D01*
X163712786Y-85818028D01*
X163568028Y-85962786D01*
X163447715Y-86128386D01*
X163354781Y-86310776D01*
X163291522Y-86505465D01*
X163259500Y-86707648D01*
X161065528Y-86707648D01*
X161066066Y-86696692D01*
X161066066Y-86696691D01*
X161069409Y-86628657D01*
X161077052Y-86473066D01*
X161078245Y-86460962D01*
X161100223Y-86312796D01*
X161126849Y-86133296D01*
X161129218Y-86121385D01*
X161209710Y-85800043D01*
X161213240Y-85788411D01*
X161324835Y-85476525D01*
X161329476Y-85465318D01*
X161471124Y-85165828D01*
X161476840Y-85155136D01*
X161563841Y-85009983D01*
X194277000Y-85009983D01*
X194277000Y-86210001D01*
X194277001Y-86210018D01*
X194287500Y-86312796D01*
X194287501Y-86312799D01*
X194335356Y-86457213D01*
X194342686Y-86479334D01*
X194434788Y-86628656D01*
X194558844Y-86752712D01*
X194708166Y-86844814D01*
X194790070Y-86871954D01*
X194847515Y-86911727D01*
X194874338Y-86976243D01*
X194862023Y-87045018D01*
X194823951Y-87089978D01*
X194730287Y-87158028D01*
X194730282Y-87158032D01*
X194585528Y-87302786D01*
X194465215Y-87468386D01*
X194372281Y-87650776D01*
X194309022Y-87845465D01*
X194277000Y-88047648D01*
X194277000Y-88252351D01*
X194309022Y-88454534D01*
X194372281Y-88649223D01*
X194465215Y-88831613D01*
X194585528Y-88997213D01*
X194730286Y-89141971D01*
X194885249Y-89254556D01*
X194895890Y-89262287D01*
X194987340Y-89308883D01*
X194988580Y-89309515D01*
X195039376Y-89357490D01*
X195056171Y-89425311D01*
X195033634Y-89491446D01*
X194988580Y-89530485D01*
X194895886Y-89577715D01*
X194730286Y-89698028D01*
X194585528Y-89842786D01*
X194465215Y-90008386D01*
X194372281Y-90190776D01*
X194309022Y-90385465D01*
X194277000Y-90587648D01*
X194277000Y-90792351D01*
X194309022Y-90994534D01*
X194372281Y-91189223D01*
X194465215Y-91371613D01*
X194585528Y-91537213D01*
X194730286Y-91681971D01*
X194885249Y-91794556D01*
X194895890Y-91802287D01*
X194987340Y-91848883D01*
X194988580Y-91849515D01*
X195039376Y-91897490D01*
X195056171Y-91965311D01*
X195033634Y-92031446D01*
X194988580Y-92070485D01*
X194895886Y-92117715D01*
X194730286Y-92238028D01*
X194585528Y-92382786D01*
X194465215Y-92548386D01*
X194372281Y-92730776D01*
X194309022Y-92925465D01*
X194277000Y-93127648D01*
X194277000Y-93332351D01*
X194309022Y-93534534D01*
X194372281Y-93729223D01*
X194465215Y-93911613D01*
X194585528Y-94077213D01*
X194730286Y-94221971D01*
X194885249Y-94334556D01*
X194895890Y-94342287D01*
X194987340Y-94388883D01*
X194988580Y-94389515D01*
X195039376Y-94437490D01*
X195056171Y-94505311D01*
X195033634Y-94571446D01*
X194988580Y-94610485D01*
X194895886Y-94657715D01*
X194730286Y-94778028D01*
X194585528Y-94922786D01*
X194465215Y-95088386D01*
X194372281Y-95270776D01*
X194309022Y-95465465D01*
X194277000Y-95667648D01*
X194277000Y-95872351D01*
X194309022Y-96074534D01*
X194372281Y-96269223D01*
X194465215Y-96451613D01*
X194585528Y-96617213D01*
X194730286Y-96761971D01*
X194885249Y-96874556D01*
X194895890Y-96882287D01*
X194962617Y-96916286D01*
X194988580Y-96929515D01*
X195039376Y-96977490D01*
X195056171Y-97045311D01*
X195033634Y-97111446D01*
X194988580Y-97150485D01*
X194895886Y-97197715D01*
X194730286Y-97318028D01*
X194585528Y-97462786D01*
X194465215Y-97628386D01*
X194372281Y-97810776D01*
X194309022Y-98005465D01*
X194277000Y-98207648D01*
X194277000Y-98412351D01*
X194309022Y-98614534D01*
X194372281Y-98809223D01*
X194465215Y-98991613D01*
X194585528Y-99157213D01*
X194730286Y-99301971D01*
X194885249Y-99414556D01*
X194895890Y-99422287D01*
X194987340Y-99468883D01*
X194988580Y-99469515D01*
X195039376Y-99517490D01*
X195056171Y-99585311D01*
X195033634Y-99651446D01*
X194988580Y-99690485D01*
X194895886Y-99737715D01*
X194730286Y-99858028D01*
X194585528Y-100002786D01*
X194465215Y-100168386D01*
X194372281Y-100350776D01*
X194309022Y-100545465D01*
X194277000Y-100747648D01*
X194277000Y-100952351D01*
X194309022Y-101154534D01*
X194372281Y-101349223D01*
X194465215Y-101531613D01*
X194585528Y-101697213D01*
X194730286Y-101841971D01*
X194895885Y-101962284D01*
X194895887Y-101962285D01*
X194895890Y-101962287D01*
X194988580Y-102009515D01*
X194989130Y-102009795D01*
X195039926Y-102057770D01*
X195056721Y-102125591D01*
X195034184Y-102191725D01*
X194989130Y-102230765D01*
X194896144Y-102278143D01*
X194851577Y-102310523D01*
X194851577Y-102310524D01*
X195531054Y-102990000D01*
X195524839Y-102990000D01*
X195423106Y-103017259D01*
X195331894Y-103069920D01*
X195257420Y-103144394D01*
X195204759Y-103235606D01*
X195177500Y-103337339D01*
X195177500Y-103343553D01*
X194498024Y-102664077D01*
X194498023Y-102664077D01*
X194465643Y-102708644D01*
X194372744Y-102890968D01*
X194309509Y-103085582D01*
X194277500Y-103287682D01*
X194277500Y-103492317D01*
X194309509Y-103694417D01*
X194372744Y-103889031D01*
X194465641Y-104071350D01*
X194465647Y-104071359D01*
X194498023Y-104115921D01*
X194498024Y-104115922D01*
X195177500Y-103436446D01*
X195177500Y-103442661D01*
X195204759Y-103544394D01*
X195257420Y-103635606D01*
X195331894Y-103710080D01*
X195423106Y-103762741D01*
X195524839Y-103790000D01*
X195531053Y-103790000D01*
X194851576Y-104469474D01*
X194896150Y-104501859D01*
X195078468Y-104594755D01*
X195273082Y-104657990D01*
X195475183Y-104690000D01*
X195679817Y-104690000D01*
X195881917Y-104657990D01*
X196076531Y-104594755D01*
X196258849Y-104501859D01*
X196303421Y-104469474D01*
X195623947Y-103790000D01*
X195630161Y-103790000D01*
X195731894Y-103762741D01*
X195823106Y-103710080D01*
X195897580Y-103635606D01*
X195950241Y-103544394D01*
X195977500Y-103442661D01*
X195977500Y-103436448D01*
X196656974Y-104115922D01*
X196656974Y-104115921D01*
X196689359Y-104071349D01*
X196782255Y-103889031D01*
X196845490Y-103694417D01*
X196877500Y-103492317D01*
X196877500Y-103287682D01*
X196845490Y-103085582D01*
X196782255Y-102890968D01*
X196689359Y-102708650D01*
X196656974Y-102664077D01*
X196656974Y-102664076D01*
X195977500Y-103343551D01*
X195977500Y-103337339D01*
X195950241Y-103235606D01*
X195897580Y-103144394D01*
X195823106Y-103069920D01*
X195731894Y-103017259D01*
X195630161Y-102990000D01*
X195623946Y-102990000D01*
X196303422Y-102310524D01*
X196303421Y-102310523D01*
X196258859Y-102278147D01*
X196258850Y-102278141D01*
X196165869Y-102230765D01*
X196115073Y-102182790D01*
X196098278Y-102114969D01*
X196120815Y-102048835D01*
X196165870Y-102009795D01*
X196166420Y-102009515D01*
X196259110Y-101962287D01*
X196308644Y-101926298D01*
X196424713Y-101841971D01*
X196424715Y-101841968D01*
X196424719Y-101841966D01*
X196569466Y-101697219D01*
X196569468Y-101697215D01*
X196569471Y-101697213D01*
X196622232Y-101624590D01*
X196689787Y-101531610D01*
X196782720Y-101349219D01*
X196845977Y-101154534D01*
X196878000Y-100952352D01*
X196878000Y-100747648D01*
X196845977Y-100545466D01*
X196782720Y-100350781D01*
X196782718Y-100350778D01*
X196782718Y-100350776D01*
X196749003Y-100284607D01*
X196689787Y-100168390D01*
X196682056Y-100157749D01*
X196569471Y-100002786D01*
X196424713Y-99858028D01*
X196259114Y-99737715D01*
X196252506Y-99734348D01*
X196166417Y-99690483D01*
X196115623Y-99642511D01*
X196098828Y-99574690D01*
X196121365Y-99508555D01*
X196166417Y-99469516D01*
X196259110Y-99422287D01*
X196280270Y-99406913D01*
X196424713Y-99301971D01*
X196424715Y-99301968D01*
X196424719Y-99301966D01*
X196569466Y-99157219D01*
X196569468Y-99157215D01*
X196569471Y-99157213D01*
X196622232Y-99084590D01*
X196689787Y-98991610D01*
X196782720Y-98809219D01*
X196845977Y-98614534D01*
X196878000Y-98412352D01*
X196878000Y-98207648D01*
X196858515Y-98084625D01*
X196845977Y-98005465D01*
X196792248Y-97840105D01*
X196782720Y-97810781D01*
X196782718Y-97810778D01*
X196782718Y-97810776D01*
X196749003Y-97744607D01*
X196689787Y-97628390D01*
X196682056Y-97617749D01*
X196569471Y-97462786D01*
X196424713Y-97318028D01*
X196259114Y-97197715D01*
X196252506Y-97194348D01*
X196166417Y-97150483D01*
X196115623Y-97102511D01*
X196098828Y-97034690D01*
X196121365Y-96968555D01*
X196166417Y-96929516D01*
X196259110Y-96882287D01*
X196280270Y-96866913D01*
X196424713Y-96761971D01*
X196424715Y-96761968D01*
X196424719Y-96761966D01*
X196569466Y-96617219D01*
X196569468Y-96617215D01*
X196569471Y-96617213D01*
X196659163Y-96493760D01*
X196689787Y-96451610D01*
X196782720Y-96269219D01*
X196845977Y-96074534D01*
X196878000Y-95872352D01*
X196878000Y-95667648D01*
X196845977Y-95465466D01*
X196844097Y-95459681D01*
X196782718Y-95270776D01*
X196741451Y-95189786D01*
X196689787Y-95088390D01*
X196682056Y-95077749D01*
X196569471Y-94922786D01*
X196424713Y-94778028D01*
X196259114Y-94657715D01*
X196252506Y-94654348D01*
X196166417Y-94610483D01*
X196115623Y-94562511D01*
X196098828Y-94494690D01*
X196121365Y-94428555D01*
X196166417Y-94389516D01*
X196259110Y-94342287D01*
X196280270Y-94326913D01*
X196424713Y-94221971D01*
X196424715Y-94221968D01*
X196424719Y-94221966D01*
X196569466Y-94077219D01*
X196569468Y-94077215D01*
X196569471Y-94077213D01*
X196630104Y-93993757D01*
X196689787Y-93911610D01*
X196782720Y-93729219D01*
X196845977Y-93534534D01*
X196878000Y-93332352D01*
X196878000Y-93127648D01*
X196852247Y-92965051D01*
X196845977Y-92925465D01*
X196782718Y-92730776D01*
X196749003Y-92664607D01*
X196689787Y-92548390D01*
X196667574Y-92517816D01*
X196569471Y-92382786D01*
X196424713Y-92238028D01*
X196259114Y-92117715D01*
X196252506Y-92114348D01*
X196166417Y-92070483D01*
X196115623Y-92022511D01*
X196098828Y-91954690D01*
X196121365Y-91888555D01*
X196166417Y-91849516D01*
X196259110Y-91802287D01*
X196394787Y-91703713D01*
X196424713Y-91681971D01*
X196424715Y-91681968D01*
X196424719Y-91681966D01*
X196569466Y-91537219D01*
X196569468Y-91537215D01*
X196569471Y-91537213D01*
X196622232Y-91464590D01*
X196689787Y-91371610D01*
X196782720Y-91189219D01*
X196845977Y-90994534D01*
X196878000Y-90792352D01*
X196878000Y-90587648D01*
X196845977Y-90385466D01*
X196843764Y-90378656D01*
X196795247Y-90229336D01*
X196782720Y-90190781D01*
X196782718Y-90190778D01*
X196782718Y-90190776D01*
X196749003Y-90124607D01*
X196689787Y-90008390D01*
X196654642Y-89960016D01*
X196569471Y-89842786D01*
X196424713Y-89698028D01*
X196259114Y-89577715D01*
X196252506Y-89574348D01*
X196166417Y-89530483D01*
X196115623Y-89482511D01*
X196098828Y-89414690D01*
X196121365Y-89348555D01*
X196166417Y-89309516D01*
X196259110Y-89262287D01*
X196280270Y-89246913D01*
X196424713Y-89141971D01*
X196424715Y-89141968D01*
X196424719Y-89141966D01*
X196569466Y-88997219D01*
X196569468Y-88997215D01*
X196569471Y-88997213D01*
X196622232Y-88924590D01*
X196689787Y-88831610D01*
X196782720Y-88649219D01*
X196845977Y-88454534D01*
X196878000Y-88252352D01*
X196878000Y-88047648D01*
X196864039Y-87959500D01*
X196845977Y-87845465D01*
X196816627Y-87755137D01*
X196782720Y-87650781D01*
X196782718Y-87650778D01*
X196782718Y-87650776D01*
X196749003Y-87584607D01*
X196689787Y-87468390D01*
X196682056Y-87457749D01*
X196569471Y-87302786D01*
X196424719Y-87158034D01*
X196364846Y-87114534D01*
X196331047Y-87089978D01*
X196288382Y-87034649D01*
X196282403Y-86965036D01*
X196315008Y-86903240D01*
X196364926Y-86871955D01*
X196446834Y-86844814D01*
X196596156Y-86752712D01*
X196720212Y-86628656D01*
X196812314Y-86479334D01*
X196867499Y-86312797D01*
X196878000Y-86210009D01*
X196877999Y-85507648D01*
X201897000Y-85507648D01*
X201897000Y-85712351D01*
X201929022Y-85914534D01*
X201992281Y-86109223D01*
X202085215Y-86291613D01*
X202205528Y-86457213D01*
X202350286Y-86601971D01*
X202480660Y-86696691D01*
X202515890Y-86722287D01*
X202607340Y-86768883D01*
X202608580Y-86769515D01*
X202659376Y-86817490D01*
X202676171Y-86885311D01*
X202653634Y-86951446D01*
X202608580Y-86990485D01*
X202515886Y-87037715D01*
X202350286Y-87158028D01*
X202205528Y-87302786D01*
X202085215Y-87468386D01*
X201992281Y-87650776D01*
X201929022Y-87845465D01*
X201897000Y-88047648D01*
X201897000Y-88252351D01*
X201929022Y-88454534D01*
X201992281Y-88649223D01*
X202085215Y-88831613D01*
X202205528Y-88997213D01*
X202350286Y-89141971D01*
X202505249Y-89254556D01*
X202515890Y-89262287D01*
X202607340Y-89308883D01*
X202608580Y-89309515D01*
X202659376Y-89357490D01*
X202676171Y-89425311D01*
X202653634Y-89491446D01*
X202608580Y-89530485D01*
X202515886Y-89577715D01*
X202350286Y-89698028D01*
X202205528Y-89842786D01*
X202085215Y-90008386D01*
X201992281Y-90190776D01*
X201929022Y-90385465D01*
X201897000Y-90587648D01*
X201897000Y-90792351D01*
X201929022Y-90994534D01*
X201992281Y-91189223D01*
X202085215Y-91371613D01*
X202205528Y-91537213D01*
X202350286Y-91681971D01*
X202505249Y-91794556D01*
X202515890Y-91802287D01*
X202607340Y-91848883D01*
X202608580Y-91849515D01*
X202659376Y-91897490D01*
X202676171Y-91965311D01*
X202653634Y-92031446D01*
X202608580Y-92070485D01*
X202515886Y-92117715D01*
X202350286Y-92238028D01*
X202205528Y-92382786D01*
X202085215Y-92548386D01*
X201992281Y-92730776D01*
X201929022Y-92925465D01*
X201897000Y-93127648D01*
X201897000Y-93332351D01*
X201929022Y-93534534D01*
X201992281Y-93729223D01*
X202085215Y-93911613D01*
X202205528Y-94077213D01*
X202350286Y-94221971D01*
X202505249Y-94334556D01*
X202515890Y-94342287D01*
X202607340Y-94388883D01*
X202608580Y-94389515D01*
X202659376Y-94437490D01*
X202676171Y-94505311D01*
X202653634Y-94571446D01*
X202608580Y-94610485D01*
X202515886Y-94657715D01*
X202350286Y-94778028D01*
X202205528Y-94922786D01*
X202085215Y-95088386D01*
X201992281Y-95270776D01*
X201929022Y-95465465D01*
X201897000Y-95667648D01*
X201897000Y-95872351D01*
X201929022Y-96074534D01*
X201992281Y-96269223D01*
X202085215Y-96451613D01*
X202205528Y-96617213D01*
X202350286Y-96761971D01*
X202505249Y-96874556D01*
X202515890Y-96882287D01*
X202582617Y-96916286D01*
X202608580Y-96929515D01*
X202659376Y-96977490D01*
X202676171Y-97045311D01*
X202653634Y-97111446D01*
X202608580Y-97150485D01*
X202515886Y-97197715D01*
X202350286Y-97318028D01*
X202205528Y-97462786D01*
X202085215Y-97628386D01*
X201992281Y-97810776D01*
X201929022Y-98005465D01*
X201897000Y-98207648D01*
X201897000Y-98412351D01*
X201929022Y-98614534D01*
X201992281Y-98809223D01*
X202085215Y-98991613D01*
X202205528Y-99157213D01*
X202350286Y-99301971D01*
X202505249Y-99414556D01*
X202515890Y-99422287D01*
X202607340Y-99468883D01*
X202608580Y-99469515D01*
X202659376Y-99517490D01*
X202676171Y-99585311D01*
X202653634Y-99651446D01*
X202608580Y-99690485D01*
X202515886Y-99737715D01*
X202350286Y-99858028D01*
X202205528Y-100002786D01*
X202085215Y-100168386D01*
X201992281Y-100350776D01*
X201929022Y-100545465D01*
X201897000Y-100747648D01*
X201897000Y-100952351D01*
X201929022Y-101154534D01*
X201992281Y-101349223D01*
X202085215Y-101531613D01*
X202205528Y-101697213D01*
X202350286Y-101841971D01*
X202505249Y-101954556D01*
X202515890Y-101962287D01*
X202607340Y-102008883D01*
X202608580Y-102009515D01*
X202659376Y-102057490D01*
X202676171Y-102125311D01*
X202653634Y-102191446D01*
X202608580Y-102230485D01*
X202515886Y-102277715D01*
X202350286Y-102398028D01*
X202205528Y-102542786D01*
X202085215Y-102708386D01*
X201992281Y-102890776D01*
X201929022Y-103085465D01*
X201897000Y-103287648D01*
X201897000Y-103492351D01*
X201929022Y-103694534D01*
X201992281Y-103889223D01*
X202052036Y-104006496D01*
X202085085Y-104071359D01*
X202085215Y-104071613D01*
X202205528Y-104237213D01*
X202350286Y-104381971D01*
X202470726Y-104469474D01*
X202515890Y-104502287D01*
X202632107Y-104561503D01*
X202698276Y-104595218D01*
X202698278Y-104595218D01*
X202698281Y-104595220D01*
X202802637Y-104629127D01*
X202892965Y-104658477D01*
X202994057Y-104674488D01*
X203095148Y-104690500D01*
X203095149Y-104690500D01*
X203299851Y-104690500D01*
X203299852Y-104690500D01*
X203502034Y-104658477D01*
X203696719Y-104595220D01*
X203879110Y-104502287D01*
X204022660Y-104397993D01*
X204044713Y-104381971D01*
X204044715Y-104381968D01*
X204044719Y-104381966D01*
X204189466Y-104237219D01*
X204189468Y-104237215D01*
X204189471Y-104237213D01*
X204255066Y-104146927D01*
X204309787Y-104071610D01*
X204402720Y-103889219D01*
X204461716Y-103707648D01*
X216259500Y-103707648D01*
X216259500Y-103912351D01*
X216291522Y-104114534D01*
X216354781Y-104309223D01*
X216418691Y-104434653D01*
X216445208Y-104486694D01*
X216447715Y-104491613D01*
X216568028Y-104657213D01*
X216712786Y-104801971D01*
X216867749Y-104914556D01*
X216878390Y-104922287D01*
X216994607Y-104981503D01*
X217060776Y-105015218D01*
X217060778Y-105015218D01*
X217060781Y-105015220D01*
X217165137Y-105049127D01*
X217255465Y-105078477D01*
X217356557Y-105094488D01*
X217457648Y-105110500D01*
X217457649Y-105110500D01*
X217662351Y-105110500D01*
X217662352Y-105110500D01*
X217864534Y-105078477D01*
X218059219Y-105015220D01*
X218241610Y-104922287D01*
X218334590Y-104854732D01*
X218407213Y-104801971D01*
X218407215Y-104801968D01*
X218407219Y-104801966D01*
X218551966Y-104657219D01*
X218551968Y-104657215D01*
X218551971Y-104657213D01*
X218604732Y-104584590D01*
X218672287Y-104491610D01*
X218765220Y-104309219D01*
X218828477Y-104114534D01*
X218860500Y-103912352D01*
X218860500Y-103707648D01*
X218856656Y-103683378D01*
X218828477Y-103505465D01*
X218768584Y-103321134D01*
X218765220Y-103310781D01*
X218765218Y-103310778D01*
X218765218Y-103310776D01*
X218680441Y-103144394D01*
X218672287Y-103128390D01*
X218664556Y-103117749D01*
X218551971Y-102962786D01*
X218407213Y-102818028D01*
X218241613Y-102697715D01*
X218241612Y-102697714D01*
X218241610Y-102697713D01*
X218175594Y-102664076D01*
X218059223Y-102604781D01*
X217864534Y-102541522D01*
X217689995Y-102513878D01*
X217662352Y-102509500D01*
X217457648Y-102509500D01*
X217433329Y-102513351D01*
X217255465Y-102541522D01*
X217060776Y-102604781D01*
X216878386Y-102697715D01*
X216712786Y-102818028D01*
X216568028Y-102962786D01*
X216447715Y-103128386D01*
X216354781Y-103310776D01*
X216291522Y-103505465D01*
X216259500Y-103707648D01*
X204461716Y-103707648D01*
X204465977Y-103694534D01*
X204498000Y-103492352D01*
X204498000Y-103287648D01*
X204489757Y-103235606D01*
X204465977Y-103085465D01*
X204426114Y-102962781D01*
X204402720Y-102890781D01*
X204402718Y-102890778D01*
X204402718Y-102890776D01*
X204309919Y-102708650D01*
X204309787Y-102708390D01*
X204277592Y-102664077D01*
X204189471Y-102542786D01*
X204044713Y-102398028D01*
X203879114Y-102277715D01*
X203872506Y-102274348D01*
X203786417Y-102230483D01*
X203735623Y-102182511D01*
X203718828Y-102114690D01*
X203741365Y-102048555D01*
X203786417Y-102009516D01*
X203879110Y-101962287D01*
X203900270Y-101946913D01*
X204044713Y-101841971D01*
X204044715Y-101841968D01*
X204044719Y-101841966D01*
X204189466Y-101697219D01*
X204189468Y-101697215D01*
X204189471Y-101697213D01*
X204242232Y-101624590D01*
X204309787Y-101531610D01*
X204402720Y-101349219D01*
X204465977Y-101154534D01*
X204498000Y-100952352D01*
X204498000Y-100747648D01*
X204465977Y-100545466D01*
X204402720Y-100350781D01*
X204402718Y-100350778D01*
X204402718Y-100350776D01*
X204369003Y-100284607D01*
X204309787Y-100168390D01*
X204302056Y-100157749D01*
X204189471Y-100002786D01*
X204044713Y-99858028D01*
X203879114Y-99737715D01*
X203872506Y-99734348D01*
X203786417Y-99690483D01*
X203735623Y-99642511D01*
X203718828Y-99574690D01*
X203741365Y-99508555D01*
X203786417Y-99469516D01*
X203879110Y-99422287D01*
X203900270Y-99406913D01*
X204044713Y-99301971D01*
X204044715Y-99301968D01*
X204044719Y-99301966D01*
X204189466Y-99157219D01*
X204189468Y-99157215D01*
X204189471Y-99157213D01*
X204242232Y-99084590D01*
X204309787Y-98991610D01*
X204402720Y-98809219D01*
X204465977Y-98614534D01*
X204498000Y-98412352D01*
X204498000Y-98207648D01*
X204478515Y-98084625D01*
X204465977Y-98005465D01*
X204412248Y-97840105D01*
X204402720Y-97810781D01*
X204402718Y-97810778D01*
X204402718Y-97810776D01*
X204369003Y-97744607D01*
X204309787Y-97628390D01*
X204302056Y-97617749D01*
X204189471Y-97462786D01*
X204044713Y-97318028D01*
X203879114Y-97197715D01*
X203872506Y-97194348D01*
X203786417Y-97150483D01*
X203735623Y-97102511D01*
X203718828Y-97034690D01*
X203741365Y-96968555D01*
X203786417Y-96929516D01*
X203879110Y-96882287D01*
X203900270Y-96866913D01*
X204044713Y-96761971D01*
X204044715Y-96761968D01*
X204044719Y-96761966D01*
X204189466Y-96617219D01*
X204189468Y-96617215D01*
X204189471Y-96617213D01*
X204279163Y-96493760D01*
X204309787Y-96451610D01*
X204402720Y-96269219D01*
X204465977Y-96074534D01*
X204498000Y-95872352D01*
X204498000Y-95667648D01*
X204465977Y-95465466D01*
X204464097Y-95459681D01*
X204402718Y-95270776D01*
X204361451Y-95189786D01*
X204309787Y-95088390D01*
X204302056Y-95077749D01*
X204189471Y-94922786D01*
X204044713Y-94778028D01*
X203879114Y-94657715D01*
X203872506Y-94654348D01*
X203786417Y-94610483D01*
X203735623Y-94562511D01*
X203718828Y-94494690D01*
X203741365Y-94428555D01*
X203786417Y-94389516D01*
X203879110Y-94342287D01*
X203900270Y-94326913D01*
X204044713Y-94221971D01*
X204044715Y-94221968D01*
X204044719Y-94221966D01*
X204189466Y-94077219D01*
X204189468Y-94077215D01*
X204189471Y-94077213D01*
X204250104Y-93993757D01*
X204309787Y-93911610D01*
X204402720Y-93729219D01*
X204465977Y-93534534D01*
X204498000Y-93332352D01*
X204498000Y-93127648D01*
X204472247Y-92965051D01*
X204465977Y-92925465D01*
X204402718Y-92730776D01*
X204369003Y-92664607D01*
X204309787Y-92548390D01*
X204287574Y-92517816D01*
X204189471Y-92382786D01*
X204044713Y-92238028D01*
X203879114Y-92117715D01*
X203872506Y-92114348D01*
X203786417Y-92070483D01*
X203735623Y-92022511D01*
X203718828Y-91954690D01*
X203741365Y-91888555D01*
X203786417Y-91849516D01*
X203879110Y-91802287D01*
X204014787Y-91703713D01*
X204044713Y-91681971D01*
X204044715Y-91681968D01*
X204044719Y-91681966D01*
X204189466Y-91537219D01*
X204189468Y-91537215D01*
X204189471Y-91537213D01*
X204242232Y-91464590D01*
X204309787Y-91371610D01*
X204402720Y-91189219D01*
X204465977Y-90994534D01*
X204498000Y-90792352D01*
X204498000Y-90587648D01*
X204465977Y-90385466D01*
X204463764Y-90378656D01*
X204415247Y-90229336D01*
X204402720Y-90190781D01*
X204402718Y-90190778D01*
X204402718Y-90190776D01*
X204369003Y-90124607D01*
X204309787Y-90008390D01*
X204274642Y-89960016D01*
X204189471Y-89842786D01*
X204044713Y-89698028D01*
X203879114Y-89577715D01*
X203872506Y-89574348D01*
X203786417Y-89530483D01*
X203735623Y-89482511D01*
X203718828Y-89414690D01*
X203741365Y-89348555D01*
X203786417Y-89309516D01*
X203879110Y-89262287D01*
X203900270Y-89246913D01*
X204044713Y-89141971D01*
X204044715Y-89141968D01*
X204044719Y-89141966D01*
X204189466Y-88997219D01*
X204189468Y-88997215D01*
X204189471Y-88997213D01*
X204242232Y-88924590D01*
X204309787Y-88831610D01*
X204397235Y-88659983D01*
X209222000Y-88659983D01*
X209222000Y-89960001D01*
X209222001Y-89960018D01*
X209232500Y-90062796D01*
X209232501Y-90062799D01*
X209287685Y-90229331D01*
X209287687Y-90229336D01*
X209379789Y-90378657D01*
X209503844Y-90502712D01*
X209658620Y-90598178D01*
X209705345Y-90650126D01*
X209716568Y-90719088D01*
X209688724Y-90783171D01*
X209681206Y-90791398D01*
X209542389Y-90930215D01*
X209417451Y-91102179D01*
X209320944Y-91291585D01*
X209255253Y-91493760D01*
X209248371Y-91537213D01*
X209222000Y-91703713D01*
X209222000Y-91916287D01*
X209228682Y-91958477D01*
X209240239Y-92031446D01*
X209255254Y-92126243D01*
X209291577Y-92238034D01*
X209320944Y-92328414D01*
X209417451Y-92517820D01*
X209542390Y-92689786D01*
X209692709Y-92840105D01*
X209692714Y-92840109D01*
X209857293Y-92959682D01*
X209899959Y-93015011D01*
X209905938Y-93084625D01*
X209873333Y-93146420D01*
X209857293Y-93160318D01*
X209692714Y-93279890D01*
X209692709Y-93279894D01*
X209542390Y-93430213D01*
X209417451Y-93602179D01*
X209320944Y-93791585D01*
X209255253Y-93993760D01*
X209242035Y-94077219D01*
X209222000Y-94203713D01*
X209222000Y-94416287D01*
X209255254Y-94626243D01*
X209304572Y-94778028D01*
X209320944Y-94828414D01*
X209417451Y-95017820D01*
X209542390Y-95189786D01*
X209692709Y-95340105D01*
X209692714Y-95340109D01*
X209857293Y-95459682D01*
X209899959Y-95515011D01*
X209905938Y-95584625D01*
X209873333Y-95646420D01*
X209857293Y-95660318D01*
X209692714Y-95779890D01*
X209692709Y-95779894D01*
X209542390Y-95930213D01*
X209417451Y-96102179D01*
X209320944Y-96291585D01*
X209255253Y-96493760D01*
X209235700Y-96617213D01*
X209222000Y-96703713D01*
X209222000Y-96916287D01*
X209231334Y-96975220D01*
X209255253Y-97126239D01*
X209320944Y-97328414D01*
X209417451Y-97517820D01*
X209542390Y-97689786D01*
X209692709Y-97840105D01*
X209692714Y-97840109D01*
X209857293Y-97959682D01*
X209899959Y-98015011D01*
X209905938Y-98084625D01*
X209873333Y-98146420D01*
X209857293Y-98160318D01*
X209692714Y-98279890D01*
X209692709Y-98279894D01*
X209542390Y-98430213D01*
X209417451Y-98602179D01*
X209320944Y-98791585D01*
X209255253Y-98993760D01*
X209222000Y-99203713D01*
X209222000Y-99416286D01*
X209255253Y-99626239D01*
X209320944Y-99828414D01*
X209417451Y-100017820D01*
X209542390Y-100189786D01*
X209692713Y-100340109D01*
X209864679Y-100465048D01*
X209864681Y-100465049D01*
X209864684Y-100465051D01*
X210054088Y-100561557D01*
X210256257Y-100627246D01*
X210466213Y-100660500D01*
X210466214Y-100660500D01*
X210928786Y-100660500D01*
X210928787Y-100660500D01*
X211138743Y-100627246D01*
X211340912Y-100561557D01*
X211530316Y-100465051D01*
X211552289Y-100449086D01*
X211702286Y-100340109D01*
X211702288Y-100340106D01*
X211702292Y-100340104D01*
X211852604Y-100189792D01*
X211852606Y-100189788D01*
X211852609Y-100189786D01*
X211977548Y-100017820D01*
X211977547Y-100017820D01*
X211977551Y-100017816D01*
X212074057Y-99828412D01*
X212139746Y-99626243D01*
X212173000Y-99416287D01*
X212173000Y-99203713D01*
X212139746Y-98993757D01*
X212074057Y-98791588D01*
X211977551Y-98602184D01*
X211977549Y-98602181D01*
X211977548Y-98602179D01*
X211852609Y-98430213D01*
X211702292Y-98279896D01*
X211602850Y-98207648D01*
X211537704Y-98160316D01*
X211495040Y-98104989D01*
X211489061Y-98035376D01*
X211521666Y-97973580D01*
X211537699Y-97959686D01*
X211702292Y-97840104D01*
X211852604Y-97689792D01*
X211852606Y-97689788D01*
X211852609Y-97689786D01*
X211977548Y-97517820D01*
X211977547Y-97517820D01*
X211977551Y-97517816D01*
X212074057Y-97328412D01*
X212139746Y-97126243D01*
X212173000Y-96916287D01*
X212173000Y-96703713D01*
X212139746Y-96493757D01*
X212074057Y-96291588D01*
X211977551Y-96102184D01*
X211977549Y-96102181D01*
X211977548Y-96102179D01*
X211852609Y-95930213D01*
X211702292Y-95779896D01*
X211702284Y-95779890D01*
X211537704Y-95660316D01*
X211495040Y-95604989D01*
X211489061Y-95535376D01*
X211521666Y-95473580D01*
X211537699Y-95459686D01*
X211702292Y-95340104D01*
X211852604Y-95189792D01*
X211852606Y-95189788D01*
X211852609Y-95189786D01*
X211977548Y-95017820D01*
X211977547Y-95017820D01*
X211977551Y-95017816D01*
X212074057Y-94828412D01*
X212139746Y-94626243D01*
X212173000Y-94416287D01*
X212173000Y-94203713D01*
X212139746Y-93993757D01*
X212074057Y-93791588D01*
X211977551Y-93602184D01*
X211977549Y-93602181D01*
X211977548Y-93602179D01*
X211852609Y-93430213D01*
X211702292Y-93279896D01*
X211702284Y-93279890D01*
X211537704Y-93160316D01*
X211495040Y-93104989D01*
X211489061Y-93035376D01*
X211521666Y-92973580D01*
X211537699Y-92959686D01*
X211702292Y-92840104D01*
X211852604Y-92689792D01*
X211852606Y-92689788D01*
X211852609Y-92689786D01*
X211977548Y-92517820D01*
X211977547Y-92517820D01*
X211977551Y-92517816D01*
X212074057Y-92328412D01*
X212139746Y-92126243D01*
X212173000Y-91916287D01*
X212173000Y-91703713D01*
X212139746Y-91493757D01*
X212074057Y-91291588D01*
X211977551Y-91102184D01*
X211977549Y-91102181D01*
X211977548Y-91102179D01*
X211852609Y-90930213D01*
X211713794Y-90791398D01*
X211680309Y-90730075D01*
X211685293Y-90660383D01*
X211727165Y-90604450D01*
X211736379Y-90598178D01*
X211741831Y-90594814D01*
X211741834Y-90594814D01*
X211891156Y-90502712D01*
X212015212Y-90378656D01*
X212107314Y-90229334D01*
X212162499Y-90062797D01*
X212173000Y-89960009D01*
X212172999Y-88659992D01*
X212162499Y-88557203D01*
X212107314Y-88390666D01*
X212015212Y-88241344D01*
X211891156Y-88117288D01*
X211741834Y-88025186D01*
X211575297Y-87970001D01*
X211575295Y-87970000D01*
X211472510Y-87959500D01*
X209922498Y-87959500D01*
X209922481Y-87959501D01*
X209819703Y-87970000D01*
X209819700Y-87970001D01*
X209653168Y-88025185D01*
X209653163Y-88025187D01*
X209503842Y-88117289D01*
X209379789Y-88241342D01*
X209287687Y-88390663D01*
X209287686Y-88390666D01*
X209232501Y-88557203D01*
X209232501Y-88557204D01*
X209232500Y-88557204D01*
X209222000Y-88659983D01*
X204397235Y-88659983D01*
X204402720Y-88649219D01*
X204465977Y-88454534D01*
X204498000Y-88252352D01*
X204498000Y-88047648D01*
X204484039Y-87959500D01*
X204465977Y-87845465D01*
X204436627Y-87755137D01*
X204402720Y-87650781D01*
X204402718Y-87650778D01*
X204402718Y-87650776D01*
X204369003Y-87584607D01*
X204309787Y-87468390D01*
X204302056Y-87457749D01*
X204189471Y-87302786D01*
X204044713Y-87158028D01*
X203879114Y-87037715D01*
X203872506Y-87034348D01*
X203786417Y-86990483D01*
X203735623Y-86942511D01*
X203718828Y-86874690D01*
X203741365Y-86808555D01*
X203786417Y-86769516D01*
X203879110Y-86722287D01*
X203899259Y-86707648D01*
X216259500Y-86707648D01*
X216259500Y-86912351D01*
X216291522Y-87114534D01*
X216354781Y-87309223D01*
X216447715Y-87491613D01*
X216568028Y-87657213D01*
X216712786Y-87801971D01*
X216867749Y-87914556D01*
X216878390Y-87922287D01*
X216972032Y-87970000D01*
X217060776Y-88015218D01*
X217060778Y-88015218D01*
X217060781Y-88015220D01*
X217160584Y-88047648D01*
X217255465Y-88078477D01*
X217356557Y-88094488D01*
X217457648Y-88110500D01*
X217457649Y-88110500D01*
X217662351Y-88110500D01*
X217662352Y-88110500D01*
X217864534Y-88078477D01*
X218059219Y-88015220D01*
X218241610Y-87922287D01*
X218347347Y-87845465D01*
X218407213Y-87801971D01*
X218407215Y-87801968D01*
X218407219Y-87801966D01*
X218551966Y-87657219D01*
X218551968Y-87657215D01*
X218551971Y-87657213D01*
X218604732Y-87584590D01*
X218672287Y-87491610D01*
X218765220Y-87309219D01*
X218828477Y-87114534D01*
X218860500Y-86912352D01*
X218860500Y-86707648D01*
X218828477Y-86505466D01*
X218765220Y-86310781D01*
X218765218Y-86310778D01*
X218765218Y-86310776D01*
X218719987Y-86222007D01*
X218672287Y-86128390D01*
X218664556Y-86117749D01*
X218551971Y-85962786D01*
X218407213Y-85818028D01*
X218241613Y-85697715D01*
X218241612Y-85697714D01*
X218241610Y-85697713D01*
X218184653Y-85668691D01*
X218059223Y-85604781D01*
X217864534Y-85541522D01*
X217689995Y-85513878D01*
X217662352Y-85509500D01*
X217457648Y-85509500D01*
X217433329Y-85513351D01*
X217255465Y-85541522D01*
X217060776Y-85604781D01*
X216878386Y-85697715D01*
X216712786Y-85818028D01*
X216568028Y-85962786D01*
X216447715Y-86128386D01*
X216354781Y-86310776D01*
X216291522Y-86505465D01*
X216259500Y-86707648D01*
X203899259Y-86707648D01*
X203914340Y-86696691D01*
X204044043Y-86602458D01*
X204044045Y-86602456D01*
X204044712Y-86601971D01*
X204044719Y-86601966D01*
X204189466Y-86457219D01*
X204189468Y-86457215D01*
X204189471Y-86457213D01*
X204294392Y-86312799D01*
X204309787Y-86291610D01*
X204402720Y-86109219D01*
X204465977Y-85914534D01*
X204498000Y-85712352D01*
X204498000Y-85507648D01*
X204465977Y-85305466D01*
X204402720Y-85110781D01*
X204402718Y-85110778D01*
X204402718Y-85110776D01*
X204351365Y-85009991D01*
X204309787Y-84928390D01*
X204260748Y-84860893D01*
X204189471Y-84762786D01*
X204044713Y-84618028D01*
X203879113Y-84497715D01*
X203879112Y-84497714D01*
X203879110Y-84497713D01*
X203819398Y-84467288D01*
X203696723Y-84404781D01*
X203502034Y-84341522D01*
X203327495Y-84313878D01*
X203299852Y-84309500D01*
X203095148Y-84309500D01*
X203070829Y-84313351D01*
X202892965Y-84341522D01*
X202698276Y-84404781D01*
X202515886Y-84497715D01*
X202350286Y-84618028D01*
X202205528Y-84762786D01*
X202085215Y-84928386D01*
X201992281Y-85110776D01*
X201929022Y-85305465D01*
X201897000Y-85507648D01*
X196877999Y-85507648D01*
X196877999Y-85009992D01*
X196867499Y-84907203D01*
X196812314Y-84740666D01*
X196720212Y-84591344D01*
X196596156Y-84467288D01*
X196446834Y-84375186D01*
X196280297Y-84320001D01*
X196280295Y-84320000D01*
X196177510Y-84309500D01*
X194977498Y-84309500D01*
X194977481Y-84309501D01*
X194874703Y-84320000D01*
X194874700Y-84320001D01*
X194708168Y-84375185D01*
X194708163Y-84375187D01*
X194558842Y-84467289D01*
X194434789Y-84591342D01*
X194342687Y-84740663D01*
X194342686Y-84740666D01*
X194287501Y-84907203D01*
X194287501Y-84907204D01*
X194287500Y-84907204D01*
X194277000Y-85009983D01*
X161563841Y-85009983D01*
X161647148Y-84870993D01*
X161653888Y-84860905D01*
X161851232Y-84594818D01*
X161858935Y-84585433D01*
X162081405Y-84339975D01*
X162089975Y-84331405D01*
X162335433Y-84108935D01*
X162344818Y-84101232D01*
X162610905Y-83903888D01*
X162620998Y-83897145D01*
X162905136Y-83726840D01*
X162915828Y-83721124D01*
X163215318Y-83579476D01*
X163226525Y-83574835D01*
X163538412Y-83463239D01*
X163550043Y-83459710D01*
X163871385Y-83379218D01*
X163883296Y-83376849D01*
X164210962Y-83328244D01*
X164223068Y-83327052D01*
X164556967Y-83310648D01*
X164563051Y-83310500D01*
X164625892Y-83310500D01*
X217494108Y-83310500D01*
X217556949Y-83310500D01*
X217563032Y-83310648D01*
G37*
%TD.AperFunction*%
%TD*%
M02*
