%TF.GenerationSoftware,KiCad,Pcbnew,9.0.6*%
%TF.CreationDate,2026-02-16T17:47:16-08:00*%
%TF.ProjectId,514-Schematic,3531342d-5363-4686-956d-617469632e6b,rev?*%
%TF.SameCoordinates,Original*%
%TF.FileFunction,Legend,Top*%
%TF.FilePolarity,Positive*%
%FSLAX46Y46*%
G04 Gerber Fmt 4.6, Leading zero omitted, Abs format (unit mm)*
G04 Created by KiCad (PCBNEW 9.0.6) date 2026-02-16 17:47:16*
%MOMM*%
%LPD*%
G01*
G04 APERTURE LIST*
%ADD10C,0.254000*%
%ADD11C,0.150000*%
%ADD12C,0.100000*%
%ADD13C,0.120000*%
G04 APERTURE END LIST*
D10*
X176540237Y-53474318D02*
X176540237Y-52204318D01*
X177870714Y-53353365D02*
X177810238Y-53413842D01*
X177810238Y-53413842D02*
X177628809Y-53474318D01*
X177628809Y-53474318D02*
X177507857Y-53474318D01*
X177507857Y-53474318D02*
X177326428Y-53413842D01*
X177326428Y-53413842D02*
X177205476Y-53292889D01*
X177205476Y-53292889D02*
X177144999Y-53171937D01*
X177144999Y-53171937D02*
X177084523Y-52930032D01*
X177084523Y-52930032D02*
X177084523Y-52748603D01*
X177084523Y-52748603D02*
X177144999Y-52506699D01*
X177144999Y-52506699D02*
X177205476Y-52385746D01*
X177205476Y-52385746D02*
X177326428Y-52264794D01*
X177326428Y-52264794D02*
X177507857Y-52204318D01*
X177507857Y-52204318D02*
X177628809Y-52204318D01*
X177628809Y-52204318D02*
X177810238Y-52264794D01*
X177810238Y-52264794D02*
X177870714Y-52325270D01*
X179080238Y-53474318D02*
X178354523Y-53474318D01*
X178717380Y-53474318D02*
X178717380Y-52204318D01*
X178717380Y-52204318D02*
X178596428Y-52385746D01*
X178596428Y-52385746D02*
X178475476Y-52506699D01*
X178475476Y-52506699D02*
X178354523Y-52567175D01*
D11*
X208666666Y-59054819D02*
X208666666Y-59769104D01*
X208666666Y-59769104D02*
X208619047Y-59911961D01*
X208619047Y-59911961D02*
X208523809Y-60007200D01*
X208523809Y-60007200D02*
X208380952Y-60054819D01*
X208380952Y-60054819D02*
X208285714Y-60054819D01*
X209666666Y-60054819D02*
X209095238Y-60054819D01*
X209380952Y-60054819D02*
X209380952Y-59054819D01*
X209380952Y-59054819D02*
X209285714Y-59197676D01*
X209285714Y-59197676D02*
X209190476Y-59292914D01*
X209190476Y-59292914D02*
X209095238Y-59340533D01*
X199238095Y-50129819D02*
X199238095Y-50939342D01*
X199238095Y-50939342D02*
X199285714Y-51034580D01*
X199285714Y-51034580D02*
X199333333Y-51082200D01*
X199333333Y-51082200D02*
X199428571Y-51129819D01*
X199428571Y-51129819D02*
X199619047Y-51129819D01*
X199619047Y-51129819D02*
X199714285Y-51082200D01*
X199714285Y-51082200D02*
X199761904Y-51034580D01*
X199761904Y-51034580D02*
X199809523Y-50939342D01*
X199809523Y-50939342D02*
X199809523Y-50129819D01*
X200761904Y-50129819D02*
X200285714Y-50129819D01*
X200285714Y-50129819D02*
X200238095Y-50606009D01*
X200238095Y-50606009D02*
X200285714Y-50558390D01*
X200285714Y-50558390D02*
X200380952Y-50510771D01*
X200380952Y-50510771D02*
X200619047Y-50510771D01*
X200619047Y-50510771D02*
X200714285Y-50558390D01*
X200714285Y-50558390D02*
X200761904Y-50606009D01*
X200761904Y-50606009D02*
X200809523Y-50701247D01*
X200809523Y-50701247D02*
X200809523Y-50939342D01*
X200809523Y-50939342D02*
X200761904Y-51034580D01*
X200761904Y-51034580D02*
X200714285Y-51082200D01*
X200714285Y-51082200D02*
X200619047Y-51129819D01*
X200619047Y-51129819D02*
X200380952Y-51129819D01*
X200380952Y-51129819D02*
X200285714Y-51082200D01*
X200285714Y-51082200D02*
X200238095Y-51034580D01*
X177550833Y-76384819D02*
X177217500Y-75908628D01*
X176979405Y-76384819D02*
X176979405Y-75384819D01*
X176979405Y-75384819D02*
X177360357Y-75384819D01*
X177360357Y-75384819D02*
X177455595Y-75432438D01*
X177455595Y-75432438D02*
X177503214Y-75480057D01*
X177503214Y-75480057D02*
X177550833Y-75575295D01*
X177550833Y-75575295D02*
X177550833Y-75718152D01*
X177550833Y-75718152D02*
X177503214Y-75813390D01*
X177503214Y-75813390D02*
X177455595Y-75861009D01*
X177455595Y-75861009D02*
X177360357Y-75908628D01*
X177360357Y-75908628D02*
X176979405Y-75908628D01*
X177884167Y-75384819D02*
X178503214Y-75384819D01*
X178503214Y-75384819D02*
X178169881Y-75765771D01*
X178169881Y-75765771D02*
X178312738Y-75765771D01*
X178312738Y-75765771D02*
X178407976Y-75813390D01*
X178407976Y-75813390D02*
X178455595Y-75861009D01*
X178455595Y-75861009D02*
X178503214Y-75956247D01*
X178503214Y-75956247D02*
X178503214Y-76194342D01*
X178503214Y-76194342D02*
X178455595Y-76289580D01*
X178455595Y-76289580D02*
X178407976Y-76337200D01*
X178407976Y-76337200D02*
X178312738Y-76384819D01*
X178312738Y-76384819D02*
X178027024Y-76384819D01*
X178027024Y-76384819D02*
X177931786Y-76337200D01*
X177931786Y-76337200D02*
X177884167Y-76289580D01*
X177525833Y-67789580D02*
X177478214Y-67837200D01*
X177478214Y-67837200D02*
X177335357Y-67884819D01*
X177335357Y-67884819D02*
X177240119Y-67884819D01*
X177240119Y-67884819D02*
X177097262Y-67837200D01*
X177097262Y-67837200D02*
X177002024Y-67741961D01*
X177002024Y-67741961D02*
X176954405Y-67646723D01*
X176954405Y-67646723D02*
X176906786Y-67456247D01*
X176906786Y-67456247D02*
X176906786Y-67313390D01*
X176906786Y-67313390D02*
X176954405Y-67122914D01*
X176954405Y-67122914D02*
X177002024Y-67027676D01*
X177002024Y-67027676D02*
X177097262Y-66932438D01*
X177097262Y-66932438D02*
X177240119Y-66884819D01*
X177240119Y-66884819D02*
X177335357Y-66884819D01*
X177335357Y-66884819D02*
X177478214Y-66932438D01*
X177478214Y-66932438D02*
X177525833Y-66980057D01*
X178430595Y-66884819D02*
X177954405Y-66884819D01*
X177954405Y-66884819D02*
X177906786Y-67361009D01*
X177906786Y-67361009D02*
X177954405Y-67313390D01*
X177954405Y-67313390D02*
X178049643Y-67265771D01*
X178049643Y-67265771D02*
X178287738Y-67265771D01*
X178287738Y-67265771D02*
X178382976Y-67313390D01*
X178382976Y-67313390D02*
X178430595Y-67361009D01*
X178430595Y-67361009D02*
X178478214Y-67456247D01*
X178478214Y-67456247D02*
X178478214Y-67694342D01*
X178478214Y-67694342D02*
X178430595Y-67789580D01*
X178430595Y-67789580D02*
X178382976Y-67837200D01*
X178382976Y-67837200D02*
X178287738Y-67884819D01*
X178287738Y-67884819D02*
X178049643Y-67884819D01*
X178049643Y-67884819D02*
X177954405Y-67837200D01*
X177954405Y-67837200D02*
X177906786Y-67789580D01*
X177525833Y-56429580D02*
X177478214Y-56477200D01*
X177478214Y-56477200D02*
X177335357Y-56524819D01*
X177335357Y-56524819D02*
X177240119Y-56524819D01*
X177240119Y-56524819D02*
X177097262Y-56477200D01*
X177097262Y-56477200D02*
X177002024Y-56381961D01*
X177002024Y-56381961D02*
X176954405Y-56286723D01*
X176954405Y-56286723D02*
X176906786Y-56096247D01*
X176906786Y-56096247D02*
X176906786Y-55953390D01*
X176906786Y-55953390D02*
X176954405Y-55762914D01*
X176954405Y-55762914D02*
X177002024Y-55667676D01*
X177002024Y-55667676D02*
X177097262Y-55572438D01*
X177097262Y-55572438D02*
X177240119Y-55524819D01*
X177240119Y-55524819D02*
X177335357Y-55524819D01*
X177335357Y-55524819D02*
X177478214Y-55572438D01*
X177478214Y-55572438D02*
X177525833Y-55620057D01*
X177859167Y-55524819D02*
X178478214Y-55524819D01*
X178478214Y-55524819D02*
X178144881Y-55905771D01*
X178144881Y-55905771D02*
X178287738Y-55905771D01*
X178287738Y-55905771D02*
X178382976Y-55953390D01*
X178382976Y-55953390D02*
X178430595Y-56001009D01*
X178430595Y-56001009D02*
X178478214Y-56096247D01*
X178478214Y-56096247D02*
X178478214Y-56334342D01*
X178478214Y-56334342D02*
X178430595Y-56429580D01*
X178430595Y-56429580D02*
X178382976Y-56477200D01*
X178382976Y-56477200D02*
X178287738Y-56524819D01*
X178287738Y-56524819D02*
X178002024Y-56524819D01*
X178002024Y-56524819D02*
X177906786Y-56477200D01*
X177906786Y-56477200D02*
X177859167Y-56429580D01*
X177525833Y-60679580D02*
X177478214Y-60727200D01*
X177478214Y-60727200D02*
X177335357Y-60774819D01*
X177335357Y-60774819D02*
X177240119Y-60774819D01*
X177240119Y-60774819D02*
X177097262Y-60727200D01*
X177097262Y-60727200D02*
X177002024Y-60631961D01*
X177002024Y-60631961D02*
X176954405Y-60536723D01*
X176954405Y-60536723D02*
X176906786Y-60346247D01*
X176906786Y-60346247D02*
X176906786Y-60203390D01*
X176906786Y-60203390D02*
X176954405Y-60012914D01*
X176954405Y-60012914D02*
X177002024Y-59917676D01*
X177002024Y-59917676D02*
X177097262Y-59822438D01*
X177097262Y-59822438D02*
X177240119Y-59774819D01*
X177240119Y-59774819D02*
X177335357Y-59774819D01*
X177335357Y-59774819D02*
X177478214Y-59822438D01*
X177478214Y-59822438D02*
X177525833Y-59870057D01*
X178382976Y-60108152D02*
X178382976Y-60774819D01*
X178144881Y-59727200D02*
X177906786Y-60441485D01*
X177906786Y-60441485D02*
X178525833Y-60441485D01*
X177475833Y-72134819D02*
X177142500Y-71658628D01*
X176904405Y-72134819D02*
X176904405Y-71134819D01*
X176904405Y-71134819D02*
X177285357Y-71134819D01*
X177285357Y-71134819D02*
X177380595Y-71182438D01*
X177380595Y-71182438D02*
X177428214Y-71230057D01*
X177428214Y-71230057D02*
X177475833Y-71325295D01*
X177475833Y-71325295D02*
X177475833Y-71468152D01*
X177475833Y-71468152D02*
X177428214Y-71563390D01*
X177428214Y-71563390D02*
X177380595Y-71611009D01*
X177380595Y-71611009D02*
X177285357Y-71658628D01*
X177285357Y-71658628D02*
X176904405Y-71658628D01*
X177856786Y-71230057D02*
X177904405Y-71182438D01*
X177904405Y-71182438D02*
X177999643Y-71134819D01*
X177999643Y-71134819D02*
X178237738Y-71134819D01*
X178237738Y-71134819D02*
X178332976Y-71182438D01*
X178332976Y-71182438D02*
X178380595Y-71230057D01*
X178380595Y-71230057D02*
X178428214Y-71325295D01*
X178428214Y-71325295D02*
X178428214Y-71420533D01*
X178428214Y-71420533D02*
X178380595Y-71563390D01*
X178380595Y-71563390D02*
X177809167Y-72134819D01*
X177809167Y-72134819D02*
X178428214Y-72134819D01*
X188238095Y-82914819D02*
X188238095Y-83724342D01*
X188238095Y-83724342D02*
X188285714Y-83819580D01*
X188285714Y-83819580D02*
X188333333Y-83867200D01*
X188333333Y-83867200D02*
X188428571Y-83914819D01*
X188428571Y-83914819D02*
X188619047Y-83914819D01*
X188619047Y-83914819D02*
X188714285Y-83867200D01*
X188714285Y-83867200D02*
X188761904Y-83819580D01*
X188761904Y-83819580D02*
X188809523Y-83724342D01*
X188809523Y-83724342D02*
X188809523Y-82914819D01*
X189714285Y-83248152D02*
X189714285Y-83914819D01*
X189476190Y-82867200D02*
X189238095Y-83581485D01*
X189238095Y-83581485D02*
X189857142Y-83581485D01*
X198625595Y-82734819D02*
X198625595Y-83544342D01*
X198625595Y-83544342D02*
X198673214Y-83639580D01*
X198673214Y-83639580D02*
X198720833Y-83687200D01*
X198720833Y-83687200D02*
X198816071Y-83734819D01*
X198816071Y-83734819D02*
X199006547Y-83734819D01*
X199006547Y-83734819D02*
X199101785Y-83687200D01*
X199101785Y-83687200D02*
X199149404Y-83639580D01*
X199149404Y-83639580D02*
X199197023Y-83544342D01*
X199197023Y-83544342D02*
X199197023Y-82734819D01*
X199577976Y-82734819D02*
X200197023Y-82734819D01*
X200197023Y-82734819D02*
X199863690Y-83115771D01*
X199863690Y-83115771D02*
X200006547Y-83115771D01*
X200006547Y-83115771D02*
X200101785Y-83163390D01*
X200101785Y-83163390D02*
X200149404Y-83211009D01*
X200149404Y-83211009D02*
X200197023Y-83306247D01*
X200197023Y-83306247D02*
X200197023Y-83544342D01*
X200197023Y-83544342D02*
X200149404Y-83639580D01*
X200149404Y-83639580D02*
X200101785Y-83687200D01*
X200101785Y-83687200D02*
X200006547Y-83734819D01*
X200006547Y-83734819D02*
X199720833Y-83734819D01*
X199720833Y-83734819D02*
X199625595Y-83687200D01*
X199625595Y-83687200D02*
X199577976Y-83639580D01*
X213702319Y-95071904D02*
X214511842Y-95071904D01*
X214511842Y-95071904D02*
X214607080Y-95024285D01*
X214607080Y-95024285D02*
X214654700Y-94976666D01*
X214654700Y-94976666D02*
X214702319Y-94881428D01*
X214702319Y-94881428D02*
X214702319Y-94690952D01*
X214702319Y-94690952D02*
X214654700Y-94595714D01*
X214654700Y-94595714D02*
X214607080Y-94548095D01*
X214607080Y-94548095D02*
X214511842Y-94500476D01*
X214511842Y-94500476D02*
X213702319Y-94500476D01*
X214702319Y-93500476D02*
X214702319Y-94071904D01*
X214702319Y-93786190D02*
X213702319Y-93786190D01*
X213702319Y-93786190D02*
X213845176Y-93881428D01*
X213845176Y-93881428D02*
X213940414Y-93976666D01*
X213940414Y-93976666D02*
X213988033Y-94071904D01*
X167584819Y-98389166D02*
X167108628Y-98722499D01*
X167584819Y-98960594D02*
X166584819Y-98960594D01*
X166584819Y-98960594D02*
X166584819Y-98579642D01*
X166584819Y-98579642D02*
X166632438Y-98484404D01*
X166632438Y-98484404D02*
X166680057Y-98436785D01*
X166680057Y-98436785D02*
X166775295Y-98389166D01*
X166775295Y-98389166D02*
X166918152Y-98389166D01*
X166918152Y-98389166D02*
X167013390Y-98436785D01*
X167013390Y-98436785D02*
X167061009Y-98484404D01*
X167061009Y-98484404D02*
X167108628Y-98579642D01*
X167108628Y-98579642D02*
X167108628Y-98960594D01*
X167584819Y-97436785D02*
X167584819Y-98008213D01*
X167584819Y-97722499D02*
X166584819Y-97722499D01*
X166584819Y-97722499D02*
X166727676Y-97817737D01*
X166727676Y-97817737D02*
X166822914Y-97912975D01*
X166822914Y-97912975D02*
X166870533Y-98008213D01*
X165944819Y-95173094D02*
X164944819Y-95173094D01*
X164944819Y-95173094D02*
X164944819Y-94934999D01*
X164944819Y-94934999D02*
X164992438Y-94792142D01*
X164992438Y-94792142D02*
X165087676Y-94696904D01*
X165087676Y-94696904D02*
X165182914Y-94649285D01*
X165182914Y-94649285D02*
X165373390Y-94601666D01*
X165373390Y-94601666D02*
X165516247Y-94601666D01*
X165516247Y-94601666D02*
X165706723Y-94649285D01*
X165706723Y-94649285D02*
X165801961Y-94696904D01*
X165801961Y-94696904D02*
X165897200Y-94792142D01*
X165897200Y-94792142D02*
X165944819Y-94934999D01*
X165944819Y-94934999D02*
X165944819Y-95173094D01*
X165944819Y-93649285D02*
X165944819Y-94220713D01*
X165944819Y-93934999D02*
X164944819Y-93934999D01*
X164944819Y-93934999D02*
X165087676Y-94030237D01*
X165087676Y-94030237D02*
X165182914Y-94125475D01*
X165182914Y-94125475D02*
X165230533Y-94220713D01*
X206943333Y-103739580D02*
X206895714Y-103787200D01*
X206895714Y-103787200D02*
X206752857Y-103834819D01*
X206752857Y-103834819D02*
X206657619Y-103834819D01*
X206657619Y-103834819D02*
X206514762Y-103787200D01*
X206514762Y-103787200D02*
X206419524Y-103691961D01*
X206419524Y-103691961D02*
X206371905Y-103596723D01*
X206371905Y-103596723D02*
X206324286Y-103406247D01*
X206324286Y-103406247D02*
X206324286Y-103263390D01*
X206324286Y-103263390D02*
X206371905Y-103072914D01*
X206371905Y-103072914D02*
X206419524Y-102977676D01*
X206419524Y-102977676D02*
X206514762Y-102882438D01*
X206514762Y-102882438D02*
X206657619Y-102834819D01*
X206657619Y-102834819D02*
X206752857Y-102834819D01*
X206752857Y-102834819D02*
X206895714Y-102882438D01*
X206895714Y-102882438D02*
X206943333Y-102930057D01*
X207324286Y-102930057D02*
X207371905Y-102882438D01*
X207371905Y-102882438D02*
X207467143Y-102834819D01*
X207467143Y-102834819D02*
X207705238Y-102834819D01*
X207705238Y-102834819D02*
X207800476Y-102882438D01*
X207800476Y-102882438D02*
X207848095Y-102930057D01*
X207848095Y-102930057D02*
X207895714Y-103025295D01*
X207895714Y-103025295D02*
X207895714Y-103120533D01*
X207895714Y-103120533D02*
X207848095Y-103263390D01*
X207848095Y-103263390D02*
X207276667Y-103834819D01*
X207276667Y-103834819D02*
X207895714Y-103834819D01*
X211530833Y-103739580D02*
X211483214Y-103787200D01*
X211483214Y-103787200D02*
X211340357Y-103834819D01*
X211340357Y-103834819D02*
X211245119Y-103834819D01*
X211245119Y-103834819D02*
X211102262Y-103787200D01*
X211102262Y-103787200D02*
X211007024Y-103691961D01*
X211007024Y-103691961D02*
X210959405Y-103596723D01*
X210959405Y-103596723D02*
X210911786Y-103406247D01*
X210911786Y-103406247D02*
X210911786Y-103263390D01*
X210911786Y-103263390D02*
X210959405Y-103072914D01*
X210959405Y-103072914D02*
X211007024Y-102977676D01*
X211007024Y-102977676D02*
X211102262Y-102882438D01*
X211102262Y-102882438D02*
X211245119Y-102834819D01*
X211245119Y-102834819D02*
X211340357Y-102834819D01*
X211340357Y-102834819D02*
X211483214Y-102882438D01*
X211483214Y-102882438D02*
X211530833Y-102930057D01*
X212483214Y-103834819D02*
X211911786Y-103834819D01*
X212197500Y-103834819D02*
X212197500Y-102834819D01*
X212197500Y-102834819D02*
X212102262Y-102977676D01*
X212102262Y-102977676D02*
X212007024Y-103072914D01*
X212007024Y-103072914D02*
X211911786Y-103120533D01*
D12*
%TO.C,IC1*%
X179455000Y-53700000D02*
G75*
G02*
X179455000Y-53600000I0J50000D01*
G01*
X179455000Y-53600000D02*
G75*
G02*
X179455000Y-53700000I0J-50000D01*
G01*
X179455000Y-53600000D02*
X179455000Y-53600000D01*
X179455000Y-53700000D02*
X179455000Y-53700000D01*
X176055000Y-51650000D02*
X176055000Y-51900000D01*
X176755000Y-51650000D02*
X176055000Y-51650000D01*
X179055000Y-51650000D02*
X178355000Y-51650000D01*
X179055000Y-51800000D02*
X179055000Y-51650000D01*
X176055000Y-54150000D02*
X176055000Y-53900000D01*
X176755000Y-54150000D02*
X176055000Y-54150000D01*
X179055000Y-54150000D02*
X178355000Y-54150000D01*
X179055000Y-53900000D02*
X179055000Y-54150000D01*
D13*
%TO.C,J1*%
X205640000Y-60390000D02*
X205640000Y-61640000D01*
X205940000Y-60690000D02*
X205940000Y-65410000D01*
X205940000Y-62000000D02*
X206550000Y-62000000D01*
X205940000Y-63300000D02*
X206550000Y-63300000D01*
X205940000Y-65410000D02*
X212060000Y-65410000D01*
X206550000Y-61300000D02*
X206550000Y-64800000D01*
X206550000Y-64800000D02*
X211450000Y-64800000D01*
X206890000Y-60390000D02*
X205640000Y-60390000D01*
X207400000Y-60490000D02*
X207400000Y-60690000D01*
X207700000Y-60490000D02*
X207400000Y-60490000D01*
X207700000Y-60590000D02*
X207400000Y-60590000D01*
X207700000Y-60690000D02*
X207700000Y-60490000D01*
X208500000Y-60690000D02*
X208500000Y-61300000D01*
X208500000Y-61300000D02*
X206550000Y-61300000D01*
X208900000Y-64300000D02*
X209100000Y-64300000D01*
X208900000Y-64800000D02*
X208900000Y-64300000D01*
X209000000Y-64800000D02*
X209000000Y-64300000D01*
X209100000Y-64300000D02*
X209100000Y-64800000D01*
X209500000Y-61300000D02*
X209500000Y-60690000D01*
X211450000Y-61300000D02*
X209500000Y-61300000D01*
X211450000Y-64800000D02*
X211450000Y-61300000D01*
X212060000Y-60690000D02*
X205940000Y-60690000D01*
X212060000Y-62000000D02*
X211450000Y-62000000D01*
X212060000Y-63300000D02*
X211450000Y-63300000D01*
X212060000Y-65410000D02*
X212060000Y-60690000D01*
%TO.C,U5*%
X201800000Y-71675000D02*
G75*
G02*
X199700000Y-73175003I-2174110J823750D01*
G01*
X199600000Y-52175001D02*
G75*
G02*
X201804030Y-53673538I64720J-2274909D01*
G01*
X186300000Y-73175000D02*
G75*
G02*
X184200000Y-71675000I74105J2323747D01*
G01*
X184187108Y-53670320D02*
G75*
G02*
X186399532Y-52175001I2135279J-774913D01*
G01*
X199600000Y-52175000D02*
X197000000Y-52175000D01*
X197000000Y-50975000D02*
X197000000Y-52175000D01*
X189000000Y-52175000D02*
X189000000Y-50975000D01*
X189000000Y-52175000D02*
X186400000Y-52175000D01*
X189000000Y-50975000D02*
X197000000Y-50975000D01*
X186300000Y-73175000D02*
X199700000Y-73175000D01*
%TO.C,R3*%
X177972224Y-73977500D02*
X177462776Y-73977500D01*
X177972224Y-75022500D02*
X177462776Y-75022500D01*
%TO.C,C5*%
X177838767Y-65490000D02*
X177546233Y-65490000D01*
X177838767Y-66510000D02*
X177546233Y-66510000D01*
%TO.C,C3*%
X177546233Y-58010000D02*
X177838767Y-58010000D01*
X177546233Y-56990000D02*
X177838767Y-56990000D01*
%TO.C,C4*%
X177546233Y-62260000D02*
X177838767Y-62260000D01*
X177546233Y-61240000D02*
X177838767Y-61240000D01*
%TO.C,R2*%
X177897224Y-69727500D02*
X177387776Y-69727500D01*
X177897224Y-70772500D02*
X177387776Y-70772500D01*
%TO.C,U4*%
X175300000Y-105960000D02*
X188700000Y-105960000D01*
X178000000Y-83760000D02*
X186000000Y-83760000D01*
X178000000Y-84960000D02*
X175400000Y-84960000D01*
X178000000Y-84960000D02*
X178000000Y-83760000D01*
X186000000Y-83760000D02*
X186000000Y-84960000D01*
X188600000Y-84960000D02*
X186000000Y-84960000D01*
X173187108Y-86455320D02*
G75*
G02*
X175399532Y-84960001I2135279J-774913D01*
G01*
X175300000Y-105960000D02*
G75*
G02*
X173200000Y-104460000I74105J2323747D01*
G01*
X188600000Y-84960001D02*
G75*
G02*
X190804030Y-86458538I64720J-2274909D01*
G01*
X190800000Y-104460000D02*
G75*
G02*
X188700000Y-105960003I-2174110J823750D01*
G01*
%TO.C,U3*%
X196737500Y-84280000D02*
X196737500Y-104720000D01*
X196737500Y-104720000D02*
X202037500Y-104720000D01*
X198387500Y-84280000D02*
X196737500Y-84280000D01*
X202037500Y-84280000D02*
X200387500Y-84280000D01*
X202037500Y-104720000D02*
X202037500Y-84280000D01*
X200387500Y-84280000D02*
G75*
G02*
X198387500Y-84280000I-1000000J0D01*
G01*
%TO.C,U1*%
X213447500Y-86460000D02*
X212197500Y-86460000D01*
X213157500Y-86750000D02*
X207187500Y-86750000D01*
X207187500Y-86750000D02*
X207187500Y-101870000D01*
X213147500Y-86760000D02*
X212397500Y-86760000D01*
X212397500Y-86760000D02*
X212397500Y-88560000D01*
X210897500Y-86760000D02*
X210897500Y-87510000D01*
X210897500Y-87510000D02*
X207947500Y-87510000D01*
X207947500Y-87510000D02*
X207947500Y-94310000D01*
X213447500Y-87710000D02*
X213447500Y-86460000D01*
X213147500Y-88560000D02*
X213147500Y-86760000D01*
X212397500Y-88560000D02*
X213147500Y-88560000D01*
X213147500Y-90060000D02*
X212397500Y-90060000D01*
X212397500Y-90060000D02*
X212397500Y-98560000D01*
X213147500Y-98560000D02*
X213147500Y-90060000D01*
X212397500Y-98560000D02*
X213147500Y-98560000D01*
X213147500Y-100060000D02*
X212397500Y-100060000D01*
X212397500Y-100060000D02*
X212397500Y-101860000D01*
X210897500Y-101110000D02*
X207947500Y-101110000D01*
X207947500Y-101110000D02*
X207947500Y-94310000D01*
X213147500Y-101860000D02*
X213147500Y-100060000D01*
X212397500Y-101860000D02*
X213147500Y-101860000D01*
X210897500Y-101860000D02*
X210897500Y-101110000D01*
X213157500Y-101870000D02*
X213157500Y-86750000D01*
X207187500Y-101870000D02*
X213157500Y-101870000D01*
%TO.C,R1*%
X168037500Y-98477224D02*
X168037500Y-97967776D01*
X169082500Y-98477224D02*
X169082500Y-97967776D01*
%TO.C,D1*%
X164795000Y-92775000D02*
X163325000Y-92775000D01*
X163325000Y-92775000D02*
X163325000Y-95235000D01*
X164795000Y-95235000D02*
X164795000Y-92775000D01*
%TO.C,C2*%
X206963733Y-104300000D02*
X207256267Y-104300000D01*
X206963733Y-105320000D02*
X207256267Y-105320000D01*
%TO.C,C1*%
X211551233Y-104300000D02*
X211843767Y-104300000D01*
X211551233Y-105320000D02*
X211843767Y-105320000D01*
%TD*%
M02*
