%TF.GenerationSoftware,KiCad,Pcbnew,9.0.6*%
%TF.CreationDate,2026-02-23T11:27:51-08:00*%
%TF.ProjectId,514-Schematic-D,3531342d-5363-4686-956d-617469632d44,rev?*%
%TF.SameCoordinates,Original*%
%TF.FileFunction,Copper,L1,Top*%
%TF.FilePolarity,Positive*%
%FSLAX46Y46*%
G04 Gerber Fmt 4.6, Leading zero omitted, Abs format (unit mm)*
G04 Created by KiCad (PCBNEW 9.0.6) date 2026-02-23 11:27:51*
%MOMM*%
%LPD*%
G01*
G04 APERTURE LIST*
G04 Aperture macros list*
%AMRoundRect*
0 Rectangle with rounded corners*
0 $1 Rounding radius*
0 $2 $3 $4 $5 $6 $7 $8 $9 X,Y pos of 4 corners*
0 Add a 4 corners polygon primitive as box body*
4,1,4,$2,$3,$4,$5,$6,$7,$8,$9,$2,$3,0*
0 Add four circle primitives for the rounded corners*
1,1,$1+$1,$2,$3*
1,1,$1+$1,$4,$5*
1,1,$1+$1,$6,$7*
1,1,$1+$1,$8,$9*
0 Add four rect primitives between the rounded corners*
20,1,$1+$1,$2,$3,$4,$5,0*
20,1,$1+$1,$4,$5,$6,$7,0*
20,1,$1+$1,$6,$7,$8,$9,0*
20,1,$1+$1,$8,$9,$2,$3,0*%
G04 Aperture macros list end*
%TA.AperFunction,ComponentPad*%
%ADD10C,2.000000*%
%TD*%
%TA.AperFunction,ComponentPad*%
%ADD11C,1.600000*%
%TD*%
%TA.AperFunction,ComponentPad*%
%ADD12RoundRect,0.250000X-0.550000X-0.550000X0.550000X-0.550000X0.550000X0.550000X-0.550000X0.550000X0*%
%TD*%
%TA.AperFunction,SMDPad,CuDef*%
%ADD13C,1.300000*%
%TD*%
%TA.AperFunction,SMDPad,CuDef*%
%ADD14RoundRect,0.250000X-0.900000X-0.400000X0.900000X-0.400000X0.900000X0.400000X-0.900000X0.400000X0*%
%TD*%
%TA.AperFunction,HeatsinkPad*%
%ADD15RoundRect,0.250000X-1.500000X-1.500000X1.500000X-1.500000X1.500000X1.500000X-1.500000X1.500000X0*%
%TD*%
%TA.AperFunction,SMDPad,CuDef*%
%ADD16RoundRect,0.500000X-1.000000X-0.500000X1.000000X-0.500000X1.000000X0.500000X-1.000000X0.500000X0*%
%TD*%
%TA.AperFunction,ComponentPad*%
%ADD17O,1.950000X1.700000*%
%TD*%
%TA.AperFunction,ComponentPad*%
%ADD18RoundRect,0.250000X-0.725000X0.600000X-0.725000X-0.600000X0.725000X-0.600000X0.725000X0.600000X0*%
%TD*%
%TA.AperFunction,SMDPad,CuDef*%
%ADD19RoundRect,0.237500X0.237500X-0.250000X0.237500X0.250000X-0.237500X0.250000X-0.237500X-0.250000X0*%
%TD*%
%TA.AperFunction,SMDPad,CuDef*%
%ADD20RoundRect,0.237500X-0.237500X0.287500X-0.237500X-0.287500X0.237500X-0.287500X0.237500X0.287500X0*%
%TD*%
%TA.AperFunction,SMDPad,CuDef*%
%ADD21RoundRect,0.237500X-0.300000X-0.237500X0.300000X-0.237500X0.300000X0.237500X-0.300000X0.237500X0*%
%TD*%
%TA.AperFunction,ViaPad*%
%ADD22C,0.600000*%
%TD*%
%TA.AperFunction,Conductor*%
%ADD23C,0.200000*%
%TD*%
G04 APERTURE END LIST*
D10*
%TO.P,SW1,1,1*%
%TO.N,Net-(U4-D0)*%
X213000000Y-93000000D03*
X219500000Y-93000000D03*
%TO.P,SW1,2,2*%
%TO.N,GND_D*%
X213000000Y-97500000D03*
X219500000Y-97500000D03*
%TD*%
D11*
%TO.P,U3,16,O1*%
%TO.N,Net-(U1-Input_1)*%
X200967500Y-85610000D03*
%TO.P,U3,15,O2*%
%TO.N,Net-(U1-Input_2)*%
X200967500Y-88150000D03*
%TO.P,U3,14,O3*%
%TO.N,Net-(U1-Input_3)*%
X200967500Y-90690000D03*
%TO.P,U3,13,O4*%
%TO.N,Net-(U1-Input_4)*%
X200967500Y-93230000D03*
%TO.P,U3,12,O5*%
%TO.N,unconnected-(U3-O5-Pad12)*%
X200967500Y-95770000D03*
%TO.P,U3,11,O6*%
%TO.N,unconnected-(U3-O6-Pad11)*%
X200967500Y-98310000D03*
%TO.P,U3,10,O7*%
%TO.N,unconnected-(U3-O7-Pad10)*%
X200967500Y-100850000D03*
%TO.P,U3,9,COM*%
%TO.N,Net-(U1-VCC)*%
X200967500Y-103390000D03*
%TO.P,U3,8,GND*%
%TO.N,GND_D*%
X193347500Y-103390000D03*
%TO.P,U3,7,I7*%
%TO.N,unconnected-(U3-I7-Pad7)*%
X193347500Y-100850000D03*
%TO.P,U3,6,I6*%
%TO.N,unconnected-(U3-I6-Pad6)*%
X193347500Y-98310000D03*
%TO.P,U3,5,I5*%
%TO.N,unconnected-(U3-I5-Pad5)*%
X193347500Y-95770000D03*
%TO.P,U3,4,I4*%
%TO.N,Net-(U3-I4)*%
X193347500Y-93230000D03*
%TO.P,U3,3,I3*%
%TO.N,Net-(U3-I3)*%
X193347500Y-90690000D03*
%TO.P,U3,2,I2*%
%TO.N,Net-(U3-I2)*%
X193347500Y-88150000D03*
D12*
%TO.P,U3,1,I1*%
%TO.N,Net-(U3-I1)*%
X193347500Y-85610000D03*
%TD*%
D13*
%TO.P,U4,23*%
%TO.N,N/C*%
X181040000Y-86840000D03*
%TO.P,U4,22*%
X181040000Y-89420000D03*
%TO.P,U4,21*%
X181040000Y-91960000D03*
%TO.P,U4,20*%
X178500000Y-91960000D03*
%TO.P,U4,19*%
X178500000Y-89420000D03*
%TO.P,U4,18*%
X178500000Y-86840000D03*
D14*
%TO.P,U4,17,BAT-*%
%TO.N,GND_D*%
X175270000Y-93160000D03*
%TO.P,U4,16,BAT+*%
%TO.N,+5V*%
X175270000Y-95060000D03*
D15*
%TO.P,U4,15*%
%TO.N,N/C*%
X181870000Y-96060000D03*
D16*
%TO.P,U4,14,5V*%
%TO.N,Net-(U1-VCC)*%
X188270000Y-87840000D03*
%TO.P,U4,13,GND*%
%TO.N,unconnected-(U4-GND-Pad13)*%
X188270000Y-90380000D03*
%TO.P,U4,12,3v3*%
%TO.N,+3V3*%
X188270000Y-92920000D03*
%TO.P,U4,11,D10*%
%TO.N,Net-(U3-I1)*%
X188270000Y-95460000D03*
%TO.P,U4,10,D9*%
%TO.N,Net-(U3-I2)*%
X188270000Y-98000000D03*
%TO.P,U4,9,D8*%
%TO.N,Net-(U3-I3)*%
X188270000Y-100540000D03*
%TO.P,U4,8,D7*%
%TO.N,Net-(U3-I4)*%
X188270000Y-103080000D03*
%TO.P,U4,7,D6*%
%TO.N,Net-(U4-D6)*%
X171270000Y-103080000D03*
%TO.P,U4,6,D5*%
%TO.N,unconnected-(U4-D5-Pad6)*%
X171270000Y-100540000D03*
%TO.P,U4,5,D4*%
%TO.N,unconnected-(U4-D4-Pad5)*%
X171270000Y-98000000D03*
%TO.P,U4,4,D3*%
%TO.N,unconnected-(U4-D3-Pad4)*%
X171270000Y-95460000D03*
%TO.P,U4,3,D2*%
%TO.N,unconnected-(U4-D2-Pad3)*%
X171270000Y-92920000D03*
%TO.P,U4,2,D1*%
%TO.N,unconnected-(U4-D1-Pad2)*%
X171270000Y-90380000D03*
%TO.P,U4,1,D0*%
%TO.N,Net-(U4-D0)*%
X171270000Y-87840000D03*
%TD*%
D17*
%TO.P,U1,5,VCC*%
%TO.N,Net-(U1-VCC)*%
X207270000Y-99310000D03*
%TO.P,U1,4,Input_4*%
%TO.N,Net-(U1-Input_4)*%
X207270000Y-96810000D03*
%TO.P,U1,3,Input_3*%
%TO.N,Net-(U1-Input_3)*%
X207270000Y-94310000D03*
%TO.P,U1,2,Input_2*%
%TO.N,Net-(U1-Input_2)*%
X207270000Y-91810000D03*
D18*
%TO.P,U1,1,Input_1*%
%TO.N,Net-(U1-Input_1)*%
X207270000Y-89310000D03*
%TD*%
D19*
%TO.P,R1,2*%
%TO.N,Net-(D1-A)*%
X166330000Y-97310000D03*
%TO.P,R1,1*%
%TO.N,Net-(U4-D6)*%
X166330000Y-99135000D03*
%TD*%
D20*
%TO.P,D1,1,K*%
%TO.N,GND_D*%
X164060000Y-93560000D03*
%TO.P,D1,2,A*%
%TO.N,Net-(D1-A)*%
X164060000Y-95310000D03*
%TD*%
D21*
%TO.P,C2,1*%
%TO.N,GND_D*%
X204017500Y-104810000D03*
%TO.P,C2,2*%
%TO.N,Net-(U1-VCC)*%
X205742500Y-104810000D03*
%TD*%
%TO.P,C1,1*%
%TO.N,Net-(U1-VCC)*%
X208605000Y-104810000D03*
%TO.P,C1,2*%
%TO.N,GND_D*%
X210330000Y-104810000D03*
%TD*%
D22*
%TO.N,Net-(U4-D0)*%
X169000000Y-85000000D03*
X213000000Y-85000000D03*
%TD*%
D23*
%TO.N,Net-(U4-D0)*%
X213000000Y-93000000D02*
X213000000Y-85000000D01*
X213000000Y-93000000D02*
X219500000Y-93000000D01*
X169000000Y-85570000D02*
X171270000Y-87840000D01*
X169000000Y-85000000D02*
X169000000Y-85570000D01*
%TO.N,Net-(U1-VCC)*%
X207277500Y-103390000D02*
X207162500Y-103390000D01*
%TO.N,Net-(D1-A)*%
X166060000Y-97310000D02*
X164060000Y-95310000D01*
X166330000Y-97310000D02*
X166060000Y-97310000D01*
%TO.N,Net-(U1-VCC)*%
X207162500Y-103390000D02*
X205742500Y-104810000D01*
X207277500Y-99317500D02*
X207270000Y-99310000D01*
X200967500Y-103390000D02*
X207277500Y-103390000D01*
X207277500Y-103390000D02*
X207277500Y-99317500D01*
%TO.N,Net-(U1-Input_1)*%
X204514917Y-85610000D02*
X207270000Y-88365083D01*
%TO.N,Net-(U1-Input_2)*%
X203610000Y-88150000D02*
X207270000Y-91810000D01*
%TO.N,Net-(U1-Input_1)*%
X207270000Y-88365083D02*
X207270000Y-89310000D01*
%TO.N,Net-(U1-VCC)*%
X199866500Y-90233950D02*
X199866500Y-102289000D01*
%TO.N,Net-(U3-I4)*%
X192246500Y-94331000D02*
X193347500Y-93230000D01*
%TO.N,Net-(U1-Input_3)*%
X203650000Y-90690000D02*
X207270000Y-94310000D01*
%TO.N,Net-(U1-VCC)*%
X188270000Y-87840000D02*
X191601000Y-84509000D01*
%TO.N,Net-(U1-Input_1)*%
X200967500Y-85610000D02*
X204514917Y-85610000D01*
%TO.N,Net-(U3-I4)*%
X189560450Y-103080000D02*
X192246500Y-100393950D01*
%TO.N,Net-(U1-Input_4)*%
X200967500Y-93230000D02*
X203690000Y-93230000D01*
%TO.N,Net-(U4-D6)*%
X171270000Y-103080000D02*
X170275000Y-103080000D01*
%TO.N,Net-(U3-I1)*%
X188270000Y-95460000D02*
X188370058Y-95460000D01*
%TO.N,Net-(U3-I2)*%
X191330000Y-88810000D02*
X191990000Y-88150000D01*
%TO.N,Net-(U3-I3)*%
X189770000Y-100540000D02*
X191731000Y-98579000D01*
%TO.N,Net-(U3-I4)*%
X188270000Y-103080000D02*
X189560450Y-103080000D01*
%TO.N,Net-(U3-I1)*%
X190830000Y-87310000D02*
X192530000Y-85610000D01*
%TO.N,Net-(U1-VCC)*%
X194141550Y-84509000D02*
X199866500Y-90233950D01*
%TO.N,Net-(U3-I3)*%
X191731000Y-98579000D02*
X191731000Y-90909000D01*
%TO.N,Net-(U3-I1)*%
X192530000Y-85610000D02*
X193347500Y-85610000D01*
%TO.N,Net-(U3-I3)*%
X188270000Y-100540000D02*
X189770000Y-100540000D01*
%TO.N,Net-(U1-VCC)*%
X191601000Y-84509000D02*
X194141550Y-84509000D01*
%TO.N,Net-(U1-Input_3)*%
X200967500Y-90690000D02*
X203650000Y-90690000D01*
%TO.N,Net-(U1-VCC)*%
X199866500Y-102289000D02*
X200967500Y-103390000D01*
%TO.N,Net-(U3-I4)*%
X192246500Y-100393950D02*
X192246500Y-94331000D01*
%TO.N,Net-(U1-Input_2)*%
X200967500Y-88150000D02*
X203610000Y-88150000D01*
%TO.N,Net-(U3-I1)*%
X190830000Y-93000058D02*
X190830000Y-87310000D01*
%TO.N,Net-(U3-I2)*%
X188270000Y-98000000D02*
X189560450Y-98000000D01*
%TO.N,Net-(U3-I3)*%
X191950000Y-90690000D02*
X193347500Y-90690000D01*
%TO.N,Net-(U3-I2)*%
X189560450Y-98000000D02*
X191330000Y-96230450D01*
%TO.N,Net-(U3-I1)*%
X188370058Y-95460000D02*
X190830000Y-93000058D01*
%TO.N,Net-(U4-D6)*%
X170275000Y-103080000D02*
X166330000Y-99135000D01*
%TO.N,Net-(U3-I2)*%
X191330000Y-96230450D02*
X191330000Y-88810000D01*
X191990000Y-88150000D02*
X193347500Y-88150000D01*
%TO.N,Net-(U1-Input_4)*%
X203690000Y-93230000D02*
X207270000Y-96810000D01*
%TO.N,Net-(U3-I3)*%
X191731000Y-90909000D02*
X191950000Y-90690000D01*
%TO.N,Net-(U1-VCC)*%
X208605000Y-104810000D02*
X205742500Y-104810000D01*
%TD*%
%TA.AperFunction,Conductor*%
%TO.N,GND_D*%
G36*
X217563032Y-83310648D02*
G01*
X217896929Y-83327052D01*
X217909037Y-83328245D01*
X218012146Y-83343539D01*
X218236699Y-83376849D01*
X218248617Y-83379219D01*
X218569951Y-83459709D01*
X218581588Y-83463240D01*
X218652806Y-83488722D01*
X218893467Y-83574832D01*
X218904688Y-83579479D01*
X219204163Y-83721120D01*
X219214871Y-83726844D01*
X219498988Y-83897137D01*
X219509103Y-83903895D01*
X219677085Y-84028479D01*
X219775170Y-84101224D01*
X219784576Y-84108944D01*
X220030013Y-84331395D01*
X220038604Y-84339986D01*
X220181561Y-84497715D01*
X220261055Y-84585423D01*
X220268775Y-84594829D01*
X220466102Y-84860893D01*
X220472862Y-84871011D01*
X220616574Y-85110781D01*
X220643148Y-85155116D01*
X220648883Y-85165844D01*
X220765538Y-85412491D01*
X220790514Y-85465297D01*
X220795170Y-85476540D01*
X220906759Y-85788411D01*
X220910292Y-85800055D01*
X220990777Y-86121369D01*
X220993151Y-86133305D01*
X221041754Y-86460962D01*
X221042947Y-86473071D01*
X221056686Y-86752712D01*
X221059106Y-86801990D01*
X221059351Y-86806966D01*
X221059500Y-86813051D01*
X221059500Y-92239058D01*
X221039815Y-92306097D01*
X220987011Y-92351852D01*
X220917853Y-92361796D01*
X220854297Y-92332771D01*
X220825015Y-92295353D01*
X220798127Y-92242582D01*
X220783343Y-92213567D01*
X220644517Y-92022490D01*
X220477510Y-91855483D01*
X220286433Y-91716657D01*
X220286429Y-91716655D01*
X220075996Y-91609433D01*
X219851368Y-91536446D01*
X219618097Y-91499500D01*
X219618092Y-91499500D01*
X219381908Y-91499500D01*
X219381903Y-91499500D01*
X219148631Y-91536446D01*
X218924003Y-91609433D01*
X218713566Y-91716657D01*
X218604550Y-91795862D01*
X218522490Y-91855483D01*
X218522488Y-91855485D01*
X218522487Y-91855485D01*
X218355485Y-92022487D01*
X218355485Y-92022488D01*
X218355483Y-92022490D01*
X218316865Y-92075643D01*
X218216657Y-92213566D01*
X218201872Y-92242584D01*
X218158140Y-92328414D01*
X218156417Y-92331795D01*
X218108442Y-92382591D01*
X218045932Y-92399500D01*
X214454068Y-92399500D01*
X214387029Y-92379815D01*
X214343583Y-92331795D01*
X214283343Y-92213567D01*
X214144517Y-92022490D01*
X213977510Y-91855483D01*
X213881971Y-91786070D01*
X213786431Y-91716655D01*
X213668204Y-91656415D01*
X213617409Y-91608441D01*
X213600500Y-91545931D01*
X213600500Y-86707648D01*
X216259500Y-86707648D01*
X216259500Y-86912352D01*
X216263878Y-86939995D01*
X216291522Y-87114534D01*
X216354781Y-87309223D01*
X216408868Y-87415373D01*
X216435879Y-87468385D01*
X216447715Y-87491613D01*
X216568028Y-87657213D01*
X216712786Y-87801971D01*
X216826161Y-87884341D01*
X216878390Y-87922287D01*
X216948642Y-87958082D01*
X217060776Y-88015218D01*
X217060778Y-88015218D01*
X217060781Y-88015220D01*
X217160584Y-88047648D01*
X217255465Y-88078477D01*
X217356557Y-88094488D01*
X217457648Y-88110500D01*
X217457649Y-88110500D01*
X217662351Y-88110500D01*
X217662352Y-88110500D01*
X217864534Y-88078477D01*
X218059219Y-88015220D01*
X218241610Y-87922287D01*
X218347347Y-87845465D01*
X218407213Y-87801971D01*
X218407215Y-87801968D01*
X218407219Y-87801966D01*
X218551966Y-87657219D01*
X218551968Y-87657215D01*
X218551971Y-87657213D01*
X218623518Y-87558735D01*
X218672287Y-87491610D01*
X218765220Y-87309219D01*
X218828477Y-87114534D01*
X218860500Y-86912352D01*
X218860500Y-86707648D01*
X218828477Y-86505466D01*
X218765220Y-86310781D01*
X218765218Y-86310778D01*
X218765218Y-86310776D01*
X218690456Y-86164049D01*
X218672287Y-86128390D01*
X218664556Y-86117749D01*
X218551971Y-85962786D01*
X218407213Y-85818028D01*
X218241613Y-85697715D01*
X218241612Y-85697714D01*
X218241610Y-85697713D01*
X218184653Y-85668691D01*
X218059223Y-85604781D01*
X217864534Y-85541522D01*
X217682720Y-85512726D01*
X217662352Y-85509500D01*
X217457648Y-85509500D01*
X217437280Y-85512726D01*
X217255465Y-85541522D01*
X217060776Y-85604781D01*
X216878386Y-85697715D01*
X216712786Y-85818028D01*
X216568028Y-85962786D01*
X216447715Y-86128386D01*
X216354781Y-86310776D01*
X216291522Y-86505465D01*
X216274411Y-86613504D01*
X216259500Y-86707648D01*
X213600500Y-86707648D01*
X213600500Y-85579765D01*
X213620185Y-85512726D01*
X213621398Y-85510874D01*
X213709390Y-85379185D01*
X213709390Y-85379184D01*
X213709394Y-85379179D01*
X213769737Y-85233497D01*
X213800500Y-85078842D01*
X213800500Y-84921158D01*
X213800500Y-84921155D01*
X213800499Y-84921153D01*
X213769738Y-84766510D01*
X213769737Y-84766503D01*
X213769735Y-84766498D01*
X213769734Y-84766494D01*
X213709397Y-84620827D01*
X213709390Y-84620814D01*
X213621789Y-84489711D01*
X213621786Y-84489707D01*
X213510292Y-84378213D01*
X213510288Y-84378210D01*
X213379185Y-84290609D01*
X213379172Y-84290602D01*
X213233501Y-84230264D01*
X213233489Y-84230261D01*
X213078845Y-84199500D01*
X213078842Y-84199500D01*
X212921158Y-84199500D01*
X212921155Y-84199500D01*
X212766510Y-84230261D01*
X212766498Y-84230264D01*
X212620827Y-84290602D01*
X212620814Y-84290609D01*
X212489711Y-84378210D01*
X212489707Y-84378213D01*
X212378213Y-84489707D01*
X212378210Y-84489711D01*
X212290609Y-84620814D01*
X212290602Y-84620827D01*
X212230266Y-84766494D01*
X212230261Y-84766510D01*
X212199500Y-84921153D01*
X212199500Y-85078846D01*
X212230261Y-85233489D01*
X212230264Y-85233501D01*
X212290602Y-85379172D01*
X212290609Y-85379185D01*
X212378602Y-85510874D01*
X212399480Y-85577551D01*
X212399500Y-85579765D01*
X212399500Y-91545931D01*
X212379815Y-91612970D01*
X212331796Y-91656415D01*
X212213568Y-91716655D01*
X212095712Y-91802284D01*
X212022490Y-91855483D01*
X212022488Y-91855485D01*
X212022487Y-91855485D01*
X211855485Y-92022487D01*
X211855485Y-92022488D01*
X211855483Y-92022490D01*
X211816865Y-92075643D01*
X211716657Y-92213566D01*
X211609433Y-92424003D01*
X211536446Y-92648631D01*
X211499500Y-92881902D01*
X211499500Y-93118097D01*
X211536446Y-93351368D01*
X211609433Y-93575996D01*
X211703668Y-93760941D01*
X211716657Y-93786433D01*
X211855483Y-93977510D01*
X212022490Y-94144517D01*
X212213567Y-94283343D01*
X212262026Y-94308034D01*
X212424003Y-94390566D01*
X212424005Y-94390566D01*
X212424008Y-94390568D01*
X212503160Y-94416286D01*
X212648631Y-94463553D01*
X212881903Y-94500500D01*
X212881908Y-94500500D01*
X213118097Y-94500500D01*
X213351368Y-94463553D01*
X213394800Y-94449441D01*
X213575992Y-94390568D01*
X213786433Y-94283343D01*
X213977510Y-94144517D01*
X214144517Y-93977510D01*
X214283343Y-93786433D01*
X214343583Y-93668204D01*
X214391558Y-93617409D01*
X214454068Y-93600500D01*
X218045932Y-93600500D01*
X218112971Y-93620185D01*
X218156416Y-93668203D01*
X218216657Y-93786433D01*
X218355483Y-93977510D01*
X218522490Y-94144517D01*
X218713567Y-94283343D01*
X218762026Y-94308034D01*
X218924003Y-94390566D01*
X218924005Y-94390566D01*
X218924008Y-94390568D01*
X219003160Y-94416286D01*
X219148631Y-94463553D01*
X219381903Y-94500500D01*
X219381908Y-94500500D01*
X219618097Y-94500500D01*
X219851368Y-94463553D01*
X219894800Y-94449441D01*
X220075992Y-94390568D01*
X220286433Y-94283343D01*
X220477510Y-94144517D01*
X220644517Y-93977510D01*
X220783343Y-93786433D01*
X220825015Y-93704646D01*
X220872989Y-93653850D01*
X220940810Y-93637055D01*
X221006945Y-93659592D01*
X221050397Y-93714307D01*
X221059500Y-93760941D01*
X221059500Y-96740160D01*
X221039815Y-96807199D01*
X220987011Y-96852954D01*
X220917853Y-96862898D01*
X220854297Y-96833873D01*
X220825015Y-96796455D01*
X220782914Y-96713828D01*
X220722658Y-96630894D01*
X220722658Y-96630893D01*
X220023787Y-97329765D01*
X220012518Y-97287708D01*
X219940110Y-97162292D01*
X219837708Y-97059890D01*
X219712292Y-96987482D01*
X219670234Y-96976212D01*
X220369105Y-96277340D01*
X220369104Y-96277338D01*
X220286174Y-96217087D01*
X220075802Y-96109897D01*
X219851247Y-96036934D01*
X219851248Y-96036934D01*
X219618052Y-96000000D01*
X219381948Y-96000000D01*
X219148752Y-96036934D01*
X218924197Y-96109897D01*
X218713830Y-96217084D01*
X218630894Y-96277340D01*
X219329766Y-96976212D01*
X219287708Y-96987482D01*
X219162292Y-97059890D01*
X219059890Y-97162292D01*
X218987482Y-97287708D01*
X218976212Y-97329766D01*
X218277340Y-96630894D01*
X218217084Y-96713830D01*
X218109897Y-96924197D01*
X218036934Y-97148752D01*
X218000000Y-97381947D01*
X218000000Y-97618052D01*
X218036934Y-97851247D01*
X218109897Y-98075802D01*
X218217087Y-98286174D01*
X218277338Y-98369104D01*
X218277340Y-98369105D01*
X218976212Y-97670233D01*
X218987482Y-97712292D01*
X219059890Y-97837708D01*
X219162292Y-97940110D01*
X219287708Y-98012518D01*
X219329765Y-98023787D01*
X218630893Y-98722658D01*
X218713828Y-98782914D01*
X218924197Y-98890102D01*
X219148752Y-98963065D01*
X219148751Y-98963065D01*
X219381948Y-99000000D01*
X219618052Y-99000000D01*
X219851247Y-98963065D01*
X220075802Y-98890102D01*
X220286163Y-98782918D01*
X220286169Y-98782914D01*
X220369104Y-98722658D01*
X220369105Y-98722658D01*
X219670233Y-98023787D01*
X219712292Y-98012518D01*
X219837708Y-97940110D01*
X219940110Y-97837708D01*
X220012518Y-97712292D01*
X220023787Y-97670234D01*
X220722658Y-98369105D01*
X220722658Y-98369104D01*
X220782914Y-98286169D01*
X220782921Y-98286158D01*
X220825015Y-98203545D01*
X220872989Y-98152748D01*
X220940810Y-98135953D01*
X221006945Y-98158490D01*
X221050397Y-98213205D01*
X221059500Y-98259839D01*
X221059500Y-103806948D01*
X221059351Y-103813033D01*
X221042947Y-104146928D01*
X221041754Y-104159037D01*
X220993151Y-104486694D01*
X220990777Y-104498630D01*
X220910292Y-104819944D01*
X220906759Y-104831588D01*
X220795170Y-105143459D01*
X220790514Y-105154702D01*
X220648885Y-105454151D01*
X220643148Y-105464883D01*
X220472862Y-105748988D01*
X220466102Y-105759106D01*
X220268775Y-106025170D01*
X220261055Y-106034576D01*
X220038611Y-106280006D01*
X220030006Y-106288611D01*
X219784576Y-106511055D01*
X219775170Y-106518775D01*
X219509106Y-106716102D01*
X219498988Y-106722862D01*
X219214883Y-106893148D01*
X219204151Y-106898885D01*
X218904702Y-107040514D01*
X218893459Y-107045170D01*
X218581588Y-107156759D01*
X218569944Y-107160292D01*
X218248630Y-107240777D01*
X218236694Y-107243151D01*
X217909037Y-107291754D01*
X217896928Y-107292947D01*
X217581989Y-107308419D01*
X217563031Y-107309351D01*
X217556949Y-107309500D01*
X164563051Y-107309500D01*
X164556968Y-107309351D01*
X164536900Y-107308365D01*
X164223071Y-107292947D01*
X164210962Y-107291754D01*
X163883305Y-107243151D01*
X163871369Y-107240777D01*
X163550055Y-107160292D01*
X163538411Y-107156759D01*
X163226540Y-107045170D01*
X163215301Y-107040515D01*
X162915844Y-106898883D01*
X162905121Y-106893150D01*
X162621011Y-106722862D01*
X162610893Y-106716102D01*
X162344829Y-106518775D01*
X162335423Y-106511055D01*
X162296475Y-106475755D01*
X162089986Y-106288604D01*
X162081395Y-106280013D01*
X161858944Y-106034576D01*
X161851224Y-106025170D01*
X161673472Y-105785500D01*
X161653895Y-105759103D01*
X161647137Y-105748988D01*
X161476844Y-105464871D01*
X161471120Y-105454163D01*
X161329479Y-105154688D01*
X161324829Y-105143459D01*
X161308090Y-105096677D01*
X161240695Y-104908320D01*
X161213240Y-104831588D01*
X161209707Y-104819944D01*
X161129219Y-104498617D01*
X161126848Y-104486694D01*
X161078245Y-104159037D01*
X161077052Y-104146927D01*
X161075334Y-104111965D01*
X161060649Y-103813032D01*
X161060500Y-103806948D01*
X161060500Y-103707648D01*
X163259500Y-103707648D01*
X163259500Y-103912351D01*
X163291522Y-104114534D01*
X163354781Y-104309223D01*
X163411070Y-104419695D01*
X163445208Y-104486694D01*
X163447715Y-104491613D01*
X163568028Y-104657213D01*
X163712786Y-104801971D01*
X163823612Y-104882489D01*
X163878390Y-104922287D01*
X163994607Y-104981503D01*
X164060776Y-105015218D01*
X164060778Y-105015218D01*
X164060781Y-105015220D01*
X164165137Y-105049127D01*
X164255465Y-105078477D01*
X164356557Y-105094488D01*
X164457648Y-105110500D01*
X164457649Y-105110500D01*
X164662351Y-105110500D01*
X164662352Y-105110500D01*
X164749771Y-105096654D01*
X202980001Y-105096654D01*
X202990319Y-105197652D01*
X203044546Y-105361300D01*
X203044551Y-105361311D01*
X203135052Y-105508034D01*
X203135055Y-105508038D01*
X203256961Y-105629944D01*
X203256965Y-105629947D01*
X203403688Y-105720448D01*
X203403699Y-105720453D01*
X203567347Y-105774680D01*
X203668351Y-105784999D01*
X203767500Y-105784998D01*
X203767500Y-105060000D01*
X202980001Y-105060000D01*
X202980001Y-105096654D01*
X164749771Y-105096654D01*
X164864534Y-105078477D01*
X165059219Y-105015220D01*
X165241610Y-104922287D01*
X165252221Y-104914577D01*
X165260835Y-104908320D01*
X165407213Y-104801971D01*
X165407215Y-104801968D01*
X165407219Y-104801966D01*
X165551966Y-104657219D01*
X165551968Y-104657215D01*
X165551971Y-104657213D01*
X165608297Y-104579685D01*
X165672287Y-104491610D01*
X165765220Y-104309219D01*
X165828477Y-104114534D01*
X165860500Y-103912352D01*
X165860500Y-103707648D01*
X165849473Y-103638028D01*
X165828477Y-103505465D01*
X165765218Y-103310776D01*
X165680441Y-103144394D01*
X165672287Y-103128390D01*
X165664556Y-103117749D01*
X165551971Y-102962786D01*
X165407213Y-102818028D01*
X165241613Y-102697715D01*
X165241612Y-102697714D01*
X165241610Y-102697713D01*
X165163110Y-102657715D01*
X165059223Y-102604781D01*
X164864534Y-102541522D01*
X164689995Y-102513878D01*
X164662352Y-102509500D01*
X164457648Y-102509500D01*
X164433329Y-102513351D01*
X164255465Y-102541522D01*
X164060776Y-102604781D01*
X163878386Y-102697715D01*
X163712786Y-102818028D01*
X163568028Y-102962786D01*
X163447715Y-103128386D01*
X163354781Y-103310776D01*
X163291522Y-103505465D01*
X163259500Y-103707648D01*
X161060500Y-103707648D01*
X161060500Y-94973315D01*
X163084500Y-94973315D01*
X163084500Y-95646669D01*
X163084501Y-95646687D01*
X163094825Y-95747752D01*
X163149092Y-95911515D01*
X163149093Y-95911518D01*
X163160621Y-95930208D01*
X163239660Y-96058350D01*
X163361650Y-96180340D01*
X163508484Y-96270908D01*
X163672247Y-96325174D01*
X163773323Y-96335500D01*
X164184902Y-96335499D01*
X164251941Y-96355183D01*
X164272583Y-96371818D01*
X165318181Y-97417416D01*
X165351666Y-97478739D01*
X165354500Y-97505096D01*
X165354500Y-97609168D01*
X165354501Y-97609187D01*
X165364825Y-97710252D01*
X165398136Y-97810776D01*
X165419092Y-97874016D01*
X165506058Y-98015011D01*
X165509661Y-98020851D01*
X165623629Y-98134819D01*
X165657114Y-98196142D01*
X165652130Y-98265834D01*
X165623629Y-98310181D01*
X165509661Y-98424148D01*
X165419093Y-98570981D01*
X165419091Y-98570986D01*
X165408753Y-98602184D01*
X165364826Y-98734747D01*
X165364826Y-98734748D01*
X165364825Y-98734748D01*
X165354500Y-98835815D01*
X165354500Y-99434169D01*
X165354501Y-99434187D01*
X165364825Y-99535252D01*
X165380158Y-99581523D01*
X165416578Y-99691430D01*
X165419092Y-99699015D01*
X165419093Y-99699018D01*
X165442962Y-99737715D01*
X165509660Y-99845850D01*
X165631650Y-99967840D01*
X165778484Y-100058408D01*
X165942247Y-100112674D01*
X166043323Y-100123000D01*
X166417402Y-100122999D01*
X166484441Y-100142683D01*
X166505083Y-100159318D01*
X169233181Y-102887417D01*
X169266666Y-102948740D01*
X169269500Y-102975098D01*
X169269500Y-103638028D01*
X169269501Y-103638034D01*
X169280113Y-103757415D01*
X169336089Y-103953045D01*
X169336090Y-103953048D01*
X169336091Y-103953049D01*
X169430302Y-104133407D01*
X169430304Y-104133409D01*
X169558890Y-104291109D01*
X169652803Y-104367684D01*
X169716593Y-104419698D01*
X169896951Y-104513909D01*
X170092582Y-104569886D01*
X170211963Y-104580500D01*
X172328036Y-104580499D01*
X172447418Y-104569886D01*
X172643049Y-104513909D01*
X172823407Y-104419698D01*
X172981109Y-104291109D01*
X173109698Y-104133407D01*
X173203909Y-103953049D01*
X173259886Y-103757418D01*
X173270500Y-103638037D01*
X173270499Y-102521964D01*
X173259886Y-102402582D01*
X173203909Y-102206951D01*
X173109698Y-102026593D01*
X172996983Y-101888359D01*
X172969875Y-101823965D01*
X172981884Y-101755135D01*
X172996981Y-101731642D01*
X173109698Y-101593407D01*
X173203909Y-101413049D01*
X173259886Y-101217418D01*
X173270500Y-101098037D01*
X173270499Y-99981964D01*
X173259886Y-99862582D01*
X173203909Y-99666951D01*
X173109698Y-99486593D01*
X172996983Y-99348359D01*
X172969875Y-99283965D01*
X172981884Y-99215135D01*
X172996981Y-99191642D01*
X173109698Y-99053407D01*
X173203909Y-98873049D01*
X173259886Y-98677418D01*
X173270500Y-98558037D01*
X173270499Y-97441964D01*
X173259886Y-97322582D01*
X173203909Y-97126951D01*
X173109698Y-96946593D01*
X172996983Y-96808359D01*
X172969875Y-96743965D01*
X172981884Y-96675135D01*
X172996981Y-96651642D01*
X173109698Y-96513407D01*
X173203909Y-96333049D01*
X173259886Y-96137418D01*
X173270500Y-96018037D01*
X173270499Y-94901964D01*
X173259886Y-94782582D01*
X173210499Y-94609983D01*
X173619500Y-94609983D01*
X173619500Y-95510001D01*
X173619501Y-95510019D01*
X173630000Y-95612796D01*
X173630001Y-95612799D01*
X173685185Y-95779331D01*
X173685187Y-95779336D01*
X173720069Y-95835888D01*
X173777288Y-95928656D01*
X173901344Y-96052712D01*
X174050666Y-96144814D01*
X174217203Y-96199999D01*
X174319991Y-96210500D01*
X176220008Y-96210499D01*
X176322797Y-96199999D01*
X176489334Y-96144814D01*
X176638656Y-96052712D01*
X176762712Y-95928656D01*
X176854814Y-95779334D01*
X176909999Y-95612797D01*
X176920500Y-95510009D01*
X176920499Y-94609992D01*
X176918146Y-94586953D01*
X176911249Y-94519435D01*
X176910649Y-94513571D01*
X176910283Y-94509983D01*
X179619500Y-94509983D01*
X179619500Y-97610001D01*
X179619501Y-97610018D01*
X179630000Y-97712796D01*
X179630001Y-97712799D01*
X179671392Y-97837708D01*
X179685186Y-97879334D01*
X179777288Y-98028656D01*
X179901344Y-98152712D01*
X180050666Y-98244814D01*
X180217203Y-98299999D01*
X180319991Y-98310500D01*
X183420008Y-98310499D01*
X183522797Y-98299999D01*
X183689334Y-98244814D01*
X183838656Y-98152712D01*
X183962712Y-98028656D01*
X184054814Y-97879334D01*
X184109999Y-97712797D01*
X184120500Y-97610009D01*
X184120499Y-94509992D01*
X184109999Y-94407203D01*
X184054814Y-94240666D01*
X183962712Y-94091344D01*
X183838656Y-93967288D01*
X183726654Y-93898205D01*
X183689336Y-93875187D01*
X183689331Y-93875185D01*
X183664084Y-93866819D01*
X183522797Y-93820001D01*
X183522795Y-93820000D01*
X183420010Y-93809500D01*
X180319998Y-93809500D01*
X180319981Y-93809501D01*
X180217203Y-93820000D01*
X180217200Y-93820001D01*
X180050668Y-93875185D01*
X180050663Y-93875187D01*
X179901342Y-93967289D01*
X179777289Y-94091342D01*
X179685187Y-94240663D01*
X179685185Y-94240668D01*
X179671044Y-94283343D01*
X179630001Y-94407203D01*
X179630001Y-94407204D01*
X179630000Y-94407204D01*
X179619500Y-94509983D01*
X176910283Y-94509983D01*
X176909999Y-94507203D01*
X176854814Y-94340666D01*
X176762712Y-94191344D01*
X176762710Y-94191342D01*
X176758884Y-94186503D01*
X176732745Y-94121707D01*
X176745787Y-94053065D01*
X176758886Y-94032683D01*
X176762314Y-94028346D01*
X176854356Y-93879124D01*
X176854358Y-93879119D01*
X176909505Y-93712697D01*
X176909506Y-93712690D01*
X176919999Y-93609986D01*
X176920000Y-93609973D01*
X176920000Y-93410000D01*
X173620001Y-93410000D01*
X173620001Y-93609986D01*
X173630494Y-93712697D01*
X173685641Y-93879119D01*
X173685643Y-93879124D01*
X173777684Y-94028346D01*
X173781114Y-94032683D01*
X173807254Y-94097479D01*
X173794213Y-94166121D01*
X173781126Y-94186487D01*
X173777297Y-94191330D01*
X173777290Y-94191342D01*
X173777288Y-94191344D01*
X173768001Y-94206401D01*
X173685187Y-94340663D01*
X173685185Y-94340668D01*
X173663341Y-94406590D01*
X173630001Y-94507203D01*
X173630001Y-94507204D01*
X173630000Y-94507204D01*
X173619500Y-94609983D01*
X173210499Y-94609983D01*
X173203909Y-94586951D01*
X173109698Y-94406593D01*
X172996983Y-94268359D01*
X172969875Y-94203965D01*
X172981884Y-94135135D01*
X172996981Y-94111642D01*
X173109698Y-93973407D01*
X173203909Y-93793049D01*
X173259886Y-93597418D01*
X173270500Y-93478037D01*
X173270499Y-92710013D01*
X173620000Y-92710013D01*
X173620000Y-92910000D01*
X175020000Y-92910000D01*
X175520000Y-92910000D01*
X176919999Y-92910000D01*
X176919999Y-92710028D01*
X176919998Y-92710013D01*
X176909505Y-92607302D01*
X176854358Y-92440880D01*
X176854356Y-92440875D01*
X176762315Y-92291654D01*
X176638345Y-92167684D01*
X176489124Y-92075643D01*
X176489119Y-92075641D01*
X176322697Y-92020494D01*
X176322690Y-92020493D01*
X176219986Y-92010000D01*
X175520000Y-92010000D01*
X175520000Y-92910000D01*
X175020000Y-92910000D01*
X175020000Y-92010000D01*
X174320028Y-92010000D01*
X174320012Y-92010001D01*
X174217302Y-92020494D01*
X174050880Y-92075641D01*
X174050875Y-92075643D01*
X173901654Y-92167684D01*
X173777684Y-92291654D01*
X173685643Y-92440875D01*
X173685641Y-92440880D01*
X173630494Y-92607302D01*
X173630493Y-92607309D01*
X173620000Y-92710013D01*
X173270499Y-92710013D01*
X173270499Y-92361964D01*
X173259886Y-92242582D01*
X173203909Y-92046951D01*
X173109698Y-91866593D01*
X172996983Y-91728359D01*
X172969875Y-91663965D01*
X172981884Y-91595135D01*
X172996981Y-91571642D01*
X173109698Y-91433407D01*
X173203909Y-91253049D01*
X173259886Y-91057418D01*
X173270500Y-90938037D01*
X173270499Y-89821964D01*
X173259886Y-89702582D01*
X173210310Y-89529321D01*
X173203910Y-89506954D01*
X173203909Y-89506953D01*
X173203909Y-89506951D01*
X173111189Y-89329448D01*
X177349500Y-89329448D01*
X177349500Y-89510551D01*
X177377829Y-89689410D01*
X177433787Y-89861636D01*
X177433788Y-89861639D01*
X177483911Y-89960009D01*
X177515393Y-90021795D01*
X177516006Y-90022997D01*
X177622441Y-90169494D01*
X177622445Y-90169499D01*
X177750500Y-90297554D01*
X177750505Y-90297558D01*
X177878287Y-90390396D01*
X177897006Y-90403996D01*
X178002484Y-90457740D01*
X178058360Y-90486211D01*
X178058363Y-90486212D01*
X178144476Y-90514191D01*
X178230591Y-90542171D01*
X178303639Y-90553740D01*
X178390678Y-90567527D01*
X178453813Y-90597456D01*
X178490744Y-90656768D01*
X178489746Y-90726631D01*
X178451136Y-90784863D01*
X178390678Y-90812473D01*
X178230589Y-90837829D01*
X178058363Y-90893787D01*
X178058360Y-90893788D01*
X177897002Y-90976006D01*
X177750505Y-91082441D01*
X177750500Y-91082445D01*
X177622445Y-91210500D01*
X177622441Y-91210505D01*
X177516006Y-91357002D01*
X177433788Y-91518360D01*
X177433787Y-91518363D01*
X177377829Y-91690589D01*
X177349500Y-91869448D01*
X177349500Y-92050551D01*
X177377829Y-92229410D01*
X177433787Y-92401636D01*
X177433788Y-92401639D01*
X177453783Y-92440880D01*
X177515393Y-92561795D01*
X177516006Y-92562997D01*
X177622441Y-92709494D01*
X177622445Y-92709499D01*
X177750500Y-92837554D01*
X177750505Y-92837558D01*
X177878287Y-92930396D01*
X177897006Y-92943996D01*
X177955068Y-92973580D01*
X178058360Y-93026211D01*
X178058363Y-93026212D01*
X178086568Y-93035376D01*
X178230591Y-93082171D01*
X178313429Y-93095291D01*
X178409449Y-93110500D01*
X178409454Y-93110500D01*
X178590551Y-93110500D01*
X178677259Y-93096765D01*
X178769409Y-93082171D01*
X178941639Y-93026211D01*
X179102994Y-92943996D01*
X179249501Y-92837553D01*
X179377553Y-92709501D01*
X179483996Y-92562994D01*
X179566211Y-92401639D01*
X179622171Y-92229409D01*
X179638511Y-92126243D01*
X179647527Y-92069321D01*
X179677456Y-92006186D01*
X179736768Y-91969255D01*
X179806630Y-91970253D01*
X179864863Y-92008863D01*
X179892473Y-92069321D01*
X179917829Y-92229410D01*
X179973787Y-92401636D01*
X179973788Y-92401639D01*
X179993783Y-92440880D01*
X180055393Y-92561795D01*
X180056006Y-92562997D01*
X180162441Y-92709494D01*
X180162445Y-92709499D01*
X180290500Y-92837554D01*
X180290505Y-92837558D01*
X180418287Y-92930396D01*
X180437006Y-92943996D01*
X180495068Y-92973580D01*
X180598360Y-93026211D01*
X180598363Y-93026212D01*
X180626568Y-93035376D01*
X180770591Y-93082171D01*
X180853429Y-93095291D01*
X180949449Y-93110500D01*
X180949454Y-93110500D01*
X181130551Y-93110500D01*
X181217259Y-93096765D01*
X181309409Y-93082171D01*
X181481639Y-93026211D01*
X181642994Y-92943996D01*
X181789501Y-92837553D01*
X181917553Y-92709501D01*
X182023996Y-92562994D01*
X182106211Y-92401639D01*
X182162171Y-92229409D01*
X182178511Y-92126243D01*
X182190500Y-92050551D01*
X182190500Y-91869448D01*
X182164675Y-91706402D01*
X182162171Y-91690591D01*
X182115169Y-91545931D01*
X182106212Y-91518363D01*
X182106211Y-91518360D01*
X182077740Y-91462484D01*
X182023996Y-91357006D01*
X181977097Y-91292455D01*
X181917558Y-91210505D01*
X181917554Y-91210500D01*
X181789499Y-91082445D01*
X181789494Y-91082441D01*
X181642997Y-90976006D01*
X181642996Y-90976005D01*
X181642994Y-90976004D01*
X181568478Y-90938036D01*
X181481639Y-90893788D01*
X181481636Y-90893787D01*
X181309410Y-90837829D01*
X181149321Y-90812473D01*
X181086186Y-90782544D01*
X181049255Y-90723232D01*
X181050253Y-90653370D01*
X181088863Y-90595137D01*
X181149321Y-90567527D01*
X181219425Y-90556422D01*
X181309409Y-90542171D01*
X181481639Y-90486211D01*
X181642994Y-90403996D01*
X181789501Y-90297553D01*
X181917553Y-90169501D01*
X182023996Y-90022994D01*
X182106211Y-89861639D01*
X182162171Y-89689409D01*
X182179862Y-89577713D01*
X182190500Y-89510551D01*
X182190500Y-89329448D01*
X182168153Y-89188361D01*
X182162171Y-89150591D01*
X182120525Y-89022415D01*
X182106212Y-88978363D01*
X182106211Y-88978360D01*
X182077740Y-88922484D01*
X182023996Y-88817006D01*
X181975677Y-88750500D01*
X181917558Y-88670505D01*
X181917554Y-88670500D01*
X181789499Y-88542445D01*
X181789494Y-88542441D01*
X181642997Y-88436006D01*
X181642996Y-88436005D01*
X181642994Y-88436004D01*
X181568478Y-88398036D01*
X181481639Y-88353788D01*
X181481636Y-88353787D01*
X181309410Y-88297829D01*
X181130551Y-88269500D01*
X181130546Y-88269500D01*
X180949454Y-88269500D01*
X180949449Y-88269500D01*
X180770589Y-88297829D01*
X180598363Y-88353787D01*
X180598360Y-88353788D01*
X180437002Y-88436006D01*
X180290505Y-88542441D01*
X180290500Y-88542445D01*
X180162445Y-88670500D01*
X180162441Y-88670505D01*
X180056006Y-88817002D01*
X179973788Y-88978360D01*
X179973787Y-88978363D01*
X179917829Y-89150589D01*
X179892473Y-89310678D01*
X179862544Y-89373813D01*
X179803232Y-89410744D01*
X179733369Y-89409746D01*
X179675137Y-89371136D01*
X179647527Y-89310678D01*
X179628153Y-89188361D01*
X179622171Y-89150591D01*
X179580525Y-89022415D01*
X179566212Y-88978363D01*
X179566211Y-88978360D01*
X179537740Y-88922484D01*
X179483996Y-88817006D01*
X179435677Y-88750500D01*
X179377558Y-88670505D01*
X179377554Y-88670500D01*
X179249499Y-88542445D01*
X179249494Y-88542441D01*
X179102997Y-88436006D01*
X179102996Y-88436005D01*
X179102994Y-88436004D01*
X179028478Y-88398036D01*
X178941639Y-88353788D01*
X178941636Y-88353787D01*
X178769410Y-88297829D01*
X178590551Y-88269500D01*
X178590546Y-88269500D01*
X178409454Y-88269500D01*
X178409449Y-88269500D01*
X178230589Y-88297829D01*
X178058363Y-88353787D01*
X178058360Y-88353788D01*
X177897002Y-88436006D01*
X177750505Y-88542441D01*
X177750500Y-88542445D01*
X177622445Y-88670500D01*
X177622441Y-88670505D01*
X177516006Y-88817002D01*
X177433788Y-88978360D01*
X177433787Y-88978363D01*
X177377829Y-89150589D01*
X177349500Y-89329448D01*
X173111189Y-89329448D01*
X173109698Y-89326593D01*
X172996983Y-89188359D01*
X172969875Y-89123965D01*
X172981884Y-89055135D01*
X172996981Y-89031642D01*
X173109698Y-88893407D01*
X173203909Y-88713049D01*
X173259886Y-88517418D01*
X173270500Y-88398037D01*
X173270499Y-87281964D01*
X173259886Y-87162582D01*
X173203909Y-86966951D01*
X173113469Y-86793813D01*
X173109699Y-86786595D01*
X173109698Y-86786593D01*
X173079410Y-86749448D01*
X177349500Y-86749448D01*
X177349500Y-86930551D01*
X177377829Y-87109410D01*
X177433787Y-87281636D01*
X177433788Y-87281639D01*
X177489664Y-87391300D01*
X177501930Y-87415373D01*
X177516006Y-87442997D01*
X177622441Y-87589494D01*
X177622445Y-87589499D01*
X177750500Y-87717554D01*
X177750505Y-87717558D01*
X177863744Y-87799830D01*
X177897006Y-87823996D01*
X178002484Y-87877740D01*
X178058360Y-87906211D01*
X178058363Y-87906212D01*
X178110590Y-87923181D01*
X178230591Y-87962171D01*
X178313429Y-87975291D01*
X178409449Y-87990500D01*
X178409454Y-87990500D01*
X178590551Y-87990500D01*
X178677259Y-87976765D01*
X178769409Y-87962171D01*
X178941639Y-87906211D01*
X179102994Y-87823996D01*
X179249501Y-87717553D01*
X179377553Y-87589501D01*
X179483996Y-87442994D01*
X179566211Y-87281639D01*
X179622171Y-87109409D01*
X179642315Y-86982224D01*
X179647527Y-86949321D01*
X179677456Y-86886186D01*
X179736768Y-86849255D01*
X179806630Y-86850253D01*
X179864863Y-86888863D01*
X179892473Y-86949321D01*
X179917829Y-87109410D01*
X179973787Y-87281636D01*
X179973788Y-87281639D01*
X180029664Y-87391300D01*
X180041930Y-87415373D01*
X180056006Y-87442997D01*
X180162441Y-87589494D01*
X180162445Y-87589499D01*
X180290500Y-87717554D01*
X180290505Y-87717558D01*
X180403744Y-87799830D01*
X180437006Y-87823996D01*
X180542484Y-87877740D01*
X180598360Y-87906211D01*
X180598363Y-87906212D01*
X180650590Y-87923181D01*
X180770591Y-87962171D01*
X180853429Y-87975291D01*
X180949449Y-87990500D01*
X180949454Y-87990500D01*
X181130551Y-87990500D01*
X181217259Y-87976765D01*
X181309409Y-87962171D01*
X181481639Y-87906211D01*
X181642994Y-87823996D01*
X181789501Y-87717553D01*
X181917553Y-87589501D01*
X182023996Y-87442994D01*
X182106044Y-87281966D01*
X186269500Y-87281966D01*
X186269500Y-88398028D01*
X186269501Y-88398034D01*
X186280113Y-88517415D01*
X186336089Y-88713045D01*
X186336090Y-88713048D01*
X186336091Y-88713049D01*
X186430302Y-88893407D01*
X186430304Y-88893409D01*
X186543015Y-89031639D01*
X186570124Y-89096036D01*
X186558115Y-89164865D01*
X186543015Y-89188361D01*
X186436805Y-89318618D01*
X186430302Y-89326593D01*
X186401364Y-89381992D01*
X186336089Y-89506954D01*
X186291332Y-89663376D01*
X186281416Y-89698034D01*
X186280114Y-89702583D01*
X186280113Y-89702586D01*
X186269500Y-89821966D01*
X186269500Y-90938028D01*
X186269501Y-90938034D01*
X186280113Y-91057415D01*
X186336089Y-91253045D01*
X186336090Y-91253048D01*
X186336091Y-91253049D01*
X186430302Y-91433407D01*
X186430304Y-91433409D01*
X186543015Y-91571639D01*
X186570124Y-91636036D01*
X186558115Y-91704865D01*
X186543015Y-91728361D01*
X186482737Y-91802287D01*
X186430302Y-91866593D01*
X186404345Y-91916286D01*
X186336089Y-92046954D01*
X186310500Y-92136387D01*
X186281123Y-92239058D01*
X186280114Y-92242583D01*
X186280113Y-92242586D01*
X186269500Y-92361966D01*
X186269500Y-93478028D01*
X186269501Y-93478034D01*
X186280113Y-93597415D01*
X186336089Y-93793045D01*
X186336090Y-93793048D01*
X186336091Y-93793049D01*
X186430302Y-93973407D01*
X186446898Y-93993760D01*
X186543015Y-94111639D01*
X186570124Y-94176036D01*
X186558115Y-94244865D01*
X186543015Y-94268361D01*
X186443369Y-94390568D01*
X186430302Y-94406593D01*
X186407920Y-94449441D01*
X186336089Y-94586954D01*
X186291332Y-94743376D01*
X186281416Y-94778034D01*
X186280114Y-94782583D01*
X186280113Y-94782586D01*
X186269500Y-94901966D01*
X186269500Y-96018028D01*
X186269501Y-96018033D01*
X186280113Y-96137415D01*
X186336089Y-96333045D01*
X186336090Y-96333048D01*
X186336091Y-96333049D01*
X186430302Y-96513407D01*
X186430304Y-96513409D01*
X186543015Y-96651639D01*
X186570124Y-96716036D01*
X186558115Y-96784865D01*
X186543015Y-96808361D01*
X186448564Y-96924197D01*
X186430302Y-96946593D01*
X186384284Y-97034690D01*
X186336089Y-97126954D01*
X186292531Y-97279185D01*
X186281416Y-97318034D01*
X186280114Y-97322583D01*
X186280113Y-97322586D01*
X186279595Y-97328414D01*
X186269500Y-97441963D01*
X186269501Y-98558036D01*
X186273426Y-98602184D01*
X186280113Y-98677415D01*
X186336089Y-98873045D01*
X186336090Y-98873047D01*
X186336091Y-98873049D01*
X186430302Y-99053407D01*
X186491438Y-99128385D01*
X186543015Y-99191639D01*
X186570124Y-99256036D01*
X186558115Y-99324865D01*
X186543015Y-99348361D01*
X186482737Y-99422287D01*
X186430302Y-99486593D01*
X186415690Y-99514567D01*
X186336089Y-99666954D01*
X186296948Y-99803750D01*
X186281416Y-99858034D01*
X186280114Y-99862583D01*
X186280113Y-99862586D01*
X186269500Y-99981966D01*
X186269500Y-101098028D01*
X186269501Y-101098034D01*
X186280113Y-101217415D01*
X186336089Y-101413045D01*
X186336090Y-101413048D01*
X186336091Y-101413049D01*
X186430302Y-101593407D01*
X186430304Y-101593409D01*
X186543015Y-101731639D01*
X186570124Y-101796036D01*
X186558115Y-101864865D01*
X186543015Y-101888361D01*
X186430304Y-102026590D01*
X186336089Y-102206954D01*
X186315720Y-102278143D01*
X186281416Y-102398034D01*
X186280114Y-102402583D01*
X186280113Y-102402586D01*
X186269500Y-102521966D01*
X186269500Y-103638028D01*
X186269501Y-103638034D01*
X186280113Y-103757415D01*
X186336089Y-103953045D01*
X186336090Y-103953048D01*
X186336091Y-103953049D01*
X186430302Y-104133407D01*
X186430304Y-104133409D01*
X186558890Y-104291109D01*
X186652803Y-104367684D01*
X186716593Y-104419698D01*
X186896951Y-104513909D01*
X187092582Y-104569886D01*
X187211963Y-104580500D01*
X189328036Y-104580499D01*
X189447418Y-104569886D01*
X189643049Y-104513909D01*
X189823407Y-104419698D01*
X189981109Y-104291109D01*
X190109698Y-104133407D01*
X190203909Y-103953049D01*
X190259886Y-103757418D01*
X190270500Y-103638037D01*
X190270499Y-103270545D01*
X190290184Y-103203507D01*
X190306813Y-103182870D01*
X192020986Y-101468697D01*
X192082307Y-101435214D01*
X192151999Y-101440198D01*
X192207932Y-101482070D01*
X192219149Y-101500084D01*
X192235213Y-101531611D01*
X192355528Y-101697213D01*
X192500286Y-101841971D01*
X192665885Y-101962284D01*
X192665887Y-101962285D01*
X192665890Y-101962287D01*
X192758580Y-102009515D01*
X192759130Y-102009795D01*
X192809926Y-102057770D01*
X192826721Y-102125591D01*
X192804184Y-102191725D01*
X192759130Y-102230765D01*
X192666144Y-102278143D01*
X192621577Y-102310523D01*
X192621577Y-102310524D01*
X193301054Y-102990000D01*
X193294839Y-102990000D01*
X193193106Y-103017259D01*
X193101894Y-103069920D01*
X193027420Y-103144394D01*
X192974759Y-103235606D01*
X192947500Y-103337339D01*
X192947500Y-103343553D01*
X192268024Y-102664077D01*
X192268023Y-102664077D01*
X192235643Y-102708644D01*
X192142744Y-102890968D01*
X192079509Y-103085582D01*
X192047500Y-103287682D01*
X192047500Y-103492317D01*
X192079509Y-103694417D01*
X192142744Y-103889031D01*
X192235641Y-104071350D01*
X192235647Y-104071359D01*
X192268023Y-104115921D01*
X192268024Y-104115922D01*
X192947500Y-103436446D01*
X192947500Y-103442661D01*
X192974759Y-103544394D01*
X193027420Y-103635606D01*
X193101894Y-103710080D01*
X193193106Y-103762741D01*
X193294839Y-103790000D01*
X193301053Y-103790000D01*
X192621576Y-104469474D01*
X192666150Y-104501859D01*
X192848468Y-104594755D01*
X193043082Y-104657990D01*
X193245183Y-104690000D01*
X193449817Y-104690000D01*
X193651917Y-104657990D01*
X193846531Y-104594755D01*
X194028849Y-104501859D01*
X194073421Y-104469474D01*
X193393947Y-103790000D01*
X193400161Y-103790000D01*
X193501894Y-103762741D01*
X193593106Y-103710080D01*
X193667580Y-103635606D01*
X193720241Y-103544394D01*
X193747500Y-103442661D01*
X193747500Y-103436447D01*
X194426974Y-104115921D01*
X194459359Y-104071349D01*
X194552255Y-103889031D01*
X194615490Y-103694417D01*
X194647500Y-103492317D01*
X194647500Y-103287682D01*
X194615490Y-103085582D01*
X194552255Y-102890968D01*
X194459359Y-102708650D01*
X194426974Y-102664077D01*
X194426974Y-102664076D01*
X193747500Y-103343551D01*
X193747500Y-103337339D01*
X193720241Y-103235606D01*
X193667580Y-103144394D01*
X193593106Y-103069920D01*
X193501894Y-103017259D01*
X193400161Y-102990000D01*
X193393946Y-102990000D01*
X194073422Y-102310524D01*
X194073421Y-102310523D01*
X194028859Y-102278147D01*
X194028850Y-102278141D01*
X193935869Y-102230765D01*
X193885073Y-102182790D01*
X193868278Y-102114969D01*
X193890815Y-102048835D01*
X193935870Y-102009795D01*
X193936420Y-102009515D01*
X194029110Y-101962287D01*
X194078644Y-101926298D01*
X194194713Y-101841971D01*
X194194715Y-101841968D01*
X194194719Y-101841966D01*
X194339466Y-101697219D01*
X194339468Y-101697215D01*
X194339471Y-101697213D01*
X194392232Y-101624590D01*
X194459787Y-101531610D01*
X194552720Y-101349219D01*
X194615977Y-101154534D01*
X194648000Y-100952352D01*
X194648000Y-100747648D01*
X194615977Y-100545466D01*
X194552720Y-100350781D01*
X194552718Y-100350778D01*
X194552718Y-100350776D01*
X194519003Y-100284607D01*
X194459787Y-100168390D01*
X194426809Y-100122999D01*
X194339471Y-100002786D01*
X194194713Y-99858028D01*
X194029114Y-99737715D01*
X194022506Y-99734348D01*
X193936417Y-99690483D01*
X193885623Y-99642511D01*
X193868828Y-99574690D01*
X193891365Y-99508555D01*
X193936417Y-99469516D01*
X194029110Y-99422287D01*
X194050270Y-99406913D01*
X194194713Y-99301971D01*
X194194715Y-99301968D01*
X194194719Y-99301966D01*
X194339466Y-99157219D01*
X194339468Y-99157215D01*
X194339471Y-99157213D01*
X194392232Y-99084590D01*
X194459787Y-98991610D01*
X194552720Y-98809219D01*
X194615977Y-98614534D01*
X194648000Y-98412352D01*
X194648000Y-98207648D01*
X194637156Y-98139185D01*
X194615977Y-98005465D01*
X194562248Y-97840105D01*
X194552720Y-97810781D01*
X194552718Y-97810778D01*
X194552718Y-97810776D01*
X194519003Y-97744607D01*
X194459787Y-97628390D01*
X194417147Y-97569700D01*
X194339471Y-97462786D01*
X194194713Y-97318028D01*
X194029114Y-97197715D01*
X193959592Y-97162292D01*
X193936417Y-97150483D01*
X193885623Y-97102511D01*
X193868828Y-97034690D01*
X193891365Y-96968555D01*
X193936417Y-96929516D01*
X194029110Y-96882287D01*
X194095747Y-96833873D01*
X194194713Y-96761971D01*
X194194715Y-96761968D01*
X194194719Y-96761966D01*
X194339466Y-96617219D01*
X194339468Y-96617215D01*
X194339471Y-96617213D01*
X194392232Y-96544590D01*
X194459787Y-96451610D01*
X194552720Y-96269219D01*
X194615977Y-96074534D01*
X194648000Y-95872352D01*
X194648000Y-95667648D01*
X194615977Y-95465466D01*
X194614097Y-95459681D01*
X194552718Y-95270776D01*
X194511451Y-95189786D01*
X194459787Y-95088390D01*
X194452056Y-95077749D01*
X194339471Y-94922786D01*
X194194713Y-94778028D01*
X194029114Y-94657715D01*
X193996201Y-94640945D01*
X193936417Y-94610483D01*
X193885623Y-94562511D01*
X193868828Y-94494690D01*
X193891365Y-94428555D01*
X193936417Y-94389516D01*
X194029110Y-94342287D01*
X194076250Y-94308038D01*
X194194713Y-94221971D01*
X194194715Y-94221968D01*
X194194719Y-94221966D01*
X194339466Y-94077219D01*
X194339468Y-94077215D01*
X194339471Y-94077213D01*
X194411907Y-93977512D01*
X194459787Y-93911610D01*
X194552720Y-93729219D01*
X194615977Y-93534534D01*
X194648000Y-93332352D01*
X194648000Y-93127648D01*
X194618912Y-92943996D01*
X194615977Y-92925465D01*
X194558796Y-92749481D01*
X194552720Y-92730781D01*
X194552718Y-92730778D01*
X194552718Y-92730776D01*
X194510862Y-92648631D01*
X194459787Y-92548390D01*
X194437574Y-92517816D01*
X194339471Y-92382786D01*
X194194713Y-92238028D01*
X194029114Y-92117715D01*
X194022506Y-92114348D01*
X193936417Y-92070483D01*
X193885623Y-92022511D01*
X193868828Y-91954690D01*
X193891365Y-91888555D01*
X193936417Y-91849516D01*
X194029110Y-91802287D01*
X194074187Y-91769537D01*
X194194713Y-91681971D01*
X194194715Y-91681968D01*
X194194719Y-91681966D01*
X194339466Y-91537219D01*
X194339468Y-91537215D01*
X194339471Y-91537213D01*
X194392232Y-91464590D01*
X194459787Y-91371610D01*
X194552720Y-91189219D01*
X194615977Y-90994534D01*
X194648000Y-90792352D01*
X194648000Y-90587648D01*
X194618912Y-90403996D01*
X194615977Y-90385465D01*
X194565247Y-90229336D01*
X194552720Y-90190781D01*
X194552718Y-90190778D01*
X194552718Y-90190776D01*
X194519003Y-90124607D01*
X194459787Y-90008390D01*
X194424642Y-89960016D01*
X194339471Y-89842786D01*
X194194713Y-89698028D01*
X194029114Y-89577715D01*
X194022506Y-89574348D01*
X193936417Y-89530483D01*
X193885623Y-89482511D01*
X193868828Y-89414690D01*
X193891365Y-89348555D01*
X193936417Y-89309516D01*
X194029110Y-89262287D01*
X194050270Y-89246913D01*
X194194713Y-89141971D01*
X194194715Y-89141968D01*
X194194719Y-89141966D01*
X194339466Y-88997219D01*
X194339468Y-88997215D01*
X194339471Y-88997213D01*
X194407099Y-88904129D01*
X194459787Y-88831610D01*
X194552720Y-88649219D01*
X194615977Y-88454534D01*
X194648000Y-88252352D01*
X194648000Y-88047648D01*
X194642108Y-88010445D01*
X194615977Y-87845465D01*
X194574416Y-87717554D01*
X194552720Y-87650781D01*
X194552718Y-87650778D01*
X194552718Y-87650776D01*
X194505820Y-87558735D01*
X194459787Y-87468390D01*
X194422799Y-87417480D01*
X194339471Y-87302786D01*
X194194719Y-87158034D01*
X194127793Y-87109410D01*
X194101047Y-87089978D01*
X194058382Y-87034649D01*
X194052403Y-86965036D01*
X194085008Y-86903240D01*
X194134926Y-86871955D01*
X194216834Y-86844814D01*
X194366156Y-86752712D01*
X194490212Y-86628656D01*
X194582314Y-86479334D01*
X194637499Y-86312797D01*
X194648000Y-86210009D01*
X194647999Y-86164046D01*
X194667682Y-86097009D01*
X194720485Y-86051253D01*
X194789644Y-86041308D01*
X194853200Y-86070331D01*
X194859680Y-86076365D01*
X199229681Y-90446366D01*
X199263166Y-90507689D01*
X199266000Y-90534047D01*
X199266000Y-102202330D01*
X199265999Y-102202348D01*
X199265999Y-102368054D01*
X199265998Y-102368054D01*
X199275251Y-102402586D01*
X199306923Y-102520785D01*
X199319623Y-102542781D01*
X199355418Y-102604780D01*
X199385979Y-102657715D01*
X199504849Y-102776585D01*
X199504855Y-102776590D01*
X199673422Y-102945157D01*
X199706907Y-103006480D01*
X199703673Y-103071155D01*
X199699022Y-103085468D01*
X199667000Y-103287648D01*
X199667000Y-103492351D01*
X199699022Y-103694534D01*
X199762281Y-103889223D01*
X199813885Y-103990500D01*
X199855085Y-104071359D01*
X199855215Y-104071613D01*
X199975528Y-104237213D01*
X200120286Y-104381971D01*
X200240726Y-104469474D01*
X200285890Y-104502287D01*
X200399158Y-104560000D01*
X200468276Y-104595218D01*
X200468278Y-104595218D01*
X200468281Y-104595220D01*
X200572637Y-104629127D01*
X200662965Y-104658477D01*
X200764057Y-104674488D01*
X200865148Y-104690500D01*
X200865149Y-104690500D01*
X201069851Y-104690500D01*
X201069852Y-104690500D01*
X201272034Y-104658477D01*
X201466719Y-104595220D01*
X201649110Y-104502287D01*
X201792660Y-104397993D01*
X201814713Y-104381971D01*
X201814715Y-104381968D01*
X201814719Y-104381966D01*
X201959466Y-104237219D01*
X201959468Y-104237215D01*
X201959471Y-104237213D01*
X202079784Y-104071614D01*
X202079785Y-104071613D01*
X202079787Y-104071610D01*
X202086617Y-104058204D01*
X202134591Y-104007409D01*
X202197102Y-103990500D01*
X202987798Y-103990500D01*
X203054837Y-104010185D01*
X203100592Y-104062989D01*
X203110536Y-104132147D01*
X203093337Y-104179597D01*
X203044548Y-104258694D01*
X203044546Y-104258699D01*
X202990319Y-104422347D01*
X202980000Y-104523345D01*
X202980000Y-104560000D01*
X203893500Y-104560000D01*
X203960539Y-104579685D01*
X204006294Y-104632489D01*
X204017500Y-104684000D01*
X204017500Y-104810000D01*
X204143500Y-104810000D01*
X204210539Y-104829685D01*
X204256294Y-104882489D01*
X204267500Y-104934000D01*
X204267500Y-105784999D01*
X204366640Y-105784999D01*
X204366654Y-105784998D01*
X204467652Y-105774680D01*
X204631300Y-105720453D01*
X204631311Y-105720448D01*
X204778035Y-105629947D01*
X204791960Y-105616021D01*
X204853282Y-105582533D01*
X204922973Y-105587514D01*
X204967327Y-105616017D01*
X204981650Y-105630340D01*
X205128484Y-105720908D01*
X205292247Y-105775174D01*
X205393323Y-105785500D01*
X206091676Y-105785499D01*
X206091684Y-105785498D01*
X206091687Y-105785498D01*
X206147030Y-105779844D01*
X206192753Y-105775174D01*
X206356516Y-105720908D01*
X206503350Y-105630340D01*
X206625340Y-105508350D01*
X206649362Y-105469404D01*
X206701310Y-105422679D01*
X206754901Y-105410500D01*
X207592599Y-105410500D01*
X207659638Y-105430185D01*
X207698138Y-105469404D01*
X207721967Y-105508038D01*
X207722160Y-105508350D01*
X207844150Y-105630340D01*
X207990984Y-105720908D01*
X208154747Y-105775174D01*
X208255823Y-105785500D01*
X208954176Y-105785499D01*
X208954184Y-105785498D01*
X208954187Y-105785498D01*
X209009530Y-105779844D01*
X209055253Y-105775174D01*
X209219016Y-105720908D01*
X209365850Y-105630340D01*
X209380171Y-105616018D01*
X209441489Y-105582533D01*
X209511181Y-105587514D01*
X209555534Y-105616017D01*
X209569461Y-105629944D01*
X209569465Y-105629947D01*
X209716188Y-105720448D01*
X209716199Y-105720453D01*
X209879847Y-105774680D01*
X209980851Y-105784999D01*
X210580000Y-105784999D01*
X210679140Y-105784999D01*
X210679154Y-105784998D01*
X210780152Y-105774680D01*
X210943800Y-105720453D01*
X210943811Y-105720448D01*
X211090534Y-105629947D01*
X211090538Y-105629944D01*
X211212444Y-105508038D01*
X211212447Y-105508034D01*
X211302948Y-105361311D01*
X211302953Y-105361300D01*
X211357180Y-105197652D01*
X211367499Y-105096654D01*
X211367500Y-105096641D01*
X211367500Y-105060000D01*
X210580000Y-105060000D01*
X210580000Y-105784999D01*
X209980851Y-105784999D01*
X210080000Y-105784998D01*
X210080000Y-104560000D01*
X210580000Y-104560000D01*
X211367499Y-104560000D01*
X211367499Y-104523360D01*
X211367498Y-104523345D01*
X211357180Y-104422347D01*
X211302953Y-104258699D01*
X211302948Y-104258688D01*
X211212447Y-104111965D01*
X211212444Y-104111961D01*
X211090538Y-103990055D01*
X211090534Y-103990052D01*
X210943811Y-103899551D01*
X210943800Y-103899546D01*
X210780152Y-103845319D01*
X210679154Y-103835000D01*
X210580000Y-103835000D01*
X210580000Y-104560000D01*
X210080000Y-104560000D01*
X210080000Y-103834999D01*
X209980860Y-103835000D01*
X209980844Y-103835001D01*
X209879847Y-103845319D01*
X209716199Y-103899546D01*
X209716188Y-103899551D01*
X209569465Y-103990052D01*
X209555532Y-104003985D01*
X209494208Y-104037468D01*
X209424516Y-104032482D01*
X209380172Y-104003982D01*
X209365851Y-103989661D01*
X209365850Y-103989660D01*
X209237717Y-103910627D01*
X209219018Y-103899093D01*
X209219013Y-103899091D01*
X209217569Y-103898612D01*
X209055253Y-103844826D01*
X209055251Y-103844825D01*
X208954178Y-103834500D01*
X208255830Y-103834500D01*
X208255812Y-103834501D01*
X208154747Y-103844825D01*
X207990984Y-103899092D01*
X207990977Y-103899095D01*
X207918266Y-103943944D01*
X207912859Y-103945423D01*
X207908761Y-103949245D01*
X207879533Y-103954542D01*
X207850874Y-103962384D01*
X207845525Y-103960705D01*
X207840011Y-103961705D01*
X207812555Y-103950357D01*
X207784210Y-103941461D01*
X207780618Y-103937157D01*
X207775439Y-103935017D01*
X207758477Y-103910627D01*
X207739441Y-103887819D01*
X207738746Y-103882257D01*
X207735546Y-103877656D01*
X207734462Y-103847966D01*
X207730780Y-103818488D01*
X207733148Y-103811959D01*
X207732998Y-103807833D01*
X207739522Y-103794389D01*
X207746479Y-103775215D01*
X207753680Y-103763055D01*
X207758020Y-103758716D01*
X207787504Y-103707648D01*
X216259500Y-103707648D01*
X216259500Y-103912351D01*
X216291522Y-104114534D01*
X216354781Y-104309223D01*
X216411070Y-104419695D01*
X216445208Y-104486694D01*
X216447715Y-104491613D01*
X216568028Y-104657213D01*
X216712786Y-104801971D01*
X216823612Y-104882489D01*
X216878390Y-104922287D01*
X216994607Y-104981503D01*
X217060776Y-105015218D01*
X217060778Y-105015218D01*
X217060781Y-105015220D01*
X217165137Y-105049127D01*
X217255465Y-105078477D01*
X217356557Y-105094488D01*
X217457648Y-105110500D01*
X217457649Y-105110500D01*
X217662351Y-105110500D01*
X217662352Y-105110500D01*
X217864534Y-105078477D01*
X218059219Y-105015220D01*
X218241610Y-104922287D01*
X218334590Y-104854732D01*
X218407213Y-104801971D01*
X218407215Y-104801968D01*
X218407219Y-104801966D01*
X218551966Y-104657219D01*
X218551968Y-104657215D01*
X218551971Y-104657213D01*
X218608297Y-104579685D01*
X218672287Y-104491610D01*
X218765220Y-104309219D01*
X218828477Y-104114534D01*
X218860500Y-103912352D01*
X218860500Y-103707648D01*
X218849473Y-103638028D01*
X218828477Y-103505465D01*
X218765218Y-103310776D01*
X218680441Y-103144394D01*
X218672287Y-103128390D01*
X218664556Y-103117749D01*
X218551971Y-102962786D01*
X218407213Y-102818028D01*
X218241613Y-102697715D01*
X218241612Y-102697714D01*
X218241610Y-102697713D01*
X218163110Y-102657715D01*
X218059223Y-102604781D01*
X217864534Y-102541522D01*
X217689995Y-102513878D01*
X217662352Y-102509500D01*
X217457648Y-102509500D01*
X217433329Y-102513351D01*
X217255465Y-102541522D01*
X217060776Y-102604781D01*
X216878386Y-102697715D01*
X216712786Y-102818028D01*
X216568028Y-102962786D01*
X216447715Y-103128386D01*
X216354781Y-103310776D01*
X216291522Y-103505465D01*
X216259500Y-103707648D01*
X207787504Y-103707648D01*
X207837077Y-103621784D01*
X207878000Y-103469057D01*
X207878000Y-100655588D01*
X207897685Y-100588549D01*
X207945705Y-100545103D01*
X207957540Y-100539072D01*
X208102816Y-100465051D01*
X208124789Y-100449086D01*
X208274786Y-100340109D01*
X208274788Y-100340106D01*
X208274792Y-100340104D01*
X208425104Y-100189792D01*
X208425106Y-100189788D01*
X208425109Y-100189786D01*
X208550048Y-100017820D01*
X208550047Y-100017820D01*
X208550051Y-100017816D01*
X208646557Y-99828412D01*
X208712246Y-99626243D01*
X208745500Y-99416287D01*
X208745500Y-99203713D01*
X208712246Y-98993757D01*
X208646557Y-98791588D01*
X208646554Y-98791582D01*
X208616041Y-98731695D01*
X208616040Y-98731694D01*
X208594464Y-98689351D01*
X208550051Y-98602184D01*
X208542023Y-98591134D01*
X208425109Y-98430213D01*
X208274792Y-98279896D01*
X208247186Y-98259839D01*
X208110204Y-98160316D01*
X208067540Y-98104989D01*
X208061561Y-98035376D01*
X208094166Y-97973580D01*
X208110199Y-97959686D01*
X208274792Y-97840104D01*
X208425104Y-97689792D01*
X208425106Y-97689788D01*
X208425109Y-97689786D01*
X208550048Y-97517820D01*
X208550047Y-97517820D01*
X208550051Y-97517816D01*
X208619280Y-97381947D01*
X211500000Y-97381947D01*
X211500000Y-97618052D01*
X211536934Y-97851247D01*
X211609897Y-98075802D01*
X211717087Y-98286174D01*
X211777338Y-98369104D01*
X211777340Y-98369105D01*
X212476212Y-97670233D01*
X212487482Y-97712292D01*
X212559890Y-97837708D01*
X212662292Y-97940110D01*
X212787708Y-98012518D01*
X212829765Y-98023787D01*
X212130893Y-98722658D01*
X212213828Y-98782914D01*
X212424197Y-98890102D01*
X212648752Y-98963065D01*
X212648751Y-98963065D01*
X212881948Y-99000000D01*
X213118052Y-99000000D01*
X213351247Y-98963065D01*
X213575802Y-98890102D01*
X213786163Y-98782918D01*
X213786169Y-98782914D01*
X213869104Y-98722658D01*
X213869105Y-98722658D01*
X213170233Y-98023787D01*
X213212292Y-98012518D01*
X213337708Y-97940110D01*
X213440110Y-97837708D01*
X213512518Y-97712292D01*
X213523787Y-97670233D01*
X214222658Y-98369105D01*
X214222658Y-98369104D01*
X214282914Y-98286169D01*
X214282918Y-98286163D01*
X214390102Y-98075802D01*
X214463065Y-97851247D01*
X214500000Y-97618052D01*
X214500000Y-97381947D01*
X214463065Y-97148752D01*
X214390102Y-96924197D01*
X214282914Y-96713828D01*
X214222658Y-96630894D01*
X214222658Y-96630893D01*
X213523787Y-97329765D01*
X213512518Y-97287708D01*
X213440110Y-97162292D01*
X213337708Y-97059890D01*
X213212292Y-96987482D01*
X213170234Y-96976212D01*
X213869105Y-96277340D01*
X213869104Y-96277339D01*
X213786174Y-96217087D01*
X213575802Y-96109897D01*
X213351247Y-96036934D01*
X213351248Y-96036934D01*
X213118052Y-96000000D01*
X212881948Y-96000000D01*
X212648752Y-96036934D01*
X212424197Y-96109897D01*
X212213830Y-96217084D01*
X212130894Y-96277340D01*
X212829766Y-96976212D01*
X212787708Y-96987482D01*
X212662292Y-97059890D01*
X212559890Y-97162292D01*
X212487482Y-97287708D01*
X212476212Y-97329765D01*
X211777340Y-96630894D01*
X211717084Y-96713830D01*
X211609897Y-96924197D01*
X211536934Y-97148752D01*
X211500000Y-97381947D01*
X208619280Y-97381947D01*
X208646557Y-97328412D01*
X208712246Y-97126243D01*
X208745500Y-96916287D01*
X208745500Y-96703713D01*
X208712246Y-96493757D01*
X208646557Y-96291588D01*
X208550051Y-96102184D01*
X208550049Y-96102181D01*
X208550048Y-96102179D01*
X208425109Y-95930213D01*
X208274792Y-95779896D01*
X208274014Y-95779331D01*
X208110204Y-95660316D01*
X208067540Y-95604989D01*
X208061561Y-95535376D01*
X208094166Y-95473580D01*
X208110199Y-95459686D01*
X208274792Y-95340104D01*
X208425104Y-95189792D01*
X208425106Y-95189788D01*
X208425109Y-95189786D01*
X208550048Y-95017820D01*
X208550047Y-95017820D01*
X208550051Y-95017816D01*
X208646557Y-94828412D01*
X208712246Y-94626243D01*
X208745500Y-94416287D01*
X208745500Y-94203713D01*
X208712246Y-93993757D01*
X208646557Y-93791588D01*
X208550051Y-93602184D01*
X208550049Y-93602181D01*
X208550048Y-93602179D01*
X208425109Y-93430213D01*
X208274792Y-93279896D01*
X208196976Y-93223360D01*
X208110204Y-93160316D01*
X208067540Y-93104989D01*
X208061561Y-93035376D01*
X208094166Y-92973580D01*
X208110199Y-92959686D01*
X208274792Y-92840104D01*
X208425104Y-92689792D01*
X208425106Y-92689788D01*
X208425109Y-92689786D01*
X208550048Y-92517820D01*
X208550047Y-92517820D01*
X208550051Y-92517816D01*
X208646557Y-92328412D01*
X208712246Y-92126243D01*
X208745500Y-91916287D01*
X208745500Y-91703713D01*
X208712246Y-91493757D01*
X208646557Y-91291588D01*
X208550051Y-91102184D01*
X208550049Y-91102181D01*
X208550048Y-91102179D01*
X208425109Y-90930213D01*
X208286294Y-90791398D01*
X208252809Y-90730075D01*
X208257793Y-90660383D01*
X208299665Y-90604450D01*
X208308879Y-90598178D01*
X208314331Y-90594814D01*
X208314334Y-90594814D01*
X208463656Y-90502712D01*
X208587712Y-90378656D01*
X208679814Y-90229334D01*
X208734999Y-90062797D01*
X208745500Y-89960009D01*
X208745499Y-88659992D01*
X208734999Y-88557203D01*
X208679814Y-88390666D01*
X208587712Y-88241344D01*
X208463656Y-88117288D01*
X208314334Y-88025186D01*
X208147797Y-87970001D01*
X208147795Y-87970000D01*
X208045016Y-87959500D01*
X208045009Y-87959500D01*
X207765015Y-87959500D01*
X207697976Y-87939815D01*
X207677334Y-87923181D01*
X205002507Y-85248355D01*
X205002505Y-85248352D01*
X204883634Y-85129481D01*
X204883626Y-85129475D01*
X204770338Y-85064069D01*
X204770337Y-85064068D01*
X204753724Y-85054477D01*
X204746702Y-85050423D01*
X204593974Y-85009499D01*
X204435860Y-85009499D01*
X204428264Y-85009499D01*
X204428248Y-85009500D01*
X202197102Y-85009500D01*
X202130063Y-84989815D01*
X202086617Y-84941795D01*
X202079784Y-84928385D01*
X201959471Y-84762786D01*
X201814713Y-84618028D01*
X201649113Y-84497715D01*
X201649112Y-84497714D01*
X201649110Y-84497713D01*
X201592153Y-84468691D01*
X201466723Y-84404781D01*
X201272034Y-84341522D01*
X201097495Y-84313878D01*
X201069852Y-84309500D01*
X200865148Y-84309500D01*
X200840829Y-84313351D01*
X200662965Y-84341522D01*
X200468276Y-84404781D01*
X200285886Y-84497715D01*
X200120286Y-84618028D01*
X199975528Y-84762786D01*
X199855215Y-84928386D01*
X199762281Y-85110776D01*
X199699022Y-85305465D01*
X199675278Y-85455384D01*
X199667000Y-85507648D01*
X199667000Y-85712352D01*
X199671378Y-85739995D01*
X199699022Y-85914534D01*
X199762281Y-86109223D01*
X199855215Y-86291613D01*
X199975528Y-86457213D01*
X200120286Y-86601971D01*
X200250660Y-86696691D01*
X200285890Y-86722287D01*
X200356607Y-86758319D01*
X200378580Y-86769515D01*
X200429376Y-86817490D01*
X200446171Y-86885311D01*
X200423634Y-86951446D01*
X200378580Y-86990485D01*
X200285886Y-87037715D01*
X200120286Y-87158028D01*
X199975528Y-87302786D01*
X199855215Y-87468386D01*
X199762281Y-87650776D01*
X199699022Y-87845465D01*
X199667000Y-88047648D01*
X199667000Y-88252351D01*
X199699022Y-88454534D01*
X199762281Y-88649223D01*
X199855215Y-88831613D01*
X199975528Y-88997213D01*
X200120286Y-89141971D01*
X200273028Y-89252942D01*
X200285890Y-89262287D01*
X200357349Y-89298697D01*
X200378580Y-89309515D01*
X200385140Y-89315711D01*
X200393683Y-89318618D01*
X200410143Y-89339325D01*
X200429376Y-89357490D01*
X200431545Y-89366249D01*
X200437160Y-89373313D01*
X200439812Y-89399632D01*
X200446171Y-89425311D01*
X200443260Y-89433852D01*
X200444165Y-89442831D01*
X200432167Y-89466405D01*
X200423634Y-89491446D01*
X200415728Y-89498704D01*
X200412474Y-89505100D01*
X200392344Y-89520176D01*
X200384845Y-89527062D01*
X200381759Y-89528865D01*
X200285890Y-89577713D01*
X200235453Y-89614356D01*
X200230119Y-89617474D01*
X200201960Y-89624461D01*
X200174637Y-89634210D01*
X200168460Y-89632773D01*
X200162306Y-89634301D01*
X200134839Y-89624955D01*
X200106583Y-89618384D01*
X200099328Y-89612871D01*
X200096161Y-89611794D01*
X200093493Y-89608438D01*
X200079878Y-89598093D01*
X194629140Y-84147355D01*
X194629138Y-84147352D01*
X194510267Y-84028481D01*
X194510266Y-84028480D01*
X194423454Y-83978360D01*
X194423454Y-83978359D01*
X194423450Y-83978358D01*
X194373335Y-83949423D01*
X194220607Y-83908499D01*
X194062493Y-83908499D01*
X194054897Y-83908499D01*
X194054881Y-83908500D01*
X191521940Y-83908500D01*
X191481019Y-83919464D01*
X191481019Y-83919465D01*
X191443751Y-83929451D01*
X191369214Y-83949423D01*
X191369209Y-83949426D01*
X191232290Y-84028475D01*
X191232282Y-84028481D01*
X191120478Y-84140286D01*
X188957582Y-86303181D01*
X188896259Y-86336666D01*
X188869901Y-86339500D01*
X187211971Y-86339500D01*
X187211965Y-86339500D01*
X187211964Y-86339501D01*
X187200316Y-86340536D01*
X187092584Y-86350113D01*
X186896954Y-86406089D01*
X186806772Y-86453196D01*
X186716593Y-86500302D01*
X186716591Y-86500303D01*
X186716590Y-86500304D01*
X186558890Y-86628890D01*
X186444678Y-86768962D01*
X186430302Y-86786593D01*
X186399891Y-86844812D01*
X186336089Y-86966954D01*
X186300888Y-87089979D01*
X186281416Y-87158034D01*
X186280114Y-87162583D01*
X186280113Y-87162586D01*
X186273151Y-87240896D01*
X186269530Y-87281633D01*
X186269500Y-87281966D01*
X182106044Y-87281966D01*
X182106211Y-87281639D01*
X182162171Y-87109409D01*
X182182315Y-86982224D01*
X182190500Y-86930551D01*
X182190500Y-86749448D01*
X182171405Y-86628891D01*
X182162171Y-86570591D01*
X182106211Y-86398361D01*
X182106211Y-86398360D01*
X182074776Y-86336666D01*
X182023996Y-86237006D01*
X181970990Y-86164049D01*
X181917558Y-86090505D01*
X181917554Y-86090500D01*
X181789499Y-85962445D01*
X181789494Y-85962441D01*
X181642997Y-85856006D01*
X181642996Y-85856005D01*
X181642994Y-85856004D01*
X181591300Y-85829664D01*
X181481639Y-85773788D01*
X181481636Y-85773787D01*
X181309410Y-85717829D01*
X181130551Y-85689500D01*
X181130546Y-85689500D01*
X180949454Y-85689500D01*
X180949449Y-85689500D01*
X180770589Y-85717829D01*
X180598363Y-85773787D01*
X180598360Y-85773788D01*
X180437002Y-85856006D01*
X180290505Y-85962441D01*
X180290500Y-85962445D01*
X180162445Y-86090500D01*
X180162441Y-86090505D01*
X180056006Y-86237002D01*
X179973788Y-86398360D01*
X179973787Y-86398363D01*
X179917829Y-86570589D01*
X179892473Y-86730678D01*
X179862544Y-86793813D01*
X179803232Y-86830744D01*
X179733369Y-86829746D01*
X179675137Y-86791136D01*
X179647527Y-86730678D01*
X179631405Y-86628891D01*
X179622171Y-86570591D01*
X179566211Y-86398361D01*
X179566211Y-86398360D01*
X179534776Y-86336666D01*
X179483996Y-86237006D01*
X179430990Y-86164049D01*
X179377558Y-86090505D01*
X179377554Y-86090500D01*
X179249499Y-85962445D01*
X179249494Y-85962441D01*
X179102997Y-85856006D01*
X179102996Y-85856005D01*
X179102994Y-85856004D01*
X179051300Y-85829664D01*
X178941639Y-85773788D01*
X178941636Y-85773787D01*
X178769410Y-85717829D01*
X178590551Y-85689500D01*
X178590546Y-85689500D01*
X178409454Y-85689500D01*
X178409449Y-85689500D01*
X178230589Y-85717829D01*
X178058363Y-85773787D01*
X178058360Y-85773788D01*
X177897002Y-85856006D01*
X177750505Y-85962441D01*
X177750500Y-85962445D01*
X177622445Y-86090500D01*
X177622441Y-86090505D01*
X177516006Y-86237002D01*
X177433788Y-86398360D01*
X177433787Y-86398363D01*
X177377829Y-86570589D01*
X177349500Y-86749448D01*
X173079410Y-86749448D01*
X173036393Y-86696691D01*
X172981109Y-86628890D01*
X172823409Y-86500304D01*
X172823410Y-86500304D01*
X172823407Y-86500302D01*
X172643049Y-86406091D01*
X172643048Y-86406090D01*
X172643045Y-86406089D01*
X172525829Y-86372550D01*
X172447418Y-86350114D01*
X172447415Y-86350113D01*
X172447413Y-86350113D01*
X172374631Y-86343642D01*
X172328037Y-86339500D01*
X172328033Y-86339500D01*
X170670098Y-86339500D01*
X170603059Y-86319815D01*
X170582417Y-86303181D01*
X169753049Y-85473814D01*
X169719564Y-85412491D01*
X169724548Y-85342800D01*
X169726169Y-85338681D01*
X169746743Y-85289008D01*
X169769737Y-85233497D01*
X169800500Y-85078842D01*
X169800500Y-84921158D01*
X169800500Y-84921155D01*
X169800499Y-84921153D01*
X169769738Y-84766510D01*
X169769737Y-84766503D01*
X169769735Y-84766498D01*
X169769734Y-84766494D01*
X169709397Y-84620827D01*
X169709390Y-84620814D01*
X169621789Y-84489711D01*
X169621786Y-84489707D01*
X169510292Y-84378213D01*
X169510288Y-84378210D01*
X169379185Y-84290609D01*
X169379172Y-84290602D01*
X169233501Y-84230264D01*
X169233489Y-84230261D01*
X169078845Y-84199500D01*
X169078842Y-84199500D01*
X168921158Y-84199500D01*
X168921155Y-84199500D01*
X168766510Y-84230261D01*
X168766498Y-84230264D01*
X168620827Y-84290602D01*
X168620814Y-84290609D01*
X168489711Y-84378210D01*
X168489707Y-84378213D01*
X168378213Y-84489707D01*
X168378210Y-84489711D01*
X168290609Y-84620814D01*
X168290602Y-84620827D01*
X168230266Y-84766494D01*
X168230261Y-84766510D01*
X168199500Y-84921153D01*
X168199500Y-85078846D01*
X168230261Y-85233489D01*
X168230264Y-85233501D01*
X168290602Y-85379172D01*
X168290609Y-85379185D01*
X168378601Y-85510873D01*
X168399479Y-85577550D01*
X168399499Y-85579764D01*
X168399499Y-85649054D01*
X168399498Y-85649054D01*
X168440424Y-85801789D01*
X168440425Y-85801790D01*
X168459590Y-85834984D01*
X168459591Y-85834985D01*
X168519477Y-85938712D01*
X168519481Y-85938717D01*
X168638349Y-86057585D01*
X168638355Y-86057590D01*
X169344318Y-86763553D01*
X169377803Y-86824876D01*
X169372819Y-86894568D01*
X169366547Y-86908643D01*
X169336090Y-86966953D01*
X169329357Y-86990485D01*
X169281416Y-87158034D01*
X169280114Y-87162583D01*
X169280113Y-87162586D01*
X169273151Y-87240896D01*
X169269530Y-87281633D01*
X169269500Y-87281966D01*
X169269500Y-88398028D01*
X169269501Y-88398034D01*
X169280113Y-88517415D01*
X169336089Y-88713045D01*
X169336090Y-88713048D01*
X169336091Y-88713049D01*
X169430302Y-88893407D01*
X169430304Y-88893409D01*
X169543015Y-89031639D01*
X169570124Y-89096036D01*
X169558115Y-89164865D01*
X169543015Y-89188361D01*
X169436805Y-89318618D01*
X169430302Y-89326593D01*
X169401364Y-89381992D01*
X169336089Y-89506954D01*
X169291332Y-89663376D01*
X169281416Y-89698034D01*
X169280114Y-89702583D01*
X169280113Y-89702586D01*
X169269500Y-89821966D01*
X169269500Y-90938028D01*
X169269501Y-90938034D01*
X169280113Y-91057415D01*
X169336089Y-91253045D01*
X169336090Y-91253048D01*
X169336091Y-91253049D01*
X169430302Y-91433407D01*
X169430304Y-91433409D01*
X169543015Y-91571639D01*
X169570124Y-91636036D01*
X169558115Y-91704865D01*
X169543015Y-91728361D01*
X169482737Y-91802287D01*
X169430302Y-91866593D01*
X169404345Y-91916286D01*
X169336089Y-92046954D01*
X169310500Y-92136387D01*
X169281123Y-92239058D01*
X169280114Y-92242583D01*
X169280113Y-92242586D01*
X169269500Y-92361966D01*
X169269500Y-93478028D01*
X169269501Y-93478034D01*
X169280113Y-93597415D01*
X169336089Y-93793045D01*
X169336090Y-93793048D01*
X169336091Y-93793049D01*
X169430302Y-93973407D01*
X169446898Y-93993760D01*
X169543015Y-94111639D01*
X169570124Y-94176036D01*
X169558115Y-94244865D01*
X169543015Y-94268361D01*
X169443369Y-94390568D01*
X169430302Y-94406593D01*
X169407920Y-94449441D01*
X169336089Y-94586954D01*
X169291332Y-94743376D01*
X169281416Y-94778034D01*
X169280114Y-94782583D01*
X169280113Y-94782586D01*
X169269500Y-94901966D01*
X169269500Y-96018028D01*
X169269501Y-96018033D01*
X169280113Y-96137415D01*
X169336089Y-96333045D01*
X169336090Y-96333048D01*
X169336091Y-96333049D01*
X169430302Y-96513407D01*
X169430304Y-96513409D01*
X169543015Y-96651639D01*
X169570124Y-96716036D01*
X169558115Y-96784865D01*
X169543015Y-96808361D01*
X169448564Y-96924197D01*
X169430302Y-96946593D01*
X169384284Y-97034690D01*
X169336089Y-97126954D01*
X169292531Y-97279185D01*
X169281416Y-97318034D01*
X169280114Y-97322583D01*
X169280113Y-97322586D01*
X169279595Y-97328414D01*
X169269500Y-97441963D01*
X169269501Y-98558036D01*
X169273426Y-98602184D01*
X169280113Y-98677415D01*
X169336089Y-98873045D01*
X169336090Y-98873047D01*
X169336091Y-98873049D01*
X169430302Y-99053407D01*
X169491438Y-99128385D01*
X169543015Y-99191639D01*
X169570124Y-99256036D01*
X169558115Y-99324865D01*
X169543015Y-99348361D01*
X169482737Y-99422287D01*
X169430302Y-99486593D01*
X169415690Y-99514567D01*
X169336089Y-99666954D01*
X169296948Y-99803750D01*
X169281416Y-99858034D01*
X169280114Y-99862583D01*
X169280113Y-99862586D01*
X169269500Y-99981966D01*
X169269500Y-100925902D01*
X169249815Y-100992941D01*
X169197011Y-101038696D01*
X169127853Y-101048640D01*
X169064297Y-101019615D01*
X169057819Y-101013583D01*
X167341818Y-99297582D01*
X167308333Y-99236259D01*
X167305499Y-99209901D01*
X167305499Y-98835830D01*
X167305498Y-98835813D01*
X167295174Y-98734747D01*
X167276175Y-98677413D01*
X167240908Y-98570984D01*
X167150340Y-98424150D01*
X167036371Y-98310181D01*
X167002886Y-98248858D01*
X167007870Y-98179166D01*
X167036371Y-98134819D01*
X167086565Y-98084625D01*
X167150340Y-98020850D01*
X167240908Y-97874016D01*
X167295174Y-97710253D01*
X167305500Y-97609177D01*
X167305499Y-97010824D01*
X167295174Y-96909747D01*
X167240908Y-96745984D01*
X167150340Y-96599150D01*
X167028350Y-96477160D01*
X166881516Y-96386592D01*
X166717753Y-96332326D01*
X166717751Y-96332325D01*
X166616678Y-96322000D01*
X166043330Y-96322000D01*
X166043309Y-96322002D01*
X165991167Y-96327328D01*
X165922474Y-96314558D01*
X165890886Y-96291651D01*
X165071818Y-95472583D01*
X165038333Y-95411260D01*
X165035499Y-95384902D01*
X165035499Y-94973330D01*
X165035498Y-94973313D01*
X165025174Y-94872247D01*
X164995462Y-94782583D01*
X164970908Y-94708484D01*
X164880340Y-94561650D01*
X164841016Y-94522326D01*
X164807532Y-94461004D01*
X164812516Y-94391312D01*
X164841018Y-94346964D01*
X164879945Y-94308037D01*
X164879947Y-94308034D01*
X164970448Y-94161311D01*
X164970453Y-94161300D01*
X165024680Y-93997652D01*
X165034999Y-93896654D01*
X165035000Y-93896641D01*
X165035000Y-93810000D01*
X163085001Y-93810000D01*
X163085001Y-93896654D01*
X163095319Y-93997652D01*
X163149546Y-94161300D01*
X163149551Y-94161311D01*
X163240052Y-94308034D01*
X163240055Y-94308038D01*
X163278982Y-94346965D01*
X163312467Y-94408288D01*
X163307483Y-94477980D01*
X163278983Y-94522326D01*
X163239661Y-94561648D01*
X163149093Y-94708481D01*
X163149092Y-94708484D01*
X163094826Y-94872247D01*
X163094826Y-94872248D01*
X163094825Y-94872248D01*
X163084500Y-94973315D01*
X161060500Y-94973315D01*
X161060500Y-93223345D01*
X163085000Y-93223345D01*
X163085000Y-93310000D01*
X163810000Y-93310000D01*
X164310000Y-93310000D01*
X165034999Y-93310000D01*
X165034999Y-93223360D01*
X165034998Y-93223345D01*
X165024680Y-93122347D01*
X164970453Y-92958699D01*
X164970448Y-92958688D01*
X164879947Y-92811965D01*
X164879944Y-92811961D01*
X164758038Y-92690055D01*
X164758034Y-92690052D01*
X164611311Y-92599551D01*
X164611300Y-92599546D01*
X164447652Y-92545319D01*
X164346654Y-92535000D01*
X164310000Y-92535000D01*
X164310000Y-93310000D01*
X163810000Y-93310000D01*
X163810000Y-92535000D01*
X163773361Y-92535000D01*
X163773343Y-92535001D01*
X163672347Y-92545319D01*
X163508699Y-92599546D01*
X163508688Y-92599551D01*
X163361965Y-92690052D01*
X163361961Y-92690055D01*
X163240055Y-92811961D01*
X163240052Y-92811965D01*
X163149551Y-92958688D01*
X163149546Y-92958699D01*
X163095319Y-93122347D01*
X163085000Y-93223345D01*
X161060500Y-93223345D01*
X161060500Y-86813051D01*
X161060649Y-86806967D01*
X161060893Y-86801994D01*
X161065528Y-86707648D01*
X163259500Y-86707648D01*
X163259500Y-86912352D01*
X163263878Y-86939995D01*
X163291522Y-87114534D01*
X163354781Y-87309223D01*
X163408868Y-87415373D01*
X163435879Y-87468385D01*
X163447715Y-87491613D01*
X163568028Y-87657213D01*
X163712786Y-87801971D01*
X163826161Y-87884341D01*
X163878390Y-87922287D01*
X163948642Y-87958082D01*
X164060776Y-88015218D01*
X164060778Y-88015218D01*
X164060781Y-88015220D01*
X164160584Y-88047648D01*
X164255465Y-88078477D01*
X164356557Y-88094488D01*
X164457648Y-88110500D01*
X164457649Y-88110500D01*
X164662351Y-88110500D01*
X164662352Y-88110500D01*
X164864534Y-88078477D01*
X165059219Y-88015220D01*
X165241610Y-87922287D01*
X165347347Y-87845465D01*
X165407213Y-87801971D01*
X165407215Y-87801968D01*
X165407219Y-87801966D01*
X165551966Y-87657219D01*
X165551968Y-87657215D01*
X165551971Y-87657213D01*
X165623518Y-87558735D01*
X165672287Y-87491610D01*
X165765220Y-87309219D01*
X165828477Y-87114534D01*
X165860500Y-86912352D01*
X165860500Y-86707648D01*
X165828477Y-86505466D01*
X165765220Y-86310781D01*
X165765218Y-86310778D01*
X165765218Y-86310776D01*
X165690456Y-86164049D01*
X165672287Y-86128390D01*
X165664556Y-86117749D01*
X165551971Y-85962786D01*
X165407213Y-85818028D01*
X165241613Y-85697715D01*
X165241612Y-85697714D01*
X165241610Y-85697713D01*
X165184653Y-85668691D01*
X165059223Y-85604781D01*
X164864534Y-85541522D01*
X164682720Y-85512726D01*
X164662352Y-85509500D01*
X164457648Y-85509500D01*
X164437280Y-85512726D01*
X164255465Y-85541522D01*
X164060776Y-85604781D01*
X163878386Y-85697715D01*
X163712786Y-85818028D01*
X163568028Y-85962786D01*
X163447715Y-86128386D01*
X163354781Y-86310776D01*
X163291522Y-86505465D01*
X163274411Y-86613504D01*
X163259500Y-86707648D01*
X161065528Y-86707648D01*
X161077052Y-86473066D01*
X161078245Y-86460962D01*
X161096262Y-86339500D01*
X161126849Y-86133296D01*
X161129218Y-86121385D01*
X161209710Y-85800043D01*
X161213240Y-85788411D01*
X161238495Y-85717829D01*
X161324835Y-85476525D01*
X161329476Y-85465318D01*
X161471124Y-85165828D01*
X161476840Y-85155136D01*
X161647145Y-84870998D01*
X161653888Y-84860905D01*
X161851232Y-84594818D01*
X161858935Y-84585433D01*
X162081405Y-84339975D01*
X162089975Y-84331405D01*
X162335433Y-84108935D01*
X162344818Y-84101232D01*
X162610905Y-83903888D01*
X162620998Y-83897145D01*
X162905136Y-83726840D01*
X162915828Y-83721124D01*
X163215318Y-83579476D01*
X163226525Y-83574835D01*
X163538412Y-83463239D01*
X163550043Y-83459710D01*
X163871385Y-83379218D01*
X163883296Y-83376849D01*
X164210962Y-83328244D01*
X164223068Y-83327052D01*
X164556967Y-83310648D01*
X164563051Y-83310500D01*
X164625892Y-83310500D01*
X217494108Y-83310500D01*
X217556949Y-83310500D01*
X217563032Y-83310648D01*
G37*
%TD.AperFunction*%
%TD*%
M02*
