M48
; DRILL file {KiCad 9.0.6} date 2026-02-18T14:12:05-0800
; FORMAT={-:-/ absolute / metric / decimal}
; #@! TF.CreationDate,2026-02-18T14:12:05-08:00
; #@! TF.GenerationSoftware,Kicad,Pcbnew,9.0.6
; #@! TF.FileFunction,Plated,1,2,PTH
FMAT,2
METRIC
; #@! TA.AperFunction,Plated,PTH,ComponentDrill
T1C0.800
; #@! TA.AperFunction,Plated,PTH,ComponentDrill
T2C0.950
%
G90
G05
T1
X195.577Y-85.61
X195.577Y-88.15
X195.577Y-90.69
X195.577Y-93.23
X195.577Y-95.77
X195.577Y-98.31
X195.577Y-100.85
X195.577Y-103.39
X203.197Y-85.61
X203.197Y-88.15
X203.197Y-90.69
X203.197Y-93.23
X203.197Y-95.77
X203.197Y-98.31
X203.197Y-100.85
X203.197Y-103.39
T2
X210.697Y-89.31
X210.697Y-91.81
X210.697Y-94.31
X210.697Y-96.81
X210.697Y-99.31
M30
