%TF.GenerationSoftware,KiCad,Pcbnew,9.0.6*%
%TF.CreationDate,2026-02-18T14:12:03-08:00*%
%TF.ProjectId,514-Schematic-D,3531342d-5363-4686-956d-617469632d44,rev?*%
%TF.SameCoordinates,Original*%
%TF.FileFunction,Copper,L1,Top*%
%TF.FilePolarity,Positive*%
%FSLAX46Y46*%
G04 Gerber Fmt 4.6, Leading zero omitted, Abs format (unit mm)*
G04 Created by KiCad (PCBNEW 9.0.6) date 2026-02-18 14:12:03*
%MOMM*%
%LPD*%
G01*
G04 APERTURE LIST*
G04 Aperture macros list*
%AMRoundRect*
0 Rectangle with rounded corners*
0 $1 Rounding radius*
0 $2 $3 $4 $5 $6 $7 $8 $9 X,Y pos of 4 corners*
0 Add a 4 corners polygon primitive as box body*
4,1,4,$2,$3,$4,$5,$6,$7,$8,$9,$2,$3,0*
0 Add four circle primitives for the rounded corners*
1,1,$1+$1,$2,$3*
1,1,$1+$1,$4,$5*
1,1,$1+$1,$6,$7*
1,1,$1+$1,$8,$9*
0 Add four rect primitives between the rounded corners*
20,1,$1+$1,$2,$3,$4,$5,0*
20,1,$1+$1,$4,$5,$6,$7,0*
20,1,$1+$1,$6,$7,$8,$9,0*
20,1,$1+$1,$8,$9,$2,$3,0*%
G04 Aperture macros list end*
%TA.AperFunction,SMDPad,CuDef*%
%ADD10RoundRect,0.500000X-1.000000X-0.500000X1.000000X-0.500000X1.000000X0.500000X-1.000000X0.500000X0*%
%TD*%
%TA.AperFunction,HeatsinkPad*%
%ADD11RoundRect,0.250000X-1.500000X-1.500000X1.500000X-1.500000X1.500000X1.500000X-1.500000X1.500000X0*%
%TD*%
%TA.AperFunction,SMDPad,CuDef*%
%ADD12RoundRect,0.250000X-0.900000X-0.400000X0.900000X-0.400000X0.900000X0.400000X-0.900000X0.400000X0*%
%TD*%
%TA.AperFunction,SMDPad,CuDef*%
%ADD13C,1.300000*%
%TD*%
%TA.AperFunction,ComponentPad*%
%ADD14RoundRect,0.250000X-0.725000X0.600000X-0.725000X-0.600000X0.725000X-0.600000X0.725000X0.600000X0*%
%TD*%
%TA.AperFunction,ComponentPad*%
%ADD15O,1.950000X1.700000*%
%TD*%
%TA.AperFunction,SMDPad,CuDef*%
%ADD16RoundRect,0.237500X-0.237500X0.287500X-0.237500X-0.287500X0.237500X-0.287500X0.237500X0.287500X0*%
%TD*%
%TA.AperFunction,SMDPad,CuDef*%
%ADD17RoundRect,0.237500X0.237500X-0.250000X0.237500X0.250000X-0.237500X0.250000X-0.237500X-0.250000X0*%
%TD*%
%TA.AperFunction,SMDPad,CuDef*%
%ADD18RoundRect,0.237500X-0.300000X-0.237500X0.300000X-0.237500X0.300000X0.237500X-0.300000X0.237500X0*%
%TD*%
%TA.AperFunction,ComponentPad*%
%ADD19RoundRect,0.250000X-0.550000X-0.550000X0.550000X-0.550000X0.550000X0.550000X-0.550000X0.550000X0*%
%TD*%
%TA.AperFunction,ComponentPad*%
%ADD20C,1.600000*%
%TD*%
%TA.AperFunction,Conductor*%
%ADD21C,0.200000*%
%TD*%
G04 APERTURE END LIST*
D10*
%TO.P,U4,1,D0*%
%TO.N,unconnected-(U4-D0-Pad1)*%
X173500000Y-87840000D03*
%TO.P,U4,2,D1*%
%TO.N,unconnected-(U4-D1-Pad2)*%
X173500000Y-90380000D03*
%TO.P,U4,3,D2*%
%TO.N,unconnected-(U4-D2-Pad3)*%
X173500000Y-92920000D03*
%TO.P,U4,4,D3*%
%TO.N,unconnected-(U4-D3-Pad4)*%
X173500000Y-95460000D03*
%TO.P,U4,5,D4*%
%TO.N,unconnected-(U4-D4-Pad5)*%
X173500000Y-98000000D03*
%TO.P,U4,6,D5*%
%TO.N,unconnected-(U4-D5-Pad6)*%
X173500000Y-100540000D03*
%TO.P,U4,7,D6*%
%TO.N,Net-(U4-D6)*%
X173500000Y-103080000D03*
%TO.P,U4,8,D7*%
%TO.N,Net-(U3-I4)*%
X190500000Y-103080000D03*
%TO.P,U4,9,D8*%
%TO.N,Net-(U3-I3)*%
X190500000Y-100540000D03*
%TO.P,U4,10,D9*%
%TO.N,Net-(U3-I2)*%
X190500000Y-98000000D03*
%TO.P,U4,11,D10*%
%TO.N,Net-(U3-I1)*%
X190500000Y-95460000D03*
%TO.P,U4,12,3v3*%
%TO.N,+3V3*%
X190500000Y-92920000D03*
%TO.P,U4,13,GND*%
%TO.N,unconnected-(U4-GND-Pad13)*%
X190500000Y-90380000D03*
%TO.P,U4,14,5V*%
%TO.N,Net-(U1-VCC)*%
X190500000Y-87840000D03*
D11*
%TO.P,U4,15*%
%TO.N,N/C*%
X184100000Y-96060000D03*
D12*
%TO.P,U4,16,BAT+*%
%TO.N,+5V*%
X177500000Y-95060000D03*
%TO.P,U4,17,BAT-*%
%TO.N,GND_D*%
X177500000Y-93160000D03*
D13*
%TO.P,U4,18*%
%TO.N,N/C*%
X180730000Y-86840000D03*
%TO.P,U4,19*%
X180730000Y-89420000D03*
%TO.P,U4,20*%
X180730000Y-91960000D03*
%TO.P,U4,21*%
X183270000Y-91960000D03*
%TO.P,U4,22*%
X183270000Y-89420000D03*
%TO.P,U4,23*%
X183270000Y-86840000D03*
%TD*%
D14*
%TO.P,U1,1,Input_1*%
%TO.N,Net-(U1-Input_1)*%
X210697500Y-89310000D03*
D15*
%TO.P,U1,2,Input_2*%
%TO.N,Net-(U1-Input_2)*%
X210697500Y-91810000D03*
%TO.P,U1,3,Input_3*%
%TO.N,Net-(U1-Input_3)*%
X210697500Y-94310000D03*
%TO.P,U1,4,Input_4*%
%TO.N,Net-(U1-Input_4)*%
X210697500Y-96810000D03*
%TO.P,U1,5,VCC*%
%TO.N,Net-(U1-VCC)*%
X210697500Y-99310000D03*
%TD*%
D16*
%TO.P,D1,1,K*%
%TO.N,GND_D*%
X164060000Y-93560000D03*
%TO.P,D1,2,A*%
%TO.N,Net-(D1-A)*%
X164060000Y-95310000D03*
%TD*%
D17*
%TO.P,R1,1*%
%TO.N,Net-(U4-D6)*%
X168560000Y-99135000D03*
%TO.P,R1,2*%
%TO.N,Net-(D1-A)*%
X168560000Y-97310000D03*
%TD*%
D18*
%TO.P,C2,1*%
%TO.N,GND_D*%
X206247500Y-104810000D03*
%TO.P,C2,2*%
%TO.N,Net-(U1-VCC)*%
X207972500Y-104810000D03*
%TD*%
%TO.P,C1,1*%
%TO.N,Net-(U1-VCC)*%
X210835000Y-104810000D03*
%TO.P,C1,2*%
%TO.N,GND_D*%
X212560000Y-104810000D03*
%TD*%
D19*
%TO.P,U3,1,I1*%
%TO.N,Net-(U3-I1)*%
X195577500Y-85610000D03*
D20*
%TO.P,U3,2,I2*%
%TO.N,Net-(U3-I2)*%
X195577500Y-88150000D03*
%TO.P,U3,3,I3*%
%TO.N,Net-(U3-I3)*%
X195577500Y-90690000D03*
%TO.P,U3,4,I4*%
%TO.N,Net-(U3-I4)*%
X195577500Y-93230000D03*
%TO.P,U3,5,I5*%
%TO.N,unconnected-(U3-I5-Pad5)*%
X195577500Y-95770000D03*
%TO.P,U3,6,I6*%
%TO.N,unconnected-(U3-I6-Pad6)*%
X195577500Y-98310000D03*
%TO.P,U3,7,I7*%
%TO.N,unconnected-(U3-I7-Pad7)*%
X195577500Y-100850000D03*
%TO.P,U3,8,GND*%
%TO.N,GND_D*%
X195577500Y-103390000D03*
%TO.P,U3,9,COM*%
%TO.N,Net-(U1-VCC)*%
X203197500Y-103390000D03*
%TO.P,U3,10,O7*%
%TO.N,unconnected-(U3-O7-Pad10)*%
X203197500Y-100850000D03*
%TO.P,U3,11,O6*%
%TO.N,unconnected-(U3-O6-Pad11)*%
X203197500Y-98310000D03*
%TO.P,U3,12,O5*%
%TO.N,unconnected-(U3-O5-Pad12)*%
X203197500Y-95770000D03*
%TO.P,U3,13,O4*%
%TO.N,Net-(U1-Input_4)*%
X203197500Y-93230000D03*
%TO.P,U3,14,O3*%
%TO.N,Net-(U1-Input_3)*%
X203197500Y-90690000D03*
%TO.P,U3,15,O2*%
%TO.N,Net-(U1-Input_2)*%
X203197500Y-88150000D03*
%TO.P,U3,16,O1*%
%TO.N,Net-(U1-Input_1)*%
X203197500Y-85610000D03*
%TD*%
D21*
%TO.N,Net-(U1-VCC)*%
X202096500Y-90233950D02*
X202096500Y-102289000D01*
X207972500Y-104085000D02*
X207972500Y-104810000D01*
X196371550Y-84509000D02*
X202096500Y-90233950D01*
X207277500Y-103390000D02*
X207972500Y-104085000D01*
X202096500Y-102289000D02*
X203197500Y-103390000D01*
X190500000Y-87840000D02*
X193831000Y-84509000D01*
X193831000Y-84509000D02*
X196371550Y-84509000D01*
X206617500Y-103390000D02*
X210697500Y-99310000D01*
X206617500Y-103390000D02*
X207277500Y-103390000D01*
X210835000Y-104810000D02*
X207972500Y-104810000D01*
X203197500Y-103390000D02*
X206617500Y-103390000D01*
%TO.N,Net-(D1-A)*%
X166060000Y-97310000D02*
X164060000Y-95310000D01*
X168560000Y-97310000D02*
X166060000Y-97310000D01*
%TO.N,Net-(U4-D6)*%
X173500000Y-103080000D02*
X172505000Y-103080000D01*
X172505000Y-103080000D02*
X168560000Y-99135000D01*
%TO.N,Net-(U3-I1)*%
X194760000Y-85610000D02*
X195577500Y-85610000D01*
X193060000Y-93000058D02*
X193060000Y-87310000D01*
X190600058Y-95460000D02*
X193060000Y-93000058D01*
X190500000Y-95460000D02*
X190600058Y-95460000D01*
X193060000Y-87310000D02*
X194760000Y-85610000D01*
%TO.N,Net-(U1-Input_4)*%
X203197500Y-93230000D02*
X207117500Y-93230000D01*
X207117500Y-93230000D02*
X210697500Y-96810000D01*
%TO.N,Net-(U1-Input_3)*%
X203228500Y-90659000D02*
X207046500Y-90659000D01*
X203197500Y-90690000D02*
X203228500Y-90659000D01*
X207046500Y-90659000D02*
X210697500Y-94310000D01*
%TO.N,Net-(U3-I3)*%
X190500000Y-100540000D02*
X192000000Y-100540000D01*
X194180000Y-90690000D02*
X195577500Y-90690000D01*
X193961000Y-98579000D02*
X193961000Y-90909000D01*
X193961000Y-90909000D02*
X194180000Y-90690000D01*
X192000000Y-100540000D02*
X193961000Y-98579000D01*
%TO.N,Net-(U1-Input_2)*%
X203197500Y-88150000D02*
X207037500Y-88150000D01*
X207037500Y-88150000D02*
X210697500Y-91810000D01*
%TO.N,Net-(U3-I4)*%
X194476500Y-100393950D02*
X194476500Y-94331000D01*
X194476500Y-94331000D02*
X195577500Y-93230000D01*
X191790450Y-103080000D02*
X194476500Y-100393950D01*
X190500000Y-103080000D02*
X191790450Y-103080000D01*
%TO.N,Net-(U1-Input_1)*%
X203197500Y-85610000D02*
X206997500Y-85610000D01*
X206997500Y-85610000D02*
X210697500Y-89310000D01*
%TO.N,Net-(U3-I2)*%
X193560000Y-88810000D02*
X194220000Y-88150000D01*
X190500000Y-98000000D02*
X191790450Y-98000000D01*
X194220000Y-88150000D02*
X195577500Y-88150000D01*
X191790450Y-98000000D02*
X193560000Y-96230450D01*
X193560000Y-96230450D02*
X193560000Y-88810000D01*
%TD*%
%TA.AperFunction,Conductor*%
%TO.N,GND_D*%
G36*
X217563032Y-83310648D02*
G01*
X217896929Y-83327052D01*
X217909037Y-83328245D01*
X218012146Y-83343539D01*
X218236699Y-83376849D01*
X218248617Y-83379219D01*
X218569951Y-83459709D01*
X218581588Y-83463240D01*
X218652806Y-83488722D01*
X218893467Y-83574832D01*
X218904688Y-83579479D01*
X219204163Y-83721120D01*
X219214871Y-83726844D01*
X219498988Y-83897137D01*
X219509103Y-83903895D01*
X219677085Y-84028479D01*
X219775170Y-84101224D01*
X219784576Y-84108944D01*
X220030013Y-84331395D01*
X220038604Y-84339986D01*
X220181561Y-84497715D01*
X220261055Y-84585423D01*
X220268775Y-84594829D01*
X220466102Y-84860893D01*
X220472862Y-84871011D01*
X220627781Y-85129479D01*
X220643148Y-85155116D01*
X220648883Y-85165844D01*
X220687906Y-85248352D01*
X220790514Y-85465297D01*
X220795170Y-85476540D01*
X220906759Y-85788411D01*
X220910292Y-85800055D01*
X220990777Y-86121369D01*
X220993151Y-86133305D01*
X221041754Y-86460962D01*
X221042947Y-86473071D01*
X221056686Y-86752712D01*
X221059106Y-86801990D01*
X221059351Y-86806966D01*
X221059500Y-86813051D01*
X221059500Y-103806948D01*
X221059351Y-103813033D01*
X221042947Y-104146928D01*
X221041754Y-104159037D01*
X220993151Y-104486694D01*
X220990777Y-104498630D01*
X220910292Y-104819944D01*
X220906759Y-104831588D01*
X220795170Y-105143459D01*
X220790514Y-105154702D01*
X220648885Y-105454151D01*
X220643148Y-105464883D01*
X220472862Y-105748988D01*
X220466102Y-105759106D01*
X220268775Y-106025170D01*
X220261055Y-106034576D01*
X220038611Y-106280006D01*
X220030006Y-106288611D01*
X219784576Y-106511055D01*
X219775170Y-106518775D01*
X219509106Y-106716102D01*
X219498988Y-106722862D01*
X219214883Y-106893148D01*
X219204151Y-106898885D01*
X218904702Y-107040514D01*
X218893459Y-107045170D01*
X218581588Y-107156759D01*
X218569944Y-107160292D01*
X218248630Y-107240777D01*
X218236694Y-107243151D01*
X217909037Y-107291754D01*
X217896928Y-107292947D01*
X217581989Y-107308419D01*
X217563031Y-107309351D01*
X217556949Y-107309500D01*
X164563051Y-107309500D01*
X164556968Y-107309351D01*
X164536900Y-107308365D01*
X164223071Y-107292947D01*
X164210962Y-107291754D01*
X163883305Y-107243151D01*
X163871369Y-107240777D01*
X163550055Y-107160292D01*
X163538411Y-107156759D01*
X163226540Y-107045170D01*
X163215301Y-107040515D01*
X162915844Y-106898883D01*
X162905121Y-106893150D01*
X162621011Y-106722862D01*
X162610893Y-106716102D01*
X162344829Y-106518775D01*
X162335423Y-106511055D01*
X162296475Y-106475755D01*
X162089986Y-106288604D01*
X162081395Y-106280013D01*
X161858944Y-106034576D01*
X161851224Y-106025170D01*
X161673472Y-105785500D01*
X161653895Y-105759103D01*
X161647137Y-105748988D01*
X161476844Y-105464871D01*
X161471120Y-105454163D01*
X161329479Y-105154688D01*
X161324829Y-105143459D01*
X161308090Y-105096677D01*
X161240695Y-104908320D01*
X161213240Y-104831588D01*
X161209707Y-104819944D01*
X161129219Y-104498617D01*
X161126848Y-104486694D01*
X161078245Y-104159037D01*
X161077052Y-104146927D01*
X161075334Y-104111965D01*
X161060649Y-103813032D01*
X161060500Y-103806948D01*
X161060500Y-103707648D01*
X163259500Y-103707648D01*
X163259500Y-103912351D01*
X163291522Y-104114534D01*
X163354781Y-104309223D01*
X163411070Y-104419695D01*
X163445208Y-104486694D01*
X163447715Y-104491613D01*
X163568028Y-104657213D01*
X163712786Y-104801971D01*
X163823612Y-104882489D01*
X163878390Y-104922287D01*
X163994607Y-104981503D01*
X164060776Y-105015218D01*
X164060778Y-105015218D01*
X164060781Y-105015220D01*
X164165137Y-105049127D01*
X164255465Y-105078477D01*
X164356557Y-105094488D01*
X164457648Y-105110500D01*
X164457649Y-105110500D01*
X164662351Y-105110500D01*
X164662352Y-105110500D01*
X164749771Y-105096654D01*
X205210001Y-105096654D01*
X205220319Y-105197652D01*
X205274546Y-105361300D01*
X205274551Y-105361311D01*
X205365052Y-105508034D01*
X205365055Y-105508038D01*
X205486961Y-105629944D01*
X205486965Y-105629947D01*
X205633688Y-105720448D01*
X205633699Y-105720453D01*
X205797347Y-105774680D01*
X205898351Y-105784999D01*
X205997500Y-105784998D01*
X205997500Y-105060000D01*
X205210001Y-105060000D01*
X205210001Y-105096654D01*
X164749771Y-105096654D01*
X164864534Y-105078477D01*
X165059219Y-105015220D01*
X165241610Y-104922287D01*
X165252221Y-104914577D01*
X165260835Y-104908320D01*
X165407213Y-104801971D01*
X165407215Y-104801968D01*
X165407219Y-104801966D01*
X165551966Y-104657219D01*
X165551968Y-104657215D01*
X165551971Y-104657213D01*
X165608297Y-104579685D01*
X165672287Y-104491610D01*
X165765220Y-104309219D01*
X165828477Y-104114534D01*
X165860500Y-103912352D01*
X165860500Y-103707648D01*
X165849473Y-103638028D01*
X165828477Y-103505465D01*
X165765218Y-103310776D01*
X165700043Y-103182865D01*
X165672287Y-103128390D01*
X165664556Y-103117749D01*
X165551971Y-102962786D01*
X165407213Y-102818028D01*
X165241613Y-102697715D01*
X165241612Y-102697714D01*
X165241610Y-102697713D01*
X165163110Y-102657715D01*
X165059223Y-102604781D01*
X164864534Y-102541522D01*
X164689995Y-102513878D01*
X164662352Y-102509500D01*
X164457648Y-102509500D01*
X164433329Y-102513351D01*
X164255465Y-102541522D01*
X164060776Y-102604781D01*
X163878386Y-102697715D01*
X163712786Y-102818028D01*
X163568028Y-102962786D01*
X163447715Y-103128386D01*
X163354781Y-103310776D01*
X163291522Y-103505465D01*
X163259500Y-103707648D01*
X161060500Y-103707648D01*
X161060500Y-94973315D01*
X163084500Y-94973315D01*
X163084500Y-95646669D01*
X163084501Y-95646687D01*
X163094825Y-95747752D01*
X163149092Y-95911515D01*
X163149093Y-95911518D01*
X163160621Y-95930208D01*
X163239660Y-96058350D01*
X163361650Y-96180340D01*
X163508484Y-96270908D01*
X163672247Y-96325174D01*
X163773323Y-96335500D01*
X164184902Y-96335499D01*
X164251941Y-96355183D01*
X164272583Y-96371818D01*
X165575139Y-97674374D01*
X165575149Y-97674385D01*
X165579479Y-97678715D01*
X165579480Y-97678716D01*
X165691284Y-97790520D01*
X165777167Y-97840104D01*
X165828215Y-97869577D01*
X165980943Y-97910500D01*
X167602389Y-97910500D01*
X167669428Y-97930185D01*
X167695940Y-97953111D01*
X167702600Y-97960767D01*
X167739660Y-98020850D01*
X167856674Y-98137864D01*
X167859499Y-98141111D01*
X167872353Y-98169110D01*
X167887114Y-98196142D01*
X167886797Y-98200571D01*
X167888651Y-98204609D01*
X167884326Y-98235113D01*
X167882130Y-98265834D01*
X167879361Y-98270141D01*
X167878845Y-98273787D01*
X167871692Y-98282074D01*
X167853629Y-98310181D01*
X167739661Y-98424148D01*
X167649093Y-98570981D01*
X167649092Y-98570984D01*
X167594826Y-98734747D01*
X167594826Y-98734748D01*
X167594825Y-98734748D01*
X167584500Y-98835815D01*
X167584500Y-99434169D01*
X167584501Y-99434187D01*
X167594825Y-99535252D01*
X167610158Y-99581523D01*
X167646578Y-99691430D01*
X167649092Y-99699015D01*
X167649093Y-99699018D01*
X167672962Y-99737715D01*
X167739660Y-99845850D01*
X167861650Y-99967840D01*
X168008484Y-100058408D01*
X168172247Y-100112674D01*
X168273323Y-100123000D01*
X168647402Y-100122999D01*
X168714441Y-100142683D01*
X168735083Y-100159318D01*
X171463181Y-102887417D01*
X171496666Y-102948740D01*
X171499500Y-102975098D01*
X171499500Y-103638028D01*
X171499501Y-103638034D01*
X171510113Y-103757415D01*
X171566089Y-103953045D01*
X171566090Y-103953048D01*
X171566091Y-103953049D01*
X171660302Y-104133407D01*
X171660304Y-104133409D01*
X171788890Y-104291109D01*
X171882803Y-104367684D01*
X171946593Y-104419698D01*
X172126951Y-104513909D01*
X172322582Y-104569886D01*
X172441963Y-104580500D01*
X174558036Y-104580499D01*
X174677418Y-104569886D01*
X174873049Y-104513909D01*
X175053407Y-104419698D01*
X175211109Y-104291109D01*
X175339698Y-104133407D01*
X175433909Y-103953049D01*
X175489886Y-103757418D01*
X175500500Y-103638037D01*
X175500499Y-102521964D01*
X175489886Y-102402582D01*
X175433909Y-102206951D01*
X175339698Y-102026593D01*
X175226983Y-101888359D01*
X175199875Y-101823965D01*
X175211884Y-101755135D01*
X175226981Y-101731642D01*
X175339698Y-101593407D01*
X175433909Y-101413049D01*
X175489886Y-101217418D01*
X175500500Y-101098037D01*
X175500499Y-99981964D01*
X175489886Y-99862582D01*
X175433909Y-99666951D01*
X175339698Y-99486593D01*
X175226983Y-99348359D01*
X175199875Y-99283965D01*
X175211884Y-99215135D01*
X175226981Y-99191642D01*
X175339698Y-99053407D01*
X175433909Y-98873049D01*
X175489886Y-98677418D01*
X175500500Y-98558037D01*
X175500499Y-97441964D01*
X175489886Y-97322582D01*
X175433909Y-97126951D01*
X175339698Y-96946593D01*
X175226983Y-96808359D01*
X175199875Y-96743965D01*
X175211884Y-96675135D01*
X175226981Y-96651642D01*
X175339698Y-96513407D01*
X175433909Y-96333049D01*
X175489886Y-96137418D01*
X175500500Y-96018037D01*
X175500499Y-94901964D01*
X175489886Y-94782582D01*
X175440499Y-94609983D01*
X175849500Y-94609983D01*
X175849500Y-95510001D01*
X175849501Y-95510019D01*
X175860000Y-95612796D01*
X175860001Y-95612799D01*
X175915185Y-95779331D01*
X175915187Y-95779336D01*
X175950069Y-95835888D01*
X176007288Y-95928656D01*
X176131344Y-96052712D01*
X176280666Y-96144814D01*
X176447203Y-96199999D01*
X176549991Y-96210500D01*
X178450008Y-96210499D01*
X178552797Y-96199999D01*
X178719334Y-96144814D01*
X178868656Y-96052712D01*
X178992712Y-95928656D01*
X179084814Y-95779334D01*
X179139999Y-95612797D01*
X179150500Y-95510009D01*
X179150499Y-94609992D01*
X179148146Y-94586953D01*
X179141249Y-94519435D01*
X179140649Y-94513571D01*
X179140283Y-94509983D01*
X181849500Y-94509983D01*
X181849500Y-97610001D01*
X181849501Y-97610018D01*
X181860000Y-97712796D01*
X181860001Y-97712799D01*
X181911953Y-97869577D01*
X181915186Y-97879334D01*
X182007288Y-98028656D01*
X182131344Y-98152712D01*
X182280666Y-98244814D01*
X182447203Y-98299999D01*
X182549991Y-98310500D01*
X185650008Y-98310499D01*
X185752797Y-98299999D01*
X185919334Y-98244814D01*
X186068656Y-98152712D01*
X186192712Y-98028656D01*
X186284814Y-97879334D01*
X186339999Y-97712797D01*
X186350500Y-97610009D01*
X186350499Y-94509992D01*
X186339999Y-94407203D01*
X186284814Y-94240666D01*
X186192712Y-94091344D01*
X186068656Y-93967288D01*
X185956654Y-93898205D01*
X185919336Y-93875187D01*
X185919331Y-93875185D01*
X185894084Y-93866819D01*
X185752797Y-93820001D01*
X185752795Y-93820000D01*
X185650010Y-93809500D01*
X182549998Y-93809500D01*
X182549981Y-93809501D01*
X182447203Y-93820000D01*
X182447200Y-93820001D01*
X182280668Y-93875185D01*
X182280663Y-93875187D01*
X182131342Y-93967289D01*
X182007289Y-94091342D01*
X181915187Y-94240663D01*
X181915185Y-94240668D01*
X181900661Y-94284500D01*
X181860001Y-94407203D01*
X181860001Y-94407204D01*
X181860000Y-94407204D01*
X181849500Y-94509983D01*
X179140283Y-94509983D01*
X179139999Y-94507203D01*
X179084814Y-94340666D01*
X178992712Y-94191344D01*
X178992710Y-94191342D01*
X178988884Y-94186503D01*
X178962745Y-94121707D01*
X178975787Y-94053065D01*
X178988886Y-94032683D01*
X178992314Y-94028346D01*
X179084356Y-93879124D01*
X179084358Y-93879119D01*
X179139505Y-93712697D01*
X179139506Y-93712690D01*
X179149999Y-93609986D01*
X179150000Y-93609973D01*
X179150000Y-93410000D01*
X175850001Y-93410000D01*
X175850001Y-93609986D01*
X175860494Y-93712697D01*
X175915641Y-93879119D01*
X175915643Y-93879124D01*
X176007684Y-94028346D01*
X176011114Y-94032683D01*
X176037254Y-94097479D01*
X176024213Y-94166121D01*
X176011126Y-94186487D01*
X176007297Y-94191330D01*
X176007290Y-94191342D01*
X176007288Y-94191344D01*
X175998001Y-94206401D01*
X175915187Y-94340663D01*
X175915185Y-94340668D01*
X175893341Y-94406590D01*
X175860001Y-94507203D01*
X175860001Y-94507204D01*
X175860000Y-94507204D01*
X175849500Y-94609983D01*
X175440499Y-94609983D01*
X175433909Y-94586951D01*
X175339698Y-94406593D01*
X175226983Y-94268359D01*
X175199875Y-94203965D01*
X175211884Y-94135135D01*
X175226981Y-94111642D01*
X175339698Y-93973407D01*
X175433909Y-93793049D01*
X175489886Y-93597418D01*
X175500500Y-93478037D01*
X175500499Y-92710013D01*
X175850000Y-92710013D01*
X175850000Y-92910000D01*
X177250000Y-92910000D01*
X177750000Y-92910000D01*
X179149999Y-92910000D01*
X179149999Y-92710028D01*
X179149998Y-92710013D01*
X179139505Y-92607302D01*
X179084358Y-92440880D01*
X179084356Y-92440875D01*
X178992315Y-92291654D01*
X178868345Y-92167684D01*
X178719124Y-92075643D01*
X178719119Y-92075641D01*
X178552697Y-92020494D01*
X178552690Y-92020493D01*
X178449986Y-92010000D01*
X177750000Y-92010000D01*
X177750000Y-92910000D01*
X177250000Y-92910000D01*
X177250000Y-92010000D01*
X176550028Y-92010000D01*
X176550012Y-92010001D01*
X176447302Y-92020494D01*
X176280880Y-92075641D01*
X176280875Y-92075643D01*
X176131654Y-92167684D01*
X176007684Y-92291654D01*
X175915643Y-92440875D01*
X175915641Y-92440880D01*
X175860494Y-92607302D01*
X175860493Y-92607309D01*
X175850000Y-92710013D01*
X175500499Y-92710013D01*
X175500499Y-92361964D01*
X175489886Y-92242582D01*
X175433909Y-92046951D01*
X175339698Y-91866593D01*
X175226983Y-91728359D01*
X175199875Y-91663965D01*
X175211884Y-91595135D01*
X175226981Y-91571642D01*
X175339698Y-91433407D01*
X175433909Y-91253049D01*
X175489886Y-91057418D01*
X175500500Y-90938037D01*
X175500499Y-89821964D01*
X175489886Y-89702582D01*
X175440310Y-89529321D01*
X175433910Y-89506954D01*
X175433909Y-89506953D01*
X175433909Y-89506951D01*
X175341189Y-89329448D01*
X179579500Y-89329448D01*
X179579500Y-89510551D01*
X179607829Y-89689410D01*
X179663787Y-89861636D01*
X179663788Y-89861639D01*
X179713911Y-89960009D01*
X179745393Y-90021795D01*
X179746006Y-90022997D01*
X179852441Y-90169494D01*
X179852445Y-90169499D01*
X179980500Y-90297554D01*
X179980505Y-90297558D01*
X180108287Y-90390396D01*
X180127006Y-90403996D01*
X180232484Y-90457740D01*
X180288360Y-90486211D01*
X180288363Y-90486212D01*
X180374476Y-90514191D01*
X180460591Y-90542171D01*
X180533639Y-90553740D01*
X180620678Y-90567527D01*
X180683813Y-90597456D01*
X180720744Y-90656768D01*
X180719746Y-90726631D01*
X180681136Y-90784863D01*
X180620678Y-90812473D01*
X180460589Y-90837829D01*
X180288363Y-90893787D01*
X180288360Y-90893788D01*
X180127002Y-90976006D01*
X179980505Y-91082441D01*
X179980500Y-91082445D01*
X179852445Y-91210500D01*
X179852441Y-91210505D01*
X179746006Y-91357002D01*
X179663788Y-91518360D01*
X179663787Y-91518363D01*
X179607829Y-91690589D01*
X179579500Y-91869448D01*
X179579500Y-92050551D01*
X179607829Y-92229410D01*
X179663787Y-92401636D01*
X179663788Y-92401639D01*
X179683783Y-92440880D01*
X179745393Y-92561795D01*
X179746006Y-92562997D01*
X179852441Y-92709494D01*
X179852445Y-92709499D01*
X179980500Y-92837554D01*
X179980505Y-92837558D01*
X180108287Y-92930396D01*
X180127006Y-92943996D01*
X180185068Y-92973580D01*
X180288360Y-93026211D01*
X180288363Y-93026212D01*
X180316568Y-93035376D01*
X180460591Y-93082171D01*
X180543429Y-93095291D01*
X180639449Y-93110500D01*
X180639454Y-93110500D01*
X180820551Y-93110500D01*
X180907259Y-93096765D01*
X180999409Y-93082171D01*
X181171639Y-93026211D01*
X181332994Y-92943996D01*
X181479501Y-92837553D01*
X181607553Y-92709501D01*
X181713996Y-92562994D01*
X181796211Y-92401639D01*
X181852171Y-92229409D01*
X181868511Y-92126243D01*
X181877527Y-92069321D01*
X181907456Y-92006186D01*
X181966768Y-91969255D01*
X182036630Y-91970253D01*
X182094863Y-92008863D01*
X182122473Y-92069321D01*
X182147829Y-92229410D01*
X182203787Y-92401636D01*
X182203788Y-92401639D01*
X182223783Y-92440880D01*
X182285393Y-92561795D01*
X182286006Y-92562997D01*
X182392441Y-92709494D01*
X182392445Y-92709499D01*
X182520500Y-92837554D01*
X182520505Y-92837558D01*
X182648287Y-92930396D01*
X182667006Y-92943996D01*
X182725068Y-92973580D01*
X182828360Y-93026211D01*
X182828363Y-93026212D01*
X182856568Y-93035376D01*
X183000591Y-93082171D01*
X183083429Y-93095291D01*
X183179449Y-93110500D01*
X183179454Y-93110500D01*
X183360551Y-93110500D01*
X183447259Y-93096765D01*
X183539409Y-93082171D01*
X183711639Y-93026211D01*
X183872994Y-92943996D01*
X184019501Y-92837553D01*
X184147553Y-92709501D01*
X184253996Y-92562994D01*
X184336211Y-92401639D01*
X184392171Y-92229409D01*
X184408511Y-92126243D01*
X184420500Y-92050551D01*
X184420500Y-91869448D01*
X184394675Y-91706401D01*
X184392171Y-91690591D01*
X184353522Y-91571639D01*
X184336212Y-91518363D01*
X184336211Y-91518360D01*
X184307740Y-91462484D01*
X184253996Y-91357006D01*
X184207097Y-91292455D01*
X184147558Y-91210505D01*
X184147554Y-91210500D01*
X184019499Y-91082445D01*
X184019494Y-91082441D01*
X183872997Y-90976006D01*
X183872996Y-90976005D01*
X183872994Y-90976004D01*
X183798478Y-90938036D01*
X183711639Y-90893788D01*
X183711636Y-90893787D01*
X183539410Y-90837829D01*
X183379321Y-90812473D01*
X183316186Y-90782544D01*
X183279255Y-90723232D01*
X183280253Y-90653370D01*
X183318863Y-90595137D01*
X183379321Y-90567527D01*
X183449425Y-90556422D01*
X183539409Y-90542171D01*
X183711639Y-90486211D01*
X183872994Y-90403996D01*
X184019501Y-90297553D01*
X184147553Y-90169501D01*
X184253996Y-90022994D01*
X184336211Y-89861639D01*
X184392171Y-89689409D01*
X184409862Y-89577713D01*
X184420500Y-89510551D01*
X184420500Y-89329448D01*
X184398153Y-89188361D01*
X184392171Y-89150591D01*
X184350525Y-89022415D01*
X184336212Y-88978363D01*
X184336211Y-88978360D01*
X184307740Y-88922484D01*
X184253996Y-88817006D01*
X184194486Y-88735097D01*
X184147558Y-88670505D01*
X184147554Y-88670500D01*
X184019499Y-88542445D01*
X184019494Y-88542441D01*
X183872997Y-88436006D01*
X183872996Y-88436005D01*
X183872994Y-88436004D01*
X183798478Y-88398036D01*
X183711639Y-88353788D01*
X183711636Y-88353787D01*
X183539410Y-88297829D01*
X183360551Y-88269500D01*
X183360546Y-88269500D01*
X183179454Y-88269500D01*
X183179449Y-88269500D01*
X183000589Y-88297829D01*
X182828363Y-88353787D01*
X182828360Y-88353788D01*
X182667002Y-88436006D01*
X182520505Y-88542441D01*
X182520500Y-88542445D01*
X182392445Y-88670500D01*
X182392441Y-88670505D01*
X182286006Y-88817002D01*
X182203788Y-88978360D01*
X182203787Y-88978363D01*
X182147829Y-89150589D01*
X182122473Y-89310678D01*
X182092544Y-89373813D01*
X182033232Y-89410744D01*
X181963369Y-89409746D01*
X181905137Y-89371136D01*
X181877527Y-89310678D01*
X181858153Y-89188361D01*
X181852171Y-89150591D01*
X181810525Y-89022415D01*
X181796212Y-88978363D01*
X181796211Y-88978360D01*
X181767740Y-88922484D01*
X181713996Y-88817006D01*
X181654486Y-88735097D01*
X181607558Y-88670505D01*
X181607554Y-88670500D01*
X181479499Y-88542445D01*
X181479494Y-88542441D01*
X181332997Y-88436006D01*
X181332996Y-88436005D01*
X181332994Y-88436004D01*
X181258478Y-88398036D01*
X181171639Y-88353788D01*
X181171636Y-88353787D01*
X180999410Y-88297829D01*
X180820551Y-88269500D01*
X180820546Y-88269500D01*
X180639454Y-88269500D01*
X180639449Y-88269500D01*
X180460589Y-88297829D01*
X180288363Y-88353787D01*
X180288360Y-88353788D01*
X180127002Y-88436006D01*
X179980505Y-88542441D01*
X179980500Y-88542445D01*
X179852445Y-88670500D01*
X179852441Y-88670505D01*
X179746006Y-88817002D01*
X179663788Y-88978360D01*
X179663787Y-88978363D01*
X179607829Y-89150589D01*
X179579500Y-89329448D01*
X175341189Y-89329448D01*
X175339698Y-89326593D01*
X175226983Y-89188359D01*
X175199875Y-89123965D01*
X175211884Y-89055135D01*
X175226981Y-89031642D01*
X175339698Y-88893407D01*
X175433909Y-88713049D01*
X175489886Y-88517418D01*
X175500500Y-88398037D01*
X175500499Y-87281964D01*
X175489886Y-87162582D01*
X175433909Y-86966951D01*
X175343469Y-86793813D01*
X175339699Y-86786595D01*
X175339698Y-86786593D01*
X175309410Y-86749448D01*
X179579500Y-86749448D01*
X179579500Y-86930551D01*
X179607829Y-87109410D01*
X179663787Y-87281636D01*
X179663788Y-87281639D01*
X179712231Y-87376712D01*
X179731930Y-87415373D01*
X179746006Y-87442997D01*
X179852441Y-87589494D01*
X179852445Y-87589499D01*
X179980500Y-87717554D01*
X179980505Y-87717558D01*
X180093744Y-87799830D01*
X180127006Y-87823996D01*
X180232484Y-87877740D01*
X180288360Y-87906211D01*
X180288363Y-87906212D01*
X180340590Y-87923181D01*
X180460591Y-87962171D01*
X180543429Y-87975291D01*
X180639449Y-87990500D01*
X180639454Y-87990500D01*
X180820551Y-87990500D01*
X180907259Y-87976765D01*
X180999409Y-87962171D01*
X181171639Y-87906211D01*
X181332994Y-87823996D01*
X181479501Y-87717553D01*
X181607553Y-87589501D01*
X181713996Y-87442994D01*
X181796211Y-87281639D01*
X181852171Y-87109409D01*
X181871007Y-86990485D01*
X181877527Y-86949321D01*
X181907456Y-86886186D01*
X181966768Y-86849255D01*
X182036630Y-86850253D01*
X182094863Y-86888863D01*
X182122473Y-86949321D01*
X182147829Y-87109410D01*
X182203787Y-87281636D01*
X182203788Y-87281639D01*
X182252231Y-87376712D01*
X182271930Y-87415373D01*
X182286006Y-87442997D01*
X182392441Y-87589494D01*
X182392445Y-87589499D01*
X182520500Y-87717554D01*
X182520505Y-87717558D01*
X182633744Y-87799830D01*
X182667006Y-87823996D01*
X182772484Y-87877740D01*
X182828360Y-87906211D01*
X182828363Y-87906212D01*
X182880590Y-87923181D01*
X183000591Y-87962171D01*
X183083429Y-87975291D01*
X183179449Y-87990500D01*
X183179454Y-87990500D01*
X183360551Y-87990500D01*
X183447259Y-87976765D01*
X183539409Y-87962171D01*
X183711639Y-87906211D01*
X183872994Y-87823996D01*
X184019501Y-87717553D01*
X184147553Y-87589501D01*
X184253996Y-87442994D01*
X184336044Y-87281966D01*
X188499500Y-87281966D01*
X188499500Y-88398028D01*
X188499501Y-88398034D01*
X188510113Y-88517415D01*
X188566089Y-88713045D01*
X188566090Y-88713048D01*
X188566091Y-88713049D01*
X188660302Y-88893407D01*
X188660304Y-88893409D01*
X188773015Y-89031639D01*
X188800124Y-89096036D01*
X188788115Y-89164865D01*
X188773015Y-89188361D01*
X188666805Y-89318618D01*
X188660302Y-89326593D01*
X188631364Y-89381992D01*
X188566089Y-89506954D01*
X188521332Y-89663376D01*
X188511416Y-89698034D01*
X188510114Y-89702583D01*
X188510113Y-89702586D01*
X188499500Y-89821966D01*
X188499500Y-90938028D01*
X188499501Y-90938034D01*
X188510113Y-91057415D01*
X188566089Y-91253045D01*
X188566090Y-91253048D01*
X188566091Y-91253049D01*
X188660302Y-91433407D01*
X188660304Y-91433409D01*
X188773015Y-91571639D01*
X188800124Y-91636036D01*
X188788115Y-91704865D01*
X188773015Y-91728361D01*
X188712737Y-91802287D01*
X188660302Y-91866593D01*
X188634345Y-91916286D01*
X188566089Y-92046954D01*
X188540500Y-92136387D01*
X188511416Y-92238034D01*
X188510114Y-92242583D01*
X188510113Y-92242586D01*
X188499500Y-92361966D01*
X188499500Y-93478028D01*
X188499501Y-93478034D01*
X188510113Y-93597415D01*
X188566089Y-93793045D01*
X188566090Y-93793048D01*
X188566091Y-93793049D01*
X188660302Y-93973407D01*
X188676898Y-93993760D01*
X188773015Y-94111639D01*
X188800124Y-94176036D01*
X188788115Y-94244865D01*
X188773015Y-94268361D01*
X188707188Y-94349092D01*
X188660302Y-94406593D01*
X188637920Y-94449441D01*
X188566089Y-94586954D01*
X188521332Y-94743376D01*
X188511416Y-94778034D01*
X188510114Y-94782583D01*
X188510113Y-94782586D01*
X188499500Y-94901966D01*
X188499500Y-96018028D01*
X188499501Y-96018033D01*
X188510113Y-96137415D01*
X188566089Y-96333045D01*
X188566090Y-96333048D01*
X188566091Y-96333049D01*
X188660302Y-96513407D01*
X188660304Y-96513409D01*
X188773015Y-96651639D01*
X188800124Y-96716036D01*
X188788115Y-96784865D01*
X188773015Y-96808361D01*
X188712737Y-96882287D01*
X188660302Y-96946593D01*
X188614284Y-97034690D01*
X188566089Y-97126954D01*
X188522531Y-97279185D01*
X188511416Y-97318034D01*
X188510114Y-97322583D01*
X188510113Y-97322586D01*
X188499500Y-97441966D01*
X188499500Y-98558028D01*
X188499501Y-98558034D01*
X188510113Y-98677415D01*
X188566089Y-98873045D01*
X188566090Y-98873047D01*
X188566091Y-98873049D01*
X188660302Y-99053407D01*
X188721438Y-99128385D01*
X188773015Y-99191639D01*
X188800124Y-99256036D01*
X188788115Y-99324865D01*
X188773015Y-99348361D01*
X188712737Y-99422287D01*
X188660302Y-99486593D01*
X188645690Y-99514567D01*
X188566089Y-99666954D01*
X188526948Y-99803750D01*
X188511416Y-99858034D01*
X188510114Y-99862583D01*
X188510113Y-99862586D01*
X188499500Y-99981966D01*
X188499500Y-101098028D01*
X188499501Y-101098034D01*
X188510113Y-101217415D01*
X188566089Y-101413045D01*
X188566090Y-101413048D01*
X188566091Y-101413049D01*
X188660302Y-101593407D01*
X188660304Y-101593409D01*
X188773015Y-101731639D01*
X188800124Y-101796036D01*
X188788115Y-101864865D01*
X188773015Y-101888361D01*
X188660304Y-102026590D01*
X188566089Y-102206954D01*
X188545720Y-102278143D01*
X188511416Y-102398034D01*
X188510114Y-102402583D01*
X188510113Y-102402586D01*
X188499500Y-102521966D01*
X188499500Y-103638028D01*
X188499501Y-103638034D01*
X188510113Y-103757415D01*
X188566089Y-103953045D01*
X188566090Y-103953048D01*
X188566091Y-103953049D01*
X188660302Y-104133407D01*
X188660304Y-104133409D01*
X188788890Y-104291109D01*
X188882803Y-104367684D01*
X188946593Y-104419698D01*
X189126951Y-104513909D01*
X189322582Y-104569886D01*
X189441963Y-104580500D01*
X191558036Y-104580499D01*
X191677418Y-104569886D01*
X191873049Y-104513909D01*
X192053407Y-104419698D01*
X192211109Y-104291109D01*
X192339698Y-104133407D01*
X192433909Y-103953049D01*
X192489886Y-103757418D01*
X192500500Y-103638037D01*
X192500499Y-103270545D01*
X192520184Y-103203507D01*
X192536813Y-103182870D01*
X194250986Y-101468697D01*
X194312307Y-101435214D01*
X194381999Y-101440198D01*
X194437932Y-101482070D01*
X194449149Y-101500084D01*
X194465213Y-101531611D01*
X194585528Y-101697213D01*
X194730286Y-101841971D01*
X194895885Y-101962284D01*
X194895887Y-101962285D01*
X194895890Y-101962287D01*
X194988580Y-102009515D01*
X194989130Y-102009795D01*
X195039926Y-102057770D01*
X195056721Y-102125591D01*
X195034184Y-102191725D01*
X194989130Y-102230765D01*
X194896144Y-102278143D01*
X194851577Y-102310523D01*
X194851577Y-102310524D01*
X195531054Y-102990000D01*
X195524839Y-102990000D01*
X195423106Y-103017259D01*
X195331894Y-103069920D01*
X195257420Y-103144394D01*
X195204759Y-103235606D01*
X195177500Y-103337339D01*
X195177500Y-103343553D01*
X194498024Y-102664077D01*
X194498023Y-102664077D01*
X194465643Y-102708644D01*
X194372744Y-102890968D01*
X194309509Y-103085582D01*
X194277500Y-103287682D01*
X194277500Y-103492317D01*
X194309509Y-103694417D01*
X194372744Y-103889031D01*
X194465641Y-104071350D01*
X194465647Y-104071359D01*
X194498023Y-104115921D01*
X194498024Y-104115922D01*
X195177500Y-103436446D01*
X195177500Y-103442661D01*
X195204759Y-103544394D01*
X195257420Y-103635606D01*
X195331894Y-103710080D01*
X195423106Y-103762741D01*
X195524839Y-103790000D01*
X195531053Y-103790000D01*
X194851576Y-104469474D01*
X194896150Y-104501859D01*
X195078468Y-104594755D01*
X195273082Y-104657990D01*
X195475183Y-104690000D01*
X195679817Y-104690000D01*
X195881917Y-104657990D01*
X196076531Y-104594755D01*
X196258849Y-104501859D01*
X196303421Y-104469474D01*
X195623947Y-103790000D01*
X195630161Y-103790000D01*
X195731894Y-103762741D01*
X195823106Y-103710080D01*
X195897580Y-103635606D01*
X195950241Y-103544394D01*
X195977500Y-103442661D01*
X195977500Y-103436448D01*
X196656974Y-104115922D01*
X196656974Y-104115921D01*
X196689359Y-104071349D01*
X196782255Y-103889031D01*
X196845490Y-103694417D01*
X196877500Y-103492317D01*
X196877500Y-103287682D01*
X196845490Y-103085582D01*
X196782255Y-102890968D01*
X196689359Y-102708650D01*
X196656974Y-102664077D01*
X196656974Y-102664076D01*
X195977500Y-103343551D01*
X195977500Y-103337339D01*
X195950241Y-103235606D01*
X195897580Y-103144394D01*
X195823106Y-103069920D01*
X195731894Y-103017259D01*
X195630161Y-102990000D01*
X195623946Y-102990000D01*
X196303422Y-102310524D01*
X196303421Y-102310523D01*
X196258859Y-102278147D01*
X196258850Y-102278141D01*
X196165869Y-102230765D01*
X196115073Y-102182790D01*
X196098278Y-102114969D01*
X196120815Y-102048835D01*
X196165870Y-102009795D01*
X196166420Y-102009515D01*
X196259110Y-101962287D01*
X196308644Y-101926298D01*
X196424713Y-101841971D01*
X196424715Y-101841968D01*
X196424719Y-101841966D01*
X196569466Y-101697219D01*
X196569468Y-101697215D01*
X196569471Y-101697213D01*
X196622232Y-101624590D01*
X196689787Y-101531610D01*
X196782720Y-101349219D01*
X196845977Y-101154534D01*
X196878000Y-100952352D01*
X196878000Y-100747648D01*
X196845977Y-100545466D01*
X196782720Y-100350781D01*
X196782718Y-100350778D01*
X196782718Y-100350776D01*
X196749003Y-100284607D01*
X196689787Y-100168390D01*
X196656809Y-100122999D01*
X196569471Y-100002786D01*
X196424713Y-99858028D01*
X196259114Y-99737715D01*
X196252506Y-99734348D01*
X196166417Y-99690483D01*
X196115623Y-99642511D01*
X196098828Y-99574690D01*
X196121365Y-99508555D01*
X196166417Y-99469516D01*
X196259110Y-99422287D01*
X196280270Y-99406913D01*
X196424713Y-99301971D01*
X196424715Y-99301968D01*
X196424719Y-99301966D01*
X196569466Y-99157219D01*
X196569468Y-99157215D01*
X196569471Y-99157213D01*
X196622232Y-99084590D01*
X196689787Y-98991610D01*
X196782720Y-98809219D01*
X196845977Y-98614534D01*
X196878000Y-98412352D01*
X196878000Y-98207648D01*
X196858515Y-98084625D01*
X196845977Y-98005465D01*
X196801824Y-97869577D01*
X196782720Y-97810781D01*
X196782718Y-97810778D01*
X196782718Y-97810776D01*
X196749003Y-97744607D01*
X196689787Y-97628390D01*
X196647147Y-97569700D01*
X196569471Y-97462786D01*
X196424713Y-97318028D01*
X196259114Y-97197715D01*
X196252506Y-97194348D01*
X196166417Y-97150483D01*
X196115623Y-97102511D01*
X196098828Y-97034690D01*
X196121365Y-96968555D01*
X196166417Y-96929516D01*
X196259110Y-96882287D01*
X196280270Y-96866913D01*
X196424713Y-96761971D01*
X196424715Y-96761968D01*
X196424719Y-96761966D01*
X196569466Y-96617219D01*
X196569468Y-96617215D01*
X196569471Y-96617213D01*
X196622232Y-96544590D01*
X196689787Y-96451610D01*
X196782720Y-96269219D01*
X196845977Y-96074534D01*
X196878000Y-95872352D01*
X196878000Y-95667648D01*
X196845977Y-95465466D01*
X196844097Y-95459681D01*
X196782718Y-95270776D01*
X196741451Y-95189786D01*
X196689787Y-95088390D01*
X196682056Y-95077749D01*
X196569471Y-94922786D01*
X196424713Y-94778028D01*
X196259114Y-94657715D01*
X196226201Y-94640945D01*
X196166417Y-94610483D01*
X196115623Y-94562511D01*
X196098828Y-94494690D01*
X196121365Y-94428555D01*
X196166417Y-94389516D01*
X196259110Y-94342287D01*
X196306250Y-94308038D01*
X196424713Y-94221971D01*
X196424715Y-94221968D01*
X196424719Y-94221966D01*
X196569466Y-94077219D01*
X196569468Y-94077215D01*
X196569471Y-94077213D01*
X196630104Y-93993757D01*
X196689787Y-93911610D01*
X196782720Y-93729219D01*
X196845977Y-93534534D01*
X196878000Y-93332352D01*
X196878000Y-93127648D01*
X196848912Y-92943996D01*
X196845977Y-92925465D01*
X196788796Y-92749481D01*
X196782720Y-92730781D01*
X196782718Y-92730778D01*
X196782718Y-92730776D01*
X196749003Y-92664607D01*
X196689787Y-92548390D01*
X196667574Y-92517816D01*
X196569471Y-92382786D01*
X196424713Y-92238028D01*
X196259114Y-92117715D01*
X196252506Y-92114348D01*
X196166417Y-92070483D01*
X196115623Y-92022511D01*
X196098828Y-91954690D01*
X196121365Y-91888555D01*
X196166417Y-91849516D01*
X196259110Y-91802287D01*
X196304188Y-91769536D01*
X196424713Y-91681971D01*
X196424715Y-91681968D01*
X196424719Y-91681966D01*
X196569466Y-91537219D01*
X196569468Y-91537215D01*
X196569471Y-91537213D01*
X196622232Y-91464590D01*
X196689787Y-91371610D01*
X196782720Y-91189219D01*
X196845977Y-90994534D01*
X196878000Y-90792352D01*
X196878000Y-90587648D01*
X196848912Y-90403996D01*
X196845977Y-90385465D01*
X196795247Y-90229336D01*
X196782720Y-90190781D01*
X196782718Y-90190778D01*
X196782718Y-90190776D01*
X196744599Y-90115964D01*
X196689787Y-90008390D01*
X196654642Y-89960016D01*
X196569471Y-89842786D01*
X196424713Y-89698028D01*
X196259114Y-89577715D01*
X196252506Y-89574348D01*
X196166417Y-89530483D01*
X196115623Y-89482511D01*
X196098828Y-89414690D01*
X196121365Y-89348555D01*
X196166417Y-89309516D01*
X196259110Y-89262287D01*
X196280270Y-89246913D01*
X196424713Y-89141971D01*
X196424715Y-89141968D01*
X196424719Y-89141966D01*
X196569466Y-88997219D01*
X196569468Y-88997215D01*
X196569471Y-88997213D01*
X196637099Y-88904129D01*
X196689787Y-88831610D01*
X196782720Y-88649219D01*
X196845977Y-88454534D01*
X196878000Y-88252352D01*
X196878000Y-88047648D01*
X196872864Y-88015218D01*
X196845977Y-87845465D01*
X196804416Y-87717554D01*
X196782720Y-87650781D01*
X196782718Y-87650778D01*
X196782718Y-87650776D01*
X196735820Y-87558735D01*
X196689787Y-87468390D01*
X196652799Y-87417480D01*
X196569471Y-87302786D01*
X196424719Y-87158034D01*
X196357793Y-87109410D01*
X196331047Y-87089978D01*
X196288382Y-87034649D01*
X196282403Y-86965036D01*
X196315008Y-86903240D01*
X196364926Y-86871955D01*
X196446834Y-86844814D01*
X196596156Y-86752712D01*
X196720212Y-86628656D01*
X196812314Y-86479334D01*
X196867499Y-86312797D01*
X196878000Y-86210009D01*
X196877999Y-86164046D01*
X196897682Y-86097009D01*
X196950485Y-86051253D01*
X197019644Y-86041308D01*
X197083200Y-86070331D01*
X197089680Y-86076365D01*
X201459681Y-90446366D01*
X201493166Y-90507689D01*
X201496000Y-90534047D01*
X201496000Y-102202330D01*
X201495999Y-102202348D01*
X201495999Y-102368054D01*
X201495998Y-102368054D01*
X201505251Y-102402586D01*
X201536923Y-102520785D01*
X201549623Y-102542781D01*
X201585418Y-102604780D01*
X201615979Y-102657715D01*
X201734849Y-102776585D01*
X201734855Y-102776590D01*
X201903422Y-102945157D01*
X201936907Y-103006480D01*
X201933673Y-103071155D01*
X201929022Y-103085468D01*
X201897000Y-103287648D01*
X201897000Y-103492351D01*
X201929022Y-103694534D01*
X201992281Y-103889223D01*
X202043885Y-103990500D01*
X202085085Y-104071359D01*
X202085215Y-104071613D01*
X202205528Y-104237213D01*
X202350286Y-104381971D01*
X202470726Y-104469474D01*
X202515890Y-104502287D01*
X202629158Y-104560000D01*
X202698276Y-104595218D01*
X202698278Y-104595218D01*
X202698281Y-104595220D01*
X202802637Y-104629127D01*
X202892965Y-104658477D01*
X202994057Y-104674488D01*
X203095148Y-104690500D01*
X203095149Y-104690500D01*
X203299851Y-104690500D01*
X203299852Y-104690500D01*
X203502034Y-104658477D01*
X203696719Y-104595220D01*
X203879110Y-104502287D01*
X204022660Y-104397993D01*
X204044713Y-104381971D01*
X204044715Y-104381968D01*
X204044719Y-104381966D01*
X204189466Y-104237219D01*
X204189468Y-104237215D01*
X204189471Y-104237213D01*
X204309784Y-104071614D01*
X204309785Y-104071613D01*
X204309787Y-104071610D01*
X204316617Y-104058204D01*
X204364591Y-104007409D01*
X204427102Y-103990500D01*
X205217798Y-103990500D01*
X205284837Y-104010185D01*
X205330592Y-104062989D01*
X205340536Y-104132147D01*
X205323337Y-104179597D01*
X205274548Y-104258694D01*
X205274546Y-104258699D01*
X205220319Y-104422347D01*
X205210000Y-104523345D01*
X205210000Y-104560000D01*
X206123500Y-104560000D01*
X206190539Y-104579685D01*
X206236294Y-104632489D01*
X206247500Y-104684000D01*
X206247500Y-104810000D01*
X206373500Y-104810000D01*
X206440539Y-104829685D01*
X206486294Y-104882489D01*
X206497500Y-104934000D01*
X206497500Y-105784999D01*
X206596640Y-105784999D01*
X206596654Y-105784998D01*
X206697652Y-105774680D01*
X206861300Y-105720453D01*
X206861311Y-105720448D01*
X207008035Y-105629947D01*
X207021960Y-105616021D01*
X207083282Y-105582533D01*
X207152973Y-105587514D01*
X207197327Y-105616017D01*
X207211650Y-105630340D01*
X207358484Y-105720908D01*
X207522247Y-105775174D01*
X207623323Y-105785500D01*
X208321676Y-105785499D01*
X208321684Y-105785498D01*
X208321687Y-105785498D01*
X208377030Y-105779844D01*
X208422753Y-105775174D01*
X208586516Y-105720908D01*
X208733350Y-105630340D01*
X208855340Y-105508350D01*
X208879362Y-105469404D01*
X208931310Y-105422679D01*
X208984901Y-105410500D01*
X209822599Y-105410500D01*
X209889638Y-105430185D01*
X209928138Y-105469404D01*
X209951967Y-105508038D01*
X209952160Y-105508350D01*
X210074150Y-105630340D01*
X210220984Y-105720908D01*
X210384747Y-105775174D01*
X210485823Y-105785500D01*
X211184176Y-105785499D01*
X211184184Y-105785498D01*
X211184187Y-105785498D01*
X211239530Y-105779844D01*
X211285253Y-105775174D01*
X211449016Y-105720908D01*
X211595850Y-105630340D01*
X211610171Y-105616018D01*
X211671489Y-105582533D01*
X211741181Y-105587514D01*
X211785534Y-105616017D01*
X211799461Y-105629944D01*
X211799465Y-105629947D01*
X211946188Y-105720448D01*
X211946199Y-105720453D01*
X212109847Y-105774680D01*
X212210851Y-105784999D01*
X212810000Y-105784999D01*
X212909140Y-105784999D01*
X212909154Y-105784998D01*
X213010152Y-105774680D01*
X213173800Y-105720453D01*
X213173811Y-105720448D01*
X213320534Y-105629947D01*
X213320538Y-105629944D01*
X213442444Y-105508038D01*
X213442447Y-105508034D01*
X213532948Y-105361311D01*
X213532953Y-105361300D01*
X213587180Y-105197652D01*
X213597499Y-105096654D01*
X213597500Y-105096641D01*
X213597500Y-105060000D01*
X212810000Y-105060000D01*
X212810000Y-105784999D01*
X212210851Y-105784999D01*
X212310000Y-105784998D01*
X212310000Y-104560000D01*
X212810000Y-104560000D01*
X213597499Y-104560000D01*
X213597499Y-104523360D01*
X213597498Y-104523345D01*
X213587180Y-104422347D01*
X213532953Y-104258699D01*
X213532948Y-104258688D01*
X213442447Y-104111965D01*
X213442444Y-104111961D01*
X213320538Y-103990055D01*
X213320534Y-103990052D01*
X213173811Y-103899551D01*
X213173800Y-103899546D01*
X213010152Y-103845319D01*
X212909154Y-103835000D01*
X212810000Y-103835000D01*
X212810000Y-104560000D01*
X212310000Y-104560000D01*
X212310000Y-103834999D01*
X212210860Y-103835000D01*
X212210844Y-103835001D01*
X212109847Y-103845319D01*
X211946199Y-103899546D01*
X211946188Y-103899551D01*
X211799465Y-103990052D01*
X211785532Y-104003985D01*
X211724208Y-104037468D01*
X211654516Y-104032482D01*
X211610172Y-104003982D01*
X211595851Y-103989661D01*
X211595850Y-103989660D01*
X211470512Y-103912351D01*
X211449018Y-103899093D01*
X211449013Y-103899091D01*
X211440777Y-103896362D01*
X211285253Y-103844826D01*
X211285251Y-103844825D01*
X211184178Y-103834500D01*
X210485830Y-103834500D01*
X210485812Y-103834501D01*
X210384747Y-103844825D01*
X210220984Y-103899092D01*
X210220981Y-103899093D01*
X210074148Y-103989661D01*
X209952159Y-104111650D01*
X209928138Y-104150596D01*
X209876190Y-104197321D01*
X209822599Y-104209500D01*
X208984901Y-104209500D01*
X208917862Y-104189815D01*
X208879362Y-104150596D01*
X208855340Y-104111650D01*
X208733351Y-103989661D01*
X208733350Y-103989660D01*
X208586516Y-103899092D01*
X208586514Y-103899091D01*
X208586509Y-103899088D01*
X208583695Y-103897776D01*
X208582089Y-103896362D01*
X208580369Y-103895301D01*
X208580550Y-103895006D01*
X208568512Y-103884406D01*
X208550534Y-103875138D01*
X208533750Y-103853797D01*
X208531258Y-103851602D01*
X208528716Y-103847395D01*
X208527517Y-103845319D01*
X208453020Y-103716284D01*
X208444384Y-103707648D01*
X216259500Y-103707648D01*
X216259500Y-103912351D01*
X216291522Y-104114534D01*
X216354781Y-104309223D01*
X216411070Y-104419695D01*
X216445208Y-104486694D01*
X216447715Y-104491613D01*
X216568028Y-104657213D01*
X216712786Y-104801971D01*
X216823612Y-104882489D01*
X216878390Y-104922287D01*
X216994607Y-104981503D01*
X217060776Y-105015218D01*
X217060778Y-105015218D01*
X217060781Y-105015220D01*
X217165137Y-105049127D01*
X217255465Y-105078477D01*
X217356557Y-105094488D01*
X217457648Y-105110500D01*
X217457649Y-105110500D01*
X217662351Y-105110500D01*
X217662352Y-105110500D01*
X217864534Y-105078477D01*
X218059219Y-105015220D01*
X218241610Y-104922287D01*
X218334590Y-104854732D01*
X218407213Y-104801971D01*
X218407215Y-104801968D01*
X218407219Y-104801966D01*
X218551966Y-104657219D01*
X218551968Y-104657215D01*
X218551971Y-104657213D01*
X218608297Y-104579685D01*
X218672287Y-104491610D01*
X218765220Y-104309219D01*
X218828477Y-104114534D01*
X218860500Y-103912352D01*
X218860500Y-103707648D01*
X218849473Y-103638028D01*
X218828477Y-103505465D01*
X218765218Y-103310776D01*
X218700043Y-103182865D01*
X218672287Y-103128390D01*
X218664556Y-103117749D01*
X218551971Y-102962786D01*
X218407213Y-102818028D01*
X218241613Y-102697715D01*
X218241612Y-102697714D01*
X218241610Y-102697713D01*
X218163110Y-102657715D01*
X218059223Y-102604781D01*
X217864534Y-102541522D01*
X217689995Y-102513878D01*
X217662352Y-102509500D01*
X217457648Y-102509500D01*
X217433329Y-102513351D01*
X217255465Y-102541522D01*
X217060776Y-102604781D01*
X216878386Y-102697715D01*
X216712786Y-102818028D01*
X216568028Y-102962786D01*
X216447715Y-103128386D01*
X216354781Y-103310776D01*
X216291522Y-103505465D01*
X216259500Y-103707648D01*
X208444384Y-103707648D01*
X208341216Y-103604480D01*
X208341215Y-103604479D01*
X208336885Y-103600149D01*
X208336874Y-103600139D01*
X207884415Y-103147680D01*
X207850930Y-103086357D01*
X207855914Y-103016665D01*
X207884411Y-102972323D01*
X210188474Y-100668259D01*
X210249795Y-100634776D01*
X210295547Y-100633469D01*
X210466213Y-100660500D01*
X210466214Y-100660500D01*
X210928786Y-100660500D01*
X210928787Y-100660500D01*
X211138743Y-100627246D01*
X211340912Y-100561557D01*
X211530316Y-100465051D01*
X211552289Y-100449086D01*
X211702286Y-100340109D01*
X211702288Y-100340106D01*
X211702292Y-100340104D01*
X211852604Y-100189792D01*
X211852606Y-100189788D01*
X211852609Y-100189786D01*
X211977548Y-100017820D01*
X211977547Y-100017820D01*
X211977551Y-100017816D01*
X212074057Y-99828412D01*
X212139746Y-99626243D01*
X212173000Y-99416287D01*
X212173000Y-99203713D01*
X212139746Y-98993757D01*
X212074057Y-98791588D01*
X211977551Y-98602184D01*
X211977549Y-98602181D01*
X211977548Y-98602179D01*
X211852609Y-98430213D01*
X211702292Y-98279896D01*
X211682937Y-98265834D01*
X211537704Y-98160316D01*
X211495040Y-98104989D01*
X211489061Y-98035376D01*
X211521666Y-97973580D01*
X211537699Y-97959686D01*
X211702292Y-97840104D01*
X211852604Y-97689792D01*
X211852606Y-97689788D01*
X211852609Y-97689786D01*
X211977548Y-97517820D01*
X211977547Y-97517820D01*
X211977551Y-97517816D01*
X212074057Y-97328412D01*
X212139746Y-97126243D01*
X212173000Y-96916287D01*
X212173000Y-96703713D01*
X212139746Y-96493757D01*
X212074057Y-96291588D01*
X211977551Y-96102184D01*
X211977549Y-96102181D01*
X211977548Y-96102179D01*
X211852609Y-95930213D01*
X211702292Y-95779896D01*
X211701514Y-95779331D01*
X211537704Y-95660316D01*
X211495040Y-95604989D01*
X211489061Y-95535376D01*
X211521666Y-95473580D01*
X211537699Y-95459686D01*
X211702292Y-95340104D01*
X211852604Y-95189792D01*
X211852606Y-95189788D01*
X211852609Y-95189786D01*
X211977548Y-95017820D01*
X211977547Y-95017820D01*
X211977551Y-95017816D01*
X212074057Y-94828412D01*
X212139746Y-94626243D01*
X212173000Y-94416287D01*
X212173000Y-94203713D01*
X212139746Y-93993757D01*
X212074057Y-93791588D01*
X211977551Y-93602184D01*
X211977549Y-93602181D01*
X211977548Y-93602179D01*
X211852609Y-93430213D01*
X211702292Y-93279896D01*
X211624476Y-93223360D01*
X211537704Y-93160316D01*
X211495040Y-93104989D01*
X211489061Y-93035376D01*
X211521666Y-92973580D01*
X211537699Y-92959686D01*
X211702292Y-92840104D01*
X211852604Y-92689792D01*
X211852606Y-92689788D01*
X211852609Y-92689786D01*
X211977548Y-92517820D01*
X211977547Y-92517820D01*
X211977551Y-92517816D01*
X212074057Y-92328412D01*
X212139746Y-92126243D01*
X212173000Y-91916287D01*
X212173000Y-91703713D01*
X212139746Y-91493757D01*
X212074057Y-91291588D01*
X211977551Y-91102184D01*
X211977549Y-91102181D01*
X211977548Y-91102179D01*
X211852609Y-90930213D01*
X211713794Y-90791398D01*
X211680309Y-90730075D01*
X211685293Y-90660383D01*
X211727165Y-90604450D01*
X211736379Y-90598178D01*
X211741831Y-90594814D01*
X211741834Y-90594814D01*
X211891156Y-90502712D01*
X212015212Y-90378656D01*
X212107314Y-90229334D01*
X212162499Y-90062797D01*
X212173000Y-89960009D01*
X212172999Y-88659992D01*
X212162499Y-88557203D01*
X212107314Y-88390666D01*
X212015212Y-88241344D01*
X211891156Y-88117288D01*
X211741834Y-88025186D01*
X211575297Y-87970001D01*
X211575295Y-87970000D01*
X211472516Y-87959500D01*
X211472509Y-87959500D01*
X210247597Y-87959500D01*
X210180558Y-87939815D01*
X210159916Y-87923181D01*
X208944383Y-86707648D01*
X216259500Y-86707648D01*
X216259500Y-86912352D01*
X216263878Y-86939995D01*
X216291522Y-87114534D01*
X216354781Y-87309223D01*
X216408868Y-87415373D01*
X216435879Y-87468385D01*
X216447715Y-87491613D01*
X216568028Y-87657213D01*
X216712786Y-87801971D01*
X216826161Y-87884341D01*
X216878390Y-87922287D01*
X216948642Y-87958082D01*
X217060776Y-88015218D01*
X217060778Y-88015218D01*
X217060781Y-88015220D01*
X217160584Y-88047648D01*
X217255465Y-88078477D01*
X217356557Y-88094488D01*
X217457648Y-88110500D01*
X217457649Y-88110500D01*
X217662351Y-88110500D01*
X217662352Y-88110500D01*
X217864534Y-88078477D01*
X218059219Y-88015220D01*
X218241610Y-87922287D01*
X218347347Y-87845465D01*
X218407213Y-87801971D01*
X218407215Y-87801968D01*
X218407219Y-87801966D01*
X218551966Y-87657219D01*
X218551968Y-87657215D01*
X218551971Y-87657213D01*
X218623518Y-87558735D01*
X218672287Y-87491610D01*
X218765220Y-87309219D01*
X218828477Y-87114534D01*
X218860500Y-86912352D01*
X218860500Y-86707648D01*
X218828477Y-86505466D01*
X218765220Y-86310781D01*
X218765218Y-86310778D01*
X218765218Y-86310776D01*
X218690456Y-86164049D01*
X218672287Y-86128390D01*
X218664556Y-86117749D01*
X218551971Y-85962786D01*
X218407213Y-85818028D01*
X218241613Y-85697715D01*
X218241612Y-85697714D01*
X218241610Y-85697713D01*
X218184653Y-85668691D01*
X218059223Y-85604781D01*
X217864534Y-85541522D01*
X217689995Y-85513878D01*
X217662352Y-85509500D01*
X217457648Y-85509500D01*
X217433329Y-85513351D01*
X217255465Y-85541522D01*
X217060776Y-85604781D01*
X216878386Y-85697715D01*
X216712786Y-85818028D01*
X216568028Y-85962786D01*
X216447715Y-86128386D01*
X216354781Y-86310776D01*
X216291522Y-86505465D01*
X216274411Y-86613504D01*
X216259500Y-86707648D01*
X208944383Y-86707648D01*
X207485090Y-85248355D01*
X207485088Y-85248352D01*
X207366217Y-85129481D01*
X207366216Y-85129480D01*
X207260728Y-85068577D01*
X207260727Y-85068576D01*
X207229283Y-85050422D01*
X207173381Y-85035443D01*
X207076557Y-85009499D01*
X206918443Y-85009499D01*
X206910847Y-85009499D01*
X206910831Y-85009500D01*
X204427102Y-85009500D01*
X204360063Y-84989815D01*
X204316617Y-84941795D01*
X204309784Y-84928385D01*
X204189471Y-84762786D01*
X204044713Y-84618028D01*
X203879113Y-84497715D01*
X203879112Y-84497714D01*
X203879110Y-84497713D01*
X203822153Y-84468691D01*
X203696723Y-84404781D01*
X203502034Y-84341522D01*
X203327495Y-84313878D01*
X203299852Y-84309500D01*
X203095148Y-84309500D01*
X203070829Y-84313351D01*
X202892965Y-84341522D01*
X202698276Y-84404781D01*
X202515886Y-84497715D01*
X202350286Y-84618028D01*
X202205528Y-84762786D01*
X202085215Y-84928386D01*
X201992281Y-85110776D01*
X201929022Y-85305465D01*
X201905278Y-85455384D01*
X201897000Y-85507648D01*
X201897000Y-85712352D01*
X201901378Y-85739995D01*
X201929022Y-85914534D01*
X201992281Y-86109223D01*
X202085215Y-86291613D01*
X202205528Y-86457213D01*
X202350286Y-86601971D01*
X202480660Y-86696691D01*
X202515890Y-86722287D01*
X202586607Y-86758319D01*
X202608580Y-86769515D01*
X202659376Y-86817490D01*
X202676171Y-86885311D01*
X202653634Y-86951446D01*
X202608580Y-86990485D01*
X202515886Y-87037715D01*
X202350286Y-87158028D01*
X202205528Y-87302786D01*
X202085215Y-87468386D01*
X201992281Y-87650776D01*
X201929022Y-87845465D01*
X201897000Y-88047648D01*
X201897000Y-88252351D01*
X201929022Y-88454534D01*
X201992281Y-88649223D01*
X202085215Y-88831613D01*
X202205528Y-88997213D01*
X202350286Y-89141971D01*
X202503028Y-89252942D01*
X202515890Y-89262287D01*
X202587349Y-89298697D01*
X202608580Y-89309515D01*
X202615140Y-89315711D01*
X202623683Y-89318618D01*
X202640143Y-89339325D01*
X202659376Y-89357490D01*
X202661545Y-89366249D01*
X202667160Y-89373313D01*
X202669812Y-89399632D01*
X202676171Y-89425311D01*
X202673260Y-89433852D01*
X202674165Y-89442831D01*
X202662167Y-89466405D01*
X202653634Y-89491446D01*
X202645728Y-89498704D01*
X202642474Y-89505100D01*
X202622344Y-89520176D01*
X202614845Y-89527062D01*
X202611759Y-89528865D01*
X202515890Y-89577713D01*
X202465453Y-89614356D01*
X202460119Y-89617474D01*
X202431960Y-89624461D01*
X202404637Y-89634210D01*
X202398460Y-89632773D01*
X202392306Y-89634301D01*
X202364839Y-89624955D01*
X202336583Y-89618384D01*
X202329328Y-89612871D01*
X202326161Y-89611794D01*
X202323493Y-89608438D01*
X202309878Y-89598093D01*
X196859140Y-84147355D01*
X196859138Y-84147352D01*
X196740267Y-84028481D01*
X196740266Y-84028480D01*
X196653454Y-83978360D01*
X196653454Y-83978359D01*
X196653450Y-83978358D01*
X196603335Y-83949423D01*
X196450607Y-83908499D01*
X196292493Y-83908499D01*
X196284897Y-83908499D01*
X196284881Y-83908500D01*
X193751940Y-83908500D01*
X193711019Y-83919464D01*
X193711019Y-83919465D01*
X193673751Y-83929451D01*
X193599214Y-83949423D01*
X193599209Y-83949426D01*
X193462290Y-84028475D01*
X193462282Y-84028481D01*
X193350478Y-84140286D01*
X191187582Y-86303181D01*
X191126259Y-86336666D01*
X191099901Y-86339500D01*
X189441971Y-86339500D01*
X189441965Y-86339500D01*
X189441964Y-86339501D01*
X189430316Y-86340536D01*
X189322584Y-86350113D01*
X189126954Y-86406089D01*
X189036772Y-86453196D01*
X188946593Y-86500302D01*
X188946591Y-86500303D01*
X188946590Y-86500304D01*
X188788890Y-86628890D01*
X188687928Y-86752712D01*
X188660302Y-86786593D01*
X188629891Y-86844812D01*
X188566089Y-86966954D01*
X188530888Y-87089979D01*
X188511416Y-87158034D01*
X188510114Y-87162583D01*
X188510113Y-87162586D01*
X188503151Y-87240896D01*
X188499530Y-87281633D01*
X188499500Y-87281966D01*
X184336044Y-87281966D01*
X184336211Y-87281639D01*
X184392171Y-87109409D01*
X184411007Y-86990485D01*
X184420500Y-86930551D01*
X184420500Y-86749448D01*
X184401405Y-86628891D01*
X184392171Y-86570591D01*
X184336211Y-86398361D01*
X184336211Y-86398360D01*
X184304776Y-86336666D01*
X184253996Y-86237006D01*
X184200990Y-86164049D01*
X184147558Y-86090505D01*
X184147554Y-86090500D01*
X184019499Y-85962445D01*
X184019494Y-85962441D01*
X183872997Y-85856006D01*
X183872996Y-85856005D01*
X183872994Y-85856004D01*
X183821300Y-85829664D01*
X183711639Y-85773788D01*
X183711636Y-85773787D01*
X183539410Y-85717829D01*
X183360551Y-85689500D01*
X183360546Y-85689500D01*
X183179454Y-85689500D01*
X183179449Y-85689500D01*
X183000589Y-85717829D01*
X182828363Y-85773787D01*
X182828360Y-85773788D01*
X182667002Y-85856006D01*
X182520505Y-85962441D01*
X182520500Y-85962445D01*
X182392445Y-86090500D01*
X182392441Y-86090505D01*
X182286006Y-86237002D01*
X182203788Y-86398360D01*
X182203787Y-86398363D01*
X182147829Y-86570589D01*
X182122473Y-86730678D01*
X182092544Y-86793813D01*
X182033232Y-86830744D01*
X181963369Y-86829746D01*
X181905137Y-86791136D01*
X181877527Y-86730678D01*
X181861405Y-86628891D01*
X181852171Y-86570591D01*
X181796211Y-86398361D01*
X181796211Y-86398360D01*
X181764776Y-86336666D01*
X181713996Y-86237006D01*
X181660990Y-86164049D01*
X181607558Y-86090505D01*
X181607554Y-86090500D01*
X181479499Y-85962445D01*
X181479494Y-85962441D01*
X181332997Y-85856006D01*
X181332996Y-85856005D01*
X181332994Y-85856004D01*
X181281300Y-85829664D01*
X181171639Y-85773788D01*
X181171636Y-85773787D01*
X180999410Y-85717829D01*
X180820551Y-85689500D01*
X180820546Y-85689500D01*
X180639454Y-85689500D01*
X180639449Y-85689500D01*
X180460589Y-85717829D01*
X180288363Y-85773787D01*
X180288360Y-85773788D01*
X180127002Y-85856006D01*
X179980505Y-85962441D01*
X179980500Y-85962445D01*
X179852445Y-86090500D01*
X179852441Y-86090505D01*
X179746006Y-86237002D01*
X179663788Y-86398360D01*
X179663787Y-86398363D01*
X179607829Y-86570589D01*
X179579500Y-86749448D01*
X175309410Y-86749448D01*
X175266393Y-86696691D01*
X175211109Y-86628890D01*
X175053409Y-86500304D01*
X175053410Y-86500304D01*
X175053407Y-86500302D01*
X174873049Y-86406091D01*
X174873048Y-86406090D01*
X174873045Y-86406089D01*
X174755829Y-86372550D01*
X174677418Y-86350114D01*
X174677415Y-86350113D01*
X174677413Y-86350113D01*
X174611102Y-86344217D01*
X174558037Y-86339500D01*
X174558032Y-86339500D01*
X172441971Y-86339500D01*
X172441965Y-86339500D01*
X172441964Y-86339501D01*
X172430316Y-86340536D01*
X172322584Y-86350113D01*
X172126954Y-86406089D01*
X172036772Y-86453196D01*
X171946593Y-86500302D01*
X171946591Y-86500303D01*
X171946590Y-86500304D01*
X171788890Y-86628890D01*
X171687928Y-86752712D01*
X171660302Y-86786593D01*
X171629891Y-86844812D01*
X171566089Y-86966954D01*
X171530888Y-87089979D01*
X171511416Y-87158034D01*
X171510114Y-87162583D01*
X171510113Y-87162586D01*
X171503151Y-87240896D01*
X171499530Y-87281633D01*
X171499500Y-87281966D01*
X171499500Y-88398028D01*
X171499501Y-88398034D01*
X171510113Y-88517415D01*
X171566089Y-88713045D01*
X171566090Y-88713048D01*
X171566091Y-88713049D01*
X171660302Y-88893407D01*
X171660304Y-88893409D01*
X171773015Y-89031639D01*
X171800124Y-89096036D01*
X171788115Y-89164865D01*
X171773015Y-89188361D01*
X171666805Y-89318618D01*
X171660302Y-89326593D01*
X171631364Y-89381992D01*
X171566089Y-89506954D01*
X171521332Y-89663376D01*
X171511416Y-89698034D01*
X171510114Y-89702583D01*
X171510113Y-89702586D01*
X171499500Y-89821966D01*
X171499500Y-90938028D01*
X171499501Y-90938034D01*
X171510113Y-91057415D01*
X171566089Y-91253045D01*
X171566090Y-91253048D01*
X171566091Y-91253049D01*
X171660302Y-91433407D01*
X171660304Y-91433409D01*
X171773015Y-91571639D01*
X171800124Y-91636036D01*
X171788115Y-91704865D01*
X171773015Y-91728361D01*
X171712737Y-91802287D01*
X171660302Y-91866593D01*
X171634345Y-91916286D01*
X171566089Y-92046954D01*
X171540500Y-92136387D01*
X171511416Y-92238034D01*
X171510114Y-92242583D01*
X171510113Y-92242586D01*
X171499500Y-92361966D01*
X171499500Y-93478028D01*
X171499501Y-93478034D01*
X171510113Y-93597415D01*
X171566089Y-93793045D01*
X171566090Y-93793048D01*
X171566091Y-93793049D01*
X171660302Y-93973407D01*
X171676898Y-93993760D01*
X171773015Y-94111639D01*
X171800124Y-94176036D01*
X171788115Y-94244865D01*
X171773015Y-94268361D01*
X171707188Y-94349092D01*
X171660302Y-94406593D01*
X171637920Y-94449441D01*
X171566089Y-94586954D01*
X171521332Y-94743376D01*
X171511416Y-94778034D01*
X171510114Y-94782583D01*
X171510113Y-94782586D01*
X171499500Y-94901966D01*
X171499500Y-96018028D01*
X171499501Y-96018033D01*
X171510113Y-96137415D01*
X171566089Y-96333045D01*
X171566090Y-96333048D01*
X171566091Y-96333049D01*
X171660302Y-96513407D01*
X171660304Y-96513409D01*
X171773015Y-96651639D01*
X171800124Y-96716036D01*
X171788115Y-96784865D01*
X171773015Y-96808361D01*
X171712737Y-96882287D01*
X171660302Y-96946593D01*
X171614284Y-97034690D01*
X171566089Y-97126954D01*
X171522531Y-97279185D01*
X171511416Y-97318034D01*
X171510114Y-97322583D01*
X171510113Y-97322586D01*
X171499500Y-97441966D01*
X171499500Y-98558028D01*
X171499501Y-98558034D01*
X171510113Y-98677415D01*
X171566089Y-98873045D01*
X171566090Y-98873047D01*
X171566091Y-98873049D01*
X171660302Y-99053407D01*
X171721438Y-99128385D01*
X171773015Y-99191639D01*
X171800124Y-99256036D01*
X171788115Y-99324865D01*
X171773015Y-99348361D01*
X171712737Y-99422287D01*
X171660302Y-99486593D01*
X171645690Y-99514567D01*
X171566089Y-99666954D01*
X171526948Y-99803750D01*
X171511416Y-99858034D01*
X171510114Y-99862583D01*
X171510113Y-99862586D01*
X171499500Y-99981966D01*
X171499500Y-100925902D01*
X171479815Y-100992941D01*
X171427011Y-101038696D01*
X171357853Y-101048640D01*
X171294297Y-101019615D01*
X171287819Y-101013583D01*
X169571818Y-99297582D01*
X169538333Y-99236259D01*
X169535499Y-99209901D01*
X169535499Y-98835830D01*
X169535498Y-98835813D01*
X169525174Y-98734747D01*
X169506175Y-98677413D01*
X169470908Y-98570984D01*
X169380340Y-98424150D01*
X169266371Y-98310181D01*
X169232886Y-98248858D01*
X169237870Y-98179166D01*
X169266371Y-98134819D01*
X169316565Y-98084625D01*
X169380340Y-98020850D01*
X169470908Y-97874016D01*
X169525174Y-97710253D01*
X169535500Y-97609177D01*
X169535499Y-97010824D01*
X169525174Y-96909747D01*
X169470908Y-96745984D01*
X169380340Y-96599150D01*
X169258350Y-96477160D01*
X169111516Y-96386592D01*
X168947753Y-96332326D01*
X168947751Y-96332325D01*
X168846678Y-96322000D01*
X168273330Y-96322000D01*
X168273312Y-96322001D01*
X168172247Y-96332325D01*
X168008484Y-96386592D01*
X168008481Y-96386593D01*
X167861648Y-96477161D01*
X167739659Y-96599150D01*
X167707928Y-96650596D01*
X167655980Y-96697321D01*
X167602389Y-96709500D01*
X166360097Y-96709500D01*
X166293058Y-96689815D01*
X166272416Y-96673181D01*
X165071818Y-95472583D01*
X165038333Y-95411260D01*
X165035499Y-95384902D01*
X165035499Y-94973330D01*
X165035498Y-94973313D01*
X165025174Y-94872247D01*
X164995462Y-94782583D01*
X164970908Y-94708484D01*
X164880340Y-94561650D01*
X164841016Y-94522326D01*
X164807532Y-94461004D01*
X164812516Y-94391312D01*
X164841018Y-94346964D01*
X164879945Y-94308037D01*
X164879947Y-94308034D01*
X164970448Y-94161311D01*
X164970453Y-94161300D01*
X165024680Y-93997652D01*
X165034999Y-93896654D01*
X165035000Y-93896641D01*
X165035000Y-93810000D01*
X163085001Y-93810000D01*
X163085001Y-93896654D01*
X163095319Y-93997652D01*
X163149546Y-94161300D01*
X163149551Y-94161311D01*
X163240052Y-94308034D01*
X163240055Y-94308038D01*
X163278982Y-94346965D01*
X163312467Y-94408288D01*
X163307483Y-94477980D01*
X163278983Y-94522326D01*
X163239661Y-94561648D01*
X163149093Y-94708481D01*
X163149092Y-94708484D01*
X163094826Y-94872247D01*
X163094826Y-94872248D01*
X163094825Y-94872248D01*
X163084500Y-94973315D01*
X161060500Y-94973315D01*
X161060500Y-93223345D01*
X163085000Y-93223345D01*
X163085000Y-93310000D01*
X163810000Y-93310000D01*
X164310000Y-93310000D01*
X165034999Y-93310000D01*
X165034999Y-93223360D01*
X165034998Y-93223345D01*
X165024680Y-93122347D01*
X164970453Y-92958699D01*
X164970448Y-92958688D01*
X164879947Y-92811965D01*
X164879944Y-92811961D01*
X164758038Y-92690055D01*
X164758034Y-92690052D01*
X164611311Y-92599551D01*
X164611300Y-92599546D01*
X164447652Y-92545319D01*
X164346654Y-92535000D01*
X164310000Y-92535000D01*
X164310000Y-93310000D01*
X163810000Y-93310000D01*
X163810000Y-92535000D01*
X163773361Y-92535000D01*
X163773343Y-92535001D01*
X163672347Y-92545319D01*
X163508699Y-92599546D01*
X163508688Y-92599551D01*
X163361965Y-92690052D01*
X163361961Y-92690055D01*
X163240055Y-92811961D01*
X163240052Y-92811965D01*
X163149551Y-92958688D01*
X163149546Y-92958699D01*
X163095319Y-93122347D01*
X163085000Y-93223345D01*
X161060500Y-93223345D01*
X161060500Y-86813051D01*
X161060649Y-86806967D01*
X161060893Y-86801994D01*
X161065528Y-86707648D01*
X163259500Y-86707648D01*
X163259500Y-86912352D01*
X163263878Y-86939995D01*
X163291522Y-87114534D01*
X163354781Y-87309223D01*
X163408868Y-87415373D01*
X163435879Y-87468385D01*
X163447715Y-87491613D01*
X163568028Y-87657213D01*
X163712786Y-87801971D01*
X163826161Y-87884341D01*
X163878390Y-87922287D01*
X163948642Y-87958082D01*
X164060776Y-88015218D01*
X164060778Y-88015218D01*
X164060781Y-88015220D01*
X164160584Y-88047648D01*
X164255465Y-88078477D01*
X164356557Y-88094488D01*
X164457648Y-88110500D01*
X164457649Y-88110500D01*
X164662351Y-88110500D01*
X164662352Y-88110500D01*
X164864534Y-88078477D01*
X165059219Y-88015220D01*
X165241610Y-87922287D01*
X165347347Y-87845465D01*
X165407213Y-87801971D01*
X165407215Y-87801968D01*
X165407219Y-87801966D01*
X165551966Y-87657219D01*
X165551968Y-87657215D01*
X165551971Y-87657213D01*
X165623518Y-87558735D01*
X165672287Y-87491610D01*
X165765220Y-87309219D01*
X165828477Y-87114534D01*
X165860500Y-86912352D01*
X165860500Y-86707648D01*
X165828477Y-86505466D01*
X165765220Y-86310781D01*
X165765218Y-86310778D01*
X165765218Y-86310776D01*
X165690456Y-86164049D01*
X165672287Y-86128390D01*
X165664556Y-86117749D01*
X165551971Y-85962786D01*
X165407213Y-85818028D01*
X165241613Y-85697715D01*
X165241612Y-85697714D01*
X165241610Y-85697713D01*
X165184653Y-85668691D01*
X165059223Y-85604781D01*
X164864534Y-85541522D01*
X164689995Y-85513878D01*
X164662352Y-85509500D01*
X164457648Y-85509500D01*
X164433329Y-85513351D01*
X164255465Y-85541522D01*
X164060776Y-85604781D01*
X163878386Y-85697715D01*
X163712786Y-85818028D01*
X163568028Y-85962786D01*
X163447715Y-86128386D01*
X163354781Y-86310776D01*
X163291522Y-86505465D01*
X163274411Y-86613504D01*
X163259500Y-86707648D01*
X161065528Y-86707648D01*
X161077052Y-86473066D01*
X161078245Y-86460962D01*
X161096262Y-86339500D01*
X161126849Y-86133296D01*
X161129218Y-86121385D01*
X161209710Y-85800043D01*
X161213240Y-85788411D01*
X161238495Y-85717829D01*
X161324835Y-85476525D01*
X161329476Y-85465318D01*
X161471124Y-85165828D01*
X161476840Y-85155136D01*
X161647145Y-84870998D01*
X161653888Y-84860905D01*
X161851232Y-84594818D01*
X161858935Y-84585433D01*
X162081405Y-84339975D01*
X162089975Y-84331405D01*
X162335433Y-84108935D01*
X162344818Y-84101232D01*
X162610905Y-83903888D01*
X162620998Y-83897145D01*
X162905136Y-83726840D01*
X162915828Y-83721124D01*
X163215318Y-83579476D01*
X163226525Y-83574835D01*
X163538412Y-83463239D01*
X163550043Y-83459710D01*
X163871385Y-83379218D01*
X163883296Y-83376849D01*
X164210962Y-83328244D01*
X164223068Y-83327052D01*
X164556967Y-83310648D01*
X164563051Y-83310500D01*
X164625892Y-83310500D01*
X217494108Y-83310500D01*
X217556949Y-83310500D01*
X217563032Y-83310648D01*
G37*
%TD.AperFunction*%
%TD*%
M02*
