%TF.GenerationSoftware,KiCad,Pcbnew,9.0.6*%
%TF.CreationDate,2026-02-18T14:12:51-08:00*%
%TF.ProjectId,514-Schematic,3531342d-5363-4686-956d-617469632e6b,rev?*%
%TF.SameCoordinates,Original*%
%TF.FileFunction,Copper,L1,Top*%
%TF.FilePolarity,Positive*%
%FSLAX46Y46*%
G04 Gerber Fmt 4.6, Leading zero omitted, Abs format (unit mm)*
G04 Created by KiCad (PCBNEW 9.0.6) date 2026-02-18 14:12:51*
%MOMM*%
%LPD*%
G01*
G04 APERTURE LIST*
G04 Aperture macros list*
%AMRoundRect*
0 Rectangle with rounded corners*
0 $1 Rounding radius*
0 $2 $3 $4 $5 $6 $7 $8 $9 X,Y pos of 4 corners*
0 Add a 4 corners polygon primitive as box body*
4,1,4,$2,$3,$4,$5,$6,$7,$8,$9,$2,$3,0*
0 Add four circle primitives for the rounded corners*
1,1,$1+$1,$2,$3*
1,1,$1+$1,$4,$5*
1,1,$1+$1,$6,$7*
1,1,$1+$1,$8,$9*
0 Add four rect primitives between the rounded corners*
20,1,$1+$1,$2,$3,$4,$5,0*
20,1,$1+$1,$4,$5,$6,$7,0*
20,1,$1+$1,$6,$7,$8,$9,0*
20,1,$1+$1,$8,$9,$2,$3,0*%
G04 Aperture macros list end*
%TA.AperFunction,SMDPad,CuDef*%
%ADD10RoundRect,0.500000X-1.000000X-0.500000X1.000000X-0.500000X1.000000X0.500000X-1.000000X0.500000X0*%
%TD*%
%TA.AperFunction,HeatsinkPad*%
%ADD11RoundRect,0.250000X-1.500000X-1.500000X1.500000X-1.500000X1.500000X1.500000X-1.500000X1.500000X0*%
%TD*%
%TA.AperFunction,SMDPad,CuDef*%
%ADD12RoundRect,0.250000X-0.900000X-0.400000X0.900000X-0.400000X0.900000X0.400000X-0.900000X0.400000X0*%
%TD*%
%TA.AperFunction,SMDPad,CuDef*%
%ADD13C,1.300000*%
%TD*%
%TA.AperFunction,SMDPad,CuDef*%
%ADD14RoundRect,0.237500X0.250000X0.237500X-0.250000X0.237500X-0.250000X-0.237500X0.250000X-0.237500X0*%
%TD*%
%TA.AperFunction,SMDPad,CuDef*%
%ADD15R,0.600000X0.300000*%
%TD*%
%TA.AperFunction,SMDPad,CuDef*%
%ADD16R,0.300000X0.600000*%
%TD*%
%TA.AperFunction,SMDPad,CuDef*%
%ADD17RoundRect,0.237500X0.300000X0.237500X-0.300000X0.237500X-0.300000X-0.237500X0.300000X-0.237500X0*%
%TD*%
%TA.AperFunction,ComponentPad*%
%ADD18RoundRect,0.250000X-0.350000X-0.625000X0.350000X-0.625000X0.350000X0.625000X-0.350000X0.625000X0*%
%TD*%
%TA.AperFunction,ComponentPad*%
%ADD19O,1.200000X1.750000*%
%TD*%
%TA.AperFunction,SMDPad,CuDef*%
%ADD20RoundRect,0.237500X-0.300000X-0.237500X0.300000X-0.237500X0.300000X0.237500X-0.300000X0.237500X0*%
%TD*%
%TA.AperFunction,ViaPad*%
%ADD21C,0.600000*%
%TD*%
%TA.AperFunction,Conductor*%
%ADD22C,0.200000*%
%TD*%
G04 APERTURE END LIST*
D10*
%TO.P,U5,1,D0*%
%TO.N,unconnected-(U5-D0-Pad1)*%
X184500000Y-55055000D03*
%TO.P,U5,2,D1*%
%TO.N,unconnected-(U5-D1-Pad2)*%
X184500000Y-57595000D03*
%TO.P,U5,3,D2*%
%TO.N,unconnected-(U5-D2-Pad3)*%
X184500000Y-60135000D03*
%TO.P,U5,4,D3*%
%TO.N,unconnected-(U5-D3-Pad4)*%
X184500000Y-62675000D03*
%TO.P,U5,5,D4*%
%TO.N,Net-(IC1-AP_SDA_{slash}_AP_SDIO_{slash}_AP_SDI)*%
X184500000Y-65215000D03*
%TO.P,U5,6,D5*%
%TO.N,Net-(IC1-AP_SCL_{slash}_AP_SCLK)*%
X184500000Y-67755000D03*
%TO.P,U5,7,D6*%
%TO.N,unconnected-(U5-D6-Pad7)*%
X184500000Y-70295000D03*
%TO.P,U5,8,D7*%
%TO.N,unconnected-(U5-D7-Pad8)*%
X201500000Y-70295000D03*
%TO.P,U5,9,D8*%
%TO.N,unconnected-(U5-D8-Pad9)*%
X201500000Y-67755000D03*
%TO.P,U5,10,D9*%
%TO.N,unconnected-(U5-D9-Pad10)*%
X201500000Y-65215000D03*
%TO.P,U5,11,D10*%
%TO.N,unconnected-(U5-D10-Pad11)*%
X201500000Y-62675000D03*
%TO.P,U5,12,3v3*%
%TO.N,Net-(IC1-AP_CS)*%
X201500000Y-60135000D03*
%TO.P,U5,13,GND*%
%TO.N,unconnected-(U5-GND-Pad13)*%
X201500000Y-57595000D03*
%TO.P,U5,14,5V*%
%TO.N,unconnected-(U5-5V-Pad14)*%
X201500000Y-55055000D03*
D11*
%TO.P,U5,15*%
%TO.N,N/C*%
X195100000Y-63275000D03*
D12*
%TO.P,U5,16,BAT+*%
%TO.N,Net-(J1-Pin_1)*%
X188500000Y-62275000D03*
%TO.P,U5,17,BAT-*%
%TO.N,GND*%
X188500000Y-60375000D03*
D13*
%TO.P,U5,18*%
%TO.N,N/C*%
X191730000Y-54055000D03*
%TO.P,U5,19*%
X191730000Y-56635000D03*
%TO.P,U5,20*%
X191730000Y-59175000D03*
%TO.P,U5,21*%
X194270000Y-59175000D03*
%TO.P,U5,22*%
X194270000Y-56635000D03*
%TO.P,U5,23*%
X194270000Y-54055000D03*
%TD*%
D14*
%TO.P,R3,1*%
%TO.N,Net-(IC1-AP_SCL_{slash}_AP_SCLK)*%
X178630000Y-74500000D03*
%TO.P,R3,2*%
%TO.N,Net-(IC1-AP_CS)*%
X176805000Y-74500000D03*
%TD*%
D15*
%TO.P,IC1,1,AP_SDO_/_AP_AD0*%
%TO.N,GND*%
X178705000Y-53650000D03*
%TO.P,IC1,2,RESV_1*%
%TO.N,unconnected-(IC1-RESV_1-Pad2)*%
X178705000Y-53150000D03*
%TO.P,IC1,3,RESV_2*%
%TO.N,unconnected-(IC1-RESV_2-Pad3)*%
X178705000Y-52650000D03*
%TO.P,IC1,4,INT1_/_INT*%
%TO.N,unconnected-(IC1-INT1_{slash}_INT-Pad4)*%
X178705000Y-52150000D03*
D16*
%TO.P,IC1,5,VDDIO*%
%TO.N,Net-(IC1-AP_CS)*%
X178055000Y-52000000D03*
%TO.P,IC1,6,GND*%
%TO.N,GND*%
X177555000Y-52000000D03*
%TO.P,IC1,7,FSYNC*%
X177055000Y-52000000D03*
D15*
%TO.P,IC1,8,VDD*%
%TO.N,Net-(IC1-AP_CS)*%
X176405000Y-52150000D03*
%TO.P,IC1,9,INT2*%
%TO.N,unconnected-(IC1-INT2-Pad9)*%
X176405000Y-52650000D03*
%TO.P,IC1,10,RESV_3*%
%TO.N,unconnected-(IC1-RESV_3-Pad10)*%
X176405000Y-53150000D03*
%TO.P,IC1,11,RESV_4*%
%TO.N,unconnected-(IC1-RESV_4-Pad11)*%
X176405000Y-53650000D03*
D16*
%TO.P,IC1,12,AP_CS*%
%TO.N,Net-(IC1-AP_CS)*%
X177055000Y-53800000D03*
%TO.P,IC1,13,AP_SCL_/_AP_SCLK*%
%TO.N,Net-(IC1-AP_SCL_{slash}_AP_SCLK)*%
X177555000Y-53800000D03*
%TO.P,IC1,14,AP_SDA_/_AP_SDIO_/_AP_SDI*%
%TO.N,Net-(IC1-AP_SDA_{slash}_AP_SDIO_{slash}_AP_SDI)*%
X178055000Y-53800000D03*
%TD*%
D17*
%TO.P,C5,1*%
%TO.N,GND*%
X178555000Y-66000000D03*
%TO.P,C5,2*%
%TO.N,Net-(IC1-AP_CS)*%
X176830000Y-66000000D03*
%TD*%
D18*
%TO.P,J1,1,Pin_1*%
%TO.N,Net-(J1-Pin_1)*%
X208000000Y-62500000D03*
D19*
%TO.P,J1,2,Pin_2*%
%TO.N,GND*%
X210000000Y-62500000D03*
%TD*%
D14*
%TO.P,R2,1*%
%TO.N,Net-(IC1-AP_SDA_{slash}_AP_SDIO_{slash}_AP_SDI)*%
X178555000Y-70250000D03*
%TO.P,R2,2*%
%TO.N,Net-(IC1-AP_CS)*%
X176730000Y-70250000D03*
%TD*%
D20*
%TO.P,C3,1*%
%TO.N,Net-(IC1-AP_CS)*%
X176830000Y-57500000D03*
%TO.P,C3,2*%
%TO.N,GND*%
X178555000Y-57500000D03*
%TD*%
%TO.P,C4,1*%
%TO.N,Net-(IC1-AP_CS)*%
X176830000Y-61750000D03*
%TO.P,C4,2*%
%TO.N,GND*%
X178555000Y-61750000D03*
%TD*%
D21*
%TO.N,Net-(J1-Pin_1)*%
X191805000Y-62250000D03*
%TO.N,Net-(IC1-AP_CS)*%
X198055000Y-60000000D03*
X178055000Y-60000000D03*
%TO.N,Net-(IC1-AP_SCL_{slash}_AP_SCLK)*%
X182305000Y-68000000D03*
X181305000Y-66250000D03*
%TD*%
D22*
%TO.N,Net-(J1-Pin_1)*%
X188525000Y-62250000D02*
X191805000Y-62250000D01*
X188500000Y-62275000D02*
X188525000Y-62250000D01*
%TO.N,Net-(IC1-AP_CS)*%
X177055000Y-54052000D02*
X177055000Y-53800000D01*
X177006000Y-54101000D02*
X177055000Y-54052000D01*
X198055000Y-60000000D02*
X198190000Y-60135000D01*
X177055000Y-57275000D02*
X176830000Y-57500000D01*
X176830000Y-58775000D02*
X178055000Y-60000000D01*
X176830000Y-57500000D02*
X176830000Y-61750000D01*
X176830000Y-57500000D02*
X176830000Y-58775000D01*
X178006000Y-51399000D02*
X178055000Y-51448000D01*
X176730000Y-74425000D02*
X176805000Y-74500000D01*
X175804000Y-52199000D02*
X175804000Y-54101000D01*
X176730000Y-70250000D02*
X176730000Y-74425000D01*
X176405000Y-52150000D02*
X175853000Y-52150000D01*
X198190000Y-60135000D02*
X201500000Y-60135000D01*
X176830000Y-66025000D02*
X176730000Y-66125000D01*
X176405000Y-51598000D02*
X176604000Y-51399000D01*
X176830000Y-66000000D02*
X176830000Y-66025000D01*
X178055000Y-51448000D02*
X178055000Y-52000000D01*
X177055000Y-53800000D02*
X177055000Y-57275000D01*
X176830000Y-61750000D02*
X176830000Y-66000000D01*
X175804000Y-54101000D02*
X177006000Y-54101000D01*
X175853000Y-52150000D02*
X175804000Y-52199000D01*
X176405000Y-52150000D02*
X176405000Y-51598000D01*
X176604000Y-51399000D02*
X178006000Y-51399000D01*
X176730000Y-66125000D02*
X176730000Y-70250000D01*
%TO.N,Net-(IC1-AP_SDA_{slash}_AP_SDIO_{slash}_AP_SDI)*%
X182055000Y-64270000D02*
X182055000Y-57250000D01*
X184500000Y-65215000D02*
X183000000Y-65215000D01*
X178555000Y-70250000D02*
X183590000Y-65215000D01*
X180055000Y-55250000D02*
X179305000Y-55250000D01*
X178055000Y-54000000D02*
X178055000Y-53800000D01*
X183000000Y-65215000D02*
X182055000Y-64270000D01*
X182055000Y-57250000D02*
X180055000Y-55250000D01*
X179305000Y-55250000D02*
X178055000Y-54000000D01*
X183590000Y-65215000D02*
X184500000Y-65215000D01*
%TO.N,Net-(IC1-AP_SCL_{slash}_AP_SCLK)*%
X177555000Y-54352000D02*
X177555000Y-53800000D01*
X178630000Y-73524942D02*
X184399942Y-67755000D01*
X184500000Y-67755000D02*
X182550000Y-67755000D01*
X184399942Y-67755000D02*
X184500000Y-67755000D01*
X181305000Y-66250000D02*
X181305000Y-58102000D01*
X182550000Y-67755000D02*
X182305000Y-68000000D01*
X178630000Y-74500000D02*
X178630000Y-73524942D01*
X181305000Y-58102000D02*
X177555000Y-54352000D01*
%TD*%
%TA.AperFunction,Conductor*%
%TO.N,GND*%
G36*
X177860703Y-55507384D02*
G01*
X177867181Y-55513416D01*
X178768681Y-56414916D01*
X178802166Y-56476239D01*
X178805000Y-56502597D01*
X178805000Y-57250000D01*
X179552403Y-57250000D01*
X179619442Y-57269685D01*
X179640084Y-57286319D01*
X180668181Y-58314416D01*
X180701666Y-58375739D01*
X180704500Y-58402097D01*
X180704500Y-65670234D01*
X180684815Y-65737273D01*
X180683602Y-65739125D01*
X180595609Y-65870814D01*
X180595602Y-65870827D01*
X180535264Y-66016498D01*
X180535261Y-66016510D01*
X180504500Y-66171153D01*
X180504500Y-66328846D01*
X180535261Y-66483489D01*
X180535264Y-66483501D01*
X180595602Y-66629172D01*
X180595609Y-66629185D01*
X180683210Y-66760288D01*
X180683213Y-66760292D01*
X180794708Y-66871787D01*
X180794711Y-66871789D01*
X180842482Y-66903709D01*
X180887286Y-66957319D01*
X180895995Y-67026644D01*
X180865841Y-67089671D01*
X180861272Y-67094491D01*
X178717582Y-69238181D01*
X178656259Y-69271666D01*
X178629901Y-69274500D01*
X178255830Y-69274500D01*
X178255812Y-69274501D01*
X178154747Y-69284825D01*
X177990984Y-69339092D01*
X177990981Y-69339093D01*
X177844148Y-69429661D01*
X177730181Y-69543629D01*
X177726062Y-69545877D01*
X177723516Y-69549823D01*
X177695679Y-69562468D01*
X177668858Y-69577114D01*
X177664176Y-69576779D01*
X177659902Y-69578721D01*
X177629657Y-69574310D01*
X177599166Y-69572130D01*
X177594118Y-69569128D01*
X177590764Y-69568639D01*
X177575870Y-69558276D01*
X177561111Y-69549499D01*
X177557864Y-69546674D01*
X177440850Y-69429660D01*
X177380768Y-69392601D01*
X177373111Y-69385939D01*
X177359529Y-69364713D01*
X177342678Y-69345978D01*
X177339999Y-69334191D01*
X177335453Y-69327086D01*
X177335478Y-69314296D01*
X177330500Y-69292388D01*
X177330500Y-67038064D01*
X177350185Y-66971025D01*
X177402989Y-66925270D01*
X177415488Y-66920361D01*
X177444016Y-66910908D01*
X177590850Y-66820340D01*
X177605171Y-66806018D01*
X177666489Y-66772533D01*
X177736181Y-66777514D01*
X177780534Y-66806017D01*
X177794461Y-66819944D01*
X177794465Y-66819947D01*
X177941188Y-66910448D01*
X177941199Y-66910453D01*
X178104847Y-66964680D01*
X178205851Y-66974999D01*
X178805000Y-66974999D01*
X178904140Y-66974999D01*
X178904154Y-66974998D01*
X179005152Y-66964680D01*
X179168800Y-66910453D01*
X179168811Y-66910448D01*
X179315534Y-66819947D01*
X179315538Y-66819944D01*
X179437444Y-66698038D01*
X179437447Y-66698034D01*
X179527948Y-66551311D01*
X179527953Y-66551300D01*
X179582180Y-66387652D01*
X179592499Y-66286654D01*
X179592500Y-66286641D01*
X179592500Y-66250000D01*
X178805000Y-66250000D01*
X178805000Y-66974999D01*
X178205851Y-66974999D01*
X178305000Y-66974998D01*
X178305000Y-65750000D01*
X178805000Y-65750000D01*
X179592499Y-65750000D01*
X179592499Y-65713360D01*
X179592498Y-65713345D01*
X179582180Y-65612347D01*
X179527953Y-65448699D01*
X179527948Y-65448688D01*
X179437447Y-65301965D01*
X179437444Y-65301961D01*
X179315538Y-65180055D01*
X179315534Y-65180052D01*
X179168811Y-65089551D01*
X179168800Y-65089546D01*
X179005152Y-65035319D01*
X178904154Y-65025000D01*
X178805000Y-65025000D01*
X178805000Y-65750000D01*
X178305000Y-65750000D01*
X178305000Y-65024999D01*
X178205860Y-65025000D01*
X178205844Y-65025001D01*
X178104847Y-65035319D01*
X177941199Y-65089546D01*
X177941188Y-65089551D01*
X177794465Y-65180052D01*
X177780532Y-65193985D01*
X177719208Y-65227468D01*
X177649516Y-65222482D01*
X177622787Y-65208608D01*
X177613302Y-65202112D01*
X177590850Y-65179660D01*
X177486888Y-65115535D01*
X177484434Y-65113855D01*
X177464138Y-65088997D01*
X177442678Y-65065138D01*
X177441914Y-65061777D01*
X177440245Y-65059733D01*
X177439032Y-65049095D01*
X177430500Y-65011548D01*
X177430500Y-62738451D01*
X177450185Y-62671412D01*
X177489402Y-62632913D01*
X177590850Y-62570340D01*
X177605171Y-62556018D01*
X177666489Y-62522533D01*
X177736181Y-62527514D01*
X177780534Y-62556017D01*
X177794461Y-62569944D01*
X177794465Y-62569947D01*
X177941188Y-62660448D01*
X177941199Y-62660453D01*
X178104847Y-62714680D01*
X178205851Y-62724999D01*
X178805000Y-62724999D01*
X178904140Y-62724999D01*
X178904154Y-62724998D01*
X179005152Y-62714680D01*
X179168800Y-62660453D01*
X179168811Y-62660448D01*
X179315534Y-62569947D01*
X179315538Y-62569944D01*
X179437444Y-62448038D01*
X179437447Y-62448034D01*
X179527948Y-62301311D01*
X179527953Y-62301300D01*
X179582180Y-62137652D01*
X179592499Y-62036654D01*
X179592500Y-62036641D01*
X179592500Y-62000000D01*
X178805000Y-62000000D01*
X178805000Y-62724999D01*
X178205851Y-62724999D01*
X178305000Y-62724998D01*
X178305000Y-61874000D01*
X178324685Y-61806961D01*
X178377489Y-61761206D01*
X178429000Y-61750000D01*
X178555000Y-61750000D01*
X178555000Y-61624000D01*
X178574685Y-61556961D01*
X178627489Y-61511206D01*
X178679000Y-61500000D01*
X179592499Y-61500000D01*
X179592499Y-61463360D01*
X179592498Y-61463345D01*
X179582180Y-61362347D01*
X179527953Y-61198699D01*
X179527948Y-61198688D01*
X179437447Y-61051965D01*
X179437444Y-61051961D01*
X179315538Y-60930055D01*
X179315534Y-60930052D01*
X179168811Y-60839551D01*
X179168800Y-60839546D01*
X179005152Y-60785319D01*
X178904154Y-60775000D01*
X178711441Y-60775000D01*
X178644402Y-60755315D01*
X178598647Y-60702511D01*
X178588703Y-60633353D01*
X178617728Y-60569797D01*
X178623760Y-60563319D01*
X178676786Y-60510292D01*
X178676789Y-60510289D01*
X178764394Y-60379179D01*
X178824737Y-60233497D01*
X178855500Y-60078842D01*
X178855500Y-59921158D01*
X178855500Y-59921155D01*
X178855499Y-59921153D01*
X178839790Y-59842181D01*
X178824737Y-59766503D01*
X178778914Y-59655875D01*
X178764397Y-59620827D01*
X178764390Y-59620814D01*
X178676789Y-59489711D01*
X178676786Y-59489707D01*
X178565292Y-59378213D01*
X178565288Y-59378210D01*
X178434185Y-59290609D01*
X178434172Y-59290602D01*
X178288501Y-59230264D01*
X178288491Y-59230261D01*
X178133151Y-59199362D01*
X178071241Y-59166977D01*
X178069662Y-59165426D01*
X177475199Y-58570963D01*
X177465520Y-58553237D01*
X177451807Y-58538407D01*
X177449116Y-58523196D01*
X177441714Y-58509640D01*
X177443154Y-58489492D01*
X177439637Y-58469605D01*
X177445596Y-58455356D01*
X177446698Y-58439948D01*
X177458802Y-58423778D01*
X177466595Y-58405146D01*
X177484581Y-58389342D01*
X177488570Y-58384015D01*
X177492509Y-58381184D01*
X177495086Y-58379407D01*
X177590850Y-58320340D01*
X177613175Y-58298014D01*
X177622482Y-58291600D01*
X177645355Y-58284074D01*
X177666489Y-58272533D01*
X177677943Y-58273351D01*
X177688851Y-58269763D01*
X177712160Y-58275797D01*
X177736181Y-58277514D01*
X177747910Y-58285051D01*
X177756491Y-58287273D01*
X177763994Y-58295388D01*
X177780534Y-58306017D01*
X177794461Y-58319944D01*
X177794465Y-58319947D01*
X177941188Y-58410448D01*
X177941199Y-58410453D01*
X178104847Y-58464680D01*
X178205851Y-58474999D01*
X178805000Y-58474999D01*
X178904140Y-58474999D01*
X178904154Y-58474998D01*
X179005152Y-58464680D01*
X179168800Y-58410453D01*
X179168811Y-58410448D01*
X179315534Y-58319947D01*
X179315538Y-58319944D01*
X179437444Y-58198038D01*
X179437447Y-58198034D01*
X179527948Y-58051311D01*
X179527953Y-58051300D01*
X179582180Y-57887652D01*
X179592499Y-57786654D01*
X179592500Y-57786641D01*
X179592500Y-57750000D01*
X178805000Y-57750000D01*
X178805000Y-58474999D01*
X178205851Y-58474999D01*
X178305000Y-58474998D01*
X178305000Y-56524999D01*
X178205860Y-56525000D01*
X178205844Y-56525001D01*
X178104847Y-56535319D01*
X177941199Y-56589546D01*
X177941194Y-56589548D01*
X177844597Y-56649131D01*
X177777205Y-56667571D01*
X177710541Y-56646649D01*
X177665771Y-56593007D01*
X177655500Y-56543592D01*
X177655500Y-55601097D01*
X177675185Y-55534058D01*
X177727989Y-55488303D01*
X177797147Y-55478359D01*
X177860703Y-55507384D01*
G37*
%TD.AperFunction*%
%TA.AperFunction,Conductor*%
G36*
X211003032Y-50250648D02*
G01*
X211336929Y-50267052D01*
X211349037Y-50268245D01*
X211452146Y-50283539D01*
X211676699Y-50316849D01*
X211688617Y-50319219D01*
X212009951Y-50399709D01*
X212021588Y-50403240D01*
X212092806Y-50428722D01*
X212333467Y-50514832D01*
X212344688Y-50519479D01*
X212644163Y-50661120D01*
X212654871Y-50666844D01*
X212938988Y-50837137D01*
X212949103Y-50843895D01*
X213115738Y-50967480D01*
X213215170Y-51041224D01*
X213224576Y-51048944D01*
X213470013Y-51271395D01*
X213478604Y-51279986D01*
X213559230Y-51368943D01*
X213701055Y-51525423D01*
X213708775Y-51534829D01*
X213906102Y-51800893D01*
X213912862Y-51811011D01*
X214041776Y-52026092D01*
X214083148Y-52095116D01*
X214088883Y-52105844D01*
X214228008Y-52400000D01*
X214230514Y-52405297D01*
X214235170Y-52416540D01*
X214346759Y-52728411D01*
X214350292Y-52740055D01*
X214430777Y-53061369D01*
X214433151Y-53073305D01*
X214481754Y-53400962D01*
X214482947Y-53413071D01*
X214499351Y-53746966D01*
X214499500Y-53753051D01*
X214499500Y-72996948D01*
X214499351Y-73003033D01*
X214482947Y-73336928D01*
X214481754Y-73349037D01*
X214433151Y-73676694D01*
X214430777Y-73688630D01*
X214350292Y-74009944D01*
X214346759Y-74021588D01*
X214235170Y-74333459D01*
X214230514Y-74344702D01*
X214088885Y-74644151D01*
X214083148Y-74654883D01*
X213912862Y-74938988D01*
X213906102Y-74949106D01*
X213708775Y-75215170D01*
X213701055Y-75224576D01*
X213478611Y-75470006D01*
X213470006Y-75478611D01*
X213224576Y-75701055D01*
X213215170Y-75708775D01*
X212949106Y-75906102D01*
X212938988Y-75912862D01*
X212654883Y-76083148D01*
X212644151Y-76088885D01*
X212344702Y-76230514D01*
X212333459Y-76235170D01*
X212021588Y-76346759D01*
X212009944Y-76350292D01*
X211688630Y-76430777D01*
X211676694Y-76433151D01*
X211349037Y-76481754D01*
X211336928Y-76482947D01*
X211021989Y-76498419D01*
X211003031Y-76499351D01*
X210996949Y-76499500D01*
X171503051Y-76499500D01*
X171496968Y-76499351D01*
X171476900Y-76498365D01*
X171163071Y-76482947D01*
X171150962Y-76481754D01*
X170823305Y-76433151D01*
X170811369Y-76430777D01*
X170490055Y-76350292D01*
X170478411Y-76346759D01*
X170166540Y-76235170D01*
X170155301Y-76230515D01*
X169855844Y-76088883D01*
X169845121Y-76083150D01*
X169561011Y-75912862D01*
X169550893Y-75906102D01*
X169284829Y-75708775D01*
X169275423Y-75701055D01*
X169236475Y-75665755D01*
X169029986Y-75478604D01*
X169021395Y-75470013D01*
X168798944Y-75224576D01*
X168791224Y-75215170D01*
X168669849Y-75051515D01*
X168593895Y-74949103D01*
X168587137Y-74938988D01*
X168556428Y-74887753D01*
X168416844Y-74654871D01*
X168411120Y-74644163D01*
X168269479Y-74344688D01*
X168264829Y-74333459D01*
X168218944Y-74205220D01*
X168153240Y-74021588D01*
X168149707Y-74009944D01*
X168134312Y-73948484D01*
X168069219Y-73688617D01*
X168066848Y-73676694D01*
X168054425Y-73592947D01*
X168018245Y-73349037D01*
X168017052Y-73336927D01*
X168014901Y-73293152D01*
X168000649Y-73003032D01*
X168000500Y-72996948D01*
X168000500Y-72897648D01*
X170199500Y-72897648D01*
X170199500Y-73102351D01*
X170231522Y-73304534D01*
X170294781Y-73499223D01*
X170358691Y-73624653D01*
X170386719Y-73679660D01*
X170387715Y-73681613D01*
X170508028Y-73847213D01*
X170652786Y-73991971D01*
X170807749Y-74104556D01*
X170818390Y-74112287D01*
X170934607Y-74171503D01*
X171000776Y-74205218D01*
X171000778Y-74205218D01*
X171000781Y-74205220D01*
X171105137Y-74239127D01*
X171195465Y-74268477D01*
X171296557Y-74284488D01*
X171397648Y-74300500D01*
X171397649Y-74300500D01*
X171602351Y-74300500D01*
X171602352Y-74300500D01*
X171804534Y-74268477D01*
X171999219Y-74205220D01*
X172181610Y-74112287D01*
X172274590Y-74044732D01*
X172347213Y-73991971D01*
X172347215Y-73991968D01*
X172347219Y-73991966D01*
X172491966Y-73847219D01*
X172491968Y-73847215D01*
X172491971Y-73847213D01*
X172600487Y-73697851D01*
X172612287Y-73681610D01*
X172705220Y-73499219D01*
X172768477Y-73304534D01*
X172800500Y-73102352D01*
X172800500Y-72897648D01*
X172768477Y-72695466D01*
X172705220Y-72500781D01*
X172705218Y-72500778D01*
X172705218Y-72500776D01*
X172671503Y-72434607D01*
X172612287Y-72318390D01*
X172604556Y-72307749D01*
X172491971Y-72152786D01*
X172347213Y-72008028D01*
X172181613Y-71887715D01*
X172181612Y-71887714D01*
X172181610Y-71887713D01*
X172124653Y-71858691D01*
X171999223Y-71794781D01*
X171804534Y-71731522D01*
X171629995Y-71703878D01*
X171602352Y-71699500D01*
X171397648Y-71699500D01*
X171373329Y-71703351D01*
X171195465Y-71731522D01*
X171000776Y-71794781D01*
X170818386Y-71887715D01*
X170652786Y-72008028D01*
X170508028Y-72152786D01*
X170387715Y-72318386D01*
X170294781Y-72500776D01*
X170231522Y-72695465D01*
X170199500Y-72897648D01*
X168000500Y-72897648D01*
X168000500Y-53753051D01*
X168000649Y-53746967D01*
X168001605Y-53727511D01*
X168005528Y-53647648D01*
X170199500Y-53647648D01*
X170199500Y-53852351D01*
X170231522Y-54054534D01*
X170294781Y-54249223D01*
X170387715Y-54431613D01*
X170508028Y-54597213D01*
X170652786Y-54741971D01*
X170807749Y-54854556D01*
X170818390Y-54862287D01*
X170934607Y-54921503D01*
X171000776Y-54955218D01*
X171000778Y-54955218D01*
X171000781Y-54955220D01*
X171105137Y-54989127D01*
X171195465Y-55018477D01*
X171296557Y-55034488D01*
X171397648Y-55050500D01*
X171397649Y-55050500D01*
X171602351Y-55050500D01*
X171602352Y-55050500D01*
X171804534Y-55018477D01*
X171999219Y-54955220D01*
X172181610Y-54862287D01*
X172309356Y-54769475D01*
X172347213Y-54741971D01*
X172347215Y-54741968D01*
X172347219Y-54741966D01*
X172491966Y-54597219D01*
X172491968Y-54597215D01*
X172491971Y-54597213D01*
X172564805Y-54496964D01*
X172612287Y-54431610D01*
X172705220Y-54249219D01*
X172768477Y-54054534D01*
X172800500Y-53852352D01*
X172800500Y-53647648D01*
X172779315Y-53513894D01*
X172768477Y-53445465D01*
X172705218Y-53250776D01*
X172659987Y-53162007D01*
X172612287Y-53068390D01*
X172604556Y-53057749D01*
X172491971Y-52902786D01*
X172347213Y-52758028D01*
X172181613Y-52637715D01*
X172181612Y-52637714D01*
X172181610Y-52637713D01*
X172124653Y-52608691D01*
X171999223Y-52544781D01*
X171804534Y-52481522D01*
X171618837Y-52452111D01*
X171602352Y-52449500D01*
X171397648Y-52449500D01*
X171381163Y-52452111D01*
X171195465Y-52481522D01*
X171000776Y-52544781D01*
X170818386Y-52637715D01*
X170652786Y-52758028D01*
X170508028Y-52902786D01*
X170387715Y-53068386D01*
X170294781Y-53250776D01*
X170231522Y-53445465D01*
X170199500Y-53647648D01*
X168005528Y-53647648D01*
X168017052Y-53413066D01*
X168018245Y-53400962D01*
X168051400Y-53177447D01*
X168066849Y-53073296D01*
X168069218Y-53061385D01*
X168149710Y-52740043D01*
X168153240Y-52728411D01*
X168178596Y-52657546D01*
X168264835Y-52416525D01*
X168269476Y-52405318D01*
X168404448Y-52119943D01*
X175203499Y-52119943D01*
X175203499Y-52119945D01*
X175203499Y-52288046D01*
X175203500Y-52288059D01*
X175203500Y-54021943D01*
X175203500Y-54180057D01*
X175204009Y-54181954D01*
X175244423Y-54332783D01*
X175244426Y-54332790D01*
X175323475Y-54469709D01*
X175323479Y-54469714D01*
X175323480Y-54469716D01*
X175435284Y-54581520D01*
X175435286Y-54581521D01*
X175435290Y-54581524D01*
X175518934Y-54629815D01*
X175572216Y-54660577D01*
X175724943Y-54701500D01*
X176330500Y-54701500D01*
X176397539Y-54721185D01*
X176443294Y-54773989D01*
X176454500Y-54825500D01*
X176454500Y-56420514D01*
X176434815Y-56487553D01*
X176382011Y-56533308D01*
X176369505Y-56538220D01*
X176215984Y-56589092D01*
X176215981Y-56589093D01*
X176069148Y-56679661D01*
X175947161Y-56801648D01*
X175856593Y-56948481D01*
X175856592Y-56948484D01*
X175802326Y-57112247D01*
X175802326Y-57112248D01*
X175802325Y-57112248D01*
X175792000Y-57213315D01*
X175792000Y-57786669D01*
X175792001Y-57786687D01*
X175802325Y-57887752D01*
X175838609Y-57997249D01*
X175856592Y-58051516D01*
X175947160Y-58198350D01*
X176069150Y-58320340D01*
X176170596Y-58382912D01*
X176177419Y-58390498D01*
X176186703Y-58394738D01*
X176200391Y-58416038D01*
X176217321Y-58434860D01*
X176219965Y-58446495D01*
X176224477Y-58453516D01*
X176229500Y-58488451D01*
X176229500Y-58688330D01*
X176229499Y-58688348D01*
X176229499Y-58864046D01*
X176229500Y-58864059D01*
X176229500Y-60761548D01*
X176209815Y-60828587D01*
X176170597Y-60867086D01*
X176069153Y-60929657D01*
X176069149Y-60929660D01*
X175947161Y-61051648D01*
X175856593Y-61198481D01*
X175856591Y-61198486D01*
X175838226Y-61253909D01*
X175802326Y-61362247D01*
X175802326Y-61362248D01*
X175802325Y-61362248D01*
X175792000Y-61463315D01*
X175792000Y-62036669D01*
X175792001Y-62036687D01*
X175802325Y-62137752D01*
X175813395Y-62171158D01*
X175856520Y-62301300D01*
X175856592Y-62301515D01*
X175856593Y-62301518D01*
X175890895Y-62357129D01*
X175947160Y-62448350D01*
X176069150Y-62570340D01*
X176170596Y-62632912D01*
X176217321Y-62684860D01*
X176229500Y-62738451D01*
X176229500Y-65011548D01*
X176209815Y-65078587D01*
X176170597Y-65117086D01*
X176069153Y-65179657D01*
X176069149Y-65179660D01*
X175947161Y-65301648D01*
X175856593Y-65448481D01*
X175856591Y-65448486D01*
X175844942Y-65483641D01*
X175802326Y-65612247D01*
X175802326Y-65612248D01*
X175802325Y-65612248D01*
X175792000Y-65713315D01*
X175792000Y-66286669D01*
X175792001Y-66286687D01*
X175802325Y-66387752D01*
X175808584Y-66406639D01*
X175856592Y-66551516D01*
X175947160Y-66698350D01*
X176069150Y-66820340D01*
X176070598Y-66821233D01*
X176071382Y-66822104D01*
X176074817Y-66824821D01*
X176074352Y-66825407D01*
X176117321Y-66873180D01*
X176129500Y-66926771D01*
X176129500Y-69292388D01*
X176109815Y-69359427D01*
X176070598Y-69397926D01*
X176019150Y-69429659D01*
X175897161Y-69551648D01*
X175806593Y-69698481D01*
X175806591Y-69698486D01*
X175779219Y-69781088D01*
X175752326Y-69862247D01*
X175752326Y-69862248D01*
X175752325Y-69862248D01*
X175742000Y-69963315D01*
X175742000Y-70536669D01*
X175742001Y-70536687D01*
X175752325Y-70637752D01*
X175806592Y-70801515D01*
X175806593Y-70801518D01*
X175838364Y-70853027D01*
X175897160Y-70948350D01*
X176019150Y-71070340D01*
X176070597Y-71102072D01*
X176117321Y-71154017D01*
X176129500Y-71207610D01*
X176129500Y-73592947D01*
X176109815Y-73659986D01*
X176093182Y-73680628D01*
X175972159Y-73801651D01*
X175881593Y-73948481D01*
X175881592Y-73948484D01*
X175827326Y-74112247D01*
X175827326Y-74112248D01*
X175827325Y-74112248D01*
X175817000Y-74213315D01*
X175817000Y-74786669D01*
X175817001Y-74786687D01*
X175827325Y-74887752D01*
X175881592Y-75051515D01*
X175881593Y-75051518D01*
X175899210Y-75080080D01*
X175972160Y-75198350D01*
X176094150Y-75320340D01*
X176240984Y-75410908D01*
X176404747Y-75465174D01*
X176505823Y-75475500D01*
X177104176Y-75475499D01*
X177104184Y-75475498D01*
X177104187Y-75475498D01*
X177159530Y-75469844D01*
X177205253Y-75465174D01*
X177369016Y-75410908D01*
X177515850Y-75320340D01*
X177629819Y-75206371D01*
X177691142Y-75172886D01*
X177760834Y-75177870D01*
X177805181Y-75206371D01*
X177919150Y-75320340D01*
X178065984Y-75410908D01*
X178229747Y-75465174D01*
X178330823Y-75475500D01*
X178929176Y-75475499D01*
X178929184Y-75475498D01*
X178929187Y-75475498D01*
X178984530Y-75469844D01*
X179030253Y-75465174D01*
X179194016Y-75410908D01*
X179340850Y-75320340D01*
X179462840Y-75198350D01*
X179553408Y-75051516D01*
X179607674Y-74887753D01*
X179618000Y-74786677D01*
X179617999Y-74213324D01*
X179607674Y-74112247D01*
X179553408Y-73948484D01*
X179462840Y-73801650D01*
X179420364Y-73759174D01*
X179386879Y-73697851D01*
X179391863Y-73628159D01*
X179420364Y-73583812D01*
X180106528Y-72897648D01*
X209699500Y-72897648D01*
X209699500Y-73102351D01*
X209731522Y-73304534D01*
X209794781Y-73499223D01*
X209858691Y-73624653D01*
X209886719Y-73679660D01*
X209887715Y-73681613D01*
X210008028Y-73847213D01*
X210152786Y-73991971D01*
X210307749Y-74104556D01*
X210318390Y-74112287D01*
X210434607Y-74171503D01*
X210500776Y-74205218D01*
X210500778Y-74205218D01*
X210500781Y-74205220D01*
X210605137Y-74239127D01*
X210695465Y-74268477D01*
X210796557Y-74284488D01*
X210897648Y-74300500D01*
X210897649Y-74300500D01*
X211102351Y-74300500D01*
X211102352Y-74300500D01*
X211304534Y-74268477D01*
X211499219Y-74205220D01*
X211681610Y-74112287D01*
X211774590Y-74044732D01*
X211847213Y-73991971D01*
X211847215Y-73991968D01*
X211847219Y-73991966D01*
X211991966Y-73847219D01*
X211991968Y-73847215D01*
X211991971Y-73847213D01*
X212100487Y-73697851D01*
X212112287Y-73681610D01*
X212205220Y-73499219D01*
X212268477Y-73304534D01*
X212300500Y-73102352D01*
X212300500Y-72897648D01*
X212268477Y-72695466D01*
X212205220Y-72500781D01*
X212205218Y-72500778D01*
X212205218Y-72500776D01*
X212171503Y-72434607D01*
X212112287Y-72318390D01*
X212104556Y-72307749D01*
X211991971Y-72152786D01*
X211847213Y-72008028D01*
X211681613Y-71887715D01*
X211681612Y-71887714D01*
X211681610Y-71887713D01*
X211624653Y-71858691D01*
X211499223Y-71794781D01*
X211304534Y-71731522D01*
X211129995Y-71703878D01*
X211102352Y-71699500D01*
X210897648Y-71699500D01*
X210873329Y-71703351D01*
X210695465Y-71731522D01*
X210500776Y-71794781D01*
X210318386Y-71887715D01*
X210152786Y-72008028D01*
X210008028Y-72152786D01*
X209887715Y-72318386D01*
X209794781Y-72500776D01*
X209731522Y-72695465D01*
X209699500Y-72897648D01*
X180106528Y-72897648D01*
X180199081Y-72805095D01*
X181219291Y-71784885D01*
X182287821Y-70716354D01*
X182349142Y-70682871D01*
X182418834Y-70687855D01*
X182474767Y-70729727D01*
X182499184Y-70795191D01*
X182499500Y-70804035D01*
X182499500Y-70853027D01*
X182499501Y-70853034D01*
X182510113Y-70972415D01*
X182566089Y-71168045D01*
X182566090Y-71168048D01*
X182566091Y-71168049D01*
X182660302Y-71348407D01*
X182660304Y-71348409D01*
X182788890Y-71506109D01*
X182882803Y-71582684D01*
X182946593Y-71634698D01*
X183126951Y-71728909D01*
X183126953Y-71728909D01*
X183126954Y-71728910D01*
X183146355Y-71734461D01*
X183322582Y-71784886D01*
X183441963Y-71795500D01*
X185558036Y-71795499D01*
X185677418Y-71784886D01*
X185873049Y-71728909D01*
X186053407Y-71634698D01*
X186211109Y-71506109D01*
X186339698Y-71348407D01*
X186433909Y-71168049D01*
X186489886Y-70972418D01*
X186500500Y-70853037D01*
X186500499Y-69736964D01*
X186489886Y-69617582D01*
X186433909Y-69421951D01*
X186339698Y-69241593D01*
X186226983Y-69103359D01*
X186199875Y-69038965D01*
X186211884Y-68970135D01*
X186226981Y-68946642D01*
X186339698Y-68808407D01*
X186433909Y-68628049D01*
X186489886Y-68432418D01*
X186500500Y-68313037D01*
X186500499Y-67196964D01*
X186489886Y-67077582D01*
X186433909Y-66881951D01*
X186339698Y-66701593D01*
X186226983Y-66563359D01*
X186199875Y-66498965D01*
X186211884Y-66430135D01*
X186226981Y-66406642D01*
X186339698Y-66268407D01*
X186433909Y-66088049D01*
X186489886Y-65892418D01*
X186500500Y-65773037D01*
X186500499Y-64656964D01*
X186489886Y-64537582D01*
X186433909Y-64341951D01*
X186339698Y-64161593D01*
X186226983Y-64023359D01*
X186199875Y-63958965D01*
X186211884Y-63890135D01*
X186226981Y-63866642D01*
X186339698Y-63728407D01*
X186433909Y-63548049D01*
X186489886Y-63352418D01*
X186500500Y-63233037D01*
X186500499Y-62116964D01*
X186489886Y-61997582D01*
X186440499Y-61824983D01*
X186849500Y-61824983D01*
X186849500Y-61824996D01*
X186849501Y-62724998D01*
X186849501Y-62725019D01*
X186860000Y-62827796D01*
X186860001Y-62827799D01*
X186915185Y-62994331D01*
X186915187Y-62994336D01*
X186930855Y-63019738D01*
X187007288Y-63143656D01*
X187131344Y-63267712D01*
X187280666Y-63359814D01*
X187447203Y-63414999D01*
X187549991Y-63425500D01*
X189450008Y-63425499D01*
X189552797Y-63414999D01*
X189719334Y-63359814D01*
X189868656Y-63267712D01*
X189992712Y-63143656D01*
X190084814Y-62994334D01*
X190104311Y-62935493D01*
X190144084Y-62878051D01*
X190208600Y-62851228D01*
X190222017Y-62850500D01*
X191225234Y-62850500D01*
X191292273Y-62870185D01*
X191294125Y-62871398D01*
X191425814Y-62959390D01*
X191425827Y-62959397D01*
X191571498Y-63019735D01*
X191571503Y-63019737D01*
X191726153Y-63050499D01*
X191726156Y-63050500D01*
X191726158Y-63050500D01*
X191883844Y-63050500D01*
X191883845Y-63050499D01*
X192038497Y-63019737D01*
X192184179Y-62959394D01*
X192315289Y-62871789D01*
X192426789Y-62760289D01*
X192514394Y-62629179D01*
X192574737Y-62483497D01*
X192605500Y-62328842D01*
X192605500Y-62171158D01*
X192601500Y-62151048D01*
X192601500Y-62151045D01*
X192578750Y-62036677D01*
X192574737Y-62016503D01*
X192567901Y-62000000D01*
X192514397Y-61870827D01*
X192514390Y-61870814D01*
X192426789Y-61739711D01*
X192426786Y-61739707D01*
X192412062Y-61724983D01*
X192849500Y-61724983D01*
X192849500Y-64825001D01*
X192849501Y-64825018D01*
X192860000Y-64927796D01*
X192860001Y-64927799D01*
X192915185Y-65094331D01*
X192915187Y-65094336D01*
X192929219Y-65117086D01*
X193007288Y-65243656D01*
X193131344Y-65367712D01*
X193280666Y-65459814D01*
X193447203Y-65514999D01*
X193549991Y-65525500D01*
X196650008Y-65525499D01*
X196752797Y-65514999D01*
X196919334Y-65459814D01*
X197068656Y-65367712D01*
X197192712Y-65243656D01*
X197284814Y-65094334D01*
X197339999Y-64927797D01*
X197350500Y-64825009D01*
X197350499Y-61724992D01*
X197339999Y-61622203D01*
X197284814Y-61455666D01*
X197192712Y-61306344D01*
X197068656Y-61182288D01*
X196925719Y-61094124D01*
X196919336Y-61090187D01*
X196919331Y-61090185D01*
X196917862Y-61089698D01*
X196752797Y-61035001D01*
X196752795Y-61035000D01*
X196650010Y-61024500D01*
X193549998Y-61024500D01*
X193549981Y-61024501D01*
X193447203Y-61035000D01*
X193447200Y-61035001D01*
X193280668Y-61090185D01*
X193280663Y-61090187D01*
X193131342Y-61182289D01*
X193007289Y-61306342D01*
X192915187Y-61455663D01*
X192915185Y-61455668D01*
X192912648Y-61463324D01*
X192860001Y-61622203D01*
X192860001Y-61622204D01*
X192860000Y-61622204D01*
X192849500Y-61724983D01*
X192412062Y-61724983D01*
X192315292Y-61628213D01*
X192315288Y-61628210D01*
X192184185Y-61540609D01*
X192184172Y-61540602D01*
X192038501Y-61480264D01*
X192038489Y-61480261D01*
X191883845Y-61449500D01*
X191883842Y-61449500D01*
X191726158Y-61449500D01*
X191726155Y-61449500D01*
X191571510Y-61480261D01*
X191571498Y-61480264D01*
X191425827Y-61540602D01*
X191425814Y-61540609D01*
X191294125Y-61628602D01*
X191227447Y-61649480D01*
X191225234Y-61649500D01*
X190205449Y-61649500D01*
X190138410Y-61629815D01*
X190098829Y-61588810D01*
X190091968Y-61577256D01*
X190084814Y-61555666D01*
X189992712Y-61406344D01*
X189987221Y-61400853D01*
X189979532Y-61387904D01*
X189972845Y-61361745D01*
X189962745Y-61336707D01*
X189964322Y-61328402D01*
X189962229Y-61320211D01*
X189970748Y-61294585D01*
X189975787Y-61268065D01*
X189983613Y-61255887D01*
X189984271Y-61253909D01*
X189985544Y-61252881D01*
X189988886Y-61247683D01*
X189992314Y-61243346D01*
X190084356Y-61094124D01*
X190084358Y-61094119D01*
X190139505Y-60927697D01*
X190139506Y-60927690D01*
X190149999Y-60824986D01*
X190150000Y-60824973D01*
X190150000Y-60625000D01*
X186850001Y-60625000D01*
X186850001Y-60824986D01*
X186860494Y-60927697D01*
X186915641Y-61094119D01*
X186915643Y-61094124D01*
X187007684Y-61243346D01*
X187011114Y-61247683D01*
X187037254Y-61312479D01*
X187024213Y-61381121D01*
X187011126Y-61401487D01*
X187007297Y-61406330D01*
X187007290Y-61406342D01*
X187007288Y-61406344D01*
X186980669Y-61449500D01*
X186915187Y-61555663D01*
X186915186Y-61555666D01*
X186860001Y-61722203D01*
X186860001Y-61722204D01*
X186860000Y-61722204D01*
X186849500Y-61824983D01*
X186440499Y-61824983D01*
X186433909Y-61801951D01*
X186339698Y-61621593D01*
X186226983Y-61483359D01*
X186199875Y-61418965D01*
X186211884Y-61350135D01*
X186226981Y-61326642D01*
X186339698Y-61188407D01*
X186433909Y-61008049D01*
X186489886Y-60812418D01*
X186500500Y-60693037D01*
X186500499Y-59925013D01*
X186850000Y-59925013D01*
X186850000Y-60125000D01*
X188250000Y-60125000D01*
X188750000Y-60125000D01*
X190149999Y-60125000D01*
X190149999Y-59925028D01*
X190149998Y-59925013D01*
X190139505Y-59822302D01*
X190084358Y-59655880D01*
X190084356Y-59655875D01*
X189992315Y-59506654D01*
X189868345Y-59382684D01*
X189719124Y-59290643D01*
X189719119Y-59290641D01*
X189552697Y-59235494D01*
X189552690Y-59235493D01*
X189449986Y-59225000D01*
X188750000Y-59225000D01*
X188750000Y-60125000D01*
X188250000Y-60125000D01*
X188250000Y-59225000D01*
X187550028Y-59225000D01*
X187550012Y-59225001D01*
X187447302Y-59235494D01*
X187280880Y-59290641D01*
X187280875Y-59290643D01*
X187131654Y-59382684D01*
X187007684Y-59506654D01*
X186915643Y-59655875D01*
X186915641Y-59655880D01*
X186860494Y-59822302D01*
X186860493Y-59822309D01*
X186850000Y-59925013D01*
X186500499Y-59925013D01*
X186500499Y-59576964D01*
X186489886Y-59457582D01*
X186433909Y-59261951D01*
X186339698Y-59081593D01*
X186226983Y-58943359D01*
X186199875Y-58878965D01*
X186211884Y-58810135D01*
X186226981Y-58786642D01*
X186339698Y-58648407D01*
X186433909Y-58468049D01*
X186489886Y-58272418D01*
X186500500Y-58153037D01*
X186500499Y-57036964D01*
X186489886Y-56917582D01*
X186439138Y-56740227D01*
X186433910Y-56721954D01*
X186433909Y-56721953D01*
X186433909Y-56721951D01*
X186341189Y-56544448D01*
X190579500Y-56544448D01*
X190579500Y-56725551D01*
X190607829Y-56904410D01*
X190663787Y-57076636D01*
X190663788Y-57076639D01*
X190719664Y-57186300D01*
X190733433Y-57213323D01*
X190746006Y-57237997D01*
X190852441Y-57384494D01*
X190852445Y-57384499D01*
X190980500Y-57512554D01*
X190980505Y-57512558D01*
X191108287Y-57605396D01*
X191127006Y-57618996D01*
X191232484Y-57672740D01*
X191288360Y-57701211D01*
X191288363Y-57701212D01*
X191374476Y-57729191D01*
X191460591Y-57757171D01*
X191533639Y-57768740D01*
X191620678Y-57782527D01*
X191683813Y-57812456D01*
X191720744Y-57871768D01*
X191719746Y-57941631D01*
X191681136Y-57999863D01*
X191620678Y-58027473D01*
X191460589Y-58052829D01*
X191288363Y-58108787D01*
X191288360Y-58108788D01*
X191127002Y-58191006D01*
X190980505Y-58297441D01*
X190980500Y-58297445D01*
X190852445Y-58425500D01*
X190852441Y-58425505D01*
X190746006Y-58572002D01*
X190663788Y-58733360D01*
X190663787Y-58733363D01*
X190607829Y-58905589D01*
X190579500Y-59084448D01*
X190579500Y-59265551D01*
X190607829Y-59444410D01*
X190663787Y-59616636D01*
X190663788Y-59616639D01*
X190683783Y-59655880D01*
X190746003Y-59777993D01*
X190746006Y-59777997D01*
X190852441Y-59924494D01*
X190852445Y-59924499D01*
X190980500Y-60052554D01*
X190980505Y-60052558D01*
X191016688Y-60078846D01*
X191127006Y-60158996D01*
X191232484Y-60212740D01*
X191288360Y-60241211D01*
X191288363Y-60241212D01*
X191374476Y-60269191D01*
X191460591Y-60297171D01*
X191543429Y-60310291D01*
X191639449Y-60325500D01*
X191639454Y-60325500D01*
X191820551Y-60325500D01*
X191907259Y-60311765D01*
X191999409Y-60297171D01*
X192171639Y-60241211D01*
X192332994Y-60158996D01*
X192479501Y-60052553D01*
X192607553Y-59924501D01*
X192713996Y-59777994D01*
X192796211Y-59616639D01*
X192852171Y-59444409D01*
X192866422Y-59354425D01*
X192877527Y-59284321D01*
X192907456Y-59221186D01*
X192966768Y-59184255D01*
X193036630Y-59185253D01*
X193094863Y-59223863D01*
X193122473Y-59284321D01*
X193147829Y-59444410D01*
X193203787Y-59616636D01*
X193203788Y-59616639D01*
X193223783Y-59655880D01*
X193286003Y-59777993D01*
X193286006Y-59777997D01*
X193392441Y-59924494D01*
X193392445Y-59924499D01*
X193520500Y-60052554D01*
X193520505Y-60052558D01*
X193556688Y-60078846D01*
X193667006Y-60158996D01*
X193772484Y-60212740D01*
X193828360Y-60241211D01*
X193828363Y-60241212D01*
X193914476Y-60269191D01*
X194000591Y-60297171D01*
X194083429Y-60310291D01*
X194179449Y-60325500D01*
X194179454Y-60325500D01*
X194360551Y-60325500D01*
X194447259Y-60311765D01*
X194539409Y-60297171D01*
X194711639Y-60241211D01*
X194872994Y-60158996D01*
X195019501Y-60052553D01*
X195147553Y-59924501D01*
X195149985Y-59921153D01*
X197254500Y-59921153D01*
X197254500Y-60078846D01*
X197285261Y-60233489D01*
X197285264Y-60233501D01*
X197345602Y-60379172D01*
X197345609Y-60379185D01*
X197433210Y-60510288D01*
X197433213Y-60510292D01*
X197544707Y-60621786D01*
X197544711Y-60621789D01*
X197675814Y-60709390D01*
X197675827Y-60709397D01*
X197786371Y-60755185D01*
X197821503Y-60769737D01*
X197976153Y-60800499D01*
X197976156Y-60800500D01*
X197976158Y-60800500D01*
X198133844Y-60800500D01*
X198133845Y-60800499D01*
X198288497Y-60769737D01*
X198348366Y-60744938D01*
X198395817Y-60735500D01*
X199394610Y-60735500D01*
X199461649Y-60755185D01*
X199507404Y-60807989D01*
X199513823Y-60825382D01*
X199533928Y-60895644D01*
X199566089Y-61008045D01*
X199566090Y-61008048D01*
X199566091Y-61008049D01*
X199660302Y-61188407D01*
X199668685Y-61198688D01*
X199773015Y-61326639D01*
X199800124Y-61391036D01*
X199788115Y-61459865D01*
X199773015Y-61483361D01*
X199714057Y-61555668D01*
X199660302Y-61621593D01*
X199655501Y-61630785D01*
X199566089Y-61801954D01*
X199510114Y-61997583D01*
X199510113Y-61997586D01*
X199499500Y-62116966D01*
X199499500Y-63233028D01*
X199499501Y-63233034D01*
X199510113Y-63352415D01*
X199566089Y-63548045D01*
X199566090Y-63548048D01*
X199566091Y-63548049D01*
X199660302Y-63728407D01*
X199660304Y-63728409D01*
X199773015Y-63866639D01*
X199800124Y-63931036D01*
X199788115Y-63999865D01*
X199773015Y-64023361D01*
X199660304Y-64161590D01*
X199566089Y-64341954D01*
X199510114Y-64537583D01*
X199510113Y-64537586D01*
X199499500Y-64656966D01*
X199499500Y-65773028D01*
X199499501Y-65773034D01*
X199510113Y-65892415D01*
X199566089Y-66088045D01*
X199566090Y-66088048D01*
X199566091Y-66088049D01*
X199660302Y-66268407D01*
X199721438Y-66343385D01*
X199773015Y-66406639D01*
X199800124Y-66471036D01*
X199788115Y-66539865D01*
X199773015Y-66563361D01*
X199660304Y-66701590D01*
X199566089Y-66881954D01*
X199510114Y-67077583D01*
X199510113Y-67077586D01*
X199499500Y-67196966D01*
X199499500Y-68313028D01*
X199499501Y-68313034D01*
X199510113Y-68432415D01*
X199566089Y-68628045D01*
X199566090Y-68628048D01*
X199566091Y-68628049D01*
X199660302Y-68808407D01*
X199721438Y-68883385D01*
X199773015Y-68946639D01*
X199800124Y-69011036D01*
X199788115Y-69079865D01*
X199773015Y-69103361D01*
X199660302Y-69241593D01*
X199637720Y-69284825D01*
X199566089Y-69421954D01*
X199510114Y-69617583D01*
X199510113Y-69617586D01*
X199499500Y-69736966D01*
X199499500Y-70853028D01*
X199499501Y-70853034D01*
X199510113Y-70972415D01*
X199566089Y-71168045D01*
X199566090Y-71168048D01*
X199566091Y-71168049D01*
X199660302Y-71348407D01*
X199660304Y-71348409D01*
X199788890Y-71506109D01*
X199882803Y-71582684D01*
X199946593Y-71634698D01*
X200126951Y-71728909D01*
X200126953Y-71728909D01*
X200126954Y-71728910D01*
X200146355Y-71734461D01*
X200322582Y-71784886D01*
X200441963Y-71795500D01*
X202558036Y-71795499D01*
X202677418Y-71784886D01*
X202873049Y-71728909D01*
X203053407Y-71634698D01*
X203211109Y-71506109D01*
X203339698Y-71348407D01*
X203433909Y-71168049D01*
X203489886Y-70972418D01*
X203500500Y-70853037D01*
X203500499Y-69736964D01*
X203489886Y-69617582D01*
X203433909Y-69421951D01*
X203339698Y-69241593D01*
X203226983Y-69103359D01*
X203199875Y-69038965D01*
X203211884Y-68970135D01*
X203226981Y-68946642D01*
X203339698Y-68808407D01*
X203433909Y-68628049D01*
X203489886Y-68432418D01*
X203500500Y-68313037D01*
X203500499Y-67196964D01*
X203489886Y-67077582D01*
X203433909Y-66881951D01*
X203339698Y-66701593D01*
X203226983Y-66563359D01*
X203199875Y-66498965D01*
X203211884Y-66430135D01*
X203226981Y-66406642D01*
X203339698Y-66268407D01*
X203433909Y-66088049D01*
X203489886Y-65892418D01*
X203500500Y-65773037D01*
X203500499Y-64656964D01*
X203489886Y-64537582D01*
X203433909Y-64341951D01*
X203339698Y-64161593D01*
X203226983Y-64023359D01*
X203199875Y-63958965D01*
X203211884Y-63890135D01*
X203226981Y-63866642D01*
X203339698Y-63728407D01*
X203433909Y-63548049D01*
X203489886Y-63352418D01*
X203500500Y-63233037D01*
X203500499Y-62116964D01*
X203489886Y-61997582D01*
X203440499Y-61824983D01*
X206899500Y-61824983D01*
X206899500Y-63175001D01*
X206899501Y-63175018D01*
X206910000Y-63277796D01*
X206910001Y-63277799D01*
X206955465Y-63414998D01*
X206965186Y-63444334D01*
X207057288Y-63593656D01*
X207181344Y-63717712D01*
X207330666Y-63809814D01*
X207497203Y-63864999D01*
X207599991Y-63875500D01*
X208400008Y-63875499D01*
X208400016Y-63875498D01*
X208400019Y-63875498D01*
X208486742Y-63866639D01*
X208502797Y-63864999D01*
X208669334Y-63809814D01*
X208818656Y-63717712D01*
X208942712Y-63593656D01*
X208982581Y-63529016D01*
X209034525Y-63482294D01*
X209103488Y-63471071D01*
X209167570Y-63498914D01*
X209175799Y-63506434D01*
X209283397Y-63614032D01*
X209423475Y-63715804D01*
X209577744Y-63794408D01*
X209742415Y-63847914D01*
X209742414Y-63847914D01*
X209749999Y-63849115D01*
X209750000Y-63849114D01*
X209750000Y-62780330D01*
X209769745Y-62800075D01*
X209855255Y-62849444D01*
X209950630Y-62875000D01*
X210049370Y-62875000D01*
X210144745Y-62849444D01*
X210230255Y-62800075D01*
X210250000Y-62780330D01*
X210250000Y-63849115D01*
X210257584Y-63847914D01*
X210422255Y-63794408D01*
X210576524Y-63715804D01*
X210716602Y-63614032D01*
X210839032Y-63491602D01*
X210940804Y-63351524D01*
X211019408Y-63197257D01*
X211072914Y-63032584D01*
X211100000Y-62861571D01*
X211100000Y-62750000D01*
X210280330Y-62750000D01*
X210300075Y-62730255D01*
X210349444Y-62644745D01*
X210375000Y-62549370D01*
X210375000Y-62450630D01*
X210349444Y-62355255D01*
X210300075Y-62269745D01*
X210280330Y-62250000D01*
X211100000Y-62250000D01*
X211100000Y-62138428D01*
X211072914Y-61967415D01*
X211019408Y-61802742D01*
X210940804Y-61648475D01*
X210839032Y-61508397D01*
X210716602Y-61385967D01*
X210576524Y-61284195D01*
X210422257Y-61205591D01*
X210257589Y-61152087D01*
X210257581Y-61152085D01*
X210250000Y-61150884D01*
X210250000Y-62219670D01*
X210230255Y-62199925D01*
X210144745Y-62150556D01*
X210049370Y-62125000D01*
X209950630Y-62125000D01*
X209855255Y-62150556D01*
X209769745Y-62199925D01*
X209750000Y-62219670D01*
X209750000Y-61150884D01*
X209749999Y-61150884D01*
X209742418Y-61152085D01*
X209742410Y-61152087D01*
X209577742Y-61205591D01*
X209423475Y-61284195D01*
X209283401Y-61385964D01*
X209175799Y-61493566D01*
X209114476Y-61527050D01*
X209044784Y-61522066D01*
X208988851Y-61480194D01*
X208982585Y-61470988D01*
X208942712Y-61406344D01*
X208818656Y-61282288D01*
X208682791Y-61198486D01*
X208669336Y-61190187D01*
X208669331Y-61190185D01*
X208645499Y-61182288D01*
X208502797Y-61135001D01*
X208502795Y-61135000D01*
X208400010Y-61124500D01*
X207599998Y-61124500D01*
X207599980Y-61124501D01*
X207497203Y-61135000D01*
X207497200Y-61135001D01*
X207330668Y-61190185D01*
X207330663Y-61190187D01*
X207181342Y-61282289D01*
X207057289Y-61406342D01*
X206965187Y-61555663D01*
X206965186Y-61555666D01*
X206910001Y-61722203D01*
X206910001Y-61722204D01*
X206910000Y-61722204D01*
X206899500Y-61824983D01*
X203440499Y-61824983D01*
X203433909Y-61801951D01*
X203339698Y-61621593D01*
X203226983Y-61483359D01*
X203199875Y-61418965D01*
X203211884Y-61350135D01*
X203226981Y-61326642D01*
X203339698Y-61188407D01*
X203433909Y-61008049D01*
X203489886Y-60812418D01*
X203500500Y-60693037D01*
X203500499Y-59576964D01*
X203489886Y-59457582D01*
X203433909Y-59261951D01*
X203339698Y-59081593D01*
X203226983Y-58943359D01*
X203199875Y-58878965D01*
X203211884Y-58810135D01*
X203226981Y-58786642D01*
X203339698Y-58648407D01*
X203433909Y-58468049D01*
X203489886Y-58272418D01*
X203500500Y-58153037D01*
X203500499Y-57036964D01*
X203489886Y-56917582D01*
X203439138Y-56740227D01*
X203433910Y-56721954D01*
X203433909Y-56721953D01*
X203433909Y-56721951D01*
X203339698Y-56541593D01*
X203226983Y-56403359D01*
X203199875Y-56338965D01*
X203211884Y-56270135D01*
X203226981Y-56246642D01*
X203339698Y-56108407D01*
X203433909Y-55928049D01*
X203489886Y-55732418D01*
X203500500Y-55613037D01*
X203500499Y-54496964D01*
X203489886Y-54377582D01*
X203433909Y-54181951D01*
X203339698Y-54001593D01*
X203262871Y-53907372D01*
X203211109Y-53843890D01*
X203082321Y-53738878D01*
X203053408Y-53715303D01*
X203053407Y-53715302D01*
X202923890Y-53647648D01*
X209699500Y-53647648D01*
X209699500Y-53852351D01*
X209731522Y-54054534D01*
X209794781Y-54249223D01*
X209887715Y-54431613D01*
X210008028Y-54597213D01*
X210152786Y-54741971D01*
X210307749Y-54854556D01*
X210318390Y-54862287D01*
X210434607Y-54921503D01*
X210500776Y-54955218D01*
X210500778Y-54955218D01*
X210500781Y-54955220D01*
X210605137Y-54989127D01*
X210695465Y-55018477D01*
X210796557Y-55034488D01*
X210897648Y-55050500D01*
X210897649Y-55050500D01*
X211102351Y-55050500D01*
X211102352Y-55050500D01*
X211304534Y-55018477D01*
X211499219Y-54955220D01*
X211681610Y-54862287D01*
X211809356Y-54769475D01*
X211847213Y-54741971D01*
X211847215Y-54741968D01*
X211847219Y-54741966D01*
X211991966Y-54597219D01*
X211991968Y-54597215D01*
X211991971Y-54597213D01*
X212064805Y-54496964D01*
X212112287Y-54431610D01*
X212205220Y-54249219D01*
X212268477Y-54054534D01*
X212300500Y-53852352D01*
X212300500Y-53647648D01*
X212279315Y-53513894D01*
X212268477Y-53445465D01*
X212205218Y-53250776D01*
X212159987Y-53162007D01*
X212112287Y-53068390D01*
X212104556Y-53057749D01*
X211991971Y-52902786D01*
X211847213Y-52758028D01*
X211681613Y-52637715D01*
X211681612Y-52637714D01*
X211681610Y-52637713D01*
X211624653Y-52608691D01*
X211499223Y-52544781D01*
X211304534Y-52481522D01*
X211118837Y-52452111D01*
X211102352Y-52449500D01*
X210897648Y-52449500D01*
X210881163Y-52452111D01*
X210695465Y-52481522D01*
X210500776Y-52544781D01*
X210318386Y-52637715D01*
X210152786Y-52758028D01*
X210008028Y-52902786D01*
X209887715Y-53068386D01*
X209794781Y-53250776D01*
X209731522Y-53445465D01*
X209699500Y-53647648D01*
X202923890Y-53647648D01*
X202873049Y-53621091D01*
X202873048Y-53621090D01*
X202873045Y-53621089D01*
X202755829Y-53587550D01*
X202677418Y-53565114D01*
X202677415Y-53565113D01*
X202677413Y-53565113D01*
X202611102Y-53559217D01*
X202558037Y-53554500D01*
X202558032Y-53554500D01*
X200441971Y-53554500D01*
X200441965Y-53554500D01*
X200441964Y-53554501D01*
X200430316Y-53555536D01*
X200322584Y-53565113D01*
X200126954Y-53621089D01*
X200076110Y-53647648D01*
X199946593Y-53715302D01*
X199946591Y-53715303D01*
X199946590Y-53715304D01*
X199788890Y-53843890D01*
X199660304Y-54001590D01*
X199660302Y-54001593D01*
X199632648Y-54054534D01*
X199566089Y-54181954D01*
X199510114Y-54377583D01*
X199510113Y-54377586D01*
X199509264Y-54387139D01*
X199501923Y-54469716D01*
X199499500Y-54496966D01*
X199499500Y-55613028D01*
X199499501Y-55613034D01*
X199510113Y-55732415D01*
X199566089Y-55928045D01*
X199566090Y-55928048D01*
X199566091Y-55928049D01*
X199660302Y-56108407D01*
X199660304Y-56108409D01*
X199773015Y-56246639D01*
X199800124Y-56311036D01*
X199788115Y-56379865D01*
X199773015Y-56403361D01*
X199665418Y-56535319D01*
X199660302Y-56541593D01*
X199633446Y-56593007D01*
X199566089Y-56721954D01*
X199510114Y-56917583D01*
X199510113Y-56917586D01*
X199499500Y-57036966D01*
X199499500Y-58153028D01*
X199499501Y-58153034D01*
X199510113Y-58272415D01*
X199566089Y-58468045D01*
X199566090Y-58468048D01*
X199566091Y-58468049D01*
X199660302Y-58648407D01*
X199721438Y-58723385D01*
X199773015Y-58786639D01*
X199800124Y-58851036D01*
X199788115Y-58919865D01*
X199773015Y-58943361D01*
X199660302Y-59081593D01*
X199616867Y-59164746D01*
X199566089Y-59261954D01*
X199532825Y-59378210D01*
X199513825Y-59444612D01*
X199476459Y-59503649D01*
X199413105Y-59533113D01*
X199394610Y-59534500D01*
X198772194Y-59534500D01*
X198705155Y-59514815D01*
X198681425Y-59493689D01*
X198681097Y-59494018D01*
X198565292Y-59378213D01*
X198565288Y-59378210D01*
X198434185Y-59290609D01*
X198434172Y-59290602D01*
X198288501Y-59230264D01*
X198288489Y-59230261D01*
X198133845Y-59199500D01*
X198133842Y-59199500D01*
X197976158Y-59199500D01*
X197976155Y-59199500D01*
X197821510Y-59230261D01*
X197821498Y-59230264D01*
X197675827Y-59290602D01*
X197675814Y-59290609D01*
X197544711Y-59378210D01*
X197544707Y-59378213D01*
X197433213Y-59489707D01*
X197433210Y-59489711D01*
X197345609Y-59620814D01*
X197345602Y-59620827D01*
X197285264Y-59766498D01*
X197285261Y-59766510D01*
X197254500Y-59921153D01*
X195149985Y-59921153D01*
X195156069Y-59912778D01*
X195207360Y-59842184D01*
X195207362Y-59842181D01*
X195222144Y-59821833D01*
X195253996Y-59777994D01*
X195336211Y-59616639D01*
X195392171Y-59444409D01*
X195406765Y-59352259D01*
X195420500Y-59265551D01*
X195420500Y-59084448D01*
X195395069Y-58923891D01*
X195392171Y-58905591D01*
X195336211Y-58733361D01*
X195336211Y-58733360D01*
X195307740Y-58677484D01*
X195253996Y-58572006D01*
X195208685Y-58509640D01*
X195147558Y-58425505D01*
X195147554Y-58425500D01*
X195019499Y-58297445D01*
X195019494Y-58297441D01*
X194872997Y-58191006D01*
X194872996Y-58191005D01*
X194872994Y-58191004D01*
X194798478Y-58153036D01*
X194711639Y-58108788D01*
X194711636Y-58108787D01*
X194539410Y-58052829D01*
X194379321Y-58027473D01*
X194316186Y-57997544D01*
X194279255Y-57938232D01*
X194280253Y-57868370D01*
X194318863Y-57810137D01*
X194379321Y-57782527D01*
X194449425Y-57771422D01*
X194539409Y-57757171D01*
X194711639Y-57701211D01*
X194872994Y-57618996D01*
X195019501Y-57512553D01*
X195147553Y-57384501D01*
X195253996Y-57237994D01*
X195336211Y-57076639D01*
X195392171Y-56904409D01*
X195413542Y-56769478D01*
X195420500Y-56725551D01*
X195420500Y-56544448D01*
X195395069Y-56383891D01*
X195392171Y-56365591D01*
X195336211Y-56193361D01*
X195336211Y-56193360D01*
X195307740Y-56137484D01*
X195253996Y-56032006D01*
X195240396Y-56013287D01*
X195147558Y-55885505D01*
X195147554Y-55885500D01*
X195019499Y-55757445D01*
X195019494Y-55757441D01*
X194872997Y-55651006D01*
X194872996Y-55651005D01*
X194872994Y-55651004D01*
X194798478Y-55613036D01*
X194711639Y-55568788D01*
X194711636Y-55568787D01*
X194539410Y-55512829D01*
X194360551Y-55484500D01*
X194360546Y-55484500D01*
X194179454Y-55484500D01*
X194179449Y-55484500D01*
X194000589Y-55512829D01*
X193828363Y-55568787D01*
X193828360Y-55568788D01*
X193667002Y-55651006D01*
X193520505Y-55757441D01*
X193520500Y-55757445D01*
X193392445Y-55885500D01*
X193392441Y-55885505D01*
X193286006Y-56032002D01*
X193203788Y-56193360D01*
X193203787Y-56193363D01*
X193147829Y-56365589D01*
X193122473Y-56525678D01*
X193092544Y-56588813D01*
X193033232Y-56625744D01*
X192963369Y-56624746D01*
X192905137Y-56586136D01*
X192877527Y-56525678D01*
X192855069Y-56383891D01*
X192852171Y-56365591D01*
X192796211Y-56193361D01*
X192796211Y-56193360D01*
X192767740Y-56137484D01*
X192713996Y-56032006D01*
X192700396Y-56013287D01*
X192607558Y-55885505D01*
X192607554Y-55885500D01*
X192479499Y-55757445D01*
X192479494Y-55757441D01*
X192332997Y-55651006D01*
X192332996Y-55651005D01*
X192332994Y-55651004D01*
X192258478Y-55613036D01*
X192171639Y-55568788D01*
X192171636Y-55568787D01*
X191999410Y-55512829D01*
X191820551Y-55484500D01*
X191820546Y-55484500D01*
X191639454Y-55484500D01*
X191639449Y-55484500D01*
X191460589Y-55512829D01*
X191288363Y-55568787D01*
X191288360Y-55568788D01*
X191127002Y-55651006D01*
X190980505Y-55757441D01*
X190980500Y-55757445D01*
X190852445Y-55885500D01*
X190852441Y-55885505D01*
X190746006Y-56032002D01*
X190663788Y-56193360D01*
X190663787Y-56193363D01*
X190607829Y-56365589D01*
X190579500Y-56544448D01*
X186341189Y-56544448D01*
X186339698Y-56541593D01*
X186226983Y-56403359D01*
X186199875Y-56338965D01*
X186211884Y-56270135D01*
X186226981Y-56246642D01*
X186339698Y-56108407D01*
X186433909Y-55928049D01*
X186489886Y-55732418D01*
X186500500Y-55613037D01*
X186500499Y-54496964D01*
X186489886Y-54377582D01*
X186433909Y-54181951D01*
X186343469Y-54008813D01*
X186339699Y-54001595D01*
X186339698Y-54001593D01*
X186309410Y-53964448D01*
X190579500Y-53964448D01*
X190579500Y-54145551D01*
X190607829Y-54324410D01*
X190663787Y-54496636D01*
X190663788Y-54496639D01*
X190707037Y-54581518D01*
X190723170Y-54613181D01*
X190746006Y-54657997D01*
X190852441Y-54804494D01*
X190852445Y-54804499D01*
X190980500Y-54932554D01*
X190980505Y-54932558D01*
X191098764Y-55018477D01*
X191127006Y-55038996D01*
X191232484Y-55092740D01*
X191288360Y-55121211D01*
X191288363Y-55121212D01*
X191374476Y-55149191D01*
X191460591Y-55177171D01*
X191543429Y-55190291D01*
X191639449Y-55205500D01*
X191639454Y-55205500D01*
X191820551Y-55205500D01*
X191907259Y-55191765D01*
X191999409Y-55177171D01*
X192171639Y-55121211D01*
X192332994Y-55038996D01*
X192479501Y-54932553D01*
X192607553Y-54804501D01*
X192713996Y-54657994D01*
X192796211Y-54496639D01*
X192852171Y-54324409D01*
X192874734Y-54181954D01*
X192877527Y-54164321D01*
X192907456Y-54101186D01*
X192966768Y-54064255D01*
X193036630Y-54065253D01*
X193094863Y-54103863D01*
X193122473Y-54164321D01*
X193147829Y-54324410D01*
X193203787Y-54496636D01*
X193203788Y-54496639D01*
X193247037Y-54581518D01*
X193263170Y-54613181D01*
X193286006Y-54657997D01*
X193392441Y-54804494D01*
X193392445Y-54804499D01*
X193520500Y-54932554D01*
X193520505Y-54932558D01*
X193638764Y-55018477D01*
X193667006Y-55038996D01*
X193772484Y-55092740D01*
X193828360Y-55121211D01*
X193828363Y-55121212D01*
X193914476Y-55149191D01*
X194000591Y-55177171D01*
X194083429Y-55190291D01*
X194179449Y-55205500D01*
X194179454Y-55205500D01*
X194360551Y-55205500D01*
X194447259Y-55191765D01*
X194539409Y-55177171D01*
X194711639Y-55121211D01*
X194872994Y-55038996D01*
X195019501Y-54932553D01*
X195147553Y-54804501D01*
X195253996Y-54657994D01*
X195336211Y-54496639D01*
X195392171Y-54324409D01*
X195415034Y-54180057D01*
X195420500Y-54145551D01*
X195420500Y-53964448D01*
X195401405Y-53843891D01*
X195392171Y-53785591D01*
X195350830Y-53658353D01*
X195336212Y-53613363D01*
X195336211Y-53613360D01*
X195300019Y-53542331D01*
X195253996Y-53452006D01*
X195221648Y-53407483D01*
X195147558Y-53305505D01*
X195147554Y-53305500D01*
X195019499Y-53177445D01*
X195019494Y-53177441D01*
X194872997Y-53071006D01*
X194872996Y-53071005D01*
X194872994Y-53071004D01*
X194821300Y-53044664D01*
X194711639Y-52988788D01*
X194711636Y-52988787D01*
X194539410Y-52932829D01*
X194360551Y-52904500D01*
X194360546Y-52904500D01*
X194179454Y-52904500D01*
X194179449Y-52904500D01*
X194000589Y-52932829D01*
X193828363Y-52988787D01*
X193828360Y-52988788D01*
X193667002Y-53071006D01*
X193520505Y-53177441D01*
X193520500Y-53177445D01*
X193392445Y-53305500D01*
X193392441Y-53305505D01*
X193286006Y-53452002D01*
X193203788Y-53613360D01*
X193203787Y-53613363D01*
X193147829Y-53785589D01*
X193122473Y-53945678D01*
X193092544Y-54008813D01*
X193033232Y-54045744D01*
X192963369Y-54044746D01*
X192905137Y-54006136D01*
X192877527Y-53945678D01*
X192861405Y-53843891D01*
X192852171Y-53785591D01*
X192810830Y-53658353D01*
X192796212Y-53613363D01*
X192796211Y-53613360D01*
X192760019Y-53542331D01*
X192713996Y-53452006D01*
X192681648Y-53407483D01*
X192607558Y-53305505D01*
X192607554Y-53305500D01*
X192479499Y-53177445D01*
X192479494Y-53177441D01*
X192332997Y-53071006D01*
X192332996Y-53071005D01*
X192332994Y-53071004D01*
X192281300Y-53044664D01*
X192171639Y-52988788D01*
X192171636Y-52988787D01*
X191999410Y-52932829D01*
X191820551Y-52904500D01*
X191820546Y-52904500D01*
X191639454Y-52904500D01*
X191639449Y-52904500D01*
X191460589Y-52932829D01*
X191288363Y-52988787D01*
X191288360Y-52988788D01*
X191127002Y-53071006D01*
X190980505Y-53177441D01*
X190980500Y-53177445D01*
X190852445Y-53305500D01*
X190852441Y-53305505D01*
X190746006Y-53452002D01*
X190663788Y-53613360D01*
X190663787Y-53613363D01*
X190607829Y-53785589D01*
X190579500Y-53964448D01*
X186309410Y-53964448D01*
X186262871Y-53907372D01*
X186211109Y-53843890D01*
X186053409Y-53715304D01*
X186053410Y-53715304D01*
X186053407Y-53715302D01*
X185873049Y-53621091D01*
X185873048Y-53621090D01*
X185873045Y-53621089D01*
X185755829Y-53587550D01*
X185677418Y-53565114D01*
X185677415Y-53565113D01*
X185677413Y-53565113D01*
X185611102Y-53559217D01*
X185558037Y-53554500D01*
X185558032Y-53554500D01*
X183441971Y-53554500D01*
X183441965Y-53554500D01*
X183441964Y-53554501D01*
X183430316Y-53555536D01*
X183322584Y-53565113D01*
X183126954Y-53621089D01*
X183076110Y-53647648D01*
X182946593Y-53715302D01*
X182946591Y-53715303D01*
X182946590Y-53715304D01*
X182788890Y-53843890D01*
X182660304Y-54001590D01*
X182660302Y-54001593D01*
X182632648Y-54054534D01*
X182566089Y-54181954D01*
X182510114Y-54377583D01*
X182510113Y-54377586D01*
X182509264Y-54387139D01*
X182501923Y-54469716D01*
X182499500Y-54496966D01*
X182499500Y-55613028D01*
X182499501Y-55613034D01*
X182510113Y-55732415D01*
X182566089Y-55928045D01*
X182566090Y-55928048D01*
X182566091Y-55928049D01*
X182660302Y-56108407D01*
X182660304Y-56108409D01*
X182773015Y-56246639D01*
X182800124Y-56311036D01*
X182788115Y-56379865D01*
X182773015Y-56403361D01*
X182665418Y-56535319D01*
X182660302Y-56541593D01*
X182579114Y-56697020D01*
X182530627Y-56747327D01*
X182462639Y-56763434D01*
X182396736Y-56740227D01*
X182381524Y-56727289D01*
X180542590Y-54888355D01*
X180542588Y-54888352D01*
X180423717Y-54769481D01*
X180423709Y-54769475D01*
X180305973Y-54701501D01*
X180305970Y-54701500D01*
X180305968Y-54701499D01*
X180286785Y-54690423D01*
X180134057Y-54649499D01*
X179975943Y-54649499D01*
X179968347Y-54649499D01*
X179968331Y-54649500D01*
X179605097Y-54649500D01*
X179538058Y-54629815D01*
X179517416Y-54613181D01*
X179291374Y-54387139D01*
X179257889Y-54325816D01*
X179262873Y-54256124D01*
X179304745Y-54200191D01*
X179362189Y-54157188D01*
X179362190Y-54157187D01*
X179448350Y-54042093D01*
X179448354Y-54042086D01*
X179498596Y-53907379D01*
X179498598Y-53907372D01*
X179504999Y-53847844D01*
X179505000Y-53847827D01*
X179505000Y-53800000D01*
X179503627Y-53800000D01*
X179490703Y-53796205D01*
X179477267Y-53797166D01*
X179457830Y-53786552D01*
X179436588Y-53780315D01*
X179427768Y-53770136D01*
X179415944Y-53763680D01*
X179405330Y-53744241D01*
X179390833Y-53727511D01*
X179388916Y-53714180D01*
X179382460Y-53702356D01*
X179384040Y-53680268D01*
X179380889Y-53658353D01*
X179386593Y-53644581D01*
X179387446Y-53632665D01*
X179404361Y-53601688D01*
X179443289Y-53549688D01*
X179491105Y-53513894D01*
X179505000Y-53500000D01*
X179505000Y-53452182D01*
X179504999Y-53452164D01*
X179501068Y-53415602D01*
X179501068Y-53389094D01*
X179505500Y-53347873D01*
X179505499Y-52952128D01*
X179505499Y-52952127D01*
X179505498Y-52952111D01*
X179501320Y-52913253D01*
X179501320Y-52886747D01*
X179505500Y-52847873D01*
X179505499Y-52452128D01*
X179505498Y-52452111D01*
X179501320Y-52413253D01*
X179501320Y-52386747D01*
X179505500Y-52347873D01*
X179505499Y-51952128D01*
X179499091Y-51892517D01*
X179494243Y-51879520D01*
X179448797Y-51757671D01*
X179448793Y-51757664D01*
X179362547Y-51642455D01*
X179362544Y-51642452D01*
X179247335Y-51556206D01*
X179247328Y-51556202D01*
X179112482Y-51505908D01*
X179112483Y-51505908D01*
X179052883Y-51499501D01*
X179052881Y-51499500D01*
X179052873Y-51499500D01*
X179052865Y-51499500D01*
X178779500Y-51499500D01*
X178778044Y-51499072D01*
X178776578Y-51499466D01*
X178744628Y-51489260D01*
X178712461Y-51479815D01*
X178711467Y-51478667D01*
X178710021Y-51478206D01*
X178688655Y-51452342D01*
X178666706Y-51427011D01*
X178666178Y-51425132D01*
X178665523Y-51424339D01*
X178664349Y-51418623D01*
X178656380Y-51390249D01*
X178655500Y-51382904D01*
X178655500Y-51368943D01*
X178654769Y-51366216D01*
X178644534Y-51328019D01*
X178614577Y-51216216D01*
X178614573Y-51216209D01*
X178535524Y-51079290D01*
X178535518Y-51079282D01*
X178374717Y-50918481D01*
X178374716Y-50918480D01*
X178287904Y-50868360D01*
X178287904Y-50868359D01*
X178287900Y-50868358D01*
X178237785Y-50839423D01*
X178085057Y-50798499D01*
X177926943Y-50798499D01*
X177919347Y-50798499D01*
X177919331Y-50798500D01*
X176524940Y-50798500D01*
X176484019Y-50809464D01*
X176484019Y-50809465D01*
X176446751Y-50819451D01*
X176372214Y-50839423D01*
X176372209Y-50839426D01*
X176235290Y-50918475D01*
X176235282Y-50918481D01*
X175924479Y-51229284D01*
X175901981Y-51268253D01*
X175897809Y-51275480D01*
X175845423Y-51366215D01*
X175814526Y-51481522D01*
X175811524Y-51488843D01*
X175794440Y-51510197D01*
X175780205Y-51533551D01*
X175772305Y-51537864D01*
X175767876Y-51543401D01*
X175752975Y-51548419D01*
X175728891Y-51561570D01*
X175621220Y-51590421D01*
X175621209Y-51590426D01*
X175484290Y-51669475D01*
X175484282Y-51669481D01*
X175323479Y-51830284D01*
X175303499Y-51864891D01*
X175295054Y-51879520D01*
X175244423Y-51967215D01*
X175203499Y-52119943D01*
X168404448Y-52119943D01*
X168411124Y-52105828D01*
X168416840Y-52095136D01*
X168587145Y-51810998D01*
X168593888Y-51800905D01*
X168791232Y-51534818D01*
X168798935Y-51525433D01*
X169021405Y-51279975D01*
X169029975Y-51271405D01*
X169275433Y-51048935D01*
X169284818Y-51041232D01*
X169550905Y-50843888D01*
X169560998Y-50837145D01*
X169845136Y-50666840D01*
X169855828Y-50661124D01*
X170155318Y-50519476D01*
X170166525Y-50514835D01*
X170478412Y-50403239D01*
X170490043Y-50399710D01*
X170811385Y-50319218D01*
X170823296Y-50316849D01*
X171150962Y-50268244D01*
X171163068Y-50267052D01*
X171496967Y-50250648D01*
X171503051Y-50250500D01*
X171565892Y-50250500D01*
X210934108Y-50250500D01*
X210996949Y-50250500D01*
X211003032Y-50250648D01*
G37*
%TD.AperFunction*%
%TD*%
M02*
