%TF.GenerationSoftware,KiCad,Pcbnew,9.0.6*%
%TF.CreationDate,2026-02-18T14:12:51-08:00*%
%TF.ProjectId,514-Schematic,3531342d-5363-4686-956d-617469632e6b,rev?*%
%TF.SameCoordinates,Original*%
%TF.FileFunction,Legend,Top*%
%TF.FilePolarity,Positive*%
%FSLAX46Y46*%
G04 Gerber Fmt 4.6, Leading zero omitted, Abs format (unit mm)*
G04 Created by KiCad (PCBNEW 9.0.6) date 2026-02-18 14:12:51*
%MOMM*%
%LPD*%
G01*
G04 APERTURE LIST*
%ADD10C,0.150000*%
%ADD11C,0.254000*%
%ADD12C,0.120000*%
%ADD13C,0.100000*%
G04 APERTURE END LIST*
D10*
X199238095Y-50129819D02*
X199238095Y-50939342D01*
X199238095Y-50939342D02*
X199285714Y-51034580D01*
X199285714Y-51034580D02*
X199333333Y-51082200D01*
X199333333Y-51082200D02*
X199428571Y-51129819D01*
X199428571Y-51129819D02*
X199619047Y-51129819D01*
X199619047Y-51129819D02*
X199714285Y-51082200D01*
X199714285Y-51082200D02*
X199761904Y-51034580D01*
X199761904Y-51034580D02*
X199809523Y-50939342D01*
X199809523Y-50939342D02*
X199809523Y-50129819D01*
X200761904Y-50129819D02*
X200285714Y-50129819D01*
X200285714Y-50129819D02*
X200238095Y-50606009D01*
X200238095Y-50606009D02*
X200285714Y-50558390D01*
X200285714Y-50558390D02*
X200380952Y-50510771D01*
X200380952Y-50510771D02*
X200619047Y-50510771D01*
X200619047Y-50510771D02*
X200714285Y-50558390D01*
X200714285Y-50558390D02*
X200761904Y-50606009D01*
X200761904Y-50606009D02*
X200809523Y-50701247D01*
X200809523Y-50701247D02*
X200809523Y-50939342D01*
X200809523Y-50939342D02*
X200761904Y-51034580D01*
X200761904Y-51034580D02*
X200714285Y-51082200D01*
X200714285Y-51082200D02*
X200619047Y-51129819D01*
X200619047Y-51129819D02*
X200380952Y-51129819D01*
X200380952Y-51129819D02*
X200285714Y-51082200D01*
X200285714Y-51082200D02*
X200238095Y-51034580D01*
X177550833Y-76384819D02*
X177217500Y-75908628D01*
X176979405Y-76384819D02*
X176979405Y-75384819D01*
X176979405Y-75384819D02*
X177360357Y-75384819D01*
X177360357Y-75384819D02*
X177455595Y-75432438D01*
X177455595Y-75432438D02*
X177503214Y-75480057D01*
X177503214Y-75480057D02*
X177550833Y-75575295D01*
X177550833Y-75575295D02*
X177550833Y-75718152D01*
X177550833Y-75718152D02*
X177503214Y-75813390D01*
X177503214Y-75813390D02*
X177455595Y-75861009D01*
X177455595Y-75861009D02*
X177360357Y-75908628D01*
X177360357Y-75908628D02*
X176979405Y-75908628D01*
X177884167Y-75384819D02*
X178503214Y-75384819D01*
X178503214Y-75384819D02*
X178169881Y-75765771D01*
X178169881Y-75765771D02*
X178312738Y-75765771D01*
X178312738Y-75765771D02*
X178407976Y-75813390D01*
X178407976Y-75813390D02*
X178455595Y-75861009D01*
X178455595Y-75861009D02*
X178503214Y-75956247D01*
X178503214Y-75956247D02*
X178503214Y-76194342D01*
X178503214Y-76194342D02*
X178455595Y-76289580D01*
X178455595Y-76289580D02*
X178407976Y-76337200D01*
X178407976Y-76337200D02*
X178312738Y-76384819D01*
X178312738Y-76384819D02*
X178027024Y-76384819D01*
X178027024Y-76384819D02*
X177931786Y-76337200D01*
X177931786Y-76337200D02*
X177884167Y-76289580D01*
D11*
X176540237Y-53474318D02*
X176540237Y-52204318D01*
X177870714Y-53353365D02*
X177810238Y-53413842D01*
X177810238Y-53413842D02*
X177628809Y-53474318D01*
X177628809Y-53474318D02*
X177507857Y-53474318D01*
X177507857Y-53474318D02*
X177326428Y-53413842D01*
X177326428Y-53413842D02*
X177205476Y-53292889D01*
X177205476Y-53292889D02*
X177144999Y-53171937D01*
X177144999Y-53171937D02*
X177084523Y-52930032D01*
X177084523Y-52930032D02*
X177084523Y-52748603D01*
X177084523Y-52748603D02*
X177144999Y-52506699D01*
X177144999Y-52506699D02*
X177205476Y-52385746D01*
X177205476Y-52385746D02*
X177326428Y-52264794D01*
X177326428Y-52264794D02*
X177507857Y-52204318D01*
X177507857Y-52204318D02*
X177628809Y-52204318D01*
X177628809Y-52204318D02*
X177810238Y-52264794D01*
X177810238Y-52264794D02*
X177870714Y-52325270D01*
X179080238Y-53474318D02*
X178354523Y-53474318D01*
X178717380Y-53474318D02*
X178717380Y-52204318D01*
X178717380Y-52204318D02*
X178596428Y-52385746D01*
X178596428Y-52385746D02*
X178475476Y-52506699D01*
X178475476Y-52506699D02*
X178354523Y-52567175D01*
D10*
X177525833Y-67789580D02*
X177478214Y-67837200D01*
X177478214Y-67837200D02*
X177335357Y-67884819D01*
X177335357Y-67884819D02*
X177240119Y-67884819D01*
X177240119Y-67884819D02*
X177097262Y-67837200D01*
X177097262Y-67837200D02*
X177002024Y-67741961D01*
X177002024Y-67741961D02*
X176954405Y-67646723D01*
X176954405Y-67646723D02*
X176906786Y-67456247D01*
X176906786Y-67456247D02*
X176906786Y-67313390D01*
X176906786Y-67313390D02*
X176954405Y-67122914D01*
X176954405Y-67122914D02*
X177002024Y-67027676D01*
X177002024Y-67027676D02*
X177097262Y-66932438D01*
X177097262Y-66932438D02*
X177240119Y-66884819D01*
X177240119Y-66884819D02*
X177335357Y-66884819D01*
X177335357Y-66884819D02*
X177478214Y-66932438D01*
X177478214Y-66932438D02*
X177525833Y-66980057D01*
X178430595Y-66884819D02*
X177954405Y-66884819D01*
X177954405Y-66884819D02*
X177906786Y-67361009D01*
X177906786Y-67361009D02*
X177954405Y-67313390D01*
X177954405Y-67313390D02*
X178049643Y-67265771D01*
X178049643Y-67265771D02*
X178287738Y-67265771D01*
X178287738Y-67265771D02*
X178382976Y-67313390D01*
X178382976Y-67313390D02*
X178430595Y-67361009D01*
X178430595Y-67361009D02*
X178478214Y-67456247D01*
X178478214Y-67456247D02*
X178478214Y-67694342D01*
X178478214Y-67694342D02*
X178430595Y-67789580D01*
X178430595Y-67789580D02*
X178382976Y-67837200D01*
X178382976Y-67837200D02*
X178287738Y-67884819D01*
X178287738Y-67884819D02*
X178049643Y-67884819D01*
X178049643Y-67884819D02*
X177954405Y-67837200D01*
X177954405Y-67837200D02*
X177906786Y-67789580D01*
X208666666Y-59054819D02*
X208666666Y-59769104D01*
X208666666Y-59769104D02*
X208619047Y-59911961D01*
X208619047Y-59911961D02*
X208523809Y-60007200D01*
X208523809Y-60007200D02*
X208380952Y-60054819D01*
X208380952Y-60054819D02*
X208285714Y-60054819D01*
X209666666Y-60054819D02*
X209095238Y-60054819D01*
X209380952Y-60054819D02*
X209380952Y-59054819D01*
X209380952Y-59054819D02*
X209285714Y-59197676D01*
X209285714Y-59197676D02*
X209190476Y-59292914D01*
X209190476Y-59292914D02*
X209095238Y-59340533D01*
X177475833Y-72134819D02*
X177142500Y-71658628D01*
X176904405Y-72134819D02*
X176904405Y-71134819D01*
X176904405Y-71134819D02*
X177285357Y-71134819D01*
X177285357Y-71134819D02*
X177380595Y-71182438D01*
X177380595Y-71182438D02*
X177428214Y-71230057D01*
X177428214Y-71230057D02*
X177475833Y-71325295D01*
X177475833Y-71325295D02*
X177475833Y-71468152D01*
X177475833Y-71468152D02*
X177428214Y-71563390D01*
X177428214Y-71563390D02*
X177380595Y-71611009D01*
X177380595Y-71611009D02*
X177285357Y-71658628D01*
X177285357Y-71658628D02*
X176904405Y-71658628D01*
X177856786Y-71230057D02*
X177904405Y-71182438D01*
X177904405Y-71182438D02*
X177999643Y-71134819D01*
X177999643Y-71134819D02*
X178237738Y-71134819D01*
X178237738Y-71134819D02*
X178332976Y-71182438D01*
X178332976Y-71182438D02*
X178380595Y-71230057D01*
X178380595Y-71230057D02*
X178428214Y-71325295D01*
X178428214Y-71325295D02*
X178428214Y-71420533D01*
X178428214Y-71420533D02*
X178380595Y-71563390D01*
X178380595Y-71563390D02*
X177809167Y-72134819D01*
X177809167Y-72134819D02*
X178428214Y-72134819D01*
X177525833Y-56429580D02*
X177478214Y-56477200D01*
X177478214Y-56477200D02*
X177335357Y-56524819D01*
X177335357Y-56524819D02*
X177240119Y-56524819D01*
X177240119Y-56524819D02*
X177097262Y-56477200D01*
X177097262Y-56477200D02*
X177002024Y-56381961D01*
X177002024Y-56381961D02*
X176954405Y-56286723D01*
X176954405Y-56286723D02*
X176906786Y-56096247D01*
X176906786Y-56096247D02*
X176906786Y-55953390D01*
X176906786Y-55953390D02*
X176954405Y-55762914D01*
X176954405Y-55762914D02*
X177002024Y-55667676D01*
X177002024Y-55667676D02*
X177097262Y-55572438D01*
X177097262Y-55572438D02*
X177240119Y-55524819D01*
X177240119Y-55524819D02*
X177335357Y-55524819D01*
X177335357Y-55524819D02*
X177478214Y-55572438D01*
X177478214Y-55572438D02*
X177525833Y-55620057D01*
X177859167Y-55524819D02*
X178478214Y-55524819D01*
X178478214Y-55524819D02*
X178144881Y-55905771D01*
X178144881Y-55905771D02*
X178287738Y-55905771D01*
X178287738Y-55905771D02*
X178382976Y-55953390D01*
X178382976Y-55953390D02*
X178430595Y-56001009D01*
X178430595Y-56001009D02*
X178478214Y-56096247D01*
X178478214Y-56096247D02*
X178478214Y-56334342D01*
X178478214Y-56334342D02*
X178430595Y-56429580D01*
X178430595Y-56429580D02*
X178382976Y-56477200D01*
X178382976Y-56477200D02*
X178287738Y-56524819D01*
X178287738Y-56524819D02*
X178002024Y-56524819D01*
X178002024Y-56524819D02*
X177906786Y-56477200D01*
X177906786Y-56477200D02*
X177859167Y-56429580D01*
X177525833Y-60679580D02*
X177478214Y-60727200D01*
X177478214Y-60727200D02*
X177335357Y-60774819D01*
X177335357Y-60774819D02*
X177240119Y-60774819D01*
X177240119Y-60774819D02*
X177097262Y-60727200D01*
X177097262Y-60727200D02*
X177002024Y-60631961D01*
X177002024Y-60631961D02*
X176954405Y-60536723D01*
X176954405Y-60536723D02*
X176906786Y-60346247D01*
X176906786Y-60346247D02*
X176906786Y-60203390D01*
X176906786Y-60203390D02*
X176954405Y-60012914D01*
X176954405Y-60012914D02*
X177002024Y-59917676D01*
X177002024Y-59917676D02*
X177097262Y-59822438D01*
X177097262Y-59822438D02*
X177240119Y-59774819D01*
X177240119Y-59774819D02*
X177335357Y-59774819D01*
X177335357Y-59774819D02*
X177478214Y-59822438D01*
X177478214Y-59822438D02*
X177525833Y-59870057D01*
X178382976Y-60108152D02*
X178382976Y-60774819D01*
X178144881Y-59727200D02*
X177906786Y-60441485D01*
X177906786Y-60441485D02*
X178525833Y-60441485D01*
D12*
%TO.C,U5*%
X186300000Y-73175000D02*
X199700000Y-73175000D01*
X189000000Y-50975000D02*
X197000000Y-50975000D01*
X189000000Y-52175000D02*
X186400000Y-52175000D01*
X189000000Y-52175000D02*
X189000000Y-50975000D01*
X197000000Y-50975000D02*
X197000000Y-52175000D01*
X199600000Y-52175000D02*
X197000000Y-52175000D01*
X184187108Y-53670320D02*
G75*
G02*
X186399532Y-52175001I2135279J-774913D01*
G01*
X186300000Y-73175000D02*
G75*
G02*
X184200000Y-71675000I74105J2323747D01*
G01*
X199600000Y-52175001D02*
G75*
G02*
X201804030Y-53673538I64720J-2274909D01*
G01*
X201800000Y-71675000D02*
G75*
G02*
X199700000Y-73175003I-2174110J823750D01*
G01*
%TO.C,R3*%
X177972224Y-73977500D02*
X177462776Y-73977500D01*
X177972224Y-75022500D02*
X177462776Y-75022500D01*
D13*
%TO.C,IC1*%
X176055000Y-51650000D02*
X176055000Y-51900000D01*
X176055000Y-54150000D02*
X176055000Y-53900000D01*
X176755000Y-51650000D02*
X176055000Y-51650000D01*
X176755000Y-54150000D02*
X176055000Y-54150000D01*
X179055000Y-51650000D02*
X178355000Y-51650000D01*
X179055000Y-51800000D02*
X179055000Y-51650000D01*
X179055000Y-53900000D02*
X179055000Y-54150000D01*
X179055000Y-54150000D02*
X178355000Y-54150000D01*
X179455000Y-53600000D02*
X179455000Y-53600000D01*
X179455000Y-53700000D02*
X179455000Y-53700000D01*
X179455000Y-53600000D02*
G75*
G02*
X179455000Y-53700000I0J-50000D01*
G01*
X179455000Y-53700000D02*
G75*
G02*
X179455000Y-53600000I0J50000D01*
G01*
D12*
%TO.C,C5*%
X177838767Y-65490000D02*
X177546233Y-65490000D01*
X177838767Y-66510000D02*
X177546233Y-66510000D01*
%TO.C,J1*%
X205640000Y-60390000D02*
X205640000Y-61640000D01*
X205940000Y-60690000D02*
X205940000Y-65410000D01*
X205940000Y-62000000D02*
X206550000Y-62000000D01*
X205940000Y-63300000D02*
X206550000Y-63300000D01*
X205940000Y-65410000D02*
X212060000Y-65410000D01*
X206550000Y-61300000D02*
X206550000Y-64800000D01*
X206550000Y-64800000D02*
X211450000Y-64800000D01*
X206890000Y-60390000D02*
X205640000Y-60390000D01*
X207400000Y-60490000D02*
X207400000Y-60690000D01*
X207700000Y-60490000D02*
X207400000Y-60490000D01*
X207700000Y-60590000D02*
X207400000Y-60590000D01*
X207700000Y-60690000D02*
X207700000Y-60490000D01*
X208500000Y-60690000D02*
X208500000Y-61300000D01*
X208500000Y-61300000D02*
X206550000Y-61300000D01*
X208900000Y-64300000D02*
X209100000Y-64300000D01*
X208900000Y-64800000D02*
X208900000Y-64300000D01*
X209000000Y-64800000D02*
X209000000Y-64300000D01*
X209100000Y-64300000D02*
X209100000Y-64800000D01*
X209500000Y-61300000D02*
X209500000Y-60690000D01*
X211450000Y-61300000D02*
X209500000Y-61300000D01*
X211450000Y-64800000D02*
X211450000Y-61300000D01*
X212060000Y-60690000D02*
X205940000Y-60690000D01*
X212060000Y-62000000D02*
X211450000Y-62000000D01*
X212060000Y-63300000D02*
X211450000Y-63300000D01*
X212060000Y-65410000D02*
X212060000Y-60690000D01*
%TO.C,R2*%
X177897224Y-69727500D02*
X177387776Y-69727500D01*
X177897224Y-70772500D02*
X177387776Y-70772500D01*
%TO.C,C3*%
X177546233Y-56990000D02*
X177838767Y-56990000D01*
X177546233Y-58010000D02*
X177838767Y-58010000D01*
%TO.C,C4*%
X177546233Y-61240000D02*
X177838767Y-61240000D01*
X177546233Y-62260000D02*
X177838767Y-62260000D01*
%TD*%
M02*
