%TF.GenerationSoftware,KiCad,Pcbnew,9.0.6*%
%TF.CreationDate,2026-02-18T14:12:51-08:00*%
%TF.ProjectId,514-Schematic,3531342d-5363-4686-956d-617469632e6b,rev?*%
%TF.SameCoordinates,Original*%
%TF.FileFunction,Copper,L2,Bot*%
%TF.FilePolarity,Positive*%
%FSLAX46Y46*%
G04 Gerber Fmt 4.6, Leading zero omitted, Abs format (unit mm)*
G04 Created by KiCad (PCBNEW 9.0.6) date 2026-02-18 14:12:51*
%MOMM*%
%LPD*%
G01*
G04 APERTURE LIST*
G04 Aperture macros list*
%AMRoundRect*
0 Rectangle with rounded corners*
0 $1 Rounding radius*
0 $2 $3 $4 $5 $6 $7 $8 $9 X,Y pos of 4 corners*
0 Add a 4 corners polygon primitive as box body*
4,1,4,$2,$3,$4,$5,$6,$7,$8,$9,$2,$3,0*
0 Add four circle primitives for the rounded corners*
1,1,$1+$1,$2,$3*
1,1,$1+$1,$4,$5*
1,1,$1+$1,$6,$7*
1,1,$1+$1,$8,$9*
0 Add four rect primitives between the rounded corners*
20,1,$1+$1,$2,$3,$4,$5,0*
20,1,$1+$1,$4,$5,$6,$7,0*
20,1,$1+$1,$6,$7,$8,$9,0*
20,1,$1+$1,$8,$9,$2,$3,0*%
G04 Aperture macros list end*
%TA.AperFunction,ComponentPad*%
%ADD10RoundRect,0.250000X-0.350000X-0.625000X0.350000X-0.625000X0.350000X0.625000X-0.350000X0.625000X0*%
%TD*%
%TA.AperFunction,ComponentPad*%
%ADD11O,1.200000X1.750000*%
%TD*%
%TA.AperFunction,ViaPad*%
%ADD12C,0.600000*%
%TD*%
%TA.AperFunction,Conductor*%
%ADD13C,0.200000*%
%TD*%
G04 APERTURE END LIST*
D10*
%TO.P,J1,1,Pin_1*%
%TO.N,Net-(J1-Pin_1)*%
X208000000Y-62500000D03*
D11*
%TO.P,J1,2,Pin_2*%
%TO.N,GND*%
X210000000Y-62500000D03*
%TD*%
D12*
%TO.N,Net-(J1-Pin_1)*%
X191805000Y-62250000D03*
%TO.N,Net-(IC1-AP_CS)*%
X198055000Y-60000000D03*
X178055000Y-60000000D03*
%TO.N,Net-(IC1-AP_SCL_{slash}_AP_SCLK)*%
X182305000Y-68000000D03*
X181305000Y-66250000D03*
%TD*%
D13*
%TO.N,Net-(J1-Pin_1)*%
X191805000Y-62250000D02*
X200805000Y-62250000D01*
X200805000Y-62250000D02*
X202055000Y-61000000D01*
X202055000Y-61000000D02*
X206500000Y-61000000D01*
X206500000Y-61000000D02*
X208000000Y-62500000D01*
%TO.N,Net-(IC1-AP_CS)*%
X178055000Y-60000000D02*
X198055000Y-60000000D01*
%TO.N,Net-(IC1-AP_SCL_{slash}_AP_SCLK)*%
X182305000Y-68000000D02*
X181305000Y-67000000D01*
X181305000Y-67000000D02*
X181305000Y-66250000D01*
%TD*%
%TA.AperFunction,Conductor*%
%TO.N,GND*%
G36*
X211003032Y-50250648D02*
G01*
X211336929Y-50267052D01*
X211349037Y-50268245D01*
X211452146Y-50283539D01*
X211676699Y-50316849D01*
X211688617Y-50319219D01*
X212009951Y-50399709D01*
X212021588Y-50403240D01*
X212092806Y-50428722D01*
X212333467Y-50514832D01*
X212344688Y-50519479D01*
X212644163Y-50661120D01*
X212654871Y-50666844D01*
X212938988Y-50837137D01*
X212949106Y-50843897D01*
X213215170Y-51041224D01*
X213224576Y-51048944D01*
X213470013Y-51271395D01*
X213478604Y-51279986D01*
X213665755Y-51486475D01*
X213701055Y-51525423D01*
X213708775Y-51534829D01*
X213906102Y-51800893D01*
X213912862Y-51811011D01*
X214041776Y-52026092D01*
X214083148Y-52095116D01*
X214088885Y-52105848D01*
X214230514Y-52405297D01*
X214235170Y-52416540D01*
X214346759Y-52728411D01*
X214350292Y-52740055D01*
X214430777Y-53061369D01*
X214433151Y-53073305D01*
X214481754Y-53400962D01*
X214482947Y-53413071D01*
X214499351Y-53746966D01*
X214499500Y-53753051D01*
X214499500Y-72996948D01*
X214499351Y-73003033D01*
X214482947Y-73336928D01*
X214481754Y-73349037D01*
X214433151Y-73676694D01*
X214430777Y-73688630D01*
X214350292Y-74009944D01*
X214346759Y-74021588D01*
X214235170Y-74333459D01*
X214230514Y-74344702D01*
X214088885Y-74644151D01*
X214083148Y-74654883D01*
X213912862Y-74938988D01*
X213906102Y-74949106D01*
X213708775Y-75215170D01*
X213701055Y-75224576D01*
X213478611Y-75470006D01*
X213470006Y-75478611D01*
X213224576Y-75701055D01*
X213215170Y-75708775D01*
X212949106Y-75906102D01*
X212938988Y-75912862D01*
X212654883Y-76083148D01*
X212644151Y-76088885D01*
X212344702Y-76230514D01*
X212333459Y-76235170D01*
X212021588Y-76346759D01*
X212009944Y-76350292D01*
X211688630Y-76430777D01*
X211676694Y-76433151D01*
X211349037Y-76481754D01*
X211336928Y-76482947D01*
X211021989Y-76498419D01*
X211003031Y-76499351D01*
X210996949Y-76499500D01*
X171503051Y-76499500D01*
X171496968Y-76499351D01*
X171476900Y-76498365D01*
X171163071Y-76482947D01*
X171150962Y-76481754D01*
X170823305Y-76433151D01*
X170811369Y-76430777D01*
X170490055Y-76350292D01*
X170478411Y-76346759D01*
X170166540Y-76235170D01*
X170155301Y-76230515D01*
X169855844Y-76088883D01*
X169845121Y-76083150D01*
X169561011Y-75912862D01*
X169550893Y-75906102D01*
X169284829Y-75708775D01*
X169275423Y-75701055D01*
X169236475Y-75665755D01*
X169029986Y-75478604D01*
X169021395Y-75470013D01*
X168798944Y-75224576D01*
X168791224Y-75215170D01*
X168593897Y-74949106D01*
X168587137Y-74938988D01*
X168416844Y-74654871D01*
X168411120Y-74644163D01*
X168269479Y-74344688D01*
X168264829Y-74333459D01*
X168218944Y-74205220D01*
X168153240Y-74021588D01*
X168149707Y-74009944D01*
X168140958Y-73975015D01*
X168069219Y-73688617D01*
X168066848Y-73676694D01*
X168018245Y-73349037D01*
X168017052Y-73336927D01*
X168000649Y-73003032D01*
X168000500Y-72996948D01*
X168000500Y-72897648D01*
X170199500Y-72897648D01*
X170199500Y-73102351D01*
X170231522Y-73304534D01*
X170294781Y-73499223D01*
X170358691Y-73624653D01*
X170385208Y-73676694D01*
X170387715Y-73681613D01*
X170508028Y-73847213D01*
X170652786Y-73991971D01*
X170807749Y-74104556D01*
X170818390Y-74112287D01*
X170934607Y-74171503D01*
X171000776Y-74205218D01*
X171000778Y-74205218D01*
X171000781Y-74205220D01*
X171105137Y-74239127D01*
X171195465Y-74268477D01*
X171296557Y-74284488D01*
X171397648Y-74300500D01*
X171397649Y-74300500D01*
X171602351Y-74300500D01*
X171602352Y-74300500D01*
X171804534Y-74268477D01*
X171999219Y-74205220D01*
X172181610Y-74112287D01*
X172274590Y-74044732D01*
X172347213Y-73991971D01*
X172347215Y-73991968D01*
X172347219Y-73991966D01*
X172491966Y-73847219D01*
X172491968Y-73847215D01*
X172491971Y-73847213D01*
X172544732Y-73774590D01*
X172612287Y-73681610D01*
X172705220Y-73499219D01*
X172768477Y-73304534D01*
X172800500Y-73102352D01*
X172800500Y-72897648D01*
X209699500Y-72897648D01*
X209699500Y-73102351D01*
X209731522Y-73304534D01*
X209794781Y-73499223D01*
X209858691Y-73624653D01*
X209885208Y-73676694D01*
X209887715Y-73681613D01*
X210008028Y-73847213D01*
X210152786Y-73991971D01*
X210307749Y-74104556D01*
X210318390Y-74112287D01*
X210434607Y-74171503D01*
X210500776Y-74205218D01*
X210500778Y-74205218D01*
X210500781Y-74205220D01*
X210605137Y-74239127D01*
X210695465Y-74268477D01*
X210796557Y-74284488D01*
X210897648Y-74300500D01*
X210897649Y-74300500D01*
X211102351Y-74300500D01*
X211102352Y-74300500D01*
X211304534Y-74268477D01*
X211499219Y-74205220D01*
X211681610Y-74112287D01*
X211774590Y-74044732D01*
X211847213Y-73991971D01*
X211847215Y-73991968D01*
X211847219Y-73991966D01*
X211991966Y-73847219D01*
X211991968Y-73847215D01*
X211991971Y-73847213D01*
X212044732Y-73774590D01*
X212112287Y-73681610D01*
X212205220Y-73499219D01*
X212268477Y-73304534D01*
X212300500Y-73102352D01*
X212300500Y-72897648D01*
X212268477Y-72695466D01*
X212205220Y-72500781D01*
X212205218Y-72500778D01*
X212205218Y-72500776D01*
X212171503Y-72434607D01*
X212112287Y-72318390D01*
X212104556Y-72307749D01*
X211991971Y-72152786D01*
X211847213Y-72008028D01*
X211681613Y-71887715D01*
X211681612Y-71887714D01*
X211681610Y-71887713D01*
X211624653Y-71858691D01*
X211499223Y-71794781D01*
X211304534Y-71731522D01*
X211129995Y-71703878D01*
X211102352Y-71699500D01*
X210897648Y-71699500D01*
X210873329Y-71703351D01*
X210695465Y-71731522D01*
X210500776Y-71794781D01*
X210318386Y-71887715D01*
X210152786Y-72008028D01*
X210008028Y-72152786D01*
X209887715Y-72318386D01*
X209794781Y-72500776D01*
X209731522Y-72695465D01*
X209699500Y-72897648D01*
X172800500Y-72897648D01*
X172768477Y-72695466D01*
X172705220Y-72500781D01*
X172705218Y-72500778D01*
X172705218Y-72500776D01*
X172671503Y-72434607D01*
X172612287Y-72318390D01*
X172604556Y-72307749D01*
X172491971Y-72152786D01*
X172347213Y-72008028D01*
X172181613Y-71887715D01*
X172181612Y-71887714D01*
X172181610Y-71887713D01*
X172124653Y-71858691D01*
X171999223Y-71794781D01*
X171804534Y-71731522D01*
X171629995Y-71703878D01*
X171602352Y-71699500D01*
X171397648Y-71699500D01*
X171373329Y-71703351D01*
X171195465Y-71731522D01*
X171000776Y-71794781D01*
X170818386Y-71887715D01*
X170652786Y-72008028D01*
X170508028Y-72152786D01*
X170387715Y-72318386D01*
X170294781Y-72500776D01*
X170231522Y-72695465D01*
X170199500Y-72897648D01*
X168000500Y-72897648D01*
X168000500Y-66171153D01*
X180504500Y-66171153D01*
X180504500Y-66328846D01*
X180535261Y-66483489D01*
X180535264Y-66483501D01*
X180595602Y-66629172D01*
X180595609Y-66629185D01*
X180683602Y-66760874D01*
X180689252Y-66778920D01*
X180699477Y-66794830D01*
X180703928Y-66825789D01*
X180704480Y-66827551D01*
X180704500Y-66829765D01*
X180704500Y-66913330D01*
X180704499Y-66913348D01*
X180704499Y-67079054D01*
X180704498Y-67079054D01*
X180745423Y-67231785D01*
X180774358Y-67281900D01*
X180774359Y-67281904D01*
X180774360Y-67281904D01*
X180824479Y-67368714D01*
X180824481Y-67368717D01*
X180943349Y-67487585D01*
X180943355Y-67487590D01*
X181470425Y-68014660D01*
X181503910Y-68075983D01*
X181504361Y-68078149D01*
X181535261Y-68233491D01*
X181535264Y-68233501D01*
X181595602Y-68379172D01*
X181595609Y-68379185D01*
X181683210Y-68510288D01*
X181683213Y-68510292D01*
X181794707Y-68621786D01*
X181794711Y-68621789D01*
X181925814Y-68709390D01*
X181925827Y-68709397D01*
X182071498Y-68769735D01*
X182071503Y-68769737D01*
X182226153Y-68800499D01*
X182226156Y-68800500D01*
X182226158Y-68800500D01*
X182383844Y-68800500D01*
X182383845Y-68800499D01*
X182538497Y-68769737D01*
X182684179Y-68709394D01*
X182815289Y-68621789D01*
X182926789Y-68510289D01*
X183014394Y-68379179D01*
X183074737Y-68233497D01*
X183105500Y-68078842D01*
X183105500Y-67921158D01*
X183105500Y-67921155D01*
X183105499Y-67921153D01*
X183074738Y-67766510D01*
X183074737Y-67766503D01*
X183074735Y-67766498D01*
X183014397Y-67620827D01*
X183014390Y-67620814D01*
X182926789Y-67489711D01*
X182926786Y-67489707D01*
X182815292Y-67378213D01*
X182815288Y-67378210D01*
X182684185Y-67290609D01*
X182684172Y-67290602D01*
X182538501Y-67230264D01*
X182538489Y-67230261D01*
X182383151Y-67199362D01*
X182321240Y-67166977D01*
X182319712Y-67165477D01*
X181993833Y-66839598D01*
X181960349Y-66778276D01*
X181965333Y-66708584D01*
X181978410Y-66683032D01*
X182014394Y-66629179D01*
X182074737Y-66483497D01*
X182105500Y-66328842D01*
X182105500Y-66171158D01*
X182105500Y-66171155D01*
X182105499Y-66171153D01*
X182074738Y-66016510D01*
X182074737Y-66016503D01*
X182074735Y-66016498D01*
X182014397Y-65870827D01*
X182014390Y-65870814D01*
X181926789Y-65739711D01*
X181926786Y-65739707D01*
X181815292Y-65628213D01*
X181815288Y-65628210D01*
X181684185Y-65540609D01*
X181684172Y-65540602D01*
X181538501Y-65480264D01*
X181538489Y-65480261D01*
X181383845Y-65449500D01*
X181383842Y-65449500D01*
X181226158Y-65449500D01*
X181226155Y-65449500D01*
X181071510Y-65480261D01*
X181071498Y-65480264D01*
X180925827Y-65540602D01*
X180925814Y-65540609D01*
X180794711Y-65628210D01*
X180794707Y-65628213D01*
X180683213Y-65739707D01*
X180683210Y-65739711D01*
X180595609Y-65870814D01*
X180595602Y-65870827D01*
X180535264Y-66016498D01*
X180535261Y-66016510D01*
X180504500Y-66171153D01*
X168000500Y-66171153D01*
X168000500Y-62171153D01*
X191004500Y-62171153D01*
X191004500Y-62328846D01*
X191035261Y-62483489D01*
X191035264Y-62483501D01*
X191095602Y-62629172D01*
X191095609Y-62629185D01*
X191183210Y-62760288D01*
X191183213Y-62760292D01*
X191294707Y-62871786D01*
X191294711Y-62871789D01*
X191425814Y-62959390D01*
X191425827Y-62959397D01*
X191571498Y-63019735D01*
X191571503Y-63019737D01*
X191726153Y-63050499D01*
X191726156Y-63050500D01*
X191726158Y-63050500D01*
X191883844Y-63050500D01*
X191883845Y-63050499D01*
X192038497Y-63019737D01*
X192184179Y-62959394D01*
X192184185Y-62959390D01*
X192315875Y-62871398D01*
X192382553Y-62850520D01*
X192384766Y-62850500D01*
X200718331Y-62850500D01*
X200718347Y-62850501D01*
X200725943Y-62850501D01*
X200884054Y-62850501D01*
X200884057Y-62850501D01*
X201036785Y-62809577D01*
X201086904Y-62780639D01*
X201173716Y-62730520D01*
X201285520Y-62618716D01*
X201285520Y-62618714D01*
X201295728Y-62608507D01*
X201295729Y-62608504D01*
X202267416Y-61636819D01*
X202328739Y-61603334D01*
X202355097Y-61600500D01*
X206199903Y-61600500D01*
X206266942Y-61620185D01*
X206287584Y-61636819D01*
X206863181Y-62212416D01*
X206896666Y-62273739D01*
X206899500Y-62300097D01*
X206899500Y-63175001D01*
X206899501Y-63175019D01*
X206910000Y-63277796D01*
X206910001Y-63277799D01*
X206965185Y-63444331D01*
X206965186Y-63444334D01*
X207057288Y-63593656D01*
X207181344Y-63717712D01*
X207330666Y-63809814D01*
X207497203Y-63864999D01*
X207599991Y-63875500D01*
X208400008Y-63875499D01*
X208400016Y-63875498D01*
X208400019Y-63875498D01*
X208456302Y-63869748D01*
X208502797Y-63864999D01*
X208669334Y-63809814D01*
X208818656Y-63717712D01*
X208942712Y-63593656D01*
X208982581Y-63529016D01*
X209034525Y-63482294D01*
X209103488Y-63471071D01*
X209167570Y-63498914D01*
X209175799Y-63506434D01*
X209283397Y-63614032D01*
X209423475Y-63715804D01*
X209577744Y-63794408D01*
X209742415Y-63847914D01*
X209742414Y-63847914D01*
X209749999Y-63849115D01*
X209750000Y-63849114D01*
X209750000Y-62780330D01*
X209769745Y-62800075D01*
X209855255Y-62849444D01*
X209950630Y-62875000D01*
X210049370Y-62875000D01*
X210144745Y-62849444D01*
X210230255Y-62800075D01*
X210250000Y-62780330D01*
X210250000Y-63849115D01*
X210257584Y-63847914D01*
X210422255Y-63794408D01*
X210576524Y-63715804D01*
X210716602Y-63614032D01*
X210839032Y-63491602D01*
X210940804Y-63351524D01*
X211019408Y-63197257D01*
X211072914Y-63032584D01*
X211100000Y-62861571D01*
X211100000Y-62750000D01*
X210280330Y-62750000D01*
X210300075Y-62730255D01*
X210349444Y-62644745D01*
X210375000Y-62549370D01*
X210375000Y-62450630D01*
X210349444Y-62355255D01*
X210300075Y-62269745D01*
X210280330Y-62250000D01*
X211100000Y-62250000D01*
X211100000Y-62138428D01*
X211072914Y-61967415D01*
X211019408Y-61802742D01*
X210940804Y-61648475D01*
X210839032Y-61508397D01*
X210716602Y-61385967D01*
X210576524Y-61284195D01*
X210422257Y-61205591D01*
X210257589Y-61152087D01*
X210257581Y-61152085D01*
X210250000Y-61150884D01*
X210250000Y-62219670D01*
X210230255Y-62199925D01*
X210144745Y-62150556D01*
X210049370Y-62125000D01*
X209950630Y-62125000D01*
X209855255Y-62150556D01*
X209769745Y-62199925D01*
X209750000Y-62219670D01*
X209750000Y-61150884D01*
X209749999Y-61150884D01*
X209742418Y-61152085D01*
X209742410Y-61152087D01*
X209577742Y-61205591D01*
X209423475Y-61284195D01*
X209283401Y-61385964D01*
X209175799Y-61493566D01*
X209114476Y-61527050D01*
X209044784Y-61522066D01*
X208988851Y-61480194D01*
X208982585Y-61470988D01*
X208942712Y-61406344D01*
X208818656Y-61282288D01*
X208669334Y-61190186D01*
X208502797Y-61135001D01*
X208502795Y-61135000D01*
X208400010Y-61124500D01*
X207599998Y-61124500D01*
X207599975Y-61124502D01*
X207544052Y-61130214D01*
X207475360Y-61117443D01*
X207443772Y-61094537D01*
X206987590Y-60638355D01*
X206987588Y-60638352D01*
X206868717Y-60519481D01*
X206868716Y-60519480D01*
X206781904Y-60469360D01*
X206781904Y-60469359D01*
X206781900Y-60469358D01*
X206731785Y-60440423D01*
X206579057Y-60399499D01*
X206420943Y-60399499D01*
X206413347Y-60399499D01*
X206413331Y-60399500D01*
X202141669Y-60399500D01*
X202141653Y-60399499D01*
X202134057Y-60399499D01*
X201975943Y-60399499D01*
X201868587Y-60428265D01*
X201823210Y-60440424D01*
X201823209Y-60440425D01*
X201773096Y-60469359D01*
X201773095Y-60469360D01*
X201729689Y-60494420D01*
X201686285Y-60519479D01*
X201686282Y-60519481D01*
X201605264Y-60600500D01*
X201574480Y-60631284D01*
X201574478Y-60631286D01*
X201067537Y-61138228D01*
X200592584Y-61613181D01*
X200531261Y-61646666D01*
X200504903Y-61649500D01*
X192384766Y-61649500D01*
X192317727Y-61629815D01*
X192315875Y-61628602D01*
X192184185Y-61540609D01*
X192184172Y-61540602D01*
X192038501Y-61480264D01*
X192038489Y-61480261D01*
X191883845Y-61449500D01*
X191883842Y-61449500D01*
X191726158Y-61449500D01*
X191726155Y-61449500D01*
X191571510Y-61480261D01*
X191571498Y-61480264D01*
X191425827Y-61540602D01*
X191425814Y-61540609D01*
X191294711Y-61628210D01*
X191294707Y-61628213D01*
X191183213Y-61739707D01*
X191183210Y-61739711D01*
X191095609Y-61870814D01*
X191095602Y-61870827D01*
X191035264Y-62016498D01*
X191035261Y-62016510D01*
X191004500Y-62171153D01*
X168000500Y-62171153D01*
X168000500Y-59921153D01*
X177254500Y-59921153D01*
X177254500Y-60078846D01*
X177285261Y-60233489D01*
X177285264Y-60233501D01*
X177345602Y-60379172D01*
X177345609Y-60379185D01*
X177433210Y-60510288D01*
X177433213Y-60510292D01*
X177544707Y-60621786D01*
X177544711Y-60621789D01*
X177675814Y-60709390D01*
X177675827Y-60709397D01*
X177821498Y-60769735D01*
X177821503Y-60769737D01*
X177976153Y-60800499D01*
X177976156Y-60800500D01*
X177976158Y-60800500D01*
X178133844Y-60800500D01*
X178133845Y-60800499D01*
X178288497Y-60769737D01*
X178434179Y-60709394D01*
X178434185Y-60709390D01*
X178565875Y-60621398D01*
X178632553Y-60600520D01*
X178634766Y-60600500D01*
X197475234Y-60600500D01*
X197542273Y-60620185D01*
X197544125Y-60621398D01*
X197675814Y-60709390D01*
X197675827Y-60709397D01*
X197821498Y-60769735D01*
X197821503Y-60769737D01*
X197976153Y-60800499D01*
X197976156Y-60800500D01*
X197976158Y-60800500D01*
X198133844Y-60800500D01*
X198133845Y-60800499D01*
X198288497Y-60769737D01*
X198434179Y-60709394D01*
X198565289Y-60621789D01*
X198676789Y-60510289D01*
X198764394Y-60379179D01*
X198824737Y-60233497D01*
X198855500Y-60078842D01*
X198855500Y-59921158D01*
X198855500Y-59921155D01*
X198855499Y-59921153D01*
X198824738Y-59766510D01*
X198824737Y-59766503D01*
X198824735Y-59766498D01*
X198764397Y-59620827D01*
X198764390Y-59620814D01*
X198676789Y-59489711D01*
X198676786Y-59489707D01*
X198565292Y-59378213D01*
X198565288Y-59378210D01*
X198434185Y-59290609D01*
X198434172Y-59290602D01*
X198288501Y-59230264D01*
X198288489Y-59230261D01*
X198133845Y-59199500D01*
X198133842Y-59199500D01*
X197976158Y-59199500D01*
X197976155Y-59199500D01*
X197821510Y-59230261D01*
X197821498Y-59230264D01*
X197675827Y-59290602D01*
X197675814Y-59290609D01*
X197544125Y-59378602D01*
X197477447Y-59399480D01*
X197475234Y-59399500D01*
X178634766Y-59399500D01*
X178567727Y-59379815D01*
X178565875Y-59378602D01*
X178434185Y-59290609D01*
X178434172Y-59290602D01*
X178288501Y-59230264D01*
X178288489Y-59230261D01*
X178133845Y-59199500D01*
X178133842Y-59199500D01*
X177976158Y-59199500D01*
X177976155Y-59199500D01*
X177821510Y-59230261D01*
X177821498Y-59230264D01*
X177675827Y-59290602D01*
X177675814Y-59290609D01*
X177544711Y-59378210D01*
X177544707Y-59378213D01*
X177433213Y-59489707D01*
X177433210Y-59489711D01*
X177345609Y-59620814D01*
X177345602Y-59620827D01*
X177285264Y-59766498D01*
X177285261Y-59766510D01*
X177254500Y-59921153D01*
X168000500Y-59921153D01*
X168000500Y-53753051D01*
X168000649Y-53746967D01*
X168005528Y-53647648D01*
X170199500Y-53647648D01*
X170199500Y-53852351D01*
X170231522Y-54054534D01*
X170294781Y-54249223D01*
X170387715Y-54431613D01*
X170508028Y-54597213D01*
X170652786Y-54741971D01*
X170807749Y-54854556D01*
X170818390Y-54862287D01*
X170934607Y-54921503D01*
X171000776Y-54955218D01*
X171000778Y-54955218D01*
X171000781Y-54955220D01*
X171105137Y-54989127D01*
X171195465Y-55018477D01*
X171296557Y-55034488D01*
X171397648Y-55050500D01*
X171397649Y-55050500D01*
X171602351Y-55050500D01*
X171602352Y-55050500D01*
X171804534Y-55018477D01*
X171999219Y-54955220D01*
X172181610Y-54862287D01*
X172274590Y-54794732D01*
X172347213Y-54741971D01*
X172347215Y-54741968D01*
X172347219Y-54741966D01*
X172491966Y-54597219D01*
X172491968Y-54597215D01*
X172491971Y-54597213D01*
X172544732Y-54524590D01*
X172612287Y-54431610D01*
X172705220Y-54249219D01*
X172768477Y-54054534D01*
X172800500Y-53852352D01*
X172800500Y-53647648D01*
X209699500Y-53647648D01*
X209699500Y-53852351D01*
X209731522Y-54054534D01*
X209794781Y-54249223D01*
X209887715Y-54431613D01*
X210008028Y-54597213D01*
X210152786Y-54741971D01*
X210307749Y-54854556D01*
X210318390Y-54862287D01*
X210434607Y-54921503D01*
X210500776Y-54955218D01*
X210500778Y-54955218D01*
X210500781Y-54955220D01*
X210605137Y-54989127D01*
X210695465Y-55018477D01*
X210796557Y-55034488D01*
X210897648Y-55050500D01*
X210897649Y-55050500D01*
X211102351Y-55050500D01*
X211102352Y-55050500D01*
X211304534Y-55018477D01*
X211499219Y-54955220D01*
X211681610Y-54862287D01*
X211774590Y-54794732D01*
X211847213Y-54741971D01*
X211847215Y-54741968D01*
X211847219Y-54741966D01*
X211991966Y-54597219D01*
X211991968Y-54597215D01*
X211991971Y-54597213D01*
X212044732Y-54524590D01*
X212112287Y-54431610D01*
X212205220Y-54249219D01*
X212268477Y-54054534D01*
X212300500Y-53852352D01*
X212300500Y-53647648D01*
X212268477Y-53445466D01*
X212205220Y-53250781D01*
X212205218Y-53250778D01*
X212205218Y-53250776D01*
X212159987Y-53162007D01*
X212112287Y-53068390D01*
X212104556Y-53057749D01*
X211991971Y-52902786D01*
X211847213Y-52758028D01*
X211681613Y-52637715D01*
X211681612Y-52637714D01*
X211681610Y-52637713D01*
X211624653Y-52608691D01*
X211499223Y-52544781D01*
X211304534Y-52481522D01*
X211129995Y-52453878D01*
X211102352Y-52449500D01*
X210897648Y-52449500D01*
X210873329Y-52453351D01*
X210695465Y-52481522D01*
X210500776Y-52544781D01*
X210318386Y-52637715D01*
X210152786Y-52758028D01*
X210008028Y-52902786D01*
X209887715Y-53068386D01*
X209794781Y-53250776D01*
X209731522Y-53445465D01*
X209699500Y-53647648D01*
X172800500Y-53647648D01*
X172768477Y-53445466D01*
X172705220Y-53250781D01*
X172705218Y-53250778D01*
X172705218Y-53250776D01*
X172659987Y-53162007D01*
X172612287Y-53068390D01*
X172604556Y-53057749D01*
X172491971Y-52902786D01*
X172347213Y-52758028D01*
X172181613Y-52637715D01*
X172181612Y-52637714D01*
X172181610Y-52637713D01*
X172124653Y-52608691D01*
X171999223Y-52544781D01*
X171804534Y-52481522D01*
X171629995Y-52453878D01*
X171602352Y-52449500D01*
X171397648Y-52449500D01*
X171373329Y-52453351D01*
X171195465Y-52481522D01*
X171000776Y-52544781D01*
X170818386Y-52637715D01*
X170652786Y-52758028D01*
X170508028Y-52902786D01*
X170387715Y-53068386D01*
X170294781Y-53250776D01*
X170231522Y-53445465D01*
X170199500Y-53647648D01*
X168005528Y-53647648D01*
X168006066Y-53636692D01*
X168006066Y-53636691D01*
X168015461Y-53445466D01*
X168017052Y-53413066D01*
X168018245Y-53400962D01*
X168040523Y-53250776D01*
X168066849Y-53073296D01*
X168069218Y-53061385D01*
X168149710Y-52740043D01*
X168153240Y-52728411D01*
X168264835Y-52416525D01*
X168269476Y-52405318D01*
X168411124Y-52105828D01*
X168416840Y-52095136D01*
X168587145Y-51810998D01*
X168593888Y-51800905D01*
X168791232Y-51534818D01*
X168798935Y-51525433D01*
X169021405Y-51279975D01*
X169029975Y-51271405D01*
X169275433Y-51048935D01*
X169284818Y-51041232D01*
X169550905Y-50843888D01*
X169560998Y-50837145D01*
X169845136Y-50666840D01*
X169855828Y-50661124D01*
X170155318Y-50519476D01*
X170166525Y-50514835D01*
X170478412Y-50403239D01*
X170490043Y-50399710D01*
X170811385Y-50319218D01*
X170823296Y-50316849D01*
X171150962Y-50268244D01*
X171163068Y-50267052D01*
X171496967Y-50250648D01*
X171503051Y-50250500D01*
X171565892Y-50250500D01*
X210934108Y-50250500D01*
X210996949Y-50250500D01*
X211003032Y-50250648D01*
G37*
%TD.AperFunction*%
%TD*%
M02*
